<?xml version="1.0" encoding="utf-8" standalone="no"?>
<!DOCTYPE svg PUBLIC "-//W3C//DTD SVG 1.1//EN"
  "http://www.w3.org/Graphics/SVG/1.1/DTD/svg11.dtd">
<svg xmlns:xlink="http://www.w3.org/1999/xlink" width="607.2pt" height="338.4pt" viewBox="0 0 607.2 338.4" xmlns="http://www.w3.org/2000/svg" version="1.1">
 <metadata>
  <rdf:RDF xmlns:dc="http://purl.org/dc/elements/1.1/" xmlns:cc="http://creativecommons.org/ns#" xmlns:rdf="http://www.w3.org/1999/02/22-rdf-syntax-ns#">
   <cc:Work>
    <dc:type rdf:resource="http://purl.org/dc/dcmitype/StillImage"/>
    <dc:date>2024-11-19T22:01:01.622046</dc:date>
    <dc:format>image/svg+xml</dc:format>
    <dc:creator>
     <cc:Agent>
      <dc:title>Matplotlib v3.9.2, https://matplotlib.org/</dc:title>
     </cc:Agent>
    </dc:creator>
   </cc:Work>
  </rdf:RDF>
 </metadata>
 <defs>
  <style type="text/css">*{stroke-linejoin: round; stroke-linecap: butt}</style>
 </defs>
 <g id="figure_1">
  <g id="patch_1">
   <path d="M 0 338.4 
L 607.2 338.4 
L 607.2 0 
L 0 0 
z
" style="fill: #ffffff"/>
  </g>
  <g id="axes_1">
   <g id="patch_2">
    <path d="M 53.328125 318.021875 
L 600 318.021875 
L 600 7.2 
L 53.328125 7.2 
z
" style="fill: #ffffff"/>
   </g>
   <g id="line2d_1">
    <path d="M 207.887173 190.753589 
L 208.887173 190.785026 
L 209.887173 190.821966 
L 210.887173 190.919713 
L 211.887173 190.952234 
L 212.887173 191.025859 
L 213.887173 191.064425 
L 214.887173 191.099838 
L 215.887173 191.157478 
L 216.887173 191.227864 
L 217.887173 191.279828 
L 218.887173 191.338918 
L 219.887173 191.427239 
L 220.887173 191.473383 
L 221.887173 191.515794 
L 222.887173 191.546287 
L 223.887173 191.572332 
L 224.887173 191.593532 
L 225.887173 191.647833 
L 226.887173 191.67577 
L 227.887173 191.705494 
L 228.887173 191.730889 
L 229.887173 191.74209 
L 230.887173 191.752214 
L 231.887173 191.752009 
L 232.887173 191.742499 
L 233.887173 191.730846 
L 234.887173 191.699816 
L 235.887173 191.688649 
L 236.887173 191.658531 
L 237.887173 191.598754 
L 238.887173 191.561563 
L 239.887173 191.522466 
L 240.887173 191.480027 
L 241.887173 191.447262 
L 242.887173 191.379835 
L 243.887173 191.340709 
L 244.887173 191.298035 
L 245.887173 191.227454 
L 246.887173 191.191063 
L 247.887173 191.13266 
L 248.887173 191.021708 
L 249.887173 190.951049 
L 250.887173 190.838109 
L 251.887173 190.792337 
L 252.887173 190.731053 
L 253.887173 190.682554 
L 254.887173 190.601731 
L 255.887173 190.483212 
L 256.887173 190.413002 
L 257.887173 190.329739 
L 258.887173 190.296598 
L 259.887173 190.24536 
L 260.887173 190.176962 
L 261.887173 190.110746 
L 262.887173 190.033829 
L 263.887173 190.006514 
L 264.887173 189.980036 
L 265.887173 189.957386 
L 266.887173 189.937854 
L 267.887173 189.91146 
L 268.887173 189.86169 
L 269.887173 189.826616 
L 270.887173 189.790751 
L 271.887173 189.775384 
L 272.887173 189.759614 
L 273.887173 189.756202 
L 274.887173 189.753784 
L 275.887173 189.75427 
L 276.887173 189.7562 
L 277.887173 189.769456 
L 278.887173 189.777847 
L 279.887173 189.799384 
L 280.887173 189.822416 
L 281.887173 189.83965 
L 282.887173 189.858112 
L 283.887173 189.878565 
L 284.887173 189.895165 
L 285.887173 189.957943 
L 286.887173 190.033208 
L 287.887173 190.065847 
L 288.887173 190.133411 
L 289.887173 190.187458 
L 290.887173 190.221162 
L 291.887173 190.311288 
L 292.887173 190.339823 
L 293.887173 190.37131 
L 294.887173 190.40232 
L 295.887173 190.457128 
L 296.887173 190.521716 
L 297.887173 190.559911 
L 298.887173 190.655845 
L 299.887173 190.705103 
L 300.887173 190.749173 
L 301.887173 190.789296 
L 302.887173 190.897663 
L 303.887173 190.939292 
L 304.887173 191.001433 
L 305.887173 191.071395 
L 306.887173 191.1759 
L 307.887173 191.212887 
L 308.887173 191.258765 
L 309.887173 191.327259 
L 310.887173 191.376005 
L 311.887173 191.453602 
L 312.887173 191.484143 
L 313.887173 191.553658 
L 314.887173 191.577631 
L 315.887173 191.606252 
L 316.887173 191.648045 
L 317.887173 191.669621 
L 318.887173 191.683569 
L 319.887173 191.710292 
L 320.887173 191.719601 
L 321.887173 191.732048 
L 322.887173 191.743103 
L 323.887173 191.748768 
L 324.887173 191.753531 
L 325.887173 191.747984 
L 326.887173 191.734696 
L 327.887173 191.727178 
L 328.887173 191.702393 
L 329.887173 191.678825 
L 330.887173 191.642644 
L 331.887173 191.616682 
L 332.887173 191.594361 
L 333.887173 191.525601 
L 334.887173 191.451066 
L 335.887173 191.357086 
L 336.887173 191.306034 
L 337.887173 191.2521 
L 338.887173 191.21685 
L 339.887173 191.110762 
L 340.887173 191.058497 
L 341.887173 191.021591 
L 342.887173 190.99056 
L 343.887173 190.929404 
L 344.887173 190.861984 
L 345.887173 190.813078 
L 346.887173 190.747886 
L 347.887173 190.709699 
L 348.887173 190.667703 
L 349.887173 190.625685 
L 350.887173 190.566169 
L 351.887173 190.453009 
L 352.887173 190.400758 
L 353.887173 190.361341 
L 354.887173 190.314239 
L 355.887173 190.25746 
L 356.887173 190.224797 
L 357.887173 190.188619 
L 358.887173 190.156528 
L 359.887173 190.122248 
L 360.887173 190.063871 
L 361.887173 190.018686 
L 362.887173 189.989062 
L 363.887173 189.938676 
L 364.887173 189.913478 
L 365.887173 189.892427 
L 366.887173 189.857459 
L 367.887173 189.833169 
L 368.887173 189.819102 
L 369.887173 189.800161 
L 370.887173 189.784499 
L 371.887173 189.771947 
L 372.887173 189.766112 
L 373.887173 189.759229 
L 374.887173 189.754055 
L 375.887173 189.755838 
L 376.887173 189.758564 
L 377.887173 189.769717 
L 378.887173 189.797952 
L 379.887173 189.84174 
L 380.887173 189.862429 
L 381.887173 189.903403 
L 382.887173 189.943478 
L 383.887173 189.962588 
L 384.887173 189.985096 
L 385.887173 190.051748 
L 386.887173 190.101457 
L 387.887173 190.175164 
L 388.887173 190.206477 
L 389.887173 190.2831 
L 390.887173 190.321398 
L 391.887173 190.395514 
L 392.887173 190.499573 
L 393.887173 190.569403 
L 394.887173 190.674637 
L 395.887173 190.729652 
L 396.887173 190.853127 
L 397.887173 190.923686 
L 398.887173 191.039526 
L 399.887173 191.089706 
L 400.887173 191.125311 
L 401.887173 191.216717 
L 402.887173 191.270225 
L 403.887173 191.358133 
L 404.887173 191.427318 
L 405.887173 191.474083 
L 406.887173 191.546126 
L 407.887173 191.596268 
L 408.887173 191.613658 
L 409.887173 191.640662 
L 410.887173 191.660089 
L 411.887173 191.679427 
L 412.887173 191.717675 
L 413.887173 191.734109 
L 414.887173 191.742477 
L 415.887173 191.746796 
L 416.887173 191.753352 
L 417.887173 191.750805 
L 418.887173 191.745347 
L 419.887173 191.728918 
L 420.887173 191.696984 
L 421.887173 191.659003 
L 422.887173 191.624199 
L 423.887173 191.561128 
L 424.887173 191.539701 
L 425.887173 191.489083 
L 426.887173 191.464125 
L 427.887173 191.408492 
L 428.887173 191.377263 
L 429.887173 191.327119 
L 430.887173 191.294626 
L 431.887173 191.214213 
L 432.887173 191.145287 
L 433.887173 191.02959 
L 434.887173 190.954111 
L 435.887173 190.838587 
L 436.887173 190.759102 
L 437.887173 190.650661 
L 438.887173 190.611294 
L 439.887173 190.508426 
L 440.887173 190.408628 
L 441.887173 190.363131 
L 442.887173 190.328808 
L 443.887173 190.276853 
L 445.440952 190.237206 
" clip-path="url(#pc108df0704)" style="fill: none; stroke: #ff7f0e; stroke-opacity: 0.5; stroke-width: 0.2; stroke-linecap: square"/>
   </g>
   <g id="line2d_2">
    <path d="M 207.887173 81.681948 
L 208.887173 81.713385 
L 209.887173 81.750325 
L 210.887173 81.848072 
L 211.887173 81.880593 
L 212.887173 81.954218 
L 213.887173 81.992784 
L 214.887173 82.028197 
L 215.887173 82.085837 
L 216.887173 82.156223 
L 217.887173 82.208187 
L 218.887173 82.267277 
L 219.887173 82.355598 
L 220.887173 82.401742 
L 221.887173 82.444153 
L 222.887173 82.474646 
L 223.887173 82.500691 
L 224.887173 82.521891 
L 225.887173 82.576192 
L 226.887173 82.604129 
L 227.887173 82.633853 
L 228.887173 82.659248 
L 229.887173 82.670449 
L 230.887173 82.680573 
L 231.887173 82.680368 
L 232.887173 82.670858 
L 233.887173 82.659205 
L 234.887173 82.628176 
L 235.887173 82.617008 
L 236.887173 82.58689 
L 237.887173 82.527113 
L 238.887173 82.489922 
L 239.887173 82.450826 
L 240.887173 82.408386 
L 241.887173 82.375621 
L 242.887173 82.308194 
L 243.887173 82.269068 
L 244.887173 82.226394 
L 245.887173 82.155813 
L 246.887173 82.119422 
L 247.887173 82.061019 
L 248.887173 81.950067 
L 249.887173 81.879408 
L 250.887173 81.766468 
L 251.887173 81.720696 
L 252.887173 81.659412 
L 253.887173 81.610913 
L 254.887173 81.53009 
L 255.887173 81.411571 
L 256.887173 81.341361 
L 257.887173 81.258098 
L 258.887173 81.224957 
L 259.887173 81.173719 
L 260.887173 81.105321 
L 261.887173 81.039105 
L 262.887173 80.962188 
L 263.887173 80.934873 
L 264.887173 80.908395 
L 265.887173 80.885745 
L 266.887173 80.866213 
L 267.887173 80.83982 
L 268.887173 80.790049 
L 269.887173 80.754976 
L 270.887173 80.71911 
L 271.887173 80.703743 
L 272.887173 80.687973 
L 273.887173 80.684561 
L 274.887173 80.682143 
L 275.887173 80.682629 
L 276.887173 80.684559 
L 277.887173 80.697816 
L 278.887173 80.706206 
L 279.887173 80.727743 
L 280.887173 80.750775 
L 281.887173 80.768009 
L 282.887173 80.786471 
L 283.887173 80.806924 
L 284.887173 80.823524 
L 285.887173 80.886302 
L 286.887173 80.961567 
L 287.887173 80.994207 
L 288.887173 81.06177 
L 289.887173 81.115817 
L 290.887173 81.149522 
L 291.887173 81.239648 
L 292.887173 81.268182 
L 293.887173 81.299669 
L 294.887173 81.330679 
L 295.887173 81.385487 
L 296.887173 81.450075 
L 297.887173 81.48827 
L 298.887173 81.584204 
L 299.887173 81.633462 
L 300.887173 81.677532 
L 301.887173 81.717655 
L 302.887173 81.826022 
L 303.887173 81.867651 
L 304.887173 81.929792 
L 305.887173 81.999754 
L 306.887173 82.104259 
L 307.887173 82.141246 
L 308.887173 82.187124 
L 309.887173 82.255618 
L 310.887173 82.304364 
L 311.887173 82.381962 
L 312.887173 82.412502 
L 313.887173 82.482017 
L 314.887173 82.50599 
L 315.887173 82.534611 
L 316.887173 82.576404 
L 317.887173 82.59798 
L 318.887173 82.611928 
L 319.887173 82.638651 
L 320.887173 82.647961 
L 321.887173 82.660407 
L 322.887173 82.671462 
L 323.887173 82.677127 
L 324.887173 82.68189 
L 325.887173 82.676343 
L 326.887173 82.663055 
L 327.887173 82.655537 
L 328.887173 82.630752 
L 329.887173 82.607184 
L 330.887173 82.571003 
L 331.887173 82.545041 
L 332.887173 82.52272 
L 333.887173 82.45396 
L 334.887173 82.379425 
L 335.887173 82.285445 
L 336.887173 82.234393 
L 337.887173 82.180459 
L 338.887173 82.145209 
L 339.887173 82.039121 
L 340.887173 81.986856 
L 341.887173 81.94995 
L 342.887173 81.918919 
L 343.887173 81.857763 
L 344.887173 81.790343 
L 345.887173 81.741438 
L 346.887173 81.676245 
L 347.887173 81.638058 
L 348.887173 81.596062 
L 349.887173 81.554044 
L 350.887173 81.494528 
L 351.887173 81.381368 
L 352.887173 81.329117 
L 353.887173 81.2897 
L 354.887173 81.242598 
L 355.887173 81.185819 
L 356.887173 81.153156 
L 357.887173 81.116978 
L 358.887173 81.084887 
L 359.887173 81.050607 
L 360.887173 80.99223 
L 361.887173 80.947045 
L 362.887173 80.917421 
L 363.887173 80.867035 
L 364.887173 80.841837 
L 365.887173 80.820786 
L 366.887173 80.785818 
L 367.887173 80.761528 
L 368.887173 80.747461 
L 369.887173 80.72852 
L 370.887173 80.712858 
L 371.887173 80.700306 
L 372.887173 80.694471 
L 373.887173 80.687588 
L 374.887173 80.682414 
L 375.887173 80.684197 
L 376.887173 80.686923 
L 377.887173 80.698076 
L 378.887173 80.726312 
L 379.887173 80.770099 
L 380.887173 80.790788 
L 381.887173 80.831762 
L 382.887173 80.871837 
L 383.887173 80.890947 
L 384.887173 80.913455 
L 385.887173 80.980107 
L 386.887173 81.029816 
L 387.887173 81.103523 
L 388.887173 81.134837 
L 389.887173 81.211459 
L 390.887173 81.249757 
L 391.887173 81.323873 
L 392.887173 81.427932 
L 393.887173 81.497762 
L 394.887173 81.602996 
L 395.887173 81.658011 
L 396.887173 81.781486 
L 397.887173 81.852046 
L 398.887173 81.967885 
L 399.887173 82.018065 
L 400.887173 82.05367 
L 401.887173 82.145076 
L 402.887173 82.198584 
L 403.887173 82.286492 
L 404.887173 82.355677 
L 405.887173 82.402442 
L 406.887173 82.474485 
L 407.887173 82.524627 
L 408.887173 82.542017 
L 409.887173 82.569021 
L 410.887173 82.588448 
L 411.887173 82.607786 
L 412.887173 82.646034 
L 413.887173 82.662468 
L 414.887173 82.670837 
L 415.887173 82.675155 
L 416.887173 82.681711 
L 417.887173 82.679164 
L 418.887173 82.673706 
L 419.887173 82.657277 
L 420.887173 82.625343 
L 421.887173 82.587362 
L 422.887173 82.552558 
L 423.887173 82.489487 
L 424.887173 82.46806 
L 425.887173 82.417442 
L 426.887173 82.392484 
L 427.887173 82.336851 
L 428.887173 82.305622 
L 429.887173 82.255478 
L 430.887173 82.222985 
L 431.887173 82.142572 
L 432.887173 82.073647 
L 433.887173 81.957949 
L 434.887173 81.88247 
L 435.887173 81.766946 
L 436.887173 81.687461 
L 437.887173 81.57902 
L 438.887173 81.539653 
L 439.887173 81.436785 
L 440.887173 81.336987 
L 441.887173 81.29149 
L 442.887173 81.257167 
L 443.887173 81.205212 
L 445.440952 81.165565 
" clip-path="url(#pc108df0704)" style="fill: none; stroke: #ff7f0e; stroke-opacity: 0.5; stroke-width: 0.2; stroke-linecap: square"/>
   </g>
   <g id="line2d_3">
    <path d="M 207.887173 282.175506 
L 208.887173 282.206943 
L 209.887173 282.243883 
L 210.887173 282.341629 
L 211.887173 282.374151 
L 212.887173 282.447776 
L 213.887173 282.486341 
L 214.887173 282.521754 
L 215.887173 282.579394 
L 216.887173 282.649781 
L 217.887173 282.701745 
L 218.887173 282.760835 
L 219.887173 282.849156 
L 220.887173 282.8953 
L 221.887173 282.937711 
L 222.887173 282.968203 
L 223.887173 282.994248 
L 224.887173 283.015448 
L 225.887173 283.06975 
L 226.887173 283.097687 
L 227.887173 283.127411 
L 228.887173 283.152806 
L 229.887173 283.164006 
L 230.887173 283.17413 
L 231.887173 283.173926 
L 232.887173 283.164416 
L 233.887173 283.152763 
L 234.887173 283.121733 
L 235.887173 283.110565 
L 236.887173 283.080448 
L 237.887173 283.020671 
L 238.887173 282.983479 
L 239.887173 282.944383 
L 240.887173 282.901944 
L 241.887173 282.869178 
L 242.887173 282.801752 
L 243.887173 282.762626 
L 244.887173 282.719952 
L 245.887173 282.649371 
L 246.887173 282.61298 
L 247.887173 282.554577 
L 248.887173 282.443624 
L 249.887173 282.372966 
L 250.887173 282.260026 
L 251.887173 282.214253 
L 252.887173 282.15297 
L 253.887173 282.104471 
L 254.887173 282.023648 
L 255.887173 281.905129 
L 256.887173 281.834919 
L 257.887173 281.751656 
L 258.887173 281.718514 
L 259.887173 281.667277 
L 260.887173 281.598879 
L 261.887173 281.532663 
L 262.887173 281.455746 
L 263.887173 281.428431 
L 264.887173 281.401953 
L 265.887173 281.379302 
L 266.887173 281.359771 
L 267.887173 281.333377 
L 268.887173 281.283606 
L 269.887173 281.248533 
L 270.887173 281.212668 
L 271.887173 281.1973 
L 272.887173 281.181531 
L 273.887173 281.178119 
L 274.887173 281.175701 
L 275.887173 281.176187 
L 276.887173 281.178116 
L 277.887173 281.191373 
L 278.887173 281.199764 
L 279.887173 281.221301 
L 280.887173 281.244333 
L 281.887173 281.261566 
L 282.887173 281.280029 
L 283.887173 281.300481 
L 284.887173 281.317081 
L 285.887173 281.37986 
L 286.887173 281.455125 
L 287.887173 281.487764 
L 288.887173 281.555328 
L 289.887173 281.609375 
L 290.887173 281.643079 
L 291.887173 281.733205 
L 292.887173 281.76174 
L 293.887173 281.793226 
L 294.887173 281.824237 
L 295.887173 281.879045 
L 296.887173 281.943633 
L 297.887173 281.981828 
L 298.887173 282.077762 
L 299.887173 282.12702 
L 300.887173 282.171089 
L 301.887173 282.211213 
L 302.887173 282.31958 
L 303.887173 282.361208 
L 304.887173 282.42335 
L 305.887173 282.493312 
L 306.887173 282.597816 
L 307.887173 282.634804 
L 308.887173 282.680681 
L 309.887173 282.749176 
L 310.887173 282.797922 
L 311.887173 282.875519 
L 312.887173 282.90606 
L 313.887173 282.975574 
L 314.887173 282.999547 
L 315.887173 283.028169 
L 316.887173 283.069962 
L 317.887173 283.091538 
L 318.887173 283.105486 
L 319.887173 283.132208 
L 320.887173 283.141518 
L 321.887173 283.153965 
L 322.887173 283.16502 
L 323.887173 283.170684 
L 324.887173 283.175448 
L 325.887173 283.169901 
L 326.887173 283.156612 
L 327.887173 283.149095 
L 328.887173 283.12431 
L 329.887173 283.100741 
L 330.887173 283.064561 
L 331.887173 283.038599 
L 332.887173 283.016277 
L 333.887173 282.947517 
L 334.887173 282.872982 
L 335.887173 282.779003 
L 336.887173 282.727951 
L 337.887173 282.674017 
L 338.887173 282.638766 
L 339.887173 282.532678 
L 340.887173 282.480414 
L 341.887173 282.443507 
L 342.887173 282.412477 
L 343.887173 282.351321 
L 344.887173 282.283901 
L 345.887173 282.234995 
L 346.887173 282.169803 
L 347.887173 282.131615 
L 348.887173 282.08962 
L 349.887173 282.047602 
L 350.887173 281.988086 
L 351.887173 281.874926 
L 352.887173 281.822675 
L 353.887173 281.783257 
L 354.887173 281.736156 
L 355.887173 281.679377 
L 356.887173 281.646713 
L 357.887173 281.610535 
L 358.887173 281.578445 
L 359.887173 281.544165 
L 360.887173 281.485787 
L 361.887173 281.440602 
L 362.887173 281.410978 
L 363.887173 281.360593 
L 364.887173 281.335395 
L 365.887173 281.314344 
L 366.887173 281.279376 
L 367.887173 281.255086 
L 368.887173 281.241019 
L 369.887173 281.222077 
L 370.887173 281.206416 
L 371.887173 281.193864 
L 372.887173 281.188028 
L 373.887173 281.181146 
L 374.887173 281.175972 
L 375.887173 281.177755 
L 376.887173 281.18048 
L 377.887173 281.191634 
L 378.887173 281.219869 
L 379.887173 281.263657 
L 380.887173 281.284346 
L 381.887173 281.325319 
L 382.887173 281.365394 
L 383.887173 281.384504 
L 384.887173 281.407013 
L 385.887173 281.473664 
L 386.887173 281.523374 
L 387.887173 281.597081 
L 388.887173 281.628394 
L 389.887173 281.705016 
L 390.887173 281.743314 
L 391.887173 281.817431 
L 392.887173 281.921489 
L 393.887173 281.99132 
L 394.887173 282.096554 
L 395.887173 282.151569 
L 396.887173 282.275044 
L 397.887173 282.345603 
L 398.887173 282.461443 
L 399.887173 282.511623 
L 400.887173 282.547227 
L 401.887173 282.638634 
L 402.887173 282.692142 
L 403.887173 282.78005 
L 404.887173 282.849235 
L 405.887173 282.895999 
L 406.887173 282.968043 
L 407.887173 283.018185 
L 408.887173 283.035575 
L 409.887173 283.062578 
L 410.887173 283.082005 
L 411.887173 283.101344 
L 412.887173 283.139592 
L 413.887173 283.156025 
L 414.887173 283.164394 
L 415.887173 283.168713 
L 416.887173 283.175268 
L 417.887173 283.172722 
L 418.887173 283.167263 
L 419.887173 283.150835 
L 420.887173 283.1189 
L 421.887173 283.08092 
L 422.887173 283.046116 
L 423.887173 282.983044 
L 424.887173 282.961617 
L 425.887173 282.911 
L 426.887173 282.886042 
L 427.887173 282.830409 
L 428.887173 282.79918 
L 429.887173 282.749035 
L 430.887173 282.716542 
L 431.887173 282.63613 
L 432.887173 282.567204 
L 433.887173 282.451507 
L 434.887173 282.376028 
L 435.887173 282.260503 
L 436.887173 282.181019 
L 437.887173 282.072578 
L 438.887173 282.03321 
L 439.887173 281.930343 
L 440.887173 281.830544 
L 441.887173 281.785047 
L 442.887173 281.750725 
L 443.887173 281.698769 
L 445.440952 281.659122 
" clip-path="url(#pc108df0704)" style="fill: none; stroke: #ff7f0e; stroke-opacity: 0.5; stroke-width: 0.2; stroke-linecap: square"/>
   </g>
   <g id="line2d_4">
    <path d="M 207.887173 82.133075 
L 208.887173 82.164512 
L 209.887173 82.201452 
L 210.887173 82.299198 
L 211.887173 82.33172 
L 212.887173 82.405345 
L 213.887173 82.44391 
L 214.887173 82.479323 
L 215.887173 82.536963 
L 216.887173 82.60735 
L 217.887173 82.659314 
L 218.887173 82.718404 
L 219.887173 82.806725 
L 220.887173 82.852869 
L 221.887173 82.89528 
L 222.887173 82.925772 
L 223.887173 82.951817 
L 224.887173 82.973017 
L 225.887173 83.027319 
L 226.887173 83.055256 
L 227.887173 83.08498 
L 228.887173 83.110375 
L 229.887173 83.121575 
L 230.887173 83.131699 
L 231.887173 83.131495 
L 232.887173 83.121985 
L 233.887173 83.110332 
L 234.887173 83.079302 
L 235.887173 83.068134 
L 236.887173 83.038017 
L 237.887173 82.97824 
L 238.887173 82.941048 
L 239.887173 82.901952 
L 240.887173 82.859513 
L 241.887173 82.826747 
L 242.887173 82.759321 
L 243.887173 82.720195 
L 244.887173 82.677521 
L 245.887173 82.60694 
L 246.887173 82.570549 
L 247.887173 82.512146 
L 248.887173 82.401193 
L 249.887173 82.330535 
L 250.887173 82.217595 
L 251.887173 82.171822 
L 252.887173 82.110539 
L 253.887173 82.06204 
L 254.887173 81.981217 
L 255.887173 81.862698 
L 256.887173 81.792488 
L 257.887173 81.709225 
L 258.887173 81.676083 
L 259.887173 81.624846 
L 260.887173 81.556448 
L 261.887173 81.490232 
L 262.887173 81.413315 
L 263.887173 81.386 
L 264.887173 81.359522 
L 265.887173 81.336871 
L 266.887173 81.31734 
L 267.887173 81.290946 
L 268.887173 81.241175 
L 269.887173 81.206102 
L 270.887173 81.170237 
L 271.887173 81.154869 
L 272.887173 81.1391 
L 273.887173 81.135688 
L 274.887173 81.13327 
L 275.887173 81.133756 
L 276.887173 81.135685 
L 277.887173 81.148942 
L 278.887173 81.157333 
L 279.887173 81.17887 
L 280.887173 81.201902 
L 281.887173 81.219135 
L 282.887173 81.237598 
L 283.887173 81.25805 
L 284.887173 81.27465 
L 285.887173 81.337429 
L 286.887173 81.412694 
L 287.887173 81.445333 
L 288.887173 81.512897 
L 289.887173 81.566944 
L 290.887173 81.600648 
L 291.887173 81.690774 
L 292.887173 81.719309 
L 293.887173 81.750795 
L 294.887173 81.781806 
L 295.887173 81.836614 
L 296.887173 81.901202 
L 297.887173 81.939397 
L 298.887173 82.035331 
L 299.887173 82.084589 
L 300.887173 82.128658 
L 301.887173 82.168782 
L 302.887173 82.277149 
L 303.887173 82.318777 
L 304.887173 82.380919 
L 305.887173 82.450881 
L 306.887173 82.555385 
L 307.887173 82.592373 
L 308.887173 82.63825 
L 309.887173 82.706745 
L 310.887173 82.755491 
L 311.887173 82.833088 
L 312.887173 82.863629 
L 313.887173 82.933143 
L 314.887173 82.957116 
L 315.887173 82.985738 
L 316.887173 83.027531 
L 317.887173 83.049107 
L 318.887173 83.063055 
L 319.887173 83.089777 
L 320.887173 83.099087 
L 321.887173 83.111534 
L 322.887173 83.122589 
L 323.887173 83.128253 
L 324.887173 83.133017 
L 325.887173 83.12747 
L 326.887173 83.114181 
L 327.887173 83.106664 
L 328.887173 83.081879 
L 329.887173 83.05831 
L 330.887173 83.02213 
L 331.887173 82.996168 
L 332.887173 82.973846 
L 333.887173 82.905086 
L 334.887173 82.830551 
L 335.887173 82.736572 
L 336.887173 82.68552 
L 337.887173 82.631586 
L 338.887173 82.596335 
L 339.887173 82.490247 
L 340.887173 82.437983 
L 341.887173 82.401076 
L 342.887173 82.370046 
L 343.887173 82.30889 
L 344.887173 82.24147 
L 345.887173 82.192564 
L 346.887173 82.127372 
L 347.887173 82.089184 
L 348.887173 82.047189 
L 349.887173 82.005171 
L 350.887173 81.945655 
L 351.887173 81.832495 
L 352.887173 81.780244 
L 353.887173 81.740826 
L 354.887173 81.693725 
L 355.887173 81.636946 
L 356.887173 81.604282 
L 357.887173 81.568104 
L 358.887173 81.536014 
L 359.887173 81.501734 
L 360.887173 81.443356 
L 361.887173 81.398171 
L 362.887173 81.368547 
L 363.887173 81.318162 
L 364.887173 81.292964 
L 365.887173 81.271913 
L 366.887173 81.236945 
L 367.887173 81.212655 
L 368.887173 81.198588 
L 369.887173 81.179646 
L 370.887173 81.163985 
L 371.887173 81.151433 
L 372.887173 81.145597 
L 373.887173 81.138715 
L 374.887173 81.133541 
L 375.887173 81.135324 
L 376.887173 81.138049 
L 377.887173 81.149203 
L 378.887173 81.177438 
L 379.887173 81.221226 
L 380.887173 81.241915 
L 381.887173 81.282888 
L 382.887173 81.322963 
L 383.887173 81.342073 
L 384.887173 81.364582 
L 385.887173 81.431233 
L 386.887173 81.480943 
L 387.887173 81.55465 
L 388.887173 81.585963 
L 389.887173 81.662585 
L 390.887173 81.700883 
L 391.887173 81.775 
L 392.887173 81.879058 
L 393.887173 81.948889 
L 394.887173 82.054123 
L 395.887173 82.109138 
L 396.887173 82.232613 
L 397.887173 82.303172 
L 398.887173 82.419012 
L 399.887173 82.469192 
L 400.887173 82.504796 
L 401.887173 82.596203 
L 402.887173 82.649711 
L 403.887173 82.737619 
L 404.887173 82.806804 
L 405.887173 82.853568 
L 406.887173 82.925612 
L 407.887173 82.975754 
L 408.887173 82.993144 
L 409.887173 83.020147 
L 410.887173 83.039574 
L 411.887173 83.058913 
L 412.887173 83.097161 
L 413.887173 83.113594 
L 414.887173 83.121963 
L 415.887173 83.126282 
L 416.887173 83.132837 
L 417.887173 83.130291 
L 418.887173 83.124832 
L 419.887173 83.108404 
L 420.887173 83.076469 
L 421.887173 83.038489 
L 422.887173 83.003685 
L 423.887173 82.940613 
L 424.887173 82.919186 
L 425.887173 82.868569 
L 426.887173 82.843611 
L 427.887173 82.787978 
L 428.887173 82.756749 
L 429.887173 82.706604 
L 430.887173 82.674111 
L 431.887173 82.593699 
L 432.887173 82.524773 
L 433.887173 82.409076 
L 434.887173 82.333597 
L 435.887173 82.218072 
L 436.887173 82.138588 
L 437.887173 82.030147 
L 438.887173 81.990779 
L 439.887173 81.887912 
L 440.887173 81.788113 
L 441.887173 81.742616 
L 442.887173 81.708294 
L 443.887173 81.656338 
L 445.440952 81.616691 
" clip-path="url(#pc108df0704)" style="fill: none; stroke: #ff7f0e; stroke-opacity: 0.5; stroke-width: 0.2; stroke-linecap: square"/>
   </g>
   <g id="line2d_5">
    <path d="M 207.887173 240.482646 
L 208.887173 240.514082 
L 209.887173 240.551022 
L 210.887173 240.648769 
L 211.887173 240.681291 
L 212.887173 240.754915 
L 213.887173 240.793481 
L 214.887173 240.828894 
L 215.887173 240.886534 
L 216.887173 240.95692 
L 217.887173 241.008884 
L 218.887173 241.067974 
L 219.887173 241.156295 
L 220.887173 241.202439 
L 221.887173 241.24485 
L 222.887173 241.275343 
L 223.887173 241.301388 
L 224.887173 241.322588 
L 225.887173 241.376889 
L 226.887173 241.404827 
L 227.887173 241.434551 
L 228.887173 241.459945 
L 229.887173 241.471146 
L 230.887173 241.48127 
L 231.887173 241.481065 
L 232.887173 241.471556 
L 233.887173 241.459902 
L 234.887173 241.428873 
L 235.887173 241.417705 
L 236.887173 241.387587 
L 237.887173 241.32781 
L 238.887173 241.290619 
L 239.887173 241.251523 
L 240.887173 241.209083 
L 241.887173 241.176318 
L 242.887173 241.108892 
L 243.887173 241.069766 
L 244.887173 241.027091 
L 245.887173 240.956511 
L 246.887173 240.92012 
L 247.887173 240.861716 
L 248.887173 240.750764 
L 249.887173 240.680106 
L 250.887173 240.567166 
L 251.887173 240.521393 
L 252.887173 240.46011 
L 253.887173 240.41161 
L 254.887173 240.330788 
L 255.887173 240.212269 
L 256.887173 240.142058 
L 257.887173 240.058796 
L 258.887173 240.025654 
L 259.887173 239.974417 
L 260.887173 239.906018 
L 261.887173 239.839803 
L 262.887173 239.762886 
L 263.887173 239.73557 
L 264.887173 239.709093 
L 265.887173 239.686442 
L 266.887173 239.666911 
L 267.887173 239.640517 
L 268.887173 239.590746 
L 269.887173 239.555673 
L 270.887173 239.519807 
L 271.887173 239.50444 
L 272.887173 239.488671 
L 273.887173 239.485258 
L 274.887173 239.48284 
L 275.887173 239.483327 
L 276.887173 239.485256 
L 277.887173 239.498513 
L 278.887173 239.506903 
L 279.887173 239.52844 
L 280.887173 239.551472 
L 281.887173 239.568706 
L 282.887173 239.587168 
L 283.887173 239.607621 
L 284.887173 239.624221 
L 285.887173 239.687 
L 286.887173 239.762265 
L 287.887173 239.794904 
L 288.887173 239.862467 
L 289.887173 239.916514 
L 290.887173 239.950219 
L 291.887173 240.040345 
L 292.887173 240.06888 
L 293.887173 240.100366 
L 294.887173 240.131377 
L 295.887173 240.186185 
L 296.887173 240.250772 
L 297.887173 240.288967 
L 298.887173 240.384902 
L 299.887173 240.43416 
L 300.887173 240.478229 
L 301.887173 240.518353 
L 302.887173 240.62672 
L 303.887173 240.668348 
L 304.887173 240.730489 
L 305.887173 240.800452 
L 306.887173 240.904956 
L 307.887173 240.941944 
L 308.887173 240.987821 
L 309.887173 241.056315 
L 310.887173 241.105061 
L 311.887173 241.182659 
L 312.887173 241.213199 
L 313.887173 241.282714 
L 314.887173 241.306687 
L 315.887173 241.335308 
L 316.887173 241.377102 
L 317.887173 241.398677 
L 318.887173 241.412625 
L 319.887173 241.439348 
L 320.887173 241.448658 
L 321.887173 241.461104 
L 322.887173 241.472159 
L 323.887173 241.477824 
L 324.887173 241.482588 
L 325.887173 241.47704 
L 326.887173 241.463752 
L 327.887173 241.456234 
L 328.887173 241.43145 
L 329.887173 241.407881 
L 330.887173 241.3717 
L 331.887173 241.345738 
L 332.887173 241.323417 
L 333.887173 241.254657 
L 334.887173 241.180122 
L 335.887173 241.086142 
L 336.887173 241.03509 
L 337.887173 240.981157 
L 338.887173 240.945906 
L 339.887173 240.839818 
L 340.887173 240.787554 
L 341.887173 240.750647 
L 342.887173 240.719616 
L 343.887173 240.658461 
L 344.887173 240.591041 
L 345.887173 240.542135 
L 346.887173 240.476942 
L 347.887173 240.438755 
L 348.887173 240.396759 
L 349.887173 240.354742 
L 350.887173 240.295225 
L 351.887173 240.182065 
L 352.887173 240.129815 
L 353.887173 240.090397 
L 354.887173 240.043295 
L 355.887173 239.986516 
L 356.887173 239.953853 
L 357.887173 239.917675 
L 358.887173 239.885584 
L 359.887173 239.851305 
L 360.887173 239.792927 
L 361.887173 239.747742 
L 362.887173 239.718118 
L 363.887173 239.667732 
L 364.887173 239.642534 
L 365.887173 239.621484 
L 366.887173 239.586516 
L 367.887173 239.562226 
L 368.887173 239.548159 
L 369.887173 239.529217 
L 370.887173 239.513555 
L 371.887173 239.501004 
L 372.887173 239.495168 
L 373.887173 239.488285 
L 374.887173 239.483112 
L 375.887173 239.484894 
L 376.887173 239.48762 
L 377.887173 239.498773 
L 378.887173 239.527009 
L 379.887173 239.570796 
L 380.887173 239.591486 
L 381.887173 239.632459 
L 382.887173 239.672534 
L 383.887173 239.691644 
L 384.887173 239.714152 
L 385.887173 239.780804 
L 386.887173 239.830513 
L 387.887173 239.90422 
L 388.887173 239.935534 
L 389.887173 240.012156 
L 390.887173 240.050454 
L 391.887173 240.124571 
L 392.887173 240.228629 
L 393.887173 240.29846 
L 394.887173 240.403693 
L 395.887173 240.458709 
L 396.887173 240.582184 
L 397.887173 240.652743 
L 398.887173 240.768582 
L 399.887173 240.818763 
L 400.887173 240.854367 
L 401.887173 240.945774 
L 402.887173 240.999281 
L 403.887173 241.08719 
L 404.887173 241.156375 
L 405.887173 241.203139 
L 406.887173 241.275183 
L 407.887173 241.325325 
L 408.887173 241.342714 
L 409.887173 241.369718 
L 410.887173 241.389145 
L 411.887173 241.408483 
L 412.887173 241.446731 
L 413.887173 241.463165 
L 414.887173 241.471534 
L 415.887173 241.475853 
L 416.887173 241.482408 
L 417.887173 241.479861 
L 418.887173 241.474403 
L 419.887173 241.457975 
L 420.887173 241.42604 
L 421.887173 241.38806 
L 422.887173 241.353255 
L 423.887173 241.290184 
L 424.887173 241.268757 
L 425.887173 241.218139 
L 426.887173 241.193181 
L 427.887173 241.137548 
L 428.887173 241.106319 
L 429.887173 241.056175 
L 430.887173 241.023682 
L 431.887173 240.943269 
L 432.887173 240.874344 
L 433.887173 240.758646 
L 434.887173 240.683168 
L 435.887173 240.567643 
L 436.887173 240.488158 
L 437.887173 240.379717 
L 438.887173 240.34035 
L 439.887173 240.237482 
L 440.887173 240.137684 
L 441.887173 240.092187 
L 442.887173 240.057864 
L 443.887173 240.005909 
L 445.440952 239.966262 
" clip-path="url(#pc108df0704)" style="fill: none; stroke: #ff7f0e; stroke-opacity: 0.5; stroke-width: 0.2; stroke-linecap: square"/>
   </g>
   <g id="line2d_6">
    <path d="M 207.887173 212.758579 
L 208.887173 212.790015 
L 209.887173 212.826955 
L 210.887173 212.924702 
L 211.887173 212.957223 
L 212.887173 213.030848 
L 213.887173 213.069414 
L 214.887173 213.104827 
L 215.887173 213.162467 
L 216.887173 213.232853 
L 217.887173 213.284817 
L 218.887173 213.343907 
L 219.887173 213.432228 
L 220.887173 213.478372 
L 221.887173 213.520783 
L 222.887173 213.551276 
L 223.887173 213.577321 
L 224.887173 213.598521 
L 225.887173 213.652822 
L 226.887173 213.68076 
L 227.887173 213.710484 
L 228.887173 213.735878 
L 229.887173 213.747079 
L 230.887173 213.757203 
L 231.887173 213.756998 
L 232.887173 213.747488 
L 233.887173 213.735835 
L 234.887173 213.704806 
L 235.887173 213.693638 
L 236.887173 213.66352 
L 237.887173 213.603743 
L 238.887173 213.566552 
L 239.887173 213.527456 
L 240.887173 213.485016 
L 241.887173 213.452251 
L 242.887173 213.384824 
L 243.887173 213.345698 
L 244.887173 213.303024 
L 245.887173 213.232443 
L 246.887173 213.196052 
L 247.887173 213.137649 
L 248.887173 213.026697 
L 249.887173 212.956038 
L 250.887173 212.843099 
L 251.887173 212.797326 
L 252.887173 212.736042 
L 253.887173 212.687543 
L 254.887173 212.60672 
L 255.887173 212.488202 
L 256.887173 212.417991 
L 257.887173 212.334728 
L 258.887173 212.301587 
L 259.887173 212.250349 
L 260.887173 212.181951 
L 261.887173 212.115736 
L 262.887173 212.038818 
L 263.887173 212.011503 
L 264.887173 211.985025 
L 265.887173 211.962375 
L 266.887173 211.942844 
L 267.887173 211.91645 
L 268.887173 211.866679 
L 269.887173 211.831606 
L 270.887173 211.79574 
L 271.887173 211.780373 
L 272.887173 211.764603 
L 273.887173 211.761191 
L 274.887173 211.758773 
L 275.887173 211.759259 
L 276.887173 211.761189 
L 277.887173 211.774446 
L 278.887173 211.782836 
L 279.887173 211.804373 
L 280.887173 211.827405 
L 281.887173 211.844639 
L 282.887173 211.863101 
L 283.887173 211.883554 
L 284.887173 211.900154 
L 285.887173 211.962932 
L 286.887173 212.038197 
L 287.887173 212.070837 
L 288.887173 212.1384 
L 289.887173 212.192447 
L 290.887173 212.226152 
L 291.887173 212.316278 
L 292.887173 212.344813 
L 293.887173 212.376299 
L 294.887173 212.407309 
L 295.887173 212.462117 
L 296.887173 212.526705 
L 297.887173 212.5649 
L 298.887173 212.660834 
L 299.887173 212.710092 
L 300.887173 212.754162 
L 301.887173 212.794286 
L 302.887173 212.902653 
L 303.887173 212.944281 
L 304.887173 213.006422 
L 305.887173 213.076384 
L 306.887173 213.180889 
L 307.887173 213.217876 
L 308.887173 213.263754 
L 309.887173 213.332248 
L 310.887173 213.380994 
L 311.887173 213.458592 
L 312.887173 213.489132 
L 313.887173 213.558647 
L 314.887173 213.58262 
L 315.887173 213.611241 
L 316.887173 213.653034 
L 317.887173 213.67461 
L 318.887173 213.688558 
L 319.887173 213.715281 
L 320.887173 213.724591 
L 321.887173 213.737037 
L 322.887173 213.748092 
L 323.887173 213.753757 
L 324.887173 213.75852 
L 325.887173 213.752973 
L 326.887173 213.739685 
L 327.887173 213.732167 
L 328.887173 213.707382 
L 329.887173 213.683814 
L 330.887173 213.647633 
L 331.887173 213.621671 
L 332.887173 213.59935 
L 333.887173 213.53059 
L 334.887173 213.456055 
L 335.887173 213.362075 
L 336.887173 213.311023 
L 337.887173 213.25709 
L 338.887173 213.221839 
L 339.887173 213.115751 
L 340.887173 213.063487 
L 341.887173 213.02658 
L 342.887173 212.995549 
L 343.887173 212.934393 
L 344.887173 212.866973 
L 345.887173 212.818068 
L 346.887173 212.752875 
L 347.887173 212.714688 
L 348.887173 212.672692 
L 349.887173 212.630675 
L 350.887173 212.571158 
L 351.887173 212.457998 
L 352.887173 212.405748 
L 353.887173 212.36633 
L 354.887173 212.319228 
L 355.887173 212.262449 
L 356.887173 212.229786 
L 357.887173 212.193608 
L 358.887173 212.161517 
L 359.887173 212.127238 
L 360.887173 212.06886 
L 361.887173 212.023675 
L 362.887173 211.994051 
L 363.887173 211.943665 
L 364.887173 211.918467 
L 365.887173 211.897416 
L 366.887173 211.862448 
L 367.887173 211.838159 
L 368.887173 211.824092 
L 369.887173 211.80515 
L 370.887173 211.789488 
L 371.887173 211.776936 
L 372.887173 211.771101 
L 373.887173 211.764218 
L 374.887173 211.759045 
L 375.887173 211.760827 
L 376.887173 211.763553 
L 377.887173 211.774706 
L 378.887173 211.802942 
L 379.887173 211.846729 
L 380.887173 211.867419 
L 381.887173 211.908392 
L 382.887173 211.948467 
L 383.887173 211.967577 
L 384.887173 211.990085 
L 385.887173 212.056737 
L 386.887173 212.106446 
L 387.887173 212.180153 
L 388.887173 212.211467 
L 389.887173 212.288089 
L 390.887173 212.326387 
L 391.887173 212.400503 
L 392.887173 212.504562 
L 393.887173 212.574393 
L 394.887173 212.679626 
L 395.887173 212.734641 
L 396.887173 212.858116 
L 397.887173 212.928676 
L 398.887173 213.044515 
L 399.887173 213.094696 
L 400.887173 213.1303 
L 401.887173 213.221706 
L 402.887173 213.275214 
L 403.887173 213.363123 
L 404.887173 213.432307 
L 405.887173 213.479072 
L 406.887173 213.551116 
L 407.887173 213.601258 
L 408.887173 213.618647 
L 409.887173 213.645651 
L 410.887173 213.665078 
L 411.887173 213.684416 
L 412.887173 213.722664 
L 413.887173 213.739098 
L 414.887173 213.747467 
L 415.887173 213.751785 
L 416.887173 213.758341 
L 417.887173 213.755794 
L 418.887173 213.750336 
L 419.887173 213.733907 
L 420.887173 213.701973 
L 421.887173 213.663992 
L 422.887173 213.629188 
L 423.887173 213.566117 
L 424.887173 213.54469 
L 425.887173 213.494072 
L 426.887173 213.469114 
L 427.887173 213.413481 
L 428.887173 213.382252 
L 429.887173 213.332108 
L 430.887173 213.299615 
L 431.887173 213.219202 
L 432.887173 213.150277 
L 433.887173 213.034579 
L 434.887173 212.9591 
L 435.887173 212.843576 
L 436.887173 212.764091 
L 437.887173 212.65565 
L 438.887173 212.616283 
L 439.887173 212.513415 
L 440.887173 212.413617 
L 441.887173 212.36812 
L 442.887173 212.333797 
L 443.887173 212.281842 
L 445.440952 212.242195 
" clip-path="url(#pc108df0704)" style="fill: none; stroke: #ff7f0e; stroke-opacity: 0.5; stroke-width: 0.2; stroke-linecap: square"/>
   </g>
   <g id="line2d_7">
    <path d="M 207.887173 112.207417 
L 208.887173 112.238854 
L 209.887173 112.275794 
L 210.887173 112.373541 
L 211.887173 112.406062 
L 212.887173 112.479687 
L 213.887173 112.518253 
L 214.887173 112.553666 
L 215.887173 112.611306 
L 216.887173 112.681692 
L 217.887173 112.733656 
L 218.887173 112.792746 
L 219.887173 112.881067 
L 220.887173 112.927211 
L 221.887173 112.969622 
L 222.887173 113.000115 
L 223.887173 113.02616 
L 224.887173 113.04736 
L 225.887173 113.101661 
L 226.887173 113.129598 
L 227.887173 113.159322 
L 228.887173 113.184717 
L 229.887173 113.195918 
L 230.887173 113.206041 
L 231.887173 113.205837 
L 232.887173 113.196327 
L 233.887173 113.184674 
L 234.887173 113.153644 
L 235.887173 113.142477 
L 236.887173 113.112359 
L 237.887173 113.052582 
L 238.887173 113.015391 
L 239.887173 112.976294 
L 240.887173 112.933855 
L 241.887173 112.90109 
L 242.887173 112.833663 
L 243.887173 112.794537 
L 244.887173 112.751863 
L 245.887173 112.681282 
L 246.887173 112.644891 
L 247.887173 112.586488 
L 248.887173 112.475536 
L 249.887173 112.404877 
L 250.887173 112.291937 
L 251.887173 112.246165 
L 252.887173 112.184881 
L 253.887173 112.136382 
L 254.887173 112.055559 
L 255.887173 111.93704 
L 256.887173 111.86683 
L 257.887173 111.783567 
L 258.887173 111.750425 
L 259.887173 111.699188 
L 260.887173 111.63079 
L 261.887173 111.564574 
L 262.887173 111.487657 
L 263.887173 111.460342 
L 264.887173 111.433864 
L 265.887173 111.411214 
L 266.887173 111.391682 
L 267.887173 111.365288 
L 268.887173 111.315518 
L 269.887173 111.280444 
L 270.887173 111.244579 
L 271.887173 111.229211 
L 272.887173 111.213442 
L 273.887173 111.21003 
L 274.887173 111.207612 
L 275.887173 111.208098 
L 276.887173 111.210027 
L 277.887173 111.223284 
L 278.887173 111.231675 
L 279.887173 111.253212 
L 280.887173 111.276244 
L 281.887173 111.293478 
L 282.887173 111.31194 
L 283.887173 111.332393 
L 284.887173 111.348993 
L 285.887173 111.411771 
L 286.887173 111.487036 
L 287.887173 111.519675 
L 288.887173 111.587239 
L 289.887173 111.641286 
L 290.887173 111.67499 
L 291.887173 111.765116 
L 292.887173 111.793651 
L 293.887173 111.825137 
L 294.887173 111.856148 
L 295.887173 111.910956 
L 296.887173 111.975544 
L 297.887173 112.013739 
L 298.887173 112.109673 
L 299.887173 112.158931 
L 300.887173 112.203001 
L 301.887173 112.243124 
L 302.887173 112.351491 
L 303.887173 112.393119 
L 304.887173 112.455261 
L 305.887173 112.525223 
L 306.887173 112.629728 
L 307.887173 112.666715 
L 308.887173 112.712593 
L 309.887173 112.781087 
L 310.887173 112.829833 
L 311.887173 112.90743 
L 312.887173 112.937971 
L 313.887173 113.007486 
L 314.887173 113.031459 
L 315.887173 113.06008 
L 316.887173 113.101873 
L 317.887173 113.123449 
L 318.887173 113.137397 
L 319.887173 113.16412 
L 320.887173 113.173429 
L 321.887173 113.185876 
L 322.887173 113.196931 
L 323.887173 113.202596 
L 324.887173 113.207359 
L 325.887173 113.201812 
L 326.887173 113.188524 
L 327.887173 113.181006 
L 328.887173 113.156221 
L 329.887173 113.132653 
L 330.887173 113.096472 
L 331.887173 113.07051 
L 332.887173 113.048189 
L 333.887173 112.979429 
L 334.887173 112.904893 
L 335.887173 112.810914 
L 336.887173 112.759862 
L 337.887173 112.705928 
L 338.887173 112.670678 
L 339.887173 112.56459 
L 340.887173 112.512325 
L 341.887173 112.475419 
L 342.887173 112.444388 
L 343.887173 112.383232 
L 344.887173 112.315812 
L 345.887173 112.266906 
L 346.887173 112.201714 
L 347.887173 112.163527 
L 348.887173 112.121531 
L 349.887173 112.079513 
L 350.887173 112.019997 
L 351.887173 111.906837 
L 352.887173 111.854586 
L 353.887173 111.815169 
L 354.887173 111.768067 
L 355.887173 111.711288 
L 356.887173 111.678625 
L 357.887173 111.642447 
L 358.887173 111.610356 
L 359.887173 111.576076 
L 360.887173 111.517698 
L 361.887173 111.472513 
L 362.887173 111.44289 
L 363.887173 111.392504 
L 364.887173 111.367306 
L 365.887173 111.346255 
L 366.887173 111.311287 
L 367.887173 111.286997 
L 368.887173 111.27293 
L 369.887173 111.253989 
L 370.887173 111.238327 
L 371.887173 111.225775 
L 372.887173 111.21994 
L 373.887173 111.213057 
L 374.887173 111.207883 
L 375.887173 111.209666 
L 376.887173 111.212392 
L 377.887173 111.223545 
L 378.887173 111.25178 
L 379.887173 111.295568 
L 380.887173 111.316257 
L 381.887173 111.357231 
L 382.887173 111.397306 
L 383.887173 111.416415 
L 384.887173 111.438924 
L 385.887173 111.505576 
L 386.887173 111.555285 
L 387.887173 111.628992 
L 388.887173 111.660305 
L 389.887173 111.736927 
L 390.887173 111.775226 
L 391.887173 111.849342 
L 392.887173 111.953401 
L 393.887173 112.023231 
L 394.887173 112.128465 
L 395.887173 112.18348 
L 396.887173 112.306955 
L 397.887173 112.377514 
L 398.887173 112.493354 
L 399.887173 112.543534 
L 400.887173 112.579139 
L 401.887173 112.670545 
L 402.887173 112.724053 
L 403.887173 112.811961 
L 404.887173 112.881146 
L 405.887173 112.927911 
L 406.887173 112.999954 
L 407.887173 113.050096 
L 408.887173 113.067486 
L 409.887173 113.094489 
L 410.887173 113.113917 
L 411.887173 113.133255 
L 412.887173 113.171503 
L 413.887173 113.187937 
L 414.887173 113.196305 
L 415.887173 113.200624 
L 416.887173 113.20718 
L 417.887173 113.204633 
L 418.887173 113.199175 
L 419.887173 113.182746 
L 420.887173 113.150811 
L 421.887173 113.112831 
L 422.887173 113.078027 
L 423.887173 113.014956 
L 424.887173 112.993529 
L 425.887173 112.942911 
L 426.887173 112.917953 
L 427.887173 112.86232 
L 428.887173 112.831091 
L 429.887173 112.780947 
L 430.887173 112.748453 
L 431.887173 112.668041 
L 432.887173 112.599115 
L 433.887173 112.483418 
L 434.887173 112.407939 
L 435.887173 112.292414 
L 436.887173 112.21293 
L 437.887173 112.104489 
L 438.887173 112.065121 
L 439.887173 111.962254 
L 440.887173 111.862456 
L 441.887173 111.816959 
L 442.887173 111.782636 
L 443.887173 111.73068 
L 445.440952 111.691033 
" clip-path="url(#pc108df0704)" style="fill: none; stroke: #ff7f0e; stroke-opacity: 0.5; stroke-width: 0.2; stroke-linecap: square"/>
   </g>
   <g id="line2d_8">
    <path d="M 207.887173 216.271441 
L 208.887173 216.302877 
L 209.887173 216.339817 
L 210.887173 216.437564 
L 211.887173 216.470086 
L 212.887173 216.54371 
L 213.887173 216.582276 
L 214.887173 216.617689 
L 215.887173 216.675329 
L 216.887173 216.745715 
L 217.887173 216.797679 
L 218.887173 216.856769 
L 219.887173 216.94509 
L 220.887173 216.991234 
L 221.887173 217.033645 
L 222.887173 217.064138 
L 223.887173 217.090183 
L 224.887173 217.111383 
L 225.887173 217.165684 
L 226.887173 217.193622 
L 227.887173 217.223346 
L 228.887173 217.24874 
L 229.887173 217.259941 
L 230.887173 217.270065 
L 231.887173 217.269861 
L 232.887173 217.260351 
L 233.887173 217.248697 
L 234.887173 217.217668 
L 235.887173 217.2065 
L 236.887173 217.176382 
L 237.887173 217.116605 
L 238.887173 217.079414 
L 239.887173 217.040318 
L 240.887173 216.997878 
L 241.887173 216.965113 
L 242.887173 216.897687 
L 243.887173 216.858561 
L 244.887173 216.815886 
L 245.887173 216.745306 
L 246.887173 216.708915 
L 247.887173 216.650512 
L 248.887173 216.539559 
L 249.887173 216.468901 
L 250.887173 216.355961 
L 251.887173 216.310188 
L 252.887173 216.248905 
L 253.887173 216.200405 
L 254.887173 216.119583 
L 255.887173 216.001064 
L 256.887173 215.930853 
L 257.887173 215.847591 
L 258.887173 215.814449 
L 259.887173 215.763212 
L 260.887173 215.694813 
L 261.887173 215.628598 
L 262.887173 215.551681 
L 263.887173 215.524365 
L 264.887173 215.497888 
L 265.887173 215.475237 
L 266.887173 215.455706 
L 267.887173 215.429312 
L 268.887173 215.379541 
L 269.887173 215.344468 
L 270.887173 215.308602 
L 271.887173 215.293235 
L 272.887173 215.277466 
L 273.887173 215.274053 
L 274.887173 215.271635 
L 275.887173 215.272122 
L 276.887173 215.274051 
L 277.887173 215.287308 
L 278.887173 215.295698 
L 279.887173 215.317235 
L 280.887173 215.340267 
L 281.887173 215.357501 
L 282.887173 215.375963 
L 283.887173 215.396416 
L 284.887173 215.413016 
L 285.887173 215.475795 
L 286.887173 215.55106 
L 287.887173 215.583699 
L 288.887173 215.651262 
L 289.887173 215.705309 
L 290.887173 215.739014 
L 291.887173 215.82914 
L 292.887173 215.857675 
L 293.887173 215.889161 
L 294.887173 215.920172 
L 295.887173 215.97498 
L 296.887173 216.039567 
L 297.887173 216.077762 
L 298.887173 216.173697 
L 299.887173 216.222955 
L 300.887173 216.267024 
L 301.887173 216.307148 
L 302.887173 216.415515 
L 303.887173 216.457143 
L 304.887173 216.519284 
L 305.887173 216.589247 
L 306.887173 216.693751 
L 307.887173 216.730739 
L 308.887173 216.776616 
L 309.887173 216.84511 
L 310.887173 216.893856 
L 311.887173 216.971454 
L 312.887173 217.001994 
L 313.887173 217.071509 
L 314.887173 217.095482 
L 315.887173 217.124104 
L 316.887173 217.165897 
L 317.887173 217.187472 
L 318.887173 217.20142 
L 319.887173 217.228143 
L 320.887173 217.237453 
L 321.887173 217.249899 
L 322.887173 217.260954 
L 323.887173 217.266619 
L 324.887173 217.271383 
L 325.887173 217.265835 
L 326.887173 217.252547 
L 327.887173 217.245029 
L 328.887173 217.220245 
L 329.887173 217.196676 
L 330.887173 217.160495 
L 331.887173 217.134533 
L 332.887173 217.112212 
L 333.887173 217.043452 
L 334.887173 216.968917 
L 335.887173 216.874937 
L 336.887173 216.823885 
L 337.887173 216.769952 
L 338.887173 216.734701 
L 339.887173 216.628613 
L 340.887173 216.576349 
L 341.887173 216.539442 
L 342.887173 216.508411 
L 343.887173 216.447256 
L 344.887173 216.379836 
L 345.887173 216.33093 
L 346.887173 216.265738 
L 347.887173 216.22755 
L 348.887173 216.185554 
L 349.887173 216.143537 
L 350.887173 216.08402 
L 351.887173 215.97086 
L 352.887173 215.91861 
L 353.887173 215.879192 
L 354.887173 215.83209 
L 355.887173 215.775311 
L 356.887173 215.742648 
L 357.887173 215.70647 
L 358.887173 215.674379 
L 359.887173 215.6401 
L 360.887173 215.581722 
L 361.887173 215.536537 
L 362.887173 215.506913 
L 363.887173 215.456527 
L 364.887173 215.431329 
L 365.887173 215.410279 
L 366.887173 215.375311 
L 367.887173 215.351021 
L 368.887173 215.336954 
L 369.887173 215.318012 
L 370.887173 215.30235 
L 371.887173 215.289799 
L 372.887173 215.283963 
L 373.887173 215.27708 
L 374.887173 215.271907 
L 375.887173 215.273689 
L 376.887173 215.276415 
L 377.887173 215.287568 
L 378.887173 215.315804 
L 379.887173 215.359591 
L 380.887173 215.380281 
L 381.887173 215.421254 
L 382.887173 215.461329 
L 383.887173 215.480439 
L 384.887173 215.502947 
L 385.887173 215.569599 
L 386.887173 215.619308 
L 387.887173 215.693015 
L 388.887173 215.724329 
L 389.887173 215.800951 
L 390.887173 215.839249 
L 391.887173 215.913366 
L 392.887173 216.017424 
L 393.887173 216.087255 
L 394.887173 216.192488 
L 395.887173 216.247504 
L 396.887173 216.370979 
L 397.887173 216.441538 
L 398.887173 216.557377 
L 399.887173 216.607558 
L 400.887173 216.643162 
L 401.887173 216.734569 
L 402.887173 216.788076 
L 403.887173 216.875985 
L 404.887173 216.94517 
L 405.887173 216.991934 
L 406.887173 217.063978 
L 407.887173 217.11412 
L 408.887173 217.131509 
L 409.887173 217.158513 
L 410.887173 217.17794 
L 411.887173 217.197278 
L 412.887173 217.235526 
L 413.887173 217.25196 
L 414.887173 217.260329 
L 415.887173 217.264648 
L 416.887173 217.271203 
L 417.887173 217.268656 
L 418.887173 217.263198 
L 419.887173 217.24677 
L 420.887173 217.214835 
L 421.887173 217.176855 
L 422.887173 217.14205 
L 423.887173 217.078979 
L 424.887173 217.057552 
L 425.887173 217.006934 
L 426.887173 216.981976 
L 427.887173 216.926343 
L 428.887173 216.895114 
L 429.887173 216.84497 
L 430.887173 216.812477 
L 431.887173 216.732064 
L 432.887173 216.663139 
L 433.887173 216.547441 
L 434.887173 216.471963 
L 435.887173 216.356438 
L 436.887173 216.276953 
L 437.887173 216.168512 
L 438.887173 216.129145 
L 439.887173 216.026277 
L 440.887173 215.926479 
L 441.887173 215.880982 
L 442.887173 215.846659 
L 443.887173 215.794704 
L 445.440952 215.755057 
" clip-path="url(#pc108df0704)" style="fill: none; stroke: #ff7f0e; stroke-opacity: 0.5; stroke-width: 0.2; stroke-linecap: square"/>
   </g>
   <g id="line2d_9">
    <path d="M 207.887173 181.361283 
L 208.887173 181.392719 
L 209.887173 181.429659 
L 210.887173 181.527406 
L 211.887173 181.559927 
L 212.887173 181.633552 
L 213.887173 181.672118 
L 214.887173 181.707531 
L 215.887173 181.765171 
L 216.887173 181.835557 
L 217.887173 181.887521 
L 218.887173 181.946611 
L 219.887173 182.034932 
L 220.887173 182.081076 
L 221.887173 182.123487 
L 222.887173 182.15398 
L 223.887173 182.180025 
L 224.887173 182.201225 
L 225.887173 182.255526 
L 226.887173 182.283464 
L 227.887173 182.313188 
L 228.887173 182.338582 
L 229.887173 182.349783 
L 230.887173 182.359907 
L 231.887173 182.359702 
L 232.887173 182.350193 
L 233.887173 182.338539 
L 234.887173 182.30751 
L 235.887173 182.296342 
L 236.887173 182.266224 
L 237.887173 182.206447 
L 238.887173 182.169256 
L 239.887173 182.13016 
L 240.887173 182.08772 
L 241.887173 182.054955 
L 242.887173 181.987528 
L 243.887173 181.948403 
L 244.887173 181.905728 
L 245.887173 181.835147 
L 246.887173 181.798757 
L 247.887173 181.740353 
L 248.887173 181.629401 
L 249.887173 181.558742 
L 250.887173 181.445803 
L 251.887173 181.40003 
L 252.887173 181.338747 
L 253.887173 181.290247 
L 254.887173 181.209425 
L 255.887173 181.090906 
L 256.887173 181.020695 
L 257.887173 180.937432 
L 258.887173 180.904291 
L 259.887173 180.853053 
L 260.887173 180.784655 
L 261.887173 180.71844 
L 262.887173 180.641523 
L 263.887173 180.614207 
L 264.887173 180.58773 
L 265.887173 180.565079 
L 266.887173 180.545548 
L 267.887173 180.519154 
L 268.887173 180.469383 
L 269.887173 180.43431 
L 270.887173 180.398444 
L 271.887173 180.383077 
L 272.887173 180.367308 
L 273.887173 180.363895 
L 274.887173 180.361477 
L 275.887173 180.361963 
L 276.887173 180.363893 
L 277.887173 180.37715 
L 278.887173 180.38554 
L 279.887173 180.407077 
L 280.887173 180.430109 
L 281.887173 180.447343 
L 282.887173 180.465805 
L 283.887173 180.486258 
L 284.887173 180.502858 
L 285.887173 180.565636 
L 286.887173 180.640901 
L 287.887173 180.673541 
L 288.887173 180.741104 
L 289.887173 180.795151 
L 290.887173 180.828856 
L 291.887173 180.918982 
L 292.887173 180.947517 
L 293.887173 180.979003 
L 294.887173 181.010014 
L 295.887173 181.064822 
L 296.887173 181.129409 
L 297.887173 181.167604 
L 298.887173 181.263538 
L 299.887173 181.312796 
L 300.887173 181.356866 
L 301.887173 181.39699 
L 302.887173 181.505357 
L 303.887173 181.546985 
L 304.887173 181.609126 
L 305.887173 181.679089 
L 306.887173 181.783593 
L 307.887173 181.82058 
L 308.887173 181.866458 
L 309.887173 181.934952 
L 310.887173 181.983698 
L 311.887173 182.061296 
L 312.887173 182.091836 
L 313.887173 182.161351 
L 314.887173 182.185324 
L 315.887173 182.213945 
L 316.887173 182.255739 
L 317.887173 182.277314 
L 318.887173 182.291262 
L 319.887173 182.317985 
L 320.887173 182.327295 
L 321.887173 182.339741 
L 322.887173 182.350796 
L 323.887173 182.356461 
L 324.887173 182.361225 
L 325.887173 182.355677 
L 326.887173 182.342389 
L 327.887173 182.334871 
L 328.887173 182.310087 
L 329.887173 182.286518 
L 330.887173 182.250337 
L 331.887173 182.224375 
L 332.887173 182.202054 
L 333.887173 182.133294 
L 334.887173 182.058759 
L 335.887173 181.964779 
L 336.887173 181.913727 
L 337.887173 181.859794 
L 338.887173 181.824543 
L 339.887173 181.718455 
L 340.887173 181.666191 
L 341.887173 181.629284 
L 342.887173 181.598253 
L 343.887173 181.537098 
L 344.887173 181.469678 
L 345.887173 181.420772 
L 346.887173 181.355579 
L 347.887173 181.317392 
L 348.887173 181.275396 
L 349.887173 181.233379 
L 350.887173 181.173862 
L 351.887173 181.060702 
L 352.887173 181.008452 
L 353.887173 180.969034 
L 354.887173 180.921932 
L 355.887173 180.865153 
L 356.887173 180.83249 
L 357.887173 180.796312 
L 358.887173 180.764221 
L 359.887173 180.729942 
L 360.887173 180.671564 
L 361.887173 180.626379 
L 362.887173 180.596755 
L 363.887173 180.546369 
L 364.887173 180.521171 
L 365.887173 180.50012 
L 366.887173 180.465153 
L 367.887173 180.440863 
L 368.887173 180.426796 
L 369.887173 180.407854 
L 370.887173 180.392192 
L 371.887173 180.379641 
L 372.887173 180.373805 
L 373.887173 180.366922 
L 374.887173 180.361749 
L 375.887173 180.363531 
L 376.887173 180.366257 
L 377.887173 180.37741 
L 378.887173 180.405646 
L 379.887173 180.449433 
L 380.887173 180.470123 
L 381.887173 180.511096 
L 382.887173 180.551171 
L 383.887173 180.570281 
L 384.887173 180.592789 
L 385.887173 180.659441 
L 386.887173 180.70915 
L 387.887173 180.782857 
L 388.887173 180.814171 
L 389.887173 180.890793 
L 390.887173 180.929091 
L 391.887173 181.003208 
L 392.887173 181.107266 
L 393.887173 181.177097 
L 394.887173 181.28233 
L 395.887173 181.337346 
L 396.887173 181.460821 
L 397.887173 181.53138 
L 398.887173 181.647219 
L 399.887173 181.6974 
L 400.887173 181.733004 
L 401.887173 181.82441 
L 402.887173 181.877918 
L 403.887173 181.965827 
L 404.887173 182.035012 
L 405.887173 182.081776 
L 406.887173 182.15382 
L 407.887173 182.203962 
L 408.887173 182.221351 
L 409.887173 182.248355 
L 410.887173 182.267782 
L 411.887173 182.28712 
L 412.887173 182.325368 
L 413.887173 182.341802 
L 414.887173 182.350171 
L 415.887173 182.35449 
L 416.887173 182.361045 
L 417.887173 182.358498 
L 418.887173 182.35304 
L 419.887173 182.336611 
L 420.887173 182.304677 
L 421.887173 182.266696 
L 422.887173 182.231892 
L 423.887173 182.168821 
L 424.887173 182.147394 
L 425.887173 182.096776 
L 426.887173 182.071818 
L 427.887173 182.016185 
L 428.887173 181.984956 
L 429.887173 181.934812 
L 430.887173 181.902319 
L 431.887173 181.821906 
L 432.887173 181.752981 
L 433.887173 181.637283 
L 434.887173 181.561805 
L 435.887173 181.44628 
L 436.887173 181.366795 
L 437.887173 181.258354 
L 438.887173 181.218987 
L 439.887173 181.116119 
L 440.887173 181.016321 
L 441.887173 180.970824 
L 442.887173 180.936501 
L 443.887173 180.884546 
L 445.440952 180.844899 
" clip-path="url(#pc108df0704)" style="fill: none; stroke: #ff7f0e; stroke-opacity: 0.5; stroke-width: 0.2; stroke-linecap: square"/>
   </g>
   <g id="line2d_10">
    <path d="M 207.887173 311.169095 
L 208.887173 311.200531 
L 209.887173 311.237472 
L 210.887173 311.335218 
L 211.887173 311.36774 
L 212.887173 311.441364 
L 213.887173 311.47993 
L 214.887173 311.515343 
L 215.887173 311.572983 
L 216.887173 311.643369 
L 217.887173 311.695333 
L 218.887173 311.754423 
L 219.887173 311.842744 
L 220.887173 311.888888 
L 221.887173 311.931299 
L 222.887173 311.961792 
L 223.887173 311.987837 
L 224.887173 312.009037 
L 225.887173 312.063338 
L 226.887173 312.091276 
L 227.887173 312.121 
L 228.887173 312.146395 
L 229.887173 312.157595 
L 230.887173 312.167719 
L 231.887173 312.167515 
L 232.887173 312.158005 
L 233.887173 312.146351 
L 234.887173 312.115322 
L 235.887173 312.104154 
L 236.887173 312.074036 
L 237.887173 312.014259 
L 238.887173 311.977068 
L 239.887173 311.937972 
L 240.887173 311.895532 
L 241.887173 311.862767 
L 242.887173 311.795341 
L 243.887173 311.756215 
L 244.887173 311.71354 
L 245.887173 311.64296 
L 246.887173 311.606569 
L 247.887173 311.548166 
L 248.887173 311.437213 
L 249.887173 311.366555 
L 250.887173 311.253615 
L 251.887173 311.207842 
L 252.887173 311.146559 
L 253.887173 311.098059 
L 254.887173 311.017237 
L 255.887173 310.898718 
L 256.887173 310.828507 
L 257.887173 310.745245 
L 258.887173 310.712103 
L 259.887173 310.660866 
L 260.887173 310.592467 
L 261.887173 310.526252 
L 262.887173 310.449335 
L 263.887173 310.422019 
L 264.887173 310.395542 
L 265.887173 310.372891 
L 266.887173 310.35336 
L 267.887173 310.326966 
L 268.887173 310.277195 
L 269.887173 310.242122 
L 270.887173 310.206256 
L 271.887173 310.190889 
L 272.887173 310.17512 
L 273.887173 310.171707 
L 274.887173 310.169289 
L 275.887173 310.169776 
L 276.887173 310.171705 
L 277.887173 310.184962 
L 278.887173 310.193352 
L 279.887173 310.214889 
L 280.887173 310.237921 
L 281.887173 310.255155 
L 282.887173 310.273617 
L 283.887173 310.29407 
L 284.887173 310.31067 
L 285.887173 310.373449 
L 286.887173 310.448714 
L 287.887173 310.481353 
L 288.887173 310.548916 
L 289.887173 310.602963 
L 290.887173 310.636668 
L 291.887173 310.726794 
L 292.887173 310.755329 
L 293.887173 310.786815 
L 294.887173 310.817826 
L 295.887173 310.872634 
L 296.887173 310.937221 
L 297.887173 310.975416 
L 298.887173 311.071351 
L 299.887173 311.120609 
L 300.887173 311.164678 
L 301.887173 311.204802 
L 302.887173 311.313169 
L 303.887173 311.354797 
L 304.887173 311.416938 
L 305.887173 311.486901 
L 306.887173 311.591405 
L 307.887173 311.628393 
L 308.887173 311.67427 
L 309.887173 311.742764 
L 310.887173 311.79151 
L 311.887173 311.869108 
L 312.887173 311.899648 
L 313.887173 311.969163 
L 314.887173 311.993136 
L 315.887173 312.021758 
L 316.887173 312.063551 
L 317.887173 312.085127 
L 318.887173 312.099074 
L 319.887173 312.125797 
L 320.887173 312.135107 
L 321.887173 312.147553 
L 322.887173 312.158608 
L 323.887173 312.164273 
L 324.887173 312.169037 
L 325.887173 312.163489 
L 326.887173 312.150201 
L 327.887173 312.142683 
L 328.887173 312.117899 
L 329.887173 312.09433 
L 330.887173 312.058149 
L 331.887173 312.032188 
L 332.887173 312.009866 
L 333.887173 311.941106 
L 334.887173 311.866571 
L 335.887173 311.772592 
L 336.887173 311.72154 
L 337.887173 311.667606 
L 338.887173 311.632355 
L 339.887173 311.526267 
L 340.887173 311.474003 
L 341.887173 311.437096 
L 342.887173 311.406065 
L 343.887173 311.34491 
L 344.887173 311.27749 
L 345.887173 311.228584 
L 346.887173 311.163392 
L 347.887173 311.125204 
L 348.887173 311.083208 
L 349.887173 311.041191 
L 350.887173 310.981674 
L 351.887173 310.868514 
L 352.887173 310.816264 
L 353.887173 310.776846 
L 354.887173 310.729745 
L 355.887173 310.672965 
L 356.887173 310.640302 
L 357.887173 310.604124 
L 358.887173 310.572033 
L 359.887173 310.537754 
L 360.887173 310.479376 
L 361.887173 310.434191 
L 362.887173 310.404567 
L 363.887173 310.354181 
L 364.887173 310.328983 
L 365.887173 310.307933 
L 366.887173 310.272965 
L 367.887173 310.248675 
L 368.887173 310.234608 
L 369.887173 310.215666 
L 370.887173 310.200004 
L 371.887173 310.187453 
L 372.887173 310.181617 
L 373.887173 310.174734 
L 374.887173 310.169561 
L 375.887173 310.171343 
L 376.887173 310.174069 
L 377.887173 310.185222 
L 378.887173 310.213458 
L 379.887173 310.257246 
L 380.887173 310.277935 
L 381.887173 310.318908 
L 382.887173 310.358983 
L 383.887173 310.378093 
L 384.887173 310.400601 
L 385.887173 310.467253 
L 386.887173 310.516962 
L 387.887173 310.590669 
L 388.887173 310.621983 
L 389.887173 310.698605 
L 390.887173 310.736903 
L 391.887173 310.81102 
L 392.887173 310.915078 
L 393.887173 310.984909 
L 394.887173 311.090142 
L 395.887173 311.145158 
L 396.887173 311.268633 
L 397.887173 311.339192 
L 398.887173 311.455031 
L 399.887173 311.505212 
L 400.887173 311.540816 
L 401.887173 311.632223 
L 402.887173 311.68573 
L 403.887173 311.773639 
L 404.887173 311.842824 
L 405.887173 311.889588 
L 406.887173 311.961632 
L 407.887173 312.011774 
L 408.887173 312.029164 
L 409.887173 312.056167 
L 410.887173 312.075594 
L 411.887173 312.094932 
L 412.887173 312.133181 
L 413.887173 312.149614 
L 414.887173 312.157983 
L 415.887173 312.162302 
L 416.887173 312.168857 
L 417.887173 312.16631 
L 418.887173 312.160852 
L 419.887173 312.144424 
L 420.887173 312.112489 
L 421.887173 312.074509 
L 422.887173 312.039704 
L 423.887173 311.976633 
L 424.887173 311.955206 
L 425.887173 311.904588 
L 426.887173 311.87963 
L 427.887173 311.823997 
L 428.887173 311.792768 
L 429.887173 311.742624 
L 430.887173 311.710131 
L 431.887173 311.629718 
L 432.887173 311.560793 
L 433.887173 311.445096 
L 434.887173 311.369617 
L 435.887173 311.254092 
L 436.887173 311.174607 
L 437.887173 311.066166 
L 438.887173 311.026799 
L 439.887173 310.923931 
L 440.887173 310.824133 
L 441.887173 310.778636 
L 442.887173 310.744313 
L 443.887173 310.692358 
L 445.440952 310.652711 
" clip-path="url(#pc108df0704)" style="fill: none; stroke: #ff7f0e; stroke-opacity: 0.5; stroke-width: 0.2; stroke-linecap: square"/>
   </g>
   <g id="patch_3">
    <path d="M 264.542259 7.2 
L 264.542259 69.364375 
M 388.785866 7.2 
L 388.785866 69.364375 
" clip-path="url(#pc108df0704)" style="fill: none; stroke: #ffffff; stroke-width: 3; stroke-linejoin: miter"/>
    <path d="M 264.542259 7.2 
L 264.542259 69.364375 
M 388.785866 7.2 
L 388.785866 69.364375 
" clip-path="url(#pc108df0704)" style="fill: none; stroke: #1f77b4; stroke-linejoin: miter"/>
   </g>
   <g id="PolyCollection_1">
    <path d="M 388.785866 7.2 
L 264.542259 7.2 
L 264.542259 69.364375 
L 388.785866 69.364375 
L 388.785866 69.364375 
L 388.785866 7.2 
z
" clip-path="url(#pc108df0704)" style="fill: #1f77b4; fill-opacity: 0.5"/>
   </g>
   <g id="patch_4">
    <path d="M 78.176847 69.364375 
L 78.176847 318.021875 
M 202.420455 69.364375 
L 202.420455 318.021875 
" clip-path="url(#pc108df0704)" style="fill: none; stroke: #ffffff; stroke-width: 3; stroke-linejoin: miter"/>
    <path d="M 78.176847 69.364375 
L 78.176847 318.021875 
M 202.420455 69.364375 
L 202.420455 318.021875 
" clip-path="url(#pc108df0704)" style="fill: none; stroke: #ff7f0e; stroke-linejoin: miter"/>
   </g>
   <g id="PolyCollection_2">
    <path d="M 202.420455 69.364375 
L 78.176847 69.364375 
L 78.176847 318.021875 
L 202.420455 318.021875 
L 202.420455 318.021875 
L 202.420455 69.364375 
z
" clip-path="url(#pc108df0704)" style="fill: #ff7f0e; fill-opacity: 0.5"/>
   </g>
   <g id="patch_5">
    <path d="M 450.90767 69.364375 
L 450.90767 318.021875 
M 575.151278 69.364375 
L 575.151278 318.021875 
" clip-path="url(#pc108df0704)" style="fill: none; stroke: #ffffff; stroke-width: 3; stroke-linejoin: miter"/>
    <path d="M 450.90767 69.364375 
L 450.90767 318.021875 
M 575.151278 69.364375 
L 575.151278 318.021875 
" clip-path="url(#pc108df0704)" style="fill: none; stroke: #2ca02c; stroke-linejoin: miter"/>
   </g>
   <g id="PolyCollection_3">
    <path d="M 575.151278 69.364375 
L 450.90767 69.364375 
L 450.90767 318.021875 
L 575.151278 318.021875 
L 575.151278 318.021875 
L 575.151278 69.364375 
z
" clip-path="url(#pc108df0704)" style="fill: #2ca02c; fill-opacity: 0.5"/>
   </g>
   <g id="matplotlib.axis_1">
    <g id="xtick_1">
     <g id="line2d_11"/>
     <g id="text_1">
      <!-- A -->
      <g transform="translate(136.878338 329.120312) scale(0.1 -0.1)">
       <defs>
        <path id="DejaVuSans-41" d="M 2188 4044 
L 1331 1722 
L 3047 1722 
L 2188 4044 
z
M 1831 4666 
L 2547 4666 
L 4325 0 
L 3669 0 
L 3244 1197 
L 1141 1197 
L 716 0 
L 50 0 
L 1831 4666 
z
" transform="scale(0.015625)"/>
       </defs>
       <use xlink:href="#DejaVuSans-41"/>
      </g>
     </g>
    </g>
    <g id="xtick_2">
     <g id="line2d_12"/>
     <g id="text_2">
      <!-- B -->
      <g transform="translate(509.599006 329.120312) scale(0.1 -0.1)">
       <defs>
        <path id="DejaVuSans-42" d="M 1259 2228 
L 1259 519 
L 2272 519 
Q 2781 519 3026 730 
Q 3272 941 3272 1375 
Q 3272 1813 3026 2020 
Q 2781 2228 2272 2228 
L 1259 2228 
z
M 1259 4147 
L 1259 2741 
L 2194 2741 
Q 2656 2741 2882 2914 
Q 3109 3088 3109 3444 
Q 3109 3797 2882 3972 
Q 2656 4147 2194 4147 
L 1259 4147 
z
M 628 4666 
L 2241 4666 
Q 2963 4666 3353 4366 
Q 3744 4066 3744 3513 
Q 3744 3084 3544 2831 
Q 3344 2578 2956 2516 
Q 3422 2416 3680 2098 
Q 3938 1781 3938 1306 
Q 3938 681 3513 340 
Q 3088 0 2303 0 
L 628 0 
L 628 4666 
z
" transform="scale(0.015625)"/>
       </defs>
       <use xlink:href="#DejaVuSans-42"/>
      </g>
     </g>
    </g>
   </g>
   <g id="matplotlib.axis_2">
    <g id="ytick_1">
     <g id="line2d_13">
      <defs>
       <path id="m9d39e6d86a" d="M 0 0 
L -3.5 0 
" style="stroke: #000000; stroke-width: 0.8"/>
      </defs>
      <g>
       <use xlink:href="#m9d39e6d86a" x="53.328125" y="318.021875" style="stroke: #000000; stroke-width: 0.8"/>
      </g>
     </g>
     <g id="text_3">
      <!-- 0 -->
      <g transform="translate(39.965625 321.821094) scale(0.1 -0.1)">
       <defs>
        <path id="DejaVuSans-30" d="M 2034 4250 
Q 1547 4250 1301 3770 
Q 1056 3291 1056 2328 
Q 1056 1369 1301 889 
Q 1547 409 2034 409 
Q 2525 409 2770 889 
Q 3016 1369 3016 2328 
Q 3016 3291 2770 3770 
Q 2525 4250 2034 4250 
z
M 2034 4750 
Q 2819 4750 3233 4129 
Q 3647 3509 3647 2328 
Q 3647 1150 3233 529 
Q 2819 -91 2034 -91 
Q 1250 -91 836 529 
Q 422 1150 422 2328 
Q 422 3509 836 4129 
Q 1250 4750 2034 4750 
z
" transform="scale(0.015625)"/>
       </defs>
       <use xlink:href="#DejaVuSans-30"/>
      </g>
     </g>
    </g>
    <g id="ytick_2">
     <g id="line2d_14">
      <g>
       <use xlink:href="#m9d39e6d86a" x="53.328125" y="268.290375" style="stroke: #000000; stroke-width: 0.8"/>
      </g>
     </g>
     <g id="text_4">
      <!-- 200 -->
      <g transform="translate(27.240625 272.089594) scale(0.1 -0.1)">
       <defs>
        <path id="DejaVuSans-32" d="M 1228 531 
L 3431 531 
L 3431 0 
L 469 0 
L 469 531 
Q 828 903 1448 1529 
Q 2069 2156 2228 2338 
Q 2531 2678 2651 2914 
Q 2772 3150 2772 3378 
Q 2772 3750 2511 3984 
Q 2250 4219 1831 4219 
Q 1534 4219 1204 4116 
Q 875 4013 500 3803 
L 500 4441 
Q 881 4594 1212 4672 
Q 1544 4750 1819 4750 
Q 2544 4750 2975 4387 
Q 3406 4025 3406 3419 
Q 3406 3131 3298 2873 
Q 3191 2616 2906 2266 
Q 2828 2175 2409 1742 
Q 1991 1309 1228 531 
z
" transform="scale(0.015625)"/>
       </defs>
       <use xlink:href="#DejaVuSans-32"/>
       <use xlink:href="#DejaVuSans-30" x="63.623047"/>
       <use xlink:href="#DejaVuSans-30" x="127.246094"/>
      </g>
     </g>
    </g>
    <g id="ytick_3">
     <g id="line2d_15">
      <g>
       <use xlink:href="#m9d39e6d86a" x="53.328125" y="218.558875" style="stroke: #000000; stroke-width: 0.8"/>
      </g>
     </g>
     <g id="text_5">
      <!-- 400 -->
      <g transform="translate(27.240625 222.358094) scale(0.1 -0.1)">
       <defs>
        <path id="DejaVuSans-34" d="M 2419 4116 
L 825 1625 
L 2419 1625 
L 2419 4116 
z
M 2253 4666 
L 3047 4666 
L 3047 1625 
L 3713 1625 
L 3713 1100 
L 3047 1100 
L 3047 0 
L 2419 0 
L 2419 1100 
L 313 1100 
L 313 1709 
L 2253 4666 
z
" transform="scale(0.015625)"/>
       </defs>
       <use xlink:href="#DejaVuSans-34"/>
       <use xlink:href="#DejaVuSans-30" x="63.623047"/>
       <use xlink:href="#DejaVuSans-30" x="127.246094"/>
      </g>
     </g>
    </g>
    <g id="ytick_4">
     <g id="line2d_16">
      <g>
       <use xlink:href="#m9d39e6d86a" x="53.328125" y="168.827375" style="stroke: #000000; stroke-width: 0.8"/>
      </g>
     </g>
     <g id="text_6">
      <!-- 600 -->
      <g transform="translate(27.240625 172.626594) scale(0.1 -0.1)">
       <defs>
        <path id="DejaVuSans-36" d="M 2113 2584 
Q 1688 2584 1439 2293 
Q 1191 2003 1191 1497 
Q 1191 994 1439 701 
Q 1688 409 2113 409 
Q 2538 409 2786 701 
Q 3034 994 3034 1497 
Q 3034 2003 2786 2293 
Q 2538 2584 2113 2584 
z
M 3366 4563 
L 3366 3988 
Q 3128 4100 2886 4159 
Q 2644 4219 2406 4219 
Q 1781 4219 1451 3797 
Q 1122 3375 1075 2522 
Q 1259 2794 1537 2939 
Q 1816 3084 2150 3084 
Q 2853 3084 3261 2657 
Q 3669 2231 3669 1497 
Q 3669 778 3244 343 
Q 2819 -91 2113 -91 
Q 1303 -91 875 529 
Q 447 1150 447 2328 
Q 447 3434 972 4092 
Q 1497 4750 2381 4750 
Q 2619 4750 2861 4703 
Q 3103 4656 3366 4563 
z
" transform="scale(0.015625)"/>
       </defs>
       <use xlink:href="#DejaVuSans-36"/>
       <use xlink:href="#DejaVuSans-30" x="63.623047"/>
       <use xlink:href="#DejaVuSans-30" x="127.246094"/>
      </g>
     </g>
    </g>
    <g id="ytick_5">
     <g id="line2d_17">
      <g>
       <use xlink:href="#m9d39e6d86a" x="53.328125" y="119.095875" style="stroke: #000000; stroke-width: 0.8"/>
      </g>
     </g>
     <g id="text_7">
      <!-- 800 -->
      <g transform="translate(27.240625 122.895094) scale(0.1 -0.1)">
       <defs>
        <path id="DejaVuSans-38" d="M 2034 2216 
Q 1584 2216 1326 1975 
Q 1069 1734 1069 1313 
Q 1069 891 1326 650 
Q 1584 409 2034 409 
Q 2484 409 2743 651 
Q 3003 894 3003 1313 
Q 3003 1734 2745 1975 
Q 2488 2216 2034 2216 
z
M 1403 2484 
Q 997 2584 770 2862 
Q 544 3141 544 3541 
Q 544 4100 942 4425 
Q 1341 4750 2034 4750 
Q 2731 4750 3128 4425 
Q 3525 4100 3525 3541 
Q 3525 3141 3298 2862 
Q 3072 2584 2669 2484 
Q 3125 2378 3379 2068 
Q 3634 1759 3634 1313 
Q 3634 634 3220 271 
Q 2806 -91 2034 -91 
Q 1263 -91 848 271 
Q 434 634 434 1313 
Q 434 1759 690 2068 
Q 947 2378 1403 2484 
z
M 1172 3481 
Q 1172 3119 1398 2916 
Q 1625 2713 2034 2713 
Q 2441 2713 2670 2916 
Q 2900 3119 2900 3481 
Q 2900 3844 2670 4047 
Q 2441 4250 2034 4250 
Q 1625 4250 1398 4047 
Q 1172 3844 1172 3481 
z
" transform="scale(0.015625)"/>
       </defs>
       <use xlink:href="#DejaVuSans-38"/>
       <use xlink:href="#DejaVuSans-30" x="63.623047"/>
       <use xlink:href="#DejaVuSans-30" x="127.246094"/>
      </g>
     </g>
    </g>
    <g id="ytick_6">
     <g id="line2d_18">
      <g>
       <use xlink:href="#m9d39e6d86a" x="53.328125" y="69.364375" style="stroke: #000000; stroke-width: 0.8"/>
      </g>
     </g>
     <g id="text_8">
      <!-- 1000 -->
      <g transform="translate(20.878125 73.163594) scale(0.1 -0.1)">
       <defs>
        <path id="DejaVuSans-31" d="M 794 531 
L 1825 531 
L 1825 4091 
L 703 3866 
L 703 4441 
L 1819 4666 
L 2450 4666 
L 2450 531 
L 3481 531 
L 3481 0 
L 794 0 
L 794 531 
z
" transform="scale(0.015625)"/>
       </defs>
       <use xlink:href="#DejaVuSans-31"/>
       <use xlink:href="#DejaVuSans-30" x="63.623047"/>
       <use xlink:href="#DejaVuSans-30" x="127.246094"/>
       <use xlink:href="#DejaVuSans-30" x="190.869141"/>
      </g>
     </g>
    </g>
    <g id="ytick_7">
     <g id="line2d_19">
      <g>
       <use xlink:href="#m9d39e6d86a" x="53.328125" y="19.632875" style="stroke: #000000; stroke-width: 0.8"/>
      </g>
     </g>
     <g id="text_9">
      <!-- 1200 -->
      <g transform="translate(20.878125 23.432094) scale(0.1 -0.1)">
       <use xlink:href="#DejaVuSans-31"/>
       <use xlink:href="#DejaVuSans-32" x="63.623047"/>
       <use xlink:href="#DejaVuSans-30" x="127.246094"/>
       <use xlink:href="#DejaVuSans-30" x="190.869141"/>
      </g>
     </g>
    </g>
    <g id="text_10">
     <!-- time ago (generations) -->
     <g transform="translate(14.798438 220.082031) rotate(-90) scale(0.1 -0.1)">
      <defs>
       <path id="DejaVuSans-74" d="M 1172 4494 
L 1172 3500 
L 2356 3500 
L 2356 3053 
L 1172 3053 
L 1172 1153 
Q 1172 725 1289 603 
Q 1406 481 1766 481 
L 2356 481 
L 2356 0 
L 1766 0 
Q 1100 0 847 248 
Q 594 497 594 1153 
L 594 3053 
L 172 3053 
L 172 3500 
L 594 3500 
L 594 4494 
L 1172 4494 
z
" transform="scale(0.015625)"/>
       <path id="DejaVuSans-69" d="M 603 3500 
L 1178 3500 
L 1178 0 
L 603 0 
L 603 3500 
z
M 603 4863 
L 1178 4863 
L 1178 4134 
L 603 4134 
L 603 4863 
z
" transform="scale(0.015625)"/>
       <path id="DejaVuSans-6d" d="M 3328 2828 
Q 3544 3216 3844 3400 
Q 4144 3584 4550 3584 
Q 5097 3584 5394 3201 
Q 5691 2819 5691 2113 
L 5691 0 
L 5113 0 
L 5113 2094 
Q 5113 2597 4934 2840 
Q 4756 3084 4391 3084 
Q 3944 3084 3684 2787 
Q 3425 2491 3425 1978 
L 3425 0 
L 2847 0 
L 2847 2094 
Q 2847 2600 2669 2842 
Q 2491 3084 2119 3084 
Q 1678 3084 1418 2786 
Q 1159 2488 1159 1978 
L 1159 0 
L 581 0 
L 581 3500 
L 1159 3500 
L 1159 2956 
Q 1356 3278 1631 3431 
Q 1906 3584 2284 3584 
Q 2666 3584 2933 3390 
Q 3200 3197 3328 2828 
z
" transform="scale(0.015625)"/>
       <path id="DejaVuSans-65" d="M 3597 1894 
L 3597 1613 
L 953 1613 
Q 991 1019 1311 708 
Q 1631 397 2203 397 
Q 2534 397 2845 478 
Q 3156 559 3463 722 
L 3463 178 
Q 3153 47 2828 -22 
Q 2503 -91 2169 -91 
Q 1331 -91 842 396 
Q 353 884 353 1716 
Q 353 2575 817 3079 
Q 1281 3584 2069 3584 
Q 2775 3584 3186 3129 
Q 3597 2675 3597 1894 
z
M 3022 2063 
Q 3016 2534 2758 2815 
Q 2500 3097 2075 3097 
Q 1594 3097 1305 2825 
Q 1016 2553 972 2059 
L 3022 2063 
z
" transform="scale(0.015625)"/>
       <path id="DejaVuSans-20" transform="scale(0.015625)"/>
       <path id="DejaVuSans-61" d="M 2194 1759 
Q 1497 1759 1228 1600 
Q 959 1441 959 1056 
Q 959 750 1161 570 
Q 1363 391 1709 391 
Q 2188 391 2477 730 
Q 2766 1069 2766 1631 
L 2766 1759 
L 2194 1759 
z
M 3341 1997 
L 3341 0 
L 2766 0 
L 2766 531 
Q 2569 213 2275 61 
Q 1981 -91 1556 -91 
Q 1019 -91 701 211 
Q 384 513 384 1019 
Q 384 1609 779 1909 
Q 1175 2209 1959 2209 
L 2766 2209 
L 2766 2266 
Q 2766 2663 2505 2880 
Q 2244 3097 1772 3097 
Q 1472 3097 1187 3025 
Q 903 2953 641 2809 
L 641 3341 
Q 956 3463 1253 3523 
Q 1550 3584 1831 3584 
Q 2591 3584 2966 3190 
Q 3341 2797 3341 1997 
z
" transform="scale(0.015625)"/>
       <path id="DejaVuSans-67" d="M 2906 1791 
Q 2906 2416 2648 2759 
Q 2391 3103 1925 3103 
Q 1463 3103 1205 2759 
Q 947 2416 947 1791 
Q 947 1169 1205 825 
Q 1463 481 1925 481 
Q 2391 481 2648 825 
Q 2906 1169 2906 1791 
z
M 3481 434 
Q 3481 -459 3084 -895 
Q 2688 -1331 1869 -1331 
Q 1566 -1331 1297 -1286 
Q 1028 -1241 775 -1147 
L 775 -588 
Q 1028 -725 1275 -790 
Q 1522 -856 1778 -856 
Q 2344 -856 2625 -561 
Q 2906 -266 2906 331 
L 2906 616 
Q 2728 306 2450 153 
Q 2172 0 1784 0 
Q 1141 0 747 490 
Q 353 981 353 1791 
Q 353 2603 747 3093 
Q 1141 3584 1784 3584 
Q 2172 3584 2450 3431 
Q 2728 3278 2906 2969 
L 2906 3500 
L 3481 3500 
L 3481 434 
z
" transform="scale(0.015625)"/>
       <path id="DejaVuSans-6f" d="M 1959 3097 
Q 1497 3097 1228 2736 
Q 959 2375 959 1747 
Q 959 1119 1226 758 
Q 1494 397 1959 397 
Q 2419 397 2687 759 
Q 2956 1122 2956 1747 
Q 2956 2369 2687 2733 
Q 2419 3097 1959 3097 
z
M 1959 3584 
Q 2709 3584 3137 3096 
Q 3566 2609 3566 1747 
Q 3566 888 3137 398 
Q 2709 -91 1959 -91 
Q 1206 -91 779 398 
Q 353 888 353 1747 
Q 353 2609 779 3096 
Q 1206 3584 1959 3584 
z
" transform="scale(0.015625)"/>
       <path id="DejaVuSans-28" d="M 1984 4856 
Q 1566 4138 1362 3434 
Q 1159 2731 1159 2009 
Q 1159 1288 1364 580 
Q 1569 -128 1984 -844 
L 1484 -844 
Q 1016 -109 783 600 
Q 550 1309 550 2009 
Q 550 2706 781 3412 
Q 1013 4119 1484 4856 
L 1984 4856 
z
" transform="scale(0.015625)"/>
       <path id="DejaVuSans-6e" d="M 3513 2113 
L 3513 0 
L 2938 0 
L 2938 2094 
Q 2938 2591 2744 2837 
Q 2550 3084 2163 3084 
Q 1697 3084 1428 2787 
Q 1159 2491 1159 1978 
L 1159 0 
L 581 0 
L 581 3500 
L 1159 3500 
L 1159 2956 
Q 1366 3272 1645 3428 
Q 1925 3584 2291 3584 
Q 2894 3584 3203 3211 
Q 3513 2838 3513 2113 
z
" transform="scale(0.015625)"/>
       <path id="DejaVuSans-72" d="M 2631 2963 
Q 2534 3019 2420 3045 
Q 2306 3072 2169 3072 
Q 1681 3072 1420 2755 
Q 1159 2438 1159 1844 
L 1159 0 
L 581 0 
L 581 3500 
L 1159 3500 
L 1159 2956 
Q 1341 3275 1631 3429 
Q 1922 3584 2338 3584 
Q 2397 3584 2469 3576 
Q 2541 3569 2628 3553 
L 2631 2963 
z
" transform="scale(0.015625)"/>
       <path id="DejaVuSans-73" d="M 2834 3397 
L 2834 2853 
Q 2591 2978 2328 3040 
Q 2066 3103 1784 3103 
Q 1356 3103 1142 2972 
Q 928 2841 928 2578 
Q 928 2378 1081 2264 
Q 1234 2150 1697 2047 
L 1894 2003 
Q 2506 1872 2764 1633 
Q 3022 1394 3022 966 
Q 3022 478 2636 193 
Q 2250 -91 1575 -91 
Q 1294 -91 989 -36 
Q 684 19 347 128 
L 347 722 
Q 666 556 975 473 
Q 1284 391 1588 391 
Q 1994 391 2212 530 
Q 2431 669 2431 922 
Q 2431 1156 2273 1281 
Q 2116 1406 1581 1522 
L 1381 1569 
Q 847 1681 609 1914 
Q 372 2147 372 2553 
Q 372 3047 722 3315 
Q 1072 3584 1716 3584 
Q 2034 3584 2315 3537 
Q 2597 3491 2834 3397 
z
" transform="scale(0.015625)"/>
       <path id="DejaVuSans-29" d="M 513 4856 
L 1013 4856 
Q 1481 4119 1714 3412 
Q 1947 2706 1947 2009 
Q 1947 1309 1714 600 
Q 1481 -109 1013 -844 
L 513 -844 
Q 928 -128 1133 580 
Q 1338 1288 1338 2009 
Q 1338 2731 1133 3434 
Q 928 4138 513 4856 
z
" transform="scale(0.015625)"/>
      </defs>
      <use xlink:href="#DejaVuSans-74"/>
      <use xlink:href="#DejaVuSans-69" x="39.208984"/>
      <use xlink:href="#DejaVuSans-6d" x="66.992188"/>
      <use xlink:href="#DejaVuSans-65" x="164.404297"/>
      <use xlink:href="#DejaVuSans-20" x="225.927734"/>
      <use xlink:href="#DejaVuSans-61" x="257.714844"/>
      <use xlink:href="#DejaVuSans-67" x="318.994141"/>
      <use xlink:href="#DejaVuSans-6f" x="382.470703"/>
      <use xlink:href="#DejaVuSans-20" x="443.652344"/>
      <use xlink:href="#DejaVuSans-28" x="475.439453"/>
      <use xlink:href="#DejaVuSans-67" x="514.453125"/>
      <use xlink:href="#DejaVuSans-65" x="577.929688"/>
      <use xlink:href="#DejaVuSans-6e" x="639.453125"/>
      <use xlink:href="#DejaVuSans-65" x="702.832031"/>
      <use xlink:href="#DejaVuSans-72" x="764.355469"/>
      <use xlink:href="#DejaVuSans-61" x="805.46875"/>
      <use xlink:href="#DejaVuSans-74" x="866.748047"/>
      <use xlink:href="#DejaVuSans-69" x="905.957031"/>
      <use xlink:href="#DejaVuSans-6f" x="933.740234"/>
      <use xlink:href="#DejaVuSans-6e" x="994.921875"/>
      <use xlink:href="#DejaVuSans-73" x="1058.300781"/>
      <use xlink:href="#DejaVuSans-29" x="1110.400391"/>
     </g>
    </g>
   </g>
   <g id="patch_6">
    <path d="M 262.544078 69.364375 
L 261.544078 69.332939 
L 260.544078 69.295998 
L 259.544078 69.198252 
L 258.544078 69.16573 
L 257.544078 69.092105 
L 256.544078 69.05354 
L 255.544078 69.018127 
L 254.544078 68.960487 
L 253.544078 68.890101 
L 252.544078 68.838136 
L 251.544078 68.779047 
L 250.544078 68.690726 
L 249.544078 68.644581 
L 248.544078 68.60217 
L 247.544078 68.571678 
L 246.544078 68.545633 
L 245.544078 68.524433 
L 244.544078 68.470132 
L 243.544078 68.442194 
L 242.544078 68.41247 
L 241.544078 68.387075 
L 240.544078 68.375875 
L 239.544078 68.365751 
L 238.544078 68.365955 
L 237.544078 68.375465 
L 236.544078 68.387119 
L 235.544078 68.418148 
L 234.544078 68.429316 
L 233.544078 68.459433 
L 232.544078 68.51921 
L 231.544078 68.556402 
L 230.544078 68.595498 
L 229.544078 68.637938 
L 228.544078 68.670703 
L 227.544078 68.738129 
L 226.544078 68.777255 
L 225.544078 68.81993 
L 224.544078 68.89051 
L 223.544078 68.926901 
L 222.544078 68.985304 
L 221.544078 69.096257 
L 220.544078 69.166915 
L 219.544078 69.279855 
L 218.544078 69.325628 
L 217.544078 69.386911 
L 216.544078 69.43541 
L 215.544078 69.516233 
L 214.544078 69.634752 
L 213.544078 69.704963 
L 212.544078 69.788225 
L 211.544078 69.821367 
L 210.544078 69.872604 
L 209.544078 69.941003 
L 208.544078 70.007218 
L 207.544078 70.084135 
L 206.544078 70.111451 
L 205.53845 70.137928 
" clip-path="url(#pc108df0704)" style="fill: none; stroke: #ffffff; stroke-width: 3; stroke-linecap: round"/>
    <path d="M 262.544078 69.364375 
L 261.544078 69.332939 
L 260.544078 69.295998 
L 259.544078 69.198252 
L 258.544078 69.16573 
L 257.544078 69.092105 
L 256.544078 69.05354 
L 255.544078 69.018127 
L 254.544078 68.960487 
L 253.544078 68.890101 
L 252.544078 68.838136 
L 251.544078 68.779047 
L 250.544078 68.690726 
L 249.544078 68.644581 
L 248.544078 68.60217 
L 247.544078 68.571678 
L 246.544078 68.545633 
L 245.544078 68.524433 
L 244.544078 68.470132 
L 243.544078 68.442194 
L 242.544078 68.41247 
L 241.544078 68.387075 
L 240.544078 68.375875 
L 239.544078 68.365751 
L 238.544078 68.365955 
L 237.544078 68.375465 
L 236.544078 68.387119 
L 235.544078 68.418148 
L 234.544078 68.429316 
L 233.544078 68.459433 
L 232.544078 68.51921 
L 231.544078 68.556402 
L 230.544078 68.595498 
L 229.544078 68.637938 
L 228.544078 68.670703 
L 227.544078 68.738129 
L 226.544078 68.777255 
L 225.544078 68.81993 
L 224.544078 68.89051 
L 223.544078 68.926901 
L 222.544078 68.985304 
L 221.544078 69.096257 
L 220.544078 69.166915 
L 219.544078 69.279855 
L 218.544078 69.325628 
L 217.544078 69.386911 
L 216.544078 69.43541 
L 215.544078 69.516233 
L 214.544078 69.634752 
L 213.544078 69.704963 
L 212.544078 69.788225 
L 211.544078 69.821367 
L 210.544078 69.872604 
L 209.544078 69.941003 
L 208.544078 70.007218 
L 207.544078 70.084135 
L 206.544078 70.111451 
L 205.53845 70.137928 
" clip-path="url(#pc108df0704)" style="fill: none; stroke: #1f77b4; stroke-linecap: round"/>
    <path d="M 209.53845 71.364375 
L 208.658082 70.889044 
L 207.780175 70.40879 
L 206.929461 69.874149 
L 205.627287 69.186702 
L 206.55464 69.160687 
L 207.466314 68.747967 
L 208.376579 68.332428 
L 209.719075 67.725624 
L 209.064176 68.364375 
L 209.012212 69.364375 
L 208.953122 71.364375 
z
" clip-path="url(#pc108df0704)" style="fill: #ffffff; stroke: #ffffff; stroke-width: 3; stroke-linecap: round"/>
    <path d="M 209.53845 71.364375 
L 208.658082 70.889044 
L 207.780175 70.40879 
L 206.929461 69.874149 
L 205.627287 69.186702 
L 206.55464 69.160687 
L 207.466314 68.747967 
L 208.376579 68.332428 
L 209.719075 67.725624 
L 209.064176 68.364375 
L 209.012212 69.364375 
L 208.953122 71.364375 
z
" clip-path="url(#pc108df0704)" style="fill: #ffffff; stroke: #1f77b4; stroke-linecap: round"/>
   </g>
   <g id="patch_7">
    <path d="M 390.784047 69.364375 
L 391.784047 69.395811 
L 392.784047 69.432752 
L 393.784047 69.530498 
L 394.784047 69.56302 
L 395.784047 69.636645 
L 396.784047 69.67521 
L 397.784047 69.710623 
L 398.784047 69.768263 
L 399.784047 69.838649 
L 400.784047 69.890614 
L 401.784047 69.949703 
L 402.784047 70.038024 
L 403.784047 70.084169 
L 404.784047 70.12658 
L 405.784047 70.157072 
L 406.784047 70.183117 
L 407.784047 70.204317 
L 408.784047 70.258618 
L 409.784047 70.286556 
L 410.784047 70.31628 
L 411.784047 70.341675 
L 412.784047 70.352875 
L 413.784047 70.362999 
L 414.784047 70.362795 
L 415.784047 70.353285 
L 416.784047 70.341631 
L 417.784047 70.310602 
L 418.784047 70.299434 
L 419.784047 70.269317 
L 420.784047 70.20954 
L 421.784047 70.172348 
L 422.784047 70.133252 
L 423.784047 70.090812 
L 424.784047 70.058047 
L 425.784047 69.990621 
L 426.784047 69.951495 
L 427.784047 69.90882 
L 428.784047 69.83824 
L 429.784047 69.801849 
L 430.784047 69.743446 
L 431.784047 69.632493 
L 432.784047 69.561835 
L 433.784047 69.448895 
L 434.784047 69.403122 
L 435.784047 69.341839 
L 436.784047 69.29334 
L 437.784047 69.212517 
L 438.784047 69.093998 
L 439.784047 69.023787 
L 440.784047 68.940525 
L 441.784047 68.907383 
L 442.784047 68.856146 
L 443.784047 68.787747 
L 444.784047 68.721532 
L 445.784047 68.644615 
L 446.784047 68.617299 
L 447.789675 68.590822 
" clip-path="url(#pc108df0704)" style="fill: none; stroke: #ffffff; stroke-width: 3; stroke-linecap: round"/>
    <path d="M 390.784047 69.364375 
L 391.784047 69.395811 
L 392.784047 69.432752 
L 393.784047 69.530498 
L 394.784047 69.56302 
L 395.784047 69.636645 
L 396.784047 69.67521 
L 397.784047 69.710623 
L 398.784047 69.768263 
L 399.784047 69.838649 
L 400.784047 69.890614 
L 401.784047 69.949703 
L 402.784047 70.038024 
L 403.784047 70.084169 
L 404.784047 70.12658 
L 405.784047 70.157072 
L 406.784047 70.183117 
L 407.784047 70.204317 
L 408.784047 70.258618 
L 409.784047 70.286556 
L 410.784047 70.31628 
L 411.784047 70.341675 
L 412.784047 70.352875 
L 413.784047 70.362999 
L 414.784047 70.362795 
L 415.784047 70.353285 
L 416.784047 70.341631 
L 417.784047 70.310602 
L 418.784047 70.299434 
L 419.784047 70.269317 
L 420.784047 70.20954 
L 421.784047 70.172348 
L 422.784047 70.133252 
L 423.784047 70.090812 
L 424.784047 70.058047 
L 425.784047 69.990621 
L 426.784047 69.951495 
L 427.784047 69.90882 
L 428.784047 69.83824 
L 429.784047 69.801849 
L 430.784047 69.743446 
L 431.784047 69.632493 
L 432.784047 69.561835 
L 433.784047 69.448895 
L 434.784047 69.403122 
L 435.784047 69.341839 
L 436.784047 69.29334 
L 437.784047 69.212517 
L 438.784047 69.093998 
L 439.784047 69.023787 
L 440.784047 68.940525 
L 441.784047 68.907383 
L 442.784047 68.856146 
L 443.784047 68.787747 
L 444.784047 68.721532 
L 445.784047 68.644615 
L 446.784047 68.617299 
L 447.789675 68.590822 
" clip-path="url(#pc108df0704)" style="fill: none; stroke: #1f77b4; stroke-linecap: round"/>
    <path d="M 443.789675 67.364375 
L 444.670043 67.839706 
L 445.54795 68.31996 
L 446.398664 68.854601 
L 447.700838 69.542048 
L 446.773485 69.568063 
L 445.861811 69.980783 
L 444.951546 70.396322 
L 443.60905 71.003126 
L 444.263949 70.364375 
L 444.315913 69.364375 
L 444.375003 67.364375 
z
" clip-path="url(#pc108df0704)" style="fill: #ffffff; stroke: #ffffff; stroke-width: 3; stroke-linecap: round"/>
    <path d="M 443.789675 67.364375 
L 444.670043 67.839706 
L 445.54795 68.31996 
L 446.398664 68.854601 
L 447.700838 69.542048 
L 446.773485 69.568063 
L 445.861811 69.980783 
L 444.951546 70.396322 
L 443.60905 71.003126 
L 444.263949 70.364375 
L 444.315913 69.364375 
L 444.375003 67.364375 
z
" clip-path="url(#pc108df0704)" style="fill: #ffffff; stroke: #1f77b4; stroke-linecap: round"/>
   </g>
   <g id="line2d_20">
    <path d="M 446.440952 190.753589 
L 444.440952 189.753589 
L 444.440952 191.753589 
z
" clip-path="url(#pc108df0704)" style="fill: #ff7f0e; fill-opacity: 0.5; stroke: #ff7f0e; stroke-opacity: 0.5; stroke-linejoin: miter"/>
   </g>
   <g id="line2d_21">
    <path d="M 446.440952 81.681948 
L 444.440952 80.681948 
L 444.440952 82.681948 
z
" clip-path="url(#pc108df0704)" style="fill: #ff7f0e; fill-opacity: 0.5; stroke: #ff7f0e; stroke-opacity: 0.5; stroke-linejoin: miter"/>
   </g>
   <g id="line2d_22">
    <path d="M 446.440952 282.175506 
L 444.440952 281.175506 
L 444.440952 283.175506 
z
" clip-path="url(#pc108df0704)" style="fill: #ff7f0e; fill-opacity: 0.5; stroke: #ff7f0e; stroke-opacity: 0.5; stroke-linejoin: miter"/>
   </g>
   <g id="line2d_23">
    <path d="M 446.440952 82.133075 
L 444.440952 81.133075 
L 444.440952 83.133075 
z
" clip-path="url(#pc108df0704)" style="fill: #ff7f0e; fill-opacity: 0.5; stroke: #ff7f0e; stroke-opacity: 0.5; stroke-linejoin: miter"/>
   </g>
   <g id="line2d_24">
    <path d="M 446.440952 240.482646 
L 444.440952 239.482646 
L 444.440952 241.482646 
z
" clip-path="url(#pc108df0704)" style="fill: #ff7f0e; fill-opacity: 0.5; stroke: #ff7f0e; stroke-opacity: 0.5; stroke-linejoin: miter"/>
   </g>
   <g id="line2d_25">
    <path d="M 446.440952 212.758579 
L 444.440952 211.758579 
L 444.440952 213.758579 
z
" clip-path="url(#pc108df0704)" style="fill: #ff7f0e; fill-opacity: 0.5; stroke: #ff7f0e; stroke-opacity: 0.5; stroke-linejoin: miter"/>
   </g>
   <g id="line2d_26">
    <path d="M 446.440952 112.207417 
L 444.440952 111.207417 
L 444.440952 113.207417 
z
" clip-path="url(#pc108df0704)" style="fill: #ff7f0e; fill-opacity: 0.5; stroke: #ff7f0e; stroke-opacity: 0.5; stroke-linejoin: miter"/>
   </g>
   <g id="line2d_27">
    <path d="M 446.440952 216.271441 
L 444.440952 215.271441 
L 444.440952 217.271441 
z
" clip-path="url(#pc108df0704)" style="fill: #ff7f0e; fill-opacity: 0.5; stroke: #ff7f0e; stroke-opacity: 0.5; stroke-linejoin: miter"/>
   </g>
   <g id="line2d_28">
    <path d="M 446.440952 181.361283 
L 444.440952 180.361283 
L 444.440952 182.361283 
z
" clip-path="url(#pc108df0704)" style="fill: #ff7f0e; fill-opacity: 0.5; stroke: #ff7f0e; stroke-opacity: 0.5; stroke-linejoin: miter"/>
   </g>
   <g id="line2d_29">
    <path d="M 446.440952 311.169095 
L 444.440952 310.169095 
L 444.440952 312.169095 
z
" clip-path="url(#pc108df0704)" style="fill: #ff7f0e; fill-opacity: 0.5; stroke: #ff7f0e; stroke-opacity: 0.5; stroke-linejoin: miter"/>
   </g>
   <g id="patch_8">
    <path d="M 53.328125 318.021875 
L 53.328125 7.2 
" style="fill: none; stroke: #000000; stroke-width: 0.8; stroke-linejoin: miter; stroke-linecap: square"/>
   </g>
   <g id="text_11">
    <g id="patch_9">
     <path d="M 323.239062 45.12125 
L 330.089062 45.12125 
Q 332.089062 45.12125 332.089062 43.12125 
L 332.089062 33.443125 
Q 332.089062 31.443125 330.089062 31.443125 
L 323.239062 31.443125 
Q 321.239062 31.443125 321.239062 33.443125 
L 321.239062 43.12125 
Q 321.239062 45.12125 323.239062 45.12125 
z
" style="fill: #ffffff; opacity: 0.6"/>
    </g>
    <!-- X -->
    <g transform="translate(323.239062 41.041562) scale(0.1 -0.1)">
     <defs>
      <path id="DejaVuSans-58" d="M 403 4666 
L 1081 4666 
L 2241 2931 
L 3406 4666 
L 4084 4666 
L 2584 2425 
L 4184 0 
L 3506 0 
L 2194 1984 
L 872 0 
L 191 0 
L 1856 2491 
L 403 4666 
z
" transform="scale(0.015625)"/>
     </defs>
     <use xlink:href="#DejaVuSans-58"/>
    </g>
   </g>
  </g>
 </g>
 <defs>
  <clipPath id="pc108df0704">
   <rect x="53.328125" y="7.2" width="546.671875" height="310.821875"/>
  </clipPath>
 </defs>
</svg>