<?xml version="1.0" encoding="utf-8" standalone="no"?>
<!DOCTYPE svg PUBLIC "-//W3C//DTD SVG 1.1//EN"
  "http://www.w3.org/Graphics/SVG/1.1/DTD/svg11.dtd">
<svg xmlns:xlink="http://www.w3.org/1999/xlink" width="607.2pt" height="338.4pt" viewBox="0 0 607.2 338.4" xmlns="http://www.w3.org/2000/svg" version="1.1">
 <metadata>
  <rdf:RDF xmlns:dc="http://purl.org/dc/elements/1.1/" xmlns:cc="http://creativecommons.org/ns#" xmlns:rdf="http://www.w3.org/1999/02/22-rdf-syntax-ns#">
   <cc:Work>
    <dc:type rdf:resource="http://purl.org/dc/dcmitype/StillImage"/>
    <dc:date>2024-11-19T22:01:01.918227</dc:date>
    <dc:format>image/svg+xml</dc:format>
    <dc:creator>
     <cc:Agent>
      <dc:title>Matplotlib v3.9.2, https://matplotlib.org/</dc:title>
     </cc:Agent>
    </dc:creator>
   </cc:Work>
  </rdf:RDF>
 </metadata>
 <defs>
  <style type="text/css">*{stroke-linejoin: round; stroke-linecap: butt}</style>
 </defs>
 <g id="figure_1">
  <g id="patch_1">
   <path d="M 0 338.4 
L 607.2 338.4 
L 607.2 0 
L 0 0 
z
" style="fill: #ffffff"/>
  </g>
  <g id="axes_1">
   <g id="patch_2">
    <path d="M 53.328125 318.021875 
L 600 318.021875 
L 600 7.2 
L 53.328125 7.2 
z
" style="fill: #ffffff"/>
   </g>
   <g id="line2d_1">
    <path d="M 370.894787 190.753589 
L 369.894787 190.722153 
L 368.894787 190.685213 
L 367.894787 190.587466 
L 366.894787 190.554944 
L 365.894787 190.48132 
L 364.894787 190.442754 
L 363.894787 190.407341 
L 362.894787 190.349701 
L 361.894787 190.279315 
L 360.894787 190.227351 
L 359.894787 190.168261 
L 358.894787 190.07994 
L 357.894787 190.033796 
L 356.894787 189.991385 
L 355.894787 189.960892 
L 354.894787 189.934847 
L 353.894787 189.913647 
L 352.894787 189.859346 
L 351.894787 189.831408 
L 350.894787 189.801684 
L 349.894787 189.77629 
L 348.894787 189.765089 
L 347.894787 189.754965 
L 346.894787 189.75517 
L 345.894787 189.764679 
L 344.894787 189.776333 
L 343.894787 189.807362 
L 342.894787 189.81853 
L 341.894787 189.848648 
L 340.894787 189.908425 
L 339.894787 189.945616 
L 338.894787 189.984712 
L 337.894787 190.027152 
L 336.894787 190.059917 
L 335.894787 190.127343 
L 334.894787 190.166469 
L 333.894787 190.209144 
L 332.894787 190.279725 
L 331.894787 190.316115 
L 330.894787 190.374519 
L 329.894787 190.485471 
L 328.894787 190.556129 
L 327.894787 190.669069 
L 326.894787 190.714842 
L 325.894787 190.776125 
L 324.894787 190.824625 
L 323.894787 190.905447 
L 322.894787 191.023966 
L 321.894787 191.094177 
L 320.894787 191.177439 
L 319.894787 191.210581 
L 318.894787 191.261819 
L 317.894787 191.330217 
L 316.894787 191.396432 
L 315.894787 191.473349 
L 314.894787 191.500665 
L 313.894787 191.527142 
L 312.894787 191.549793 
L 311.894787 191.569324 
L 310.894787 191.595718 
L 309.894787 191.645489 
L 308.894787 191.680562 
L 307.894787 191.716428 
L 306.894787 191.731795 
L 305.894787 191.747564 
L 304.894787 191.750977 
L 303.894787 191.753395 
L 302.894787 191.752909 
L 301.894787 191.750979 
L 300.894787 191.737722 
L 299.894787 191.729332 
L 298.894787 191.707795 
L 297.894787 191.684763 
L 296.894787 191.667529 
L 295.894787 191.649067 
L 294.894787 191.628614 
L 293.894787 191.612014 
L 292.894787 191.549236 
L 291.894787 191.47397 
L 290.894787 191.441331 
L 289.894787 191.373768 
L 288.894787 191.319721 
L 287.894787 191.286016 
L 286.894787 191.19589 
L 285.894787 191.167355 
L 284.894787 191.135869 
L 283.894787 191.104858 
L 282.433338 191.05005 
" clip-path="url(#pcb01ae2f52)" style="fill: none; stroke: #ff7f0e; stroke-opacity: 0.5; stroke-width: 0.2; stroke-linecap: square"/>
   </g>
   <g id="line2d_2">
    <path d="M 370.894787 81.681948 
L 369.894787 81.650512 
L 368.894787 81.613572 
L 367.894787 81.515825 
L 366.894787 81.483304 
L 365.894787 81.409679 
L 364.894787 81.371113 
L 363.894787 81.3357 
L 362.894787 81.27806 
L 361.894787 81.207674 
L 360.894787 81.15571 
L 359.894787 81.09662 
L 358.894787 81.008299 
L 357.894787 80.962155 
L 356.894787 80.919744 
L 355.894787 80.889251 
L 354.894787 80.863206 
L 353.894787 80.842006 
L 352.894787 80.787705 
L 351.894787 80.759767 
L 350.894787 80.730043 
L 349.894787 80.704649 
L 348.894787 80.693448 
L 347.894787 80.683324 
L 346.894787 80.683529 
L 345.894787 80.693039 
L 344.894787 80.704692 
L 343.894787 80.735721 
L 342.894787 80.746889 
L 341.894787 80.777007 
L 340.894787 80.836784 
L 339.894787 80.873975 
L 338.894787 80.913071 
L 337.894787 80.955511 
L 336.894787 80.988276 
L 335.894787 81.055703 
L 334.894787 81.094828 
L 333.894787 81.137503 
L 332.894787 81.208084 
L 331.894787 81.244474 
L 330.894787 81.302878 
L 329.894787 81.41383 
L 328.894787 81.484489 
L 327.894787 81.597428 
L 326.894787 81.643201 
L 325.894787 81.704485 
L 324.894787 81.752984 
L 323.894787 81.833807 
L 322.894787 81.952325 
L 321.894787 82.022536 
L 320.894787 82.105799 
L 319.894787 82.13894 
L 318.894787 82.190178 
L 317.894787 82.258576 
L 316.894787 82.324791 
L 315.894787 82.401708 
L 314.894787 82.429024 
L 313.894787 82.455501 
L 312.894787 82.478152 
L 311.894787 82.497683 
L 310.894787 82.524077 
L 309.894787 82.573848 
L 308.894787 82.608921 
L 307.894787 82.644787 
L 306.894787 82.660154 
L 305.894787 82.675924 
L 304.894787 82.679336 
L 303.894787 82.681754 
L 302.894787 82.681268 
L 301.894787 82.679338 
L 300.894787 82.666081 
L 299.894787 82.657691 
L 298.894787 82.636154 
L 297.894787 82.613122 
L 296.894787 82.595888 
L 295.894787 82.577426 
L 294.894787 82.556973 
L 293.894787 82.540373 
L 292.894787 82.477595 
L 291.894787 82.40233 
L 290.894787 82.36969 
L 289.894787 82.302127 
L 288.894787 82.24808 
L 287.894787 82.214375 
L 286.894787 82.124249 
L 285.894787 82.095714 
L 284.894787 82.064228 
L 283.894787 82.033217 
L 282.433338 81.97841 
" clip-path="url(#pcb01ae2f52)" style="fill: none; stroke: #ff7f0e; stroke-opacity: 0.5; stroke-width: 0.2; stroke-linecap: square"/>
   </g>
   <g id="line2d_3">
    <path d="M 370.894787 282.175506 
L 369.894787 282.14407 
L 368.894787 282.107129 
L 367.894787 282.009383 
L 366.894787 281.976861 
L 365.894787 281.903237 
L 364.894787 281.864671 
L 363.894787 281.829258 
L 362.894787 281.771618 
L 361.894787 281.701232 
L 360.894787 281.649267 
L 359.894787 281.590178 
L 358.894787 281.501857 
L 357.894787 281.455712 
L 356.894787 281.413302 
L 355.894787 281.382809 
L 354.894787 281.356764 
L 353.894787 281.335564 
L 352.894787 281.281263 
L 351.894787 281.253325 
L 350.894787 281.223601 
L 349.894787 281.198206 
L 348.894787 281.187006 
L 347.894787 281.176882 
L 346.894787 281.177086 
L 345.894787 281.186596 
L 344.894787 281.19825 
L 343.894787 281.229279 
L 342.894787 281.240447 
L 341.894787 281.270564 
L 340.894787 281.330341 
L 339.894787 281.367533 
L 338.894787 281.406629 
L 337.894787 281.449069 
L 336.894787 281.481834 
L 335.894787 281.54926 
L 334.894787 281.588386 
L 333.894787 281.631061 
L 332.894787 281.701641 
L 331.894787 281.738032 
L 330.894787 281.796435 
L 329.894787 281.907388 
L 328.894787 281.978046 
L 327.894787 282.090986 
L 326.894787 282.136759 
L 325.894787 282.198042 
L 324.894787 282.246542 
L 323.894787 282.327364 
L 322.894787 282.445883 
L 321.894787 282.516094 
L 320.894787 282.599356 
L 319.894787 282.632498 
L 318.894787 282.683735 
L 317.894787 282.752134 
L 316.894787 282.818349 
L 315.894787 282.895266 
L 314.894787 282.922582 
L 313.894787 282.949059 
L 312.894787 282.97171 
L 311.894787 282.991241 
L 310.894787 283.017635 
L 309.894787 283.067406 
L 308.894787 283.102479 
L 307.894787 283.138345 
L 306.894787 283.153712 
L 305.894787 283.169481 
L 304.894787 283.172894 
L 303.894787 283.175311 
L 302.894787 283.174825 
L 301.894787 283.172896 
L 300.894787 283.159639 
L 299.894787 283.151249 
L 298.894787 283.129712 
L 297.894787 283.106679 
L 296.894787 283.089446 
L 295.894787 283.070983 
L 294.894787 283.050531 
L 293.894787 283.033931 
L 292.894787 282.971152 
L 291.894787 282.895887 
L 290.894787 282.863248 
L 289.894787 282.795685 
L 288.894787 282.741637 
L 287.894787 282.707933 
L 286.894787 282.617807 
L 285.894787 282.589272 
L 284.894787 282.557786 
L 283.894787 282.526775 
L 282.433338 282.471967 
" clip-path="url(#pcb01ae2f52)" style="fill: none; stroke: #ff7f0e; stroke-opacity: 0.5; stroke-width: 0.2; stroke-linecap: square"/>
   </g>
   <g id="line2d_4">
    <path d="M 370.894787 82.133075 
L 369.894787 82.101639 
L 368.894787 82.064698 
L 367.894787 81.966952 
L 366.894787 81.93443 
L 365.894787 81.860806 
L 364.894787 81.82224 
L 363.894787 81.786827 
L 362.894787 81.729187 
L 361.894787 81.658801 
L 360.894787 81.606836 
L 359.894787 81.547747 
L 358.894787 81.459426 
L 357.894787 81.413281 
L 356.894787 81.370871 
L 355.894787 81.340378 
L 354.894787 81.314333 
L 353.894787 81.293133 
L 352.894787 81.238832 
L 351.894787 81.210894 
L 350.894787 81.18117 
L 349.894787 81.155775 
L 348.894787 81.144575 
L 347.894787 81.134451 
L 346.894787 81.134655 
L 345.894787 81.144165 
L 344.894787 81.155819 
L 343.894787 81.186848 
L 342.894787 81.198016 
L 341.894787 81.228133 
L 340.894787 81.28791 
L 339.894787 81.325102 
L 338.894787 81.364198 
L 337.894787 81.406638 
L 336.894787 81.439403 
L 335.894787 81.506829 
L 334.894787 81.545955 
L 333.894787 81.58863 
L 332.894787 81.65921 
L 331.894787 81.695601 
L 330.894787 81.754004 
L 329.894787 81.864957 
L 328.894787 81.935615 
L 327.894787 82.048555 
L 326.894787 82.094328 
L 325.894787 82.155611 
L 324.894787 82.204111 
L 323.894787 82.284933 
L 322.894787 82.403452 
L 321.894787 82.473663 
L 320.894787 82.556925 
L 319.894787 82.590067 
L 318.894787 82.641304 
L 317.894787 82.709703 
L 316.894787 82.775918 
L 315.894787 82.852835 
L 314.894787 82.880151 
L 313.894787 82.906628 
L 312.894787 82.929279 
L 311.894787 82.94881 
L 310.894787 82.975204 
L 309.894787 83.024975 
L 308.894787 83.060048 
L 307.894787 83.095914 
L 306.894787 83.111281 
L 305.894787 83.12705 
L 304.894787 83.130463 
L 303.894787 83.13288 
L 302.894787 83.132394 
L 301.894787 83.130465 
L 300.894787 83.117208 
L 299.894787 83.108818 
L 298.894787 83.087281 
L 297.894787 83.064248 
L 296.894787 83.047015 
L 295.894787 83.028552 
L 294.894787 83.0081 
L 293.894787 82.9915 
L 292.894787 82.928721 
L 291.894787 82.853456 
L 290.894787 82.820817 
L 289.894787 82.753254 
L 288.894787 82.699206 
L 287.894787 82.665502 
L 286.894787 82.575376 
L 285.894787 82.546841 
L 284.894787 82.515355 
L 283.894787 82.484344 
L 282.433338 82.429536 
" clip-path="url(#pcb01ae2f52)" style="fill: none; stroke: #ff7f0e; stroke-opacity: 0.5; stroke-width: 0.2; stroke-linecap: square"/>
   </g>
   <g id="line2d_5">
    <path d="M 370.894787 240.482646 
L 369.894787 240.451209 
L 368.894787 240.414269 
L 367.894787 240.316522 
L 366.894787 240.284001 
L 365.894787 240.210376 
L 364.894787 240.17181 
L 363.894787 240.136397 
L 362.894787 240.078757 
L 361.894787 240.008371 
L 360.894787 239.956407 
L 359.894787 239.897317 
L 358.894787 239.808996 
L 357.894787 239.762852 
L 356.894787 239.720441 
L 355.894787 239.689948 
L 354.894787 239.663903 
L 353.894787 239.642703 
L 352.894787 239.588402 
L 351.894787 239.560465 
L 350.894787 239.530741 
L 349.894787 239.505346 
L 348.894787 239.494145 
L 347.894787 239.484022 
L 346.894787 239.484226 
L 345.894787 239.493736 
L 344.894787 239.505389 
L 343.894787 239.536419 
L 342.894787 239.547586 
L 341.894787 239.577704 
L 340.894787 239.637481 
L 339.894787 239.674672 
L 338.894787 239.713769 
L 337.894787 239.756208 
L 336.894787 239.788973 
L 335.894787 239.8564 
L 334.894787 239.895526 
L 333.894787 239.9382 
L 332.894787 240.008781 
L 331.894787 240.045172 
L 330.894787 240.103575 
L 329.894787 240.214527 
L 328.894787 240.285186 
L 327.894787 240.398126 
L 326.894787 240.443898 
L 325.894787 240.505182 
L 324.894787 240.553681 
L 323.894787 240.634504 
L 322.894787 240.753023 
L 321.894787 240.823233 
L 320.894787 240.906496 
L 319.894787 240.939638 
L 318.894787 240.990875 
L 317.894787 241.059273 
L 316.894787 241.125489 
L 315.894787 241.202406 
L 314.894787 241.229721 
L 313.894787 241.256199 
L 312.894787 241.278849 
L 311.894787 241.298381 
L 310.894787 241.324775 
L 309.894787 241.374545 
L 308.894787 241.409619 
L 307.894787 241.445484 
L 306.894787 241.460852 
L 305.894787 241.476621 
L 304.894787 241.480033 
L 303.894787 241.482451 
L 302.894787 241.481965 
L 301.894787 241.480036 
L 300.894787 241.466779 
L 299.894787 241.458388 
L 298.894787 241.436851 
L 297.894787 241.413819 
L 296.894787 241.396585 
L 295.894787 241.378123 
L 294.894787 241.35767 
L 293.894787 241.34107 
L 292.894787 241.278292 
L 291.894787 241.203027 
L 290.894787 241.170388 
L 289.894787 241.102824 
L 288.894787 241.048777 
L 287.894787 241.015073 
L 286.894787 240.924947 
L 285.894787 240.896412 
L 284.894787 240.864926 
L 283.894787 240.833915 
L 282.433338 240.779107 
" clip-path="url(#pcb01ae2f52)" style="fill: none; stroke: #ff7f0e; stroke-opacity: 0.5; stroke-width: 0.2; stroke-linecap: square"/>
   </g>
   <g id="line2d_6">
    <path d="M 370.894787 212.758579 
L 369.894787 212.727142 
L 368.894787 212.690202 
L 367.894787 212.592455 
L 366.894787 212.559934 
L 365.894787 212.486309 
L 364.894787 212.447743 
L 363.894787 212.41233 
L 362.894787 212.35469 
L 361.894787 212.284304 
L 360.894787 212.23234 
L 359.894787 212.17325 
L 358.894787 212.084929 
L 357.894787 212.038785 
L 356.894787 211.996374 
L 355.894787 211.965881 
L 354.894787 211.939836 
L 353.894787 211.918636 
L 352.894787 211.864335 
L 351.894787 211.836397 
L 350.894787 211.806674 
L 349.894787 211.781279 
L 348.894787 211.770078 
L 347.894787 211.759954 
L 346.894787 211.760159 
L 345.894787 211.769669 
L 344.894787 211.781322 
L 343.894787 211.812351 
L 342.894787 211.823519 
L 341.894787 211.853637 
L 340.894787 211.913414 
L 339.894787 211.950605 
L 338.894787 211.989701 
L 337.894787 212.032141 
L 336.894787 212.064906 
L 335.894787 212.132333 
L 334.894787 212.171459 
L 333.894787 212.214133 
L 332.894787 212.284714 
L 331.894787 212.321105 
L 330.894787 212.379508 
L 329.894787 212.49046 
L 328.894787 212.561119 
L 327.894787 212.674058 
L 326.894787 212.719831 
L 325.894787 212.781115 
L 324.894787 212.829614 
L 323.894787 212.910437 
L 322.894787 213.028956 
L 321.894787 213.099166 
L 320.894787 213.182429 
L 319.894787 213.21557 
L 318.894787 213.266808 
L 317.894787 213.335206 
L 316.894787 213.401421 
L 315.894787 213.478339 
L 314.894787 213.505654 
L 313.894787 213.532132 
L 312.894787 213.554782 
L 311.894787 213.574313 
L 310.894787 213.600707 
L 309.894787 213.650478 
L 308.894787 213.685551 
L 307.894787 213.721417 
L 306.894787 213.736784 
L 305.894787 213.752554 
L 304.894787 213.755966 
L 303.894787 213.758384 
L 302.894787 213.757898 
L 301.894787 213.755968 
L 300.894787 213.742711 
L 299.894787 213.734321 
L 298.894787 213.712784 
L 297.894787 213.689752 
L 296.894787 213.672518 
L 295.894787 213.654056 
L 294.894787 213.633603 
L 293.894787 213.617003 
L 292.894787 213.554225 
L 291.894787 213.47896 
L 290.894787 213.44632 
L 289.894787 213.378757 
L 288.894787 213.32471 
L 287.894787 213.291005 
L 286.894787 213.200879 
L 285.894787 213.172344 
L 284.894787 213.140858 
L 283.894787 213.109848 
L 282.433338 213.05504 
" clip-path="url(#pcb01ae2f52)" style="fill: none; stroke: #ff7f0e; stroke-opacity: 0.5; stroke-width: 0.2; stroke-linecap: square"/>
   </g>
   <g id="line2d_7">
    <path d="M 370.894787 112.207417 
L 369.894787 112.175981 
L 368.894787 112.139041 
L 367.894787 112.041294 
L 366.894787 112.008772 
L 365.894787 111.935148 
L 364.894787 111.896582 
L 363.894787 111.861169 
L 362.894787 111.803529 
L 361.894787 111.733143 
L 360.894787 111.681179 
L 359.894787 111.622089 
L 358.894787 111.533768 
L 357.894787 111.487624 
L 356.894787 111.445213 
L 355.894787 111.41472 
L 354.894787 111.388675 
L 353.894787 111.367475 
L 352.894787 111.313174 
L 351.894787 111.285236 
L 350.894787 111.255512 
L 349.894787 111.230118 
L 348.894787 111.218917 
L 347.894787 111.208793 
L 346.894787 111.208998 
L 345.894787 111.218507 
L 344.894787 111.230161 
L 343.894787 111.26119 
L 342.894787 111.272358 
L 341.894787 111.302476 
L 340.894787 111.362253 
L 339.894787 111.399444 
L 338.894787 111.43854 
L 337.894787 111.48098 
L 336.894787 111.513745 
L 335.894787 111.581171 
L 334.894787 111.620297 
L 333.894787 111.662972 
L 332.894787 111.733552 
L 331.894787 111.769943 
L 330.894787 111.828347 
L 329.894787 111.939299 
L 328.894787 112.009957 
L 327.894787 112.122897 
L 326.894787 112.16867 
L 325.894787 112.229953 
L 324.894787 112.278453 
L 323.894787 112.359275 
L 322.894787 112.477794 
L 321.894787 112.548005 
L 320.894787 112.631267 
L 319.894787 112.664409 
L 318.894787 112.715646 
L 317.894787 112.784045 
L 316.894787 112.85026 
L 315.894787 112.927177 
L 314.894787 112.954493 
L 313.894787 112.98097 
L 312.894787 113.003621 
L 311.894787 113.023152 
L 310.894787 113.049546 
L 309.894787 113.099317 
L 308.894787 113.13439 
L 307.894787 113.170256 
L 306.894787 113.185623 
L 305.894787 113.201392 
L 304.894787 113.204805 
L 303.894787 113.207223 
L 302.894787 113.206736 
L 301.894787 113.204807 
L 300.894787 113.19155 
L 299.894787 113.18316 
L 298.894787 113.161623 
L 297.894787 113.138591 
L 296.894787 113.121357 
L 295.894787 113.102895 
L 294.894787 113.082442 
L 293.894787 113.065842 
L 292.894787 113.003063 
L 291.894787 112.927798 
L 290.894787 112.895159 
L 289.894787 112.827596 
L 288.894787 112.773549 
L 287.894787 112.739844 
L 286.894787 112.649718 
L 285.894787 112.621183 
L 284.894787 112.589697 
L 283.894787 112.558686 
L 282.433338 112.503878 
" clip-path="url(#pcb01ae2f52)" style="fill: none; stroke: #ff7f0e; stroke-opacity: 0.5; stroke-width: 0.2; stroke-linecap: square"/>
   </g>
   <g id="line2d_8">
    <path d="M 370.894787 216.271441 
L 369.894787 216.240004 
L 368.894787 216.203064 
L 367.894787 216.105317 
L 366.894787 216.072796 
L 365.894787 215.999171 
L 364.894787 215.960606 
L 363.894787 215.925192 
L 362.894787 215.867552 
L 361.894787 215.797166 
L 360.894787 215.745202 
L 359.894787 215.686112 
L 358.894787 215.597791 
L 357.894787 215.551647 
L 356.894787 215.509236 
L 355.894787 215.478743 
L 354.894787 215.452698 
L 353.894787 215.431498 
L 352.894787 215.377197 
L 351.894787 215.34926 
L 350.894787 215.319536 
L 349.894787 215.294141 
L 348.894787 215.282941 
L 347.894787 215.272817 
L 346.894787 215.273021 
L 345.894787 215.282531 
L 344.894787 215.294184 
L 343.894787 215.325214 
L 342.894787 215.336382 
L 341.894787 215.366499 
L 340.894787 215.426276 
L 339.894787 215.463468 
L 338.894787 215.502564 
L 337.894787 215.545003 
L 336.894787 215.577768 
L 335.894787 215.645195 
L 334.894787 215.684321 
L 333.894787 215.726995 
L 332.894787 215.797576 
L 331.894787 215.833967 
L 330.894787 215.89237 
L 329.894787 216.003323 
L 328.894787 216.073981 
L 327.894787 216.186921 
L 326.894787 216.232694 
L 325.894787 216.293977 
L 324.894787 216.342476 
L 323.894787 216.423299 
L 322.894787 216.541818 
L 321.894787 216.612028 
L 320.894787 216.695291 
L 319.894787 216.728433 
L 318.894787 216.77967 
L 317.894787 216.848068 
L 316.894787 216.914284 
L 315.894787 216.991201 
L 314.894787 217.018516 
L 313.894787 217.044994 
L 312.894787 217.067644 
L 311.894787 217.087176 
L 310.894787 217.11357 
L 309.894787 217.16334 
L 308.894787 217.198414 
L 307.894787 217.234279 
L 306.894787 217.249647 
L 305.894787 217.265416 
L 304.894787 217.268828 
L 303.894787 217.271246 
L 302.894787 217.27076 
L 301.894787 217.268831 
L 300.894787 217.255574 
L 299.894787 217.247183 
L 298.894787 217.225646 
L 297.894787 217.202614 
L 296.894787 217.18538 
L 295.894787 217.166918 
L 294.894787 217.146465 
L 293.894787 217.129866 
L 292.894787 217.067087 
L 291.894787 216.991822 
L 290.894787 216.959183 
L 289.894787 216.891619 
L 288.894787 216.837572 
L 287.894787 216.803868 
L 286.894787 216.713742 
L 285.894787 216.685207 
L 284.894787 216.653721 
L 283.894787 216.62271 
L 282.433338 216.567902 
" clip-path="url(#pcb01ae2f52)" style="fill: none; stroke: #ff7f0e; stroke-opacity: 0.5; stroke-width: 0.2; stroke-linecap: square"/>
   </g>
   <g id="line2d_9">
    <path d="M 370.894787 181.361283 
L 369.894787 181.329846 
L 368.894787 181.292906 
L 367.894787 181.195159 
L 366.894787 181.162638 
L 365.894787 181.089013 
L 364.894787 181.050447 
L 363.894787 181.015034 
L 362.894787 180.957394 
L 361.894787 180.887008 
L 360.894787 180.835044 
L 359.894787 180.775954 
L 358.894787 180.687633 
L 357.894787 180.641489 
L 356.894787 180.599078 
L 355.894787 180.568585 
L 354.894787 180.54254 
L 353.894787 180.52134 
L 352.894787 180.467039 
L 351.894787 180.439102 
L 350.894787 180.409378 
L 349.894787 180.383983 
L 348.894787 180.372782 
L 347.894787 180.362658 
L 346.894787 180.362863 
L 345.894787 180.372373 
L 344.894787 180.384026 
L 343.894787 180.415055 
L 342.894787 180.426223 
L 341.894787 180.456341 
L 340.894787 180.516118 
L 339.894787 180.553309 
L 338.894787 180.592405 
L 337.894787 180.634845 
L 336.894787 180.66761 
L 335.894787 180.735037 
L 334.894787 180.774163 
L 333.894787 180.816837 
L 332.894787 180.887418 
L 331.894787 180.923809 
L 330.894787 180.982212 
L 329.894787 181.093164 
L 328.894787 181.163823 
L 327.894787 181.276763 
L 326.894787 181.322535 
L 325.894787 181.383819 
L 324.894787 181.432318 
L 323.894787 181.513141 
L 322.894787 181.63166 
L 321.894787 181.70187 
L 320.894787 181.785133 
L 319.894787 181.818274 
L 318.894787 181.869512 
L 317.894787 181.93791 
L 316.894787 182.004126 
L 315.894787 182.081043 
L 314.894787 182.108358 
L 313.894787 182.134836 
L 312.894787 182.157486 
L 311.894787 182.177018 
L 310.894787 182.203412 
L 309.894787 182.253182 
L 308.894787 182.288255 
L 307.894787 182.324121 
L 306.894787 182.339488 
L 305.894787 182.355258 
L 304.894787 182.35867 
L 303.894787 182.361088 
L 302.894787 182.360602 
L 301.894787 182.358672 
L 300.894787 182.345415 
L 299.894787 182.337025 
L 298.894787 182.315488 
L 297.894787 182.292456 
L 296.894787 182.275222 
L 295.894787 182.25676 
L 294.894787 182.236307 
L 293.894787 182.219707 
L 292.894787 182.156929 
L 291.894787 182.081664 
L 290.894787 182.049024 
L 289.894787 181.981461 
L 288.894787 181.927414 
L 287.894787 181.89371 
L 286.894787 181.803584 
L 285.894787 181.775049 
L 284.894787 181.743562 
L 283.894787 181.712552 
L 282.433338 181.657744 
" clip-path="url(#pcb01ae2f52)" style="fill: none; stroke: #ff7f0e; stroke-opacity: 0.5; stroke-width: 0.2; stroke-linecap: square"/>
   </g>
   <g id="line2d_10">
    <path d="M 370.894787 311.169095 
L 369.894787 311.137658 
L 368.894787 311.100718 
L 367.894787 311.002971 
L 366.894787 310.97045 
L 365.894787 310.896825 
L 364.894787 310.85826 
L 363.894787 310.822846 
L 362.894787 310.765206 
L 361.894787 310.69482 
L 360.894787 310.642856 
L 359.894787 310.583766 
L 358.894787 310.495445 
L 357.894787 310.449301 
L 356.894787 310.40689 
L 355.894787 310.376397 
L 354.894787 310.350352 
L 353.894787 310.329152 
L 352.894787 310.274851 
L 351.894787 310.246914 
L 350.894787 310.21719 
L 349.894787 310.191795 
L 348.894787 310.180595 
L 347.894787 310.170471 
L 346.894787 310.170675 
L 345.894787 310.180185 
L 344.894787 310.191838 
L 343.894787 310.222868 
L 342.894787 310.234036 
L 341.894787 310.264153 
L 340.894787 310.32393 
L 339.894787 310.361122 
L 338.894787 310.400218 
L 337.894787 310.442657 
L 336.894787 310.475422 
L 335.894787 310.542849 
L 334.894787 310.581975 
L 333.894787 310.624649 
L 332.894787 310.69523 
L 331.894787 310.731621 
L 330.894787 310.790024 
L 329.894787 310.900977 
L 328.894787 310.971635 
L 327.894787 311.084575 
L 326.894787 311.130348 
L 325.894787 311.191631 
L 324.894787 311.24013 
L 323.894787 311.320953 
L 322.894787 311.439472 
L 321.894787 311.509682 
L 320.894787 311.592945 
L 319.894787 311.626087 
L 318.894787 311.677324 
L 317.894787 311.745722 
L 316.894787 311.811938 
L 315.894787 311.888855 
L 314.894787 311.91617 
L 313.894787 311.942648 
L 312.894787 311.965298 
L 311.894787 311.98483 
L 310.894787 312.011224 
L 309.894787 312.060995 
L 308.894787 312.096068 
L 307.894787 312.131933 
L 306.894787 312.147301 
L 305.894787 312.16307 
L 304.894787 312.166482 
L 303.894787 312.1689 
L 302.894787 312.168414 
L 301.894787 312.166485 
L 300.894787 312.153228 
L 299.894787 312.144837 
L 298.894787 312.1233 
L 297.894787 312.100268 
L 296.894787 312.083034 
L 295.894787 312.064572 
L 294.894787 312.044119 
L 293.894787 312.02752 
L 292.894787 311.964741 
L 291.894787 311.889476 
L 290.894787 311.856837 
L 289.894787 311.789273 
L 288.894787 311.735226 
L 287.894787 311.701522 
L 286.894787 311.611396 
L 285.894787 311.582861 
L 284.894787 311.551375 
L 283.894787 311.520364 
L 282.433338 311.465556 
" clip-path="url(#pcb01ae2f52)" style="fill: none; stroke: #ff7f0e; stroke-opacity: 0.5; stroke-width: 0.2; stroke-linecap: square"/>
   </g>
   <g id="patch_3">
    <path d="M 78.176847 7.2 
L 78.176847 318.021875 
M 276.966619 7.2 
L 276.966619 318.021875 
" clip-path="url(#pcb01ae2f52)" style="fill: none; stroke: #ffffff; stroke-width: 3; stroke-linejoin: miter"/>
    <path d="M 78.176847 7.2 
L 78.176847 318.021875 
M 276.966619 7.2 
L 276.966619 318.021875 
" clip-path="url(#pcb01ae2f52)" style="fill: none; stroke: #1f77b4; stroke-linejoin: miter"/>
   </g>
   <g id="PolyCollection_1">
    <path d="M 276.966619 7.2 
L 78.176847 7.2 
L 78.176847 318.021875 
L 276.966619 318.021875 
L 276.966619 318.021875 
L 276.966619 7.2 
z
" clip-path="url(#pcb01ae2f52)" style="fill: #1f77b4; fill-opacity: 0.5"/>
   </g>
   <g id="patch_4">
    <path d="M 376.361506 69.364375 
L 376.361506 318.021875 
M 575.151278 69.364375 
L 575.151278 318.021875 
" clip-path="url(#pcb01ae2f52)" style="fill: none; stroke: #ffffff; stroke-width: 3; stroke-linejoin: miter"/>
    <path d="M 376.361506 69.364375 
L 376.361506 318.021875 
M 575.151278 69.364375 
L 575.151278 318.021875 
" clip-path="url(#pcb01ae2f52)" style="fill: none; stroke: #ff7f0e; stroke-linejoin: miter"/>
   </g>
   <g id="PolyCollection_2">
    <path d="M 575.151278 69.364375 
L 376.361506 69.364375 
L 376.361506 318.021875 
L 575.151278 318.021875 
L 575.151278 318.021875 
L 575.151278 69.364375 
z
" clip-path="url(#pcb01ae2f52)" style="fill: #ff7f0e; fill-opacity: 0.5"/>
   </g>
   <g id="matplotlib.axis_1">
    <g id="xtick_1">
     <g id="line2d_11"/>
     <g id="text_1">
      <!-- X -->
      <g transform="translate(174.146733 329.120312) scale(0.1 -0.1)">
       <defs>
        <path id="DejaVuSans-58" d="M 403 4666 
L 1081 4666 
L 2241 2931 
L 3406 4666 
L 4084 4666 
L 2584 2425 
L 4184 0 
L 3506 0 
L 2194 1984 
L 872 0 
L 191 0 
L 1856 2491 
L 403 4666 
z
" transform="scale(0.015625)"/>
       </defs>
       <use xlink:href="#DejaVuSans-58"/>
      </g>
     </g>
    </g>
    <g id="xtick_2">
     <g id="line2d_12"/>
     <g id="text_2">
      <!-- A -->
      <g transform="translate(472.33608 329.120312) scale(0.1 -0.1)">
       <defs>
        <path id="DejaVuSans-41" d="M 2188 4044 
L 1331 1722 
L 3047 1722 
L 2188 4044 
z
M 1831 4666 
L 2547 4666 
L 4325 0 
L 3669 0 
L 3244 1197 
L 1141 1197 
L 716 0 
L 50 0 
L 1831 4666 
z
" transform="scale(0.015625)"/>
       </defs>
       <use xlink:href="#DejaVuSans-41"/>
      </g>
     </g>
    </g>
   </g>
   <g id="matplotlib.axis_2">
    <g id="ytick_1">
     <g id="line2d_13">
      <defs>
       <path id="mb86b47e773" d="M 0 0 
L -3.5 0 
" style="stroke: #000000; stroke-width: 0.8"/>
      </defs>
      <g>
       <use xlink:href="#mb86b47e773" x="53.328125" y="318.021875" style="stroke: #000000; stroke-width: 0.8"/>
      </g>
     </g>
     <g id="text_3">
      <!-- 0 -->
      <g transform="translate(39.965625 321.821094) scale(0.1 -0.1)">
       <defs>
        <path id="DejaVuSans-30" d="M 2034 4250 
Q 1547 4250 1301 3770 
Q 1056 3291 1056 2328 
Q 1056 1369 1301 889 
Q 1547 409 2034 409 
Q 2525 409 2770 889 
Q 3016 1369 3016 2328 
Q 3016 3291 2770 3770 
Q 2525 4250 2034 4250 
z
M 2034 4750 
Q 2819 4750 3233 4129 
Q 3647 3509 3647 2328 
Q 3647 1150 3233 529 
Q 2819 -91 2034 -91 
Q 1250 -91 836 529 
Q 422 1150 422 2328 
Q 422 3509 836 4129 
Q 1250 4750 2034 4750 
z
" transform="scale(0.015625)"/>
       </defs>
       <use xlink:href="#DejaVuSans-30"/>
      </g>
     </g>
    </g>
    <g id="ytick_2">
     <g id="line2d_14">
      <g>
       <use xlink:href="#mb86b47e773" x="53.328125" y="268.290375" style="stroke: #000000; stroke-width: 0.8"/>
      </g>
     </g>
     <g id="text_4">
      <!-- 200 -->
      <g transform="translate(27.240625 272.089594) scale(0.1 -0.1)">
       <defs>
        <path id="DejaVuSans-32" d="M 1228 531 
L 3431 531 
L 3431 0 
L 469 0 
L 469 531 
Q 828 903 1448 1529 
Q 2069 2156 2228 2338 
Q 2531 2678 2651 2914 
Q 2772 3150 2772 3378 
Q 2772 3750 2511 3984 
Q 2250 4219 1831 4219 
Q 1534 4219 1204 4116 
Q 875 4013 500 3803 
L 500 4441 
Q 881 4594 1212 4672 
Q 1544 4750 1819 4750 
Q 2544 4750 2975 4387 
Q 3406 4025 3406 3419 
Q 3406 3131 3298 2873 
Q 3191 2616 2906 2266 
Q 2828 2175 2409 1742 
Q 1991 1309 1228 531 
z
" transform="scale(0.015625)"/>
       </defs>
       <use xlink:href="#DejaVuSans-32"/>
       <use xlink:href="#DejaVuSans-30" x="63.623047"/>
       <use xlink:href="#DejaVuSans-30" x="127.246094"/>
      </g>
     </g>
    </g>
    <g id="ytick_3">
     <g id="line2d_15">
      <g>
       <use xlink:href="#mb86b47e773" x="53.328125" y="218.558875" style="stroke: #000000; stroke-width: 0.8"/>
      </g>
     </g>
     <g id="text_5">
      <!-- 400 -->
      <g transform="translate(27.240625 222.358094) scale(0.1 -0.1)">
       <defs>
        <path id="DejaVuSans-34" d="M 2419 4116 
L 825 1625 
L 2419 1625 
L 2419 4116 
z
M 2253 4666 
L 3047 4666 
L 3047 1625 
L 3713 1625 
L 3713 1100 
L 3047 1100 
L 3047 0 
L 2419 0 
L 2419 1100 
L 313 1100 
L 313 1709 
L 2253 4666 
z
" transform="scale(0.015625)"/>
       </defs>
       <use xlink:href="#DejaVuSans-34"/>
       <use xlink:href="#DejaVuSans-30" x="63.623047"/>
       <use xlink:href="#DejaVuSans-30" x="127.246094"/>
      </g>
     </g>
    </g>
    <g id="ytick_4">
     <g id="line2d_16">
      <g>
       <use xlink:href="#mb86b47e773" x="53.328125" y="168.827375" style="stroke: #000000; stroke-width: 0.8"/>
      </g>
     </g>
     <g id="text_6">
      <!-- 600 -->
      <g transform="translate(27.240625 172.626594) scale(0.1 -0.1)">
       <defs>
        <path id="DejaVuSans-36" d="M 2113 2584 
Q 1688 2584 1439 2293 
Q 1191 2003 1191 1497 
Q 1191 994 1439 701 
Q 1688 409 2113 409 
Q 2538 409 2786 701 
Q 3034 994 3034 1497 
Q 3034 2003 2786 2293 
Q 2538 2584 2113 2584 
z
M 3366 4563 
L 3366 3988 
Q 3128 4100 2886 4159 
Q 2644 4219 2406 4219 
Q 1781 4219 1451 3797 
Q 1122 3375 1075 2522 
Q 1259 2794 1537 2939 
Q 1816 3084 2150 3084 
Q 2853 3084 3261 2657 
Q 3669 2231 3669 1497 
Q 3669 778 3244 343 
Q 2819 -91 2113 -91 
Q 1303 -91 875 529 
Q 447 1150 447 2328 
Q 447 3434 972 4092 
Q 1497 4750 2381 4750 
Q 2619 4750 2861 4703 
Q 3103 4656 3366 4563 
z
" transform="scale(0.015625)"/>
       </defs>
       <use xlink:href="#DejaVuSans-36"/>
       <use xlink:href="#DejaVuSans-30" x="63.623047"/>
       <use xlink:href="#DejaVuSans-30" x="127.246094"/>
      </g>
     </g>
    </g>
    <g id="ytick_5">
     <g id="line2d_17">
      <g>
       <use xlink:href="#mb86b47e773" x="53.328125" y="119.095875" style="stroke: #000000; stroke-width: 0.8"/>
      </g>
     </g>
     <g id="text_7">
      <!-- 800 -->
      <g transform="translate(27.240625 122.895094) scale(0.1 -0.1)">
       <defs>
        <path id="DejaVuSans-38" d="M 2034 2216 
Q 1584 2216 1326 1975 
Q 1069 1734 1069 1313 
Q 1069 891 1326 650 
Q 1584 409 2034 409 
Q 2484 409 2743 651 
Q 3003 894 3003 1313 
Q 3003 1734 2745 1975 
Q 2488 2216 2034 2216 
z
M 1403 2484 
Q 997 2584 770 2862 
Q 544 3141 544 3541 
Q 544 4100 942 4425 
Q 1341 4750 2034 4750 
Q 2731 4750 3128 4425 
Q 3525 4100 3525 3541 
Q 3525 3141 3298 2862 
Q 3072 2584 2669 2484 
Q 3125 2378 3379 2068 
Q 3634 1759 3634 1313 
Q 3634 634 3220 271 
Q 2806 -91 2034 -91 
Q 1263 -91 848 271 
Q 434 634 434 1313 
Q 434 1759 690 2068 
Q 947 2378 1403 2484 
z
M 1172 3481 
Q 1172 3119 1398 2916 
Q 1625 2713 2034 2713 
Q 2441 2713 2670 2916 
Q 2900 3119 2900 3481 
Q 2900 3844 2670 4047 
Q 2441 4250 2034 4250 
Q 1625 4250 1398 4047 
Q 1172 3844 1172 3481 
z
" transform="scale(0.015625)"/>
       </defs>
       <use xlink:href="#DejaVuSans-38"/>
       <use xlink:href="#DejaVuSans-30" x="63.623047"/>
       <use xlink:href="#DejaVuSans-30" x="127.246094"/>
      </g>
     </g>
    </g>
    <g id="ytick_6">
     <g id="line2d_18">
      <g>
       <use xlink:href="#mb86b47e773" x="53.328125" y="69.364375" style="stroke: #000000; stroke-width: 0.8"/>
      </g>
     </g>
     <g id="text_8">
      <!-- 1000 -->
      <g transform="translate(20.878125 73.163594) scale(0.1 -0.1)">
       <defs>
        <path id="DejaVuSans-31" d="M 794 531 
L 1825 531 
L 1825 4091 
L 703 3866 
L 703 4441 
L 1819 4666 
L 2450 4666 
L 2450 531 
L 3481 531 
L 3481 0 
L 794 0 
L 794 531 
z
" transform="scale(0.015625)"/>
       </defs>
       <use xlink:href="#DejaVuSans-31"/>
       <use xlink:href="#DejaVuSans-30" x="63.623047"/>
       <use xlink:href="#DejaVuSans-30" x="127.246094"/>
       <use xlink:href="#DejaVuSans-30" x="190.869141"/>
      </g>
     </g>
    </g>
    <g id="ytick_7">
     <g id="line2d_19">
      <g>
       <use xlink:href="#mb86b47e773" x="53.328125" y="19.632875" style="stroke: #000000; stroke-width: 0.8"/>
      </g>
     </g>
     <g id="text_9">
      <!-- 1200 -->
      <g transform="translate(20.878125 23.432094) scale(0.1 -0.1)">
       <use xlink:href="#DejaVuSans-31"/>
       <use xlink:href="#DejaVuSans-32" x="63.623047"/>
       <use xlink:href="#DejaVuSans-30" x="127.246094"/>
       <use xlink:href="#DejaVuSans-30" x="190.869141"/>
      </g>
     </g>
    </g>
    <g id="text_10">
     <!-- time ago (generations) -->
     <g transform="translate(14.798438 220.082031) rotate(-90) scale(0.1 -0.1)">
      <defs>
       <path id="DejaVuSans-74" d="M 1172 4494 
L 1172 3500 
L 2356 3500 
L 2356 3053 
L 1172 3053 
L 1172 1153 
Q 1172 725 1289 603 
Q 1406 481 1766 481 
L 2356 481 
L 2356 0 
L 1766 0 
Q 1100 0 847 248 
Q 594 497 594 1153 
L 594 3053 
L 172 3053 
L 172 3500 
L 594 3500 
L 594 4494 
L 1172 4494 
z
" transform="scale(0.015625)"/>
       <path id="DejaVuSans-69" d="M 603 3500 
L 1178 3500 
L 1178 0 
L 603 0 
L 603 3500 
z
M 603 4863 
L 1178 4863 
L 1178 4134 
L 603 4134 
L 603 4863 
z
" transform="scale(0.015625)"/>
       <path id="DejaVuSans-6d" d="M 3328 2828 
Q 3544 3216 3844 3400 
Q 4144 3584 4550 3584 
Q 5097 3584 5394 3201 
Q 5691 2819 5691 2113 
L 5691 0 
L 5113 0 
L 5113 2094 
Q 5113 2597 4934 2840 
Q 4756 3084 4391 3084 
Q 3944 3084 3684 2787 
Q 3425 2491 3425 1978 
L 3425 0 
L 2847 0 
L 2847 2094 
Q 2847 2600 2669 2842 
Q 2491 3084 2119 3084 
Q 1678 3084 1418 2786 
Q 1159 2488 1159 1978 
L 1159 0 
L 581 0 
L 581 3500 
L 1159 3500 
L 1159 2956 
Q 1356 3278 1631 3431 
Q 1906 3584 2284 3584 
Q 2666 3584 2933 3390 
Q 3200 3197 3328 2828 
z
" transform="scale(0.015625)"/>
       <path id="DejaVuSans-65" d="M 3597 1894 
L 3597 1613 
L 953 1613 
Q 991 1019 1311 708 
Q 1631 397 2203 397 
Q 2534 397 2845 478 
Q 3156 559 3463 722 
L 3463 178 
Q 3153 47 2828 -22 
Q 2503 -91 2169 -91 
Q 1331 -91 842 396 
Q 353 884 353 1716 
Q 353 2575 817 3079 
Q 1281 3584 2069 3584 
Q 2775 3584 3186 3129 
Q 3597 2675 3597 1894 
z
M 3022 2063 
Q 3016 2534 2758 2815 
Q 2500 3097 2075 3097 
Q 1594 3097 1305 2825 
Q 1016 2553 972 2059 
L 3022 2063 
z
" transform="scale(0.015625)"/>
       <path id="DejaVuSans-20" transform="scale(0.015625)"/>
       <path id="DejaVuSans-61" d="M 2194 1759 
Q 1497 1759 1228 1600 
Q 959 1441 959 1056 
Q 959 750 1161 570 
Q 1363 391 1709 391 
Q 2188 391 2477 730 
Q 2766 1069 2766 1631 
L 2766 1759 
L 2194 1759 
z
M 3341 1997 
L 3341 0 
L 2766 0 
L 2766 531 
Q 2569 213 2275 61 
Q 1981 -91 1556 -91 
Q 1019 -91 701 211 
Q 384 513 384 1019 
Q 384 1609 779 1909 
Q 1175 2209 1959 2209 
L 2766 2209 
L 2766 2266 
Q 2766 2663 2505 2880 
Q 2244 3097 1772 3097 
Q 1472 3097 1187 3025 
Q 903 2953 641 2809 
L 641 3341 
Q 956 3463 1253 3523 
Q 1550 3584 1831 3584 
Q 2591 3584 2966 3190 
Q 3341 2797 3341 1997 
z
" transform="scale(0.015625)"/>
       <path id="DejaVuSans-67" d="M 2906 1791 
Q 2906 2416 2648 2759 
Q 2391 3103 1925 3103 
Q 1463 3103 1205 2759 
Q 947 2416 947 1791 
Q 947 1169 1205 825 
Q 1463 481 1925 481 
Q 2391 481 2648 825 
Q 2906 1169 2906 1791 
z
M 3481 434 
Q 3481 -459 3084 -895 
Q 2688 -1331 1869 -1331 
Q 1566 -1331 1297 -1286 
Q 1028 -1241 775 -1147 
L 775 -588 
Q 1028 -725 1275 -790 
Q 1522 -856 1778 -856 
Q 2344 -856 2625 -561 
Q 2906 -266 2906 331 
L 2906 616 
Q 2728 306 2450 153 
Q 2172 0 1784 0 
Q 1141 0 747 490 
Q 353 981 353 1791 
Q 353 2603 747 3093 
Q 1141 3584 1784 3584 
Q 2172 3584 2450 3431 
Q 2728 3278 2906 2969 
L 2906 3500 
L 3481 3500 
L 3481 434 
z
" transform="scale(0.015625)"/>
       <path id="DejaVuSans-6f" d="M 1959 3097 
Q 1497 3097 1228 2736 
Q 959 2375 959 1747 
Q 959 1119 1226 758 
Q 1494 397 1959 397 
Q 2419 397 2687 759 
Q 2956 1122 2956 1747 
Q 2956 2369 2687 2733 
Q 2419 3097 1959 3097 
z
M 1959 3584 
Q 2709 3584 3137 3096 
Q 3566 2609 3566 1747 
Q 3566 888 3137 398 
Q 2709 -91 1959 -91 
Q 1206 -91 779 398 
Q 353 888 353 1747 
Q 353 2609 779 3096 
Q 1206 3584 1959 3584 
z
" transform="scale(0.015625)"/>
       <path id="DejaVuSans-28" d="M 1984 4856 
Q 1566 4138 1362 3434 
Q 1159 2731 1159 2009 
Q 1159 1288 1364 580 
Q 1569 -128 1984 -844 
L 1484 -844 
Q 1016 -109 783 600 
Q 550 1309 550 2009 
Q 550 2706 781 3412 
Q 1013 4119 1484 4856 
L 1984 4856 
z
" transform="scale(0.015625)"/>
       <path id="DejaVuSans-6e" d="M 3513 2113 
L 3513 0 
L 2938 0 
L 2938 2094 
Q 2938 2591 2744 2837 
Q 2550 3084 2163 3084 
Q 1697 3084 1428 2787 
Q 1159 2491 1159 1978 
L 1159 0 
L 581 0 
L 581 3500 
L 1159 3500 
L 1159 2956 
Q 1366 3272 1645 3428 
Q 1925 3584 2291 3584 
Q 2894 3584 3203 3211 
Q 3513 2838 3513 2113 
z
" transform="scale(0.015625)"/>
       <path id="DejaVuSans-72" d="M 2631 2963 
Q 2534 3019 2420 3045 
Q 2306 3072 2169 3072 
Q 1681 3072 1420 2755 
Q 1159 2438 1159 1844 
L 1159 0 
L 581 0 
L 581 3500 
L 1159 3500 
L 1159 2956 
Q 1341 3275 1631 3429 
Q 1922 3584 2338 3584 
Q 2397 3584 2469 3576 
Q 2541 3569 2628 3553 
L 2631 2963 
z
" transform="scale(0.015625)"/>
       <path id="DejaVuSans-73" d="M 2834 3397 
L 2834 2853 
Q 2591 2978 2328 3040 
Q 2066 3103 1784 3103 
Q 1356 3103 1142 2972 
Q 928 2841 928 2578 
Q 928 2378 1081 2264 
Q 1234 2150 1697 2047 
L 1894 2003 
Q 2506 1872 2764 1633 
Q 3022 1394 3022 966 
Q 3022 478 2636 193 
Q 2250 -91 1575 -91 
Q 1294 -91 989 -36 
Q 684 19 347 128 
L 347 722 
Q 666 556 975 473 
Q 1284 391 1588 391 
Q 1994 391 2212 530 
Q 2431 669 2431 922 
Q 2431 1156 2273 1281 
Q 2116 1406 1581 1522 
L 1381 1569 
Q 847 1681 609 1914 
Q 372 2147 372 2553 
Q 372 3047 722 3315 
Q 1072 3584 1716 3584 
Q 2034 3584 2315 3537 
Q 2597 3491 2834 3397 
z
" transform="scale(0.015625)"/>
       <path id="DejaVuSans-29" d="M 513 4856 
L 1013 4856 
Q 1481 4119 1714 3412 
Q 1947 2706 1947 2009 
Q 1947 1309 1714 600 
Q 1481 -109 1013 -844 
L 513 -844 
Q 928 -128 1133 580 
Q 1338 1288 1338 2009 
Q 1338 2731 1133 3434 
Q 928 4138 513 4856 
z
" transform="scale(0.015625)"/>
      </defs>
      <use xlink:href="#DejaVuSans-74"/>
      <use xlink:href="#DejaVuSans-69" x="39.208984"/>
      <use xlink:href="#DejaVuSans-6d" x="66.992188"/>
      <use xlink:href="#DejaVuSans-65" x="164.404297"/>
      <use xlink:href="#DejaVuSans-20" x="225.927734"/>
      <use xlink:href="#DejaVuSans-61" x="257.714844"/>
      <use xlink:href="#DejaVuSans-67" x="318.994141"/>
      <use xlink:href="#DejaVuSans-6f" x="382.470703"/>
      <use xlink:href="#DejaVuSans-20" x="443.652344"/>
      <use xlink:href="#DejaVuSans-28" x="475.439453"/>
      <use xlink:href="#DejaVuSans-67" x="514.453125"/>
      <use xlink:href="#DejaVuSans-65" x="577.929688"/>
      <use xlink:href="#DejaVuSans-6e" x="639.453125"/>
      <use xlink:href="#DejaVuSans-65" x="702.832031"/>
      <use xlink:href="#DejaVuSans-72" x="764.355469"/>
      <use xlink:href="#DejaVuSans-61" x="805.46875"/>
      <use xlink:href="#DejaVuSans-74" x="866.748047"/>
      <use xlink:href="#DejaVuSans-69" x="905.957031"/>
      <use xlink:href="#DejaVuSans-6f" x="933.740234"/>
      <use xlink:href="#DejaVuSans-6e" x="994.921875"/>
      <use xlink:href="#DejaVuSans-73" x="1058.300781"/>
      <use xlink:href="#DejaVuSans-29" x="1110.400391"/>
     </g>
    </g>
   </g>
   <g id="patch_5">
    <path d="M 278.965558 69.364375 
L 279.965558 69.395811 
L 280.965558 69.432752 
L 281.965558 69.530498 
L 282.965558 69.56302 
L 283.965558 69.636645 
L 284.965558 69.67521 
L 285.965558 69.710623 
L 286.965558 69.768263 
L 287.965558 69.838649 
L 288.965558 69.890614 
L 289.965558 69.949703 
L 290.965558 70.038024 
L 291.965558 70.084169 
L 292.965558 70.12658 
L 293.965558 70.157072 
L 294.965558 70.183117 
L 295.965558 70.204317 
L 296.965558 70.258618 
L 297.965558 70.286556 
L 298.965558 70.31628 
L 299.965558 70.341675 
L 300.965558 70.352875 
L 301.965558 70.362999 
L 302.965558 70.362795 
L 303.965558 70.353285 
L 304.965558 70.341631 
L 305.965558 70.310602 
L 306.965558 70.299434 
L 307.965558 70.269317 
L 308.965558 70.20954 
L 309.965558 70.172348 
L 310.965558 70.133252 
L 311.965558 70.090812 
L 312.965558 70.058047 
L 313.965558 69.990621 
L 314.965558 69.951495 
L 315.965558 69.90882 
L 316.965558 69.83824 
L 317.965558 69.801849 
L 318.965558 69.743446 
L 319.965558 69.632493 
L 320.965558 69.561835 
L 321.965558 69.448895 
L 322.965558 69.403122 
L 323.965558 69.341839 
L 324.965558 69.29334 
L 326.383848 69.212517 
L 327.383848 69.093998 
L 328.383848 69.023787 
L 329.383848 68.940525 
L 330.383848 68.907383 
L 331.383848 68.856146 
L 332.383848 68.787747 
L 333.383848 68.721532 
L 334.383848 68.644615 
L 335.383848 68.617299 
L 336.383848 68.590822 
L 337.383848 68.568171 
L 338.383848 68.54864 
L 339.383848 68.522246 
L 340.383848 68.472475 
L 341.383848 68.437402 
L 342.383848 68.401536 
L 343.383848 68.386169 
L 344.383848 68.3704 
L 345.383848 68.366987 
L 346.383848 68.36457 
L 347.383848 68.365056 
L 348.383848 68.366985 
L 349.383848 68.380242 
L 350.383848 68.388633 
L 351.383848 68.410169 
L 352.383848 68.433202 
L 353.383848 68.450435 
L 354.383848 68.468898 
L 355.383848 68.48935 
L 356.383848 68.50595 
L 357.383848 68.568729 
L 358.383848 68.643994 
L 359.383848 68.676633 
L 360.383848 68.744197 
L 361.383848 68.798244 
L 362.383848 68.831948 
L 363.383848 68.922074 
L 364.383848 68.950609 
L 365.383848 68.982095 
L 366.383848 69.013106 
L 367.383848 69.067914 
L 368.383848 69.132501 
L 369.383848 69.170697 
L 370.383848 69.266631 
L 371.383848 69.315889 
L 373.243122 69.359958 
" clip-path="url(#pcb01ae2f52)" style="fill: none; stroke: #ffffff; stroke-width: 3; stroke-linecap: round"/>
    <path d="M 278.965558 69.364375 
L 279.965558 69.395811 
L 280.965558 69.432752 
L 281.965558 69.530498 
L 282.965558 69.56302 
L 283.965558 69.636645 
L 284.965558 69.67521 
L 285.965558 69.710623 
L 286.965558 69.768263 
L 287.965558 69.838649 
L 288.965558 69.890614 
L 289.965558 69.949703 
L 290.965558 70.038024 
L 291.965558 70.084169 
L 292.965558 70.12658 
L 293.965558 70.157072 
L 294.965558 70.183117 
L 295.965558 70.204317 
L 296.965558 70.258618 
L 297.965558 70.286556 
L 298.965558 70.31628 
L 299.965558 70.341675 
L 300.965558 70.352875 
L 301.965558 70.362999 
L 302.965558 70.362795 
L 303.965558 70.353285 
L 304.965558 70.341631 
L 305.965558 70.310602 
L 306.965558 70.299434 
L 307.965558 70.269317 
L 308.965558 70.20954 
L 309.965558 70.172348 
L 310.965558 70.133252 
L 311.965558 70.090812 
L 312.965558 70.058047 
L 313.965558 69.990621 
L 314.965558 69.951495 
L 315.965558 69.90882 
L 316.965558 69.83824 
L 317.965558 69.801849 
L 318.965558 69.743446 
L 319.965558 69.632493 
L 320.965558 69.561835 
L 321.965558 69.448895 
L 322.965558 69.403122 
L 323.965558 69.341839 
L 324.965558 69.29334 
L 326.383848 69.212517 
L 327.383848 69.093998 
L 328.383848 69.023787 
L 329.383848 68.940525 
L 330.383848 68.907383 
L 331.383848 68.856146 
L 332.383848 68.787747 
L 333.383848 68.721532 
L 334.383848 68.644615 
L 335.383848 68.617299 
L 336.383848 68.590822 
L 337.383848 68.568171 
L 338.383848 68.54864 
L 339.383848 68.522246 
L 340.383848 68.472475 
L 341.383848 68.437402 
L 342.383848 68.401536 
L 343.383848 68.386169 
L 344.383848 68.3704 
L 345.383848 68.366987 
L 346.383848 68.36457 
L 347.383848 68.365056 
L 348.383848 68.366985 
L 349.383848 68.380242 
L 350.383848 68.388633 
L 351.383848 68.410169 
L 352.383848 68.433202 
L 353.383848 68.450435 
L 354.383848 68.468898 
L 355.383848 68.48935 
L 356.383848 68.50595 
L 357.383848 68.568729 
L 358.383848 68.643994 
L 359.383848 68.676633 
L 360.383848 68.744197 
L 361.383848 68.798244 
L 362.383848 68.831948 
L 363.383848 68.922074 
L 364.383848 68.950609 
L 365.383848 68.982095 
L 366.383848 69.013106 
L 367.383848 69.067914 
L 368.383848 69.132501 
L 369.383848 69.170697 
L 370.383848 69.266631 
L 371.383848 69.315889 
L 373.243122 69.359958 
" clip-path="url(#pcb01ae2f52)" style="fill: none; stroke: #1f77b4; stroke-linecap: round"/>
    <path d="M 369.243122 67.364375 
L 370.12349 67.839706 
L 371.001397 68.31996 
L 371.852111 68.854601 
L 373.154285 69.542048 
L 372.226932 69.568063 
L 371.315257 69.980783 
L 370.404993 70.396322 
L 369.062497 71.003126 
L 369.717396 70.364375 
L 369.76936 69.364375 
L 369.82845 67.364375 
z
" clip-path="url(#pcb01ae2f52)" style="fill: #ffffff; stroke: #ffffff; stroke-width: 3; stroke-linecap: round"/>
    <path d="M 369.243122 67.364375 
L 370.12349 67.839706 
L 371.001397 68.31996 
L 371.852111 68.854601 
L 373.154285 69.542048 
L 372.226932 69.568063 
L 371.315257 69.980783 
L 370.404993 70.396322 
L 369.062497 71.003126 
L 369.717396 70.364375 
L 369.76936 69.364375 
L 369.82845 67.364375 
z
" clip-path="url(#pcb01ae2f52)" style="fill: #ffffff; stroke: #1f77b4; stroke-linecap: round"/>
   </g>
   <g id="line2d_20">
    <path d="M 281.433338 190.753589 
L 283.433338 191.753589 
L 283.433338 189.753589 
z
" clip-path="url(#pcb01ae2f52)" style="fill: #ff7f0e; fill-opacity: 0.5; stroke: #ff7f0e; stroke-opacity: 0.5; stroke-linejoin: miter"/>
   </g>
   <g id="line2d_21">
    <path d="M 281.433338 81.681948 
L 283.433338 82.681948 
L 283.433338 80.681948 
z
" clip-path="url(#pcb01ae2f52)" style="fill: #ff7f0e; fill-opacity: 0.5; stroke: #ff7f0e; stroke-opacity: 0.5; stroke-linejoin: miter"/>
   </g>
   <g id="line2d_22">
    <path d="M 281.433338 282.175506 
L 283.433338 283.175506 
L 283.433338 281.175506 
z
" clip-path="url(#pcb01ae2f52)" style="fill: #ff7f0e; fill-opacity: 0.5; stroke: #ff7f0e; stroke-opacity: 0.5; stroke-linejoin: miter"/>
   </g>
   <g id="line2d_23">
    <path d="M 281.433338 82.133075 
L 283.433338 83.133075 
L 283.433338 81.133075 
z
" clip-path="url(#pcb01ae2f52)" style="fill: #ff7f0e; fill-opacity: 0.5; stroke: #ff7f0e; stroke-opacity: 0.5; stroke-linejoin: miter"/>
   </g>
   <g id="line2d_24">
    <path d="M 281.433338 240.482646 
L 283.433338 241.482646 
L 283.433338 239.482646 
z
" clip-path="url(#pcb01ae2f52)" style="fill: #ff7f0e; fill-opacity: 0.5; stroke: #ff7f0e; stroke-opacity: 0.5; stroke-linejoin: miter"/>
   </g>
   <g id="line2d_25">
    <path d="M 281.433338 212.758579 
L 283.433338 213.758579 
L 283.433338 211.758579 
z
" clip-path="url(#pcb01ae2f52)" style="fill: #ff7f0e; fill-opacity: 0.5; stroke: #ff7f0e; stroke-opacity: 0.5; stroke-linejoin: miter"/>
   </g>
   <g id="line2d_26">
    <path d="M 281.433338 112.207417 
L 283.433338 113.207417 
L 283.433338 111.207417 
z
" clip-path="url(#pcb01ae2f52)" style="fill: #ff7f0e; fill-opacity: 0.5; stroke: #ff7f0e; stroke-opacity: 0.5; stroke-linejoin: miter"/>
   </g>
   <g id="line2d_27">
    <path d="M 281.433338 216.271441 
L 283.433338 217.271441 
L 283.433338 215.271441 
z
" clip-path="url(#pcb01ae2f52)" style="fill: #ff7f0e; fill-opacity: 0.5; stroke: #ff7f0e; stroke-opacity: 0.5; stroke-linejoin: miter"/>
   </g>
   <g id="line2d_28">
    <path d="M 281.433338 181.361283 
L 283.433338 182.361283 
L 283.433338 180.361283 
z
" clip-path="url(#pcb01ae2f52)" style="fill: #ff7f0e; fill-opacity: 0.5; stroke: #ff7f0e; stroke-opacity: 0.5; stroke-linejoin: miter"/>
   </g>
   <g id="line2d_29">
    <path d="M 281.433338 311.169095 
L 283.433338 312.169095 
L 283.433338 310.169095 
z
" clip-path="url(#pcb01ae2f52)" style="fill: #ff7f0e; fill-opacity: 0.5; stroke: #ff7f0e; stroke-opacity: 0.5; stroke-linejoin: miter"/>
   </g>
   <g id="patch_6">
    <path d="M 53.328125 318.021875 
L 53.328125 7.2 
" style="fill: none; stroke: #000000; stroke-width: 0.8; stroke-linejoin: miter; stroke-linecap: square"/>
   </g>
  </g>
 </g>
 <defs>
  <clipPath id="pcb01ae2f52">
   <rect x="53.328125" y="7.2" width="546.671875" height="310.821875"/>
  </clipPath>
 </defs>
</svg>