<?xml version="1.0" encoding="utf-8" standalone="no"?>
<!DOCTYPE svg PUBLIC "-//W3C//DTD SVG 1.1//EN"
  "http://www.w3.org/Graphics/SVG/1.1/DTD/svg11.dtd">
<svg xmlns:xlink="http://www.w3.org/1999/xlink" width="607.2pt" height="338.4pt" viewBox="0 0 607.2 338.4" xmlns="http://www.w3.org/2000/svg" version="1.1">
 <metadata>
  <rdf:RDF xmlns:dc="http://purl.org/dc/elements/1.1/" xmlns:cc="http://creativecommons.org/ns#" xmlns:rdf="http://www.w3.org/1999/02/22-rdf-syntax-ns#">
   <cc:Work>
    <dc:type rdf:resource="http://purl.org/dc/dcmitype/StillImage"/>
    <dc:date>2024-11-19T21:40:01.496339</dc:date>
    <dc:format>image/svg+xml</dc:format>
    <dc:creator>
     <cc:Agent>
      <dc:title>Matplotlib v3.9.2, https://matplotlib.org/</dc:title>
     </cc:Agent>
    </dc:creator>
   </cc:Work>
  </rdf:RDF>
 </metadata>
 <defs>
  <style type="text/css">*{stroke-linejoin: round; stroke-linecap: butt}</style>
 </defs>
 <g id="figure_1">
  <g id="patch_1">
   <path d="M 0 338.4 
L 607.2 338.4 
L 607.2 0 
L 0 0 
z
" style="fill: #ffffff"/>
  </g>
  <g id="axes_1">
   <g id="patch_2">
    <path d="M 53.328125 318.021875 
L 600 318.021875 
L 600 7.2 
L 53.328125 7.2 
z
" style="fill: #ffffff"/>
   </g>
   <g id="line2d_1">
    <path d="M 207.887173 193.693125 
L 208.887173 193.724561 
L 209.887173 193.761502 
L 210.887173 193.859248 
L 211.887173 193.89177 
L 212.887173 193.965395 
L 213.887173 194.00396 
L 214.887173 194.039373 
L 215.887173 194.097013 
L 216.887173 194.167399 
L 217.887173 194.219364 
L 218.887173 194.278453 
L 219.887173 194.366774 
L 220.887173 194.412919 
L 221.887173 194.45533 
L 222.887173 194.485822 
L 223.887173 194.511867 
L 224.887173 194.533067 
L 225.887173 194.587368 
L 226.887173 194.615306 
L 227.887173 194.64503 
L 228.887173 194.670425 
L 229.887173 194.681625 
L 230.887173 194.691749 
L 231.887173 194.691545 
L 232.887173 194.682035 
L 233.887173 194.670381 
L 234.887173 194.639352 
L 235.887173 194.628184 
L 236.887173 194.598067 
L 237.887173 194.53829 
L 238.887173 194.501098 
L 239.887173 194.462002 
L 240.887173 194.419562 
L 241.887173 194.386797 
L 242.887173 194.319371 
L 243.887173 194.280245 
L 244.887173 194.23757 
L 245.887173 194.16699 
L 246.887173 194.130599 
L 247.887173 194.072196 
L 248.887173 193.961243 
L 249.887173 193.890585 
L 250.887173 193.777645 
L 251.887173 193.731872 
L 252.887173 193.670589 
L 253.887173 193.62209 
L 254.887173 193.541267 
L 255.887173 193.422748 
L 256.887173 193.352537 
L 257.887173 193.269275 
L 258.887173 193.236133 
L 259.887173 193.184896 
L 260.887173 193.116497 
L 261.887173 193.050282 
L 262.887173 192.973365 
L 263.887173 192.946049 
L 264.887173 192.919572 
L 265.887173 192.896921 
L 266.887173 192.87739 
L 267.887173 192.850996 
L 268.887173 192.801225 
L 269.887173 192.766152 
L 270.887173 192.730286 
L 271.887173 192.714919 
L 272.887173 192.69915 
L 273.887173 192.695737 
L 274.887173 192.69332 
L 275.887173 192.693806 
L 276.887173 192.695735 
L 277.887173 192.708992 
L 278.887173 192.717383 
L 279.887173 192.738919 
L 280.887173 192.761952 
L 281.887173 192.779185 
L 282.887173 192.797648 
L 283.887173 192.8181 
L 284.887173 192.8347 
L 285.887173 192.897479 
L 286.887173 192.972744 
L 287.887173 193.005383 
L 288.887173 193.072947 
L 289.887173 193.126994 
L 290.887173 193.160698 
L 291.887173 193.250824 
L 292.887173 193.279359 
L 293.887173 193.310845 
L 294.887173 193.341856 
L 295.887173 193.396664 
L 296.887173 193.461251 
L 297.887173 193.499447 
L 298.887173 193.595381 
L 299.887173 193.644639 
L 300.887173 193.688708 
L 301.887173 193.728832 
L 302.887173 193.837199 
L 303.887173 193.878827 
L 304.887173 193.940969 
L 305.887173 194.010931 
L 306.887173 194.115435 
L 307.887173 194.152423 
L 308.887173 194.1983 
L 309.887173 194.266795 
L 310.887173 194.315541 
L 311.887173 194.393138 
L 312.887173 194.423679 
L 313.887173 194.493193 
L 314.887173 194.517166 
L 315.887173 194.545788 
L 316.887173 194.587581 
L 317.887173 194.609157 
L 318.887173 194.623105 
L 319.887173 194.649827 
L 320.887173 194.659137 
L 321.887173 194.671584 
L 322.887173 194.682639 
L 323.887173 194.688303 
L 324.887173 194.693067 
L 325.887173 194.687519 
L 326.887173 194.674231 
L 327.887173 194.666714 
L 328.887173 194.641929 
L 329.887173 194.61836 
L 330.887173 194.58218 
L 331.887173 194.556218 
L 332.887173 194.533896 
L 333.887173 194.465136 
L 334.887173 194.390601 
L 335.887173 194.296622 
L 336.887173 194.24557 
L 337.887173 194.191636 
L 338.887173 194.156385 
L 339.887173 194.050297 
L 340.887173 193.998033 
L 341.887173 193.961126 
L 342.887173 193.930095 
L 343.887173 193.86894 
L 344.887173 193.80152 
L 345.887173 193.752614 
L 346.887173 193.687422 
L 347.887173 193.649234 
L 348.887173 193.607238 
L 349.887173 193.565221 
L 350.887173 193.505705 
L 351.887173 193.392545 
L 352.887173 193.340294 
L 353.887173 193.300876 
L 354.887173 193.253775 
L 355.887173 193.196995 
L 356.887173 193.164332 
L 357.887173 193.128154 
L 358.887173 193.096064 
L 359.887173 193.061784 
L 360.887173 193.003406 
L 361.887173 192.958221 
L 362.887173 192.928597 
L 363.887173 192.878211 
L 364.887173 192.853014 
L 365.887173 192.831963 
L 366.887173 192.796995 
L 367.887173 192.772705 
L 368.887173 192.758638 
L 369.887173 192.739696 
L 370.887173 192.724035 
L 371.887173 192.711483 
L 372.887173 192.705647 
L 373.887173 192.698765 
L 374.887173 192.693591 
L 375.887173 192.695374 
L 376.887173 192.698099 
L 377.887173 192.709253 
L 378.887173 192.737488 
L 379.887173 192.781276 
L 380.887173 192.801965 
L 381.887173 192.842938 
L 382.887173 192.883013 
L 383.887173 192.902123 
L 384.887173 192.924632 
L 385.887173 192.991283 
L 386.887173 193.040993 
L 387.887173 193.114699 
L 388.887173 193.146013 
L 389.887173 193.222635 
L 390.887173 193.260933 
L 391.887173 193.33505 
L 392.887173 193.439108 
L 393.887173 193.508939 
L 394.887173 193.614173 
L 395.887173 193.669188 
L 396.887173 193.792663 
L 397.887173 193.863222 
L 398.887173 193.979061 
L 399.887173 194.029242 
L 400.887173 194.064846 
L 401.887173 194.156253 
L 402.887173 194.209761 
L 403.887173 194.297669 
L 404.887173 194.366854 
L 405.887173 194.413618 
L 406.887173 194.485662 
L 407.887173 194.535804 
L 408.887173 194.553194 
L 409.887173 194.580197 
L 410.887173 194.599624 
L 411.887173 194.618962 
L 412.887173 194.657211 
L 413.887173 194.673644 
L 414.887173 194.682013 
L 415.887173 194.686332 
L 416.887173 194.692887 
L 417.887173 194.690341 
L 418.887173 194.684882 
L 419.887173 194.668454 
L 420.887173 194.636519 
L 421.887173 194.598539 
L 422.887173 194.563735 
L 423.887173 194.500663 
L 424.887173 194.479236 
L 425.887173 194.428618 
L 426.887173 194.403661 
L 427.887173 194.348027 
L 428.887173 194.316798 
L 429.887173 194.266654 
L 430.887173 194.234161 
L 431.887173 194.153749 
L 432.887173 194.084823 
L 433.887173 193.969126 
L 434.887173 193.893647 
L 435.887173 193.778122 
L 436.887173 193.698638 
L 437.887173 193.590197 
L 438.887173 193.550829 
L 439.887173 193.447961 
L 440.887173 193.348163 
L 441.887173 193.302666 
L 442.887173 193.268344 
L 443.887173 193.216388 
L 445.440952 193.176741 
" clip-path="url(#pb91fa72e1f)" style="fill: none; stroke-dasharray: 3.7,1.6; stroke-dashoffset: 0; stroke: #ff7f0e"/>
   </g>
   <g id="patch_3">
    <path d="M 264.542259 7.2 
L 264.542259 69.364375 
M 388.785866 7.2 
L 388.785866 69.364375 
" clip-path="url(#pb91fa72e1f)" style="fill: none; stroke: #ffffff; stroke-width: 3; stroke-linejoin: miter"/>
    <path d="M 264.542259 7.2 
L 264.542259 69.364375 
M 388.785866 7.2 
L 388.785866 69.364375 
" clip-path="url(#pb91fa72e1f)" style="fill: none; stroke: #1f77b4; stroke-linejoin: miter"/>
   </g>
   <g id="PolyCollection_1">
    <path d="M 388.785866 7.2 
L 264.542259 7.2 
L 264.542259 69.364375 
L 388.785866 69.364375 
L 388.785866 69.364375 
L 388.785866 7.2 
z
" clip-path="url(#pb91fa72e1f)" style="fill: #1f77b4; fill-opacity: 0.5"/>
   </g>
   <g id="patch_4">
    <path d="M 78.176847 69.364375 
L 78.176847 318.021875 
M 202.420455 69.364375 
L 202.420455 318.021875 
" clip-path="url(#pb91fa72e1f)" style="fill: none; stroke: #ffffff; stroke-width: 3; stroke-linejoin: miter"/>
    <path d="M 78.176847 69.364375 
L 78.176847 318.021875 
M 202.420455 69.364375 
L 202.420455 318.021875 
" clip-path="url(#pb91fa72e1f)" style="fill: none; stroke: #ff7f0e; stroke-linejoin: miter"/>
   </g>
   <g id="PolyCollection_2">
    <path d="M 202.420455 69.364375 
L 78.176847 69.364375 
L 78.176847 318.021875 
L 202.420455 318.021875 
L 202.420455 318.021875 
L 202.420455 69.364375 
z
" clip-path="url(#pb91fa72e1f)" style="fill: #ff7f0e; fill-opacity: 0.5"/>
   </g>
   <g id="patch_5">
    <path d="M 450.90767 69.364375 
L 450.90767 318.021875 
M 575.151278 69.364375 
L 575.151278 318.021875 
" clip-path="url(#pb91fa72e1f)" style="fill: none; stroke: #ffffff; stroke-width: 3; stroke-linejoin: miter"/>
    <path d="M 450.90767 69.364375 
L 450.90767 318.021875 
M 575.151278 69.364375 
L 575.151278 318.021875 
" clip-path="url(#pb91fa72e1f)" style="fill: none; stroke: #2ca02c; stroke-linejoin: miter"/>
   </g>
   <g id="PolyCollection_3">
    <path d="M 575.151278 69.364375 
L 450.90767 69.364375 
L 450.90767 318.021875 
L 575.151278 318.021875 
L 575.151278 318.021875 
L 575.151278 69.364375 
z
" clip-path="url(#pb91fa72e1f)" style="fill: #2ca02c; fill-opacity: 0.5"/>
   </g>
   <g id="matplotlib.axis_1">
    <g id="xtick_1">
     <g id="line2d_2"/>
     <g id="text_1">
      <!-- A -->
      <g transform="translate(136.878338 329.120312) scale(0.1 -0.1)">
       <defs>
        <path id="DejaVuSans-41" d="M 2188 4044 
L 1331 1722 
L 3047 1722 
L 2188 4044 
z
M 1831 4666 
L 2547 4666 
L 4325 0 
L 3669 0 
L 3244 1197 
L 1141 1197 
L 716 0 
L 50 0 
L 1831 4666 
z
" transform="scale(0.015625)"/>
       </defs>
       <use xlink:href="#DejaVuSans-41"/>
      </g>
     </g>
    </g>
    <g id="xtick_2">
     <g id="line2d_3"/>
     <g id="text_2">
      <!-- B -->
      <g transform="translate(509.599006 329.120312) scale(0.1 -0.1)">
       <defs>
        <path id="DejaVuSans-42" d="M 1259 2228 
L 1259 519 
L 2272 519 
Q 2781 519 3026 730 
Q 3272 941 3272 1375 
Q 3272 1813 3026 2020 
Q 2781 2228 2272 2228 
L 1259 2228 
z
M 1259 4147 
L 1259 2741 
L 2194 2741 
Q 2656 2741 2882 2914 
Q 3109 3088 3109 3444 
Q 3109 3797 2882 3972 
Q 2656 4147 2194 4147 
L 1259 4147 
z
M 628 4666 
L 2241 4666 
Q 2963 4666 3353 4366 
Q 3744 4066 3744 3513 
Q 3744 3084 3544 2831 
Q 3344 2578 2956 2516 
Q 3422 2416 3680 2098 
Q 3938 1781 3938 1306 
Q 3938 681 3513 340 
Q 3088 0 2303 0 
L 628 0 
L 628 4666 
z
" transform="scale(0.015625)"/>
       </defs>
       <use xlink:href="#DejaVuSans-42"/>
      </g>
     </g>
    </g>
   </g>
   <g id="matplotlib.axis_2">
    <g id="ytick_1">
     <g id="line2d_4">
      <defs>
       <path id="mdf2d08993d" d="M 0 0 
L -3.5 0 
" style="stroke: #000000; stroke-width: 0.8"/>
      </defs>
      <g>
       <use xlink:href="#mdf2d08993d" x="53.328125" y="318.021875" style="stroke: #000000; stroke-width: 0.8"/>
      </g>
     </g>
     <g id="text_3">
      <!-- 0 -->
      <g transform="translate(39.965625 321.821094) scale(0.1 -0.1)">
       <defs>
        <path id="DejaVuSans-30" d="M 2034 4250 
Q 1547 4250 1301 3770 
Q 1056 3291 1056 2328 
Q 1056 1369 1301 889 
Q 1547 409 2034 409 
Q 2525 409 2770 889 
Q 3016 1369 3016 2328 
Q 3016 3291 2770 3770 
Q 2525 4250 2034 4250 
z
M 2034 4750 
Q 2819 4750 3233 4129 
Q 3647 3509 3647 2328 
Q 3647 1150 3233 529 
Q 2819 -91 2034 -91 
Q 1250 -91 836 529 
Q 422 1150 422 2328 
Q 422 3509 836 4129 
Q 1250 4750 2034 4750 
z
" transform="scale(0.015625)"/>
       </defs>
       <use xlink:href="#DejaVuSans-30"/>
      </g>
     </g>
    </g>
    <g id="ytick_2">
     <g id="line2d_5">
      <g>
       <use xlink:href="#mdf2d08993d" x="53.328125" y="268.290375" style="stroke: #000000; stroke-width: 0.8"/>
      </g>
     </g>
     <g id="text_4">
      <!-- 200 -->
      <g transform="translate(27.240625 272.089594) scale(0.1 -0.1)">
       <defs>
        <path id="DejaVuSans-32" d="M 1228 531 
L 3431 531 
L 3431 0 
L 469 0 
L 469 531 
Q 828 903 1448 1529 
Q 2069 2156 2228 2338 
Q 2531 2678 2651 2914 
Q 2772 3150 2772 3378 
Q 2772 3750 2511 3984 
Q 2250 4219 1831 4219 
Q 1534 4219 1204 4116 
Q 875 4013 500 3803 
L 500 4441 
Q 881 4594 1212 4672 
Q 1544 4750 1819 4750 
Q 2544 4750 2975 4387 
Q 3406 4025 3406 3419 
Q 3406 3131 3298 2873 
Q 3191 2616 2906 2266 
Q 2828 2175 2409 1742 
Q 1991 1309 1228 531 
z
" transform="scale(0.015625)"/>
       </defs>
       <use xlink:href="#DejaVuSans-32"/>
       <use xlink:href="#DejaVuSans-30" x="63.623047"/>
       <use xlink:href="#DejaVuSans-30" x="127.246094"/>
      </g>
     </g>
    </g>
    <g id="ytick_3">
     <g id="line2d_6">
      <g>
       <use xlink:href="#mdf2d08993d" x="53.328125" y="218.558875" style="stroke: #000000; stroke-width: 0.8"/>
      </g>
     </g>
     <g id="text_5">
      <!-- 400 -->
      <g transform="translate(27.240625 222.358094) scale(0.1 -0.1)">
       <defs>
        <path id="DejaVuSans-34" d="M 2419 4116 
L 825 1625 
L 2419 1625 
L 2419 4116 
z
M 2253 4666 
L 3047 4666 
L 3047 1625 
L 3713 1625 
L 3713 1100 
L 3047 1100 
L 3047 0 
L 2419 0 
L 2419 1100 
L 313 1100 
L 313 1709 
L 2253 4666 
z
" transform="scale(0.015625)"/>
       </defs>
       <use xlink:href="#DejaVuSans-34"/>
       <use xlink:href="#DejaVuSans-30" x="63.623047"/>
       <use xlink:href="#DejaVuSans-30" x="127.246094"/>
      </g>
     </g>
    </g>
    <g id="ytick_4">
     <g id="line2d_7">
      <g>
       <use xlink:href="#mdf2d08993d" x="53.328125" y="168.827375" style="stroke: #000000; stroke-width: 0.8"/>
      </g>
     </g>
     <g id="text_6">
      <!-- 600 -->
      <g transform="translate(27.240625 172.626594) scale(0.1 -0.1)">
       <defs>
        <path id="DejaVuSans-36" d="M 2113 2584 
Q 1688 2584 1439 2293 
Q 1191 2003 1191 1497 
Q 1191 994 1439 701 
Q 1688 409 2113 409 
Q 2538 409 2786 701 
Q 3034 994 3034 1497 
Q 3034 2003 2786 2293 
Q 2538 2584 2113 2584 
z
M 3366 4563 
L 3366 3988 
Q 3128 4100 2886 4159 
Q 2644 4219 2406 4219 
Q 1781 4219 1451 3797 
Q 1122 3375 1075 2522 
Q 1259 2794 1537 2939 
Q 1816 3084 2150 3084 
Q 2853 3084 3261 2657 
Q 3669 2231 3669 1497 
Q 3669 778 3244 343 
Q 2819 -91 2113 -91 
Q 1303 -91 875 529 
Q 447 1150 447 2328 
Q 447 3434 972 4092 
Q 1497 4750 2381 4750 
Q 2619 4750 2861 4703 
Q 3103 4656 3366 4563 
z
" transform="scale(0.015625)"/>
       </defs>
       <use xlink:href="#DejaVuSans-36"/>
       <use xlink:href="#DejaVuSans-30" x="63.623047"/>
       <use xlink:href="#DejaVuSans-30" x="127.246094"/>
      </g>
     </g>
    </g>
    <g id="ytick_5">
     <g id="line2d_8">
      <g>
       <use xlink:href="#mdf2d08993d" x="53.328125" y="119.095875" style="stroke: #000000; stroke-width: 0.8"/>
      </g>
     </g>
     <g id="text_7">
      <!-- 800 -->
      <g transform="translate(27.240625 122.895094) scale(0.1 -0.1)">
       <defs>
        <path id="DejaVuSans-38" d="M 2034 2216 
Q 1584 2216 1326 1975 
Q 1069 1734 1069 1313 
Q 1069 891 1326 650 
Q 1584 409 2034 409 
Q 2484 409 2743 651 
Q 3003 894 3003 1313 
Q 3003 1734 2745 1975 
Q 2488 2216 2034 2216 
z
M 1403 2484 
Q 997 2584 770 2862 
Q 544 3141 544 3541 
Q 544 4100 942 4425 
Q 1341 4750 2034 4750 
Q 2731 4750 3128 4425 
Q 3525 4100 3525 3541 
Q 3525 3141 3298 2862 
Q 3072 2584 2669 2484 
Q 3125 2378 3379 2068 
Q 3634 1759 3634 1313 
Q 3634 634 3220 271 
Q 2806 -91 2034 -91 
Q 1263 -91 848 271 
Q 434 634 434 1313 
Q 434 1759 690 2068 
Q 947 2378 1403 2484 
z
M 1172 3481 
Q 1172 3119 1398 2916 
Q 1625 2713 2034 2713 
Q 2441 2713 2670 2916 
Q 2900 3119 2900 3481 
Q 2900 3844 2670 4047 
Q 2441 4250 2034 4250 
Q 1625 4250 1398 4047 
Q 1172 3844 1172 3481 
z
" transform="scale(0.015625)"/>
       </defs>
       <use xlink:href="#DejaVuSans-38"/>
       <use xlink:href="#DejaVuSans-30" x="63.623047"/>
       <use xlink:href="#DejaVuSans-30" x="127.246094"/>
      </g>
     </g>
    </g>
    <g id="ytick_6">
     <g id="line2d_9">
      <g>
       <use xlink:href="#mdf2d08993d" x="53.328125" y="69.364375" style="stroke: #000000; stroke-width: 0.8"/>
      </g>
     </g>
     <g id="text_8">
      <!-- 1000 -->
      <g transform="translate(20.878125 73.163594) scale(0.1 -0.1)">
       <defs>
        <path id="DejaVuSans-31" d="M 794 531 
L 1825 531 
L 1825 4091 
L 703 3866 
L 703 4441 
L 1819 4666 
L 2450 4666 
L 2450 531 
L 3481 531 
L 3481 0 
L 794 0 
L 794 531 
z
" transform="scale(0.015625)"/>
       </defs>
       <use xlink:href="#DejaVuSans-31"/>
       <use xlink:href="#DejaVuSans-30" x="63.623047"/>
       <use xlink:href="#DejaVuSans-30" x="127.246094"/>
       <use xlink:href="#DejaVuSans-30" x="190.869141"/>
      </g>
     </g>
    </g>
    <g id="ytick_7">
     <g id="line2d_10">
      <g>
       <use xlink:href="#mdf2d08993d" x="53.328125" y="19.632875" style="stroke: #000000; stroke-width: 0.8"/>
      </g>
     </g>
     <g id="text_9">
      <!-- 1200 -->
      <g transform="translate(20.878125 23.432094) scale(0.1 -0.1)">
       <use xlink:href="#DejaVuSans-31"/>
       <use xlink:href="#DejaVuSans-32" x="63.623047"/>
       <use xlink:href="#DejaVuSans-30" x="127.246094"/>
       <use xlink:href="#DejaVuSans-30" x="190.869141"/>
      </g>
     </g>
    </g>
    <g id="text_10">
     <!-- time ago (generations) -->
     <g transform="translate(14.798438 220.082031) rotate(-90) scale(0.1 -0.1)">
      <defs>
       <path id="DejaVuSans-74" d="M 1172 4494 
L 1172 3500 
L 2356 3500 
L 2356 3053 
L 1172 3053 
L 1172 1153 
Q 1172 725 1289 603 
Q 1406 481 1766 481 
L 2356 481 
L 2356 0 
L 1766 0 
Q 1100 0 847 248 
Q 594 497 594 1153 
L 594 3053 
L 172 3053 
L 172 3500 
L 594 3500 
L 594 4494 
L 1172 4494 
z
" transform="scale(0.015625)"/>
       <path id="DejaVuSans-69" d="M 603 3500 
L 1178 3500 
L 1178 0 
L 603 0 
L 603 3500 
z
M 603 4863 
L 1178 4863 
L 1178 4134 
L 603 4134 
L 603 4863 
z
" transform="scale(0.015625)"/>
       <path id="DejaVuSans-6d" d="M 3328 2828 
Q 3544 3216 3844 3400 
Q 4144 3584 4550 3584 
Q 5097 3584 5394 3201 
Q 5691 2819 5691 2113 
L 5691 0 
L 5113 0 
L 5113 2094 
Q 5113 2597 4934 2840 
Q 4756 3084 4391 3084 
Q 3944 3084 3684 2787 
Q 3425 2491 3425 1978 
L 3425 0 
L 2847 0 
L 2847 2094 
Q 2847 2600 2669 2842 
Q 2491 3084 2119 3084 
Q 1678 3084 1418 2786 
Q 1159 2488 1159 1978 
L 1159 0 
L 581 0 
L 581 3500 
L 1159 3500 
L 1159 2956 
Q 1356 3278 1631 3431 
Q 1906 3584 2284 3584 
Q 2666 3584 2933 3390 
Q 3200 3197 3328 2828 
z
" transform="scale(0.015625)"/>
       <path id="DejaVuSans-65" d="M 3597 1894 
L 3597 1613 
L 953 1613 
Q 991 1019 1311 708 
Q 1631 397 2203 397 
Q 2534 397 2845 478 
Q 3156 559 3463 722 
L 3463 178 
Q 3153 47 2828 -22 
Q 2503 -91 2169 -91 
Q 1331 -91 842 396 
Q 353 884 353 1716 
Q 353 2575 817 3079 
Q 1281 3584 2069 3584 
Q 2775 3584 3186 3129 
Q 3597 2675 3597 1894 
z
M 3022 2063 
Q 3016 2534 2758 2815 
Q 2500 3097 2075 3097 
Q 1594 3097 1305 2825 
Q 1016 2553 972 2059 
L 3022 2063 
z
" transform="scale(0.015625)"/>
       <path id="DejaVuSans-20" transform="scale(0.015625)"/>
       <path id="DejaVuSans-61" d="M 2194 1759 
Q 1497 1759 1228 1600 
Q 959 1441 959 1056 
Q 959 750 1161 570 
Q 1363 391 1709 391 
Q 2188 391 2477 730 
Q 2766 1069 2766 1631 
L 2766 1759 
L 2194 1759 
z
M 3341 1997 
L 3341 0 
L 2766 0 
L 2766 531 
Q 2569 213 2275 61 
Q 1981 -91 1556 -91 
Q 1019 -91 701 211 
Q 384 513 384 1019 
Q 384 1609 779 1909 
Q 1175 2209 1959 2209 
L 2766 2209 
L 2766 2266 
Q 2766 2663 2505 2880 
Q 2244 3097 1772 3097 
Q 1472 3097 1187 3025 
Q 903 2953 641 2809 
L 641 3341 
Q 956 3463 1253 3523 
Q 1550 3584 1831 3584 
Q 2591 3584 2966 3190 
Q 3341 2797 3341 1997 
z
" transform="scale(0.015625)"/>
       <path id="DejaVuSans-67" d="M 2906 1791 
Q 2906 2416 2648 2759 
Q 2391 3103 1925 3103 
Q 1463 3103 1205 2759 
Q 947 2416 947 1791 
Q 947 1169 1205 825 
Q 1463 481 1925 481 
Q 2391 481 2648 825 
Q 2906 1169 2906 1791 
z
M 3481 434 
Q 3481 -459 3084 -895 
Q 2688 -1331 1869 -1331 
Q 1566 -1331 1297 -1286 
Q 1028 -1241 775 -1147 
L 775 -588 
Q 1028 -725 1275 -790 
Q 1522 -856 1778 -856 
Q 2344 -856 2625 -561 
Q 2906 -266 2906 331 
L 2906 616 
Q 2728 306 2450 153 
Q 2172 0 1784 0 
Q 1141 0 747 490 
Q 353 981 353 1791 
Q 353 2603 747 3093 
Q 1141 3584 1784 3584 
Q 2172 3584 2450 3431 
Q 2728 3278 2906 2969 
L 2906 3500 
L 3481 3500 
L 3481 434 
z
" transform="scale(0.015625)"/>
       <path id="DejaVuSans-6f" d="M 1959 3097 
Q 1497 3097 1228 2736 
Q 959 2375 959 1747 
Q 959 1119 1226 758 
Q 1494 397 1959 397 
Q 2419 397 2687 759 
Q 2956 1122 2956 1747 
Q 2956 2369 2687 2733 
Q 2419 3097 1959 3097 
z
M 1959 3584 
Q 2709 3584 3137 3096 
Q 3566 2609 3566 1747 
Q 3566 888 3137 398 
Q 2709 -91 1959 -91 
Q 1206 -91 779 398 
Q 353 888 353 1747 
Q 353 2609 779 3096 
Q 1206 3584 1959 3584 
z
" transform="scale(0.015625)"/>
       <path id="DejaVuSans-28" d="M 1984 4856 
Q 1566 4138 1362 3434 
Q 1159 2731 1159 2009 
Q 1159 1288 1364 580 
Q 1569 -128 1984 -844 
L 1484 -844 
Q 1016 -109 783 600 
Q 550 1309 550 2009 
Q 550 2706 781 3412 
Q 1013 4119 1484 4856 
L 1984 4856 
z
" transform="scale(0.015625)"/>
       <path id="DejaVuSans-6e" d="M 3513 2113 
L 3513 0 
L 2938 0 
L 2938 2094 
Q 2938 2591 2744 2837 
Q 2550 3084 2163 3084 
Q 1697 3084 1428 2787 
Q 1159 2491 1159 1978 
L 1159 0 
L 581 0 
L 581 3500 
L 1159 3500 
L 1159 2956 
Q 1366 3272 1645 3428 
Q 1925 3584 2291 3584 
Q 2894 3584 3203 3211 
Q 3513 2838 3513 2113 
z
" transform="scale(0.015625)"/>
       <path id="DejaVuSans-72" d="M 2631 2963 
Q 2534 3019 2420 3045 
Q 2306 3072 2169 3072 
Q 1681 3072 1420 2755 
Q 1159 2438 1159 1844 
L 1159 0 
L 581 0 
L 581 3500 
L 1159 3500 
L 1159 2956 
Q 1341 3275 1631 3429 
Q 1922 3584 2338 3584 
Q 2397 3584 2469 3576 
Q 2541 3569 2628 3553 
L 2631 2963 
z
" transform="scale(0.015625)"/>
       <path id="DejaVuSans-73" d="M 2834 3397 
L 2834 2853 
Q 2591 2978 2328 3040 
Q 2066 3103 1784 3103 
Q 1356 3103 1142 2972 
Q 928 2841 928 2578 
Q 928 2378 1081 2264 
Q 1234 2150 1697 2047 
L 1894 2003 
Q 2506 1872 2764 1633 
Q 3022 1394 3022 966 
Q 3022 478 2636 193 
Q 2250 -91 1575 -91 
Q 1294 -91 989 -36 
Q 684 19 347 128 
L 347 722 
Q 666 556 975 473 
Q 1284 391 1588 391 
Q 1994 391 2212 530 
Q 2431 669 2431 922 
Q 2431 1156 2273 1281 
Q 2116 1406 1581 1522 
L 1381 1569 
Q 847 1681 609 1914 
Q 372 2147 372 2553 
Q 372 3047 722 3315 
Q 1072 3584 1716 3584 
Q 2034 3584 2315 3537 
Q 2597 3491 2834 3397 
z
" transform="scale(0.015625)"/>
       <path id="DejaVuSans-29" d="M 513 4856 
L 1013 4856 
Q 1481 4119 1714 3412 
Q 1947 2706 1947 2009 
Q 1947 1309 1714 600 
Q 1481 -109 1013 -844 
L 513 -844 
Q 928 -128 1133 580 
Q 1338 1288 1338 2009 
Q 1338 2731 1133 3434 
Q 928 4138 513 4856 
z
" transform="scale(0.015625)"/>
      </defs>
      <use xlink:href="#DejaVuSans-74"/>
      <use xlink:href="#DejaVuSans-69" x="39.208984"/>
      <use xlink:href="#DejaVuSans-6d" x="66.992188"/>
      <use xlink:href="#DejaVuSans-65" x="164.404297"/>
      <use xlink:href="#DejaVuSans-20" x="225.927734"/>
      <use xlink:href="#DejaVuSans-61" x="257.714844"/>
      <use xlink:href="#DejaVuSans-67" x="318.994141"/>
      <use xlink:href="#DejaVuSans-6f" x="382.470703"/>
      <use xlink:href="#DejaVuSans-20" x="443.652344"/>
      <use xlink:href="#DejaVuSans-28" x="475.439453"/>
      <use xlink:href="#DejaVuSans-67" x="514.453125"/>
      <use xlink:href="#DejaVuSans-65" x="577.929688"/>
      <use xlink:href="#DejaVuSans-6e" x="639.453125"/>
      <use xlink:href="#DejaVuSans-65" x="702.832031"/>
      <use xlink:href="#DejaVuSans-72" x="764.355469"/>
      <use xlink:href="#DejaVuSans-61" x="805.46875"/>
      <use xlink:href="#DejaVuSans-74" x="866.748047"/>
      <use xlink:href="#DejaVuSans-69" x="905.957031"/>
      <use xlink:href="#DejaVuSans-6f" x="933.740234"/>
      <use xlink:href="#DejaVuSans-6e" x="994.921875"/>
      <use xlink:href="#DejaVuSans-73" x="1058.300781"/>
      <use xlink:href="#DejaVuSans-29" x="1110.400391"/>
     </g>
    </g>
   </g>
   <g id="patch_6">
    <path d="M 262.544078 69.364375 
L 261.544078 69.332939 
L 260.544078 69.295998 
L 259.544078 69.198252 
L 258.544078 69.16573 
L 257.544078 69.092105 
L 256.544078 69.05354 
L 255.544078 69.018127 
L 254.544078 68.960487 
L 253.544078 68.890101 
L 252.544078 68.838136 
L 251.544078 68.779047 
L 250.544078 68.690726 
L 249.544078 68.644581 
L 248.544078 68.60217 
L 247.544078 68.571678 
L 246.544078 68.545633 
L 245.544078 68.524433 
L 244.544078 68.470132 
L 243.544078 68.442194 
L 242.544078 68.41247 
L 241.544078 68.387075 
L 240.544078 68.375875 
L 239.544078 68.365751 
L 238.544078 68.365955 
L 237.544078 68.375465 
L 236.544078 68.387119 
L 235.544078 68.418148 
L 234.544078 68.429316 
L 233.544078 68.459433 
L 232.544078 68.51921 
L 231.544078 68.556402 
L 230.544078 68.595498 
L 229.544078 68.637938 
L 228.544078 68.670703 
L 227.544078 68.738129 
L 226.544078 68.777255 
L 225.544078 68.81993 
L 224.544078 68.89051 
L 223.544078 68.926901 
L 222.544078 68.985304 
L 221.544078 69.096257 
L 220.544078 69.166915 
L 219.544078 69.279855 
L 218.544078 69.325628 
L 217.544078 69.386911 
L 216.544078 69.43541 
L 215.544078 69.516233 
L 214.544078 69.634752 
L 213.544078 69.704963 
L 212.544078 69.788225 
L 211.544078 69.821367 
L 210.544078 69.872604 
L 209.544078 69.941003 
L 208.544078 70.007218 
L 207.544078 70.084135 
L 206.544078 70.111451 
L 205.53845 70.137928 
" clip-path="url(#pb91fa72e1f)" style="fill: none; stroke: #ffffff; stroke-width: 3; stroke-linecap: round"/>
    <path d="M 262.544078 69.364375 
L 261.544078 69.332939 
L 260.544078 69.295998 
L 259.544078 69.198252 
L 258.544078 69.16573 
L 257.544078 69.092105 
L 256.544078 69.05354 
L 255.544078 69.018127 
L 254.544078 68.960487 
L 253.544078 68.890101 
L 252.544078 68.838136 
L 251.544078 68.779047 
L 250.544078 68.690726 
L 249.544078 68.644581 
L 248.544078 68.60217 
L 247.544078 68.571678 
L 246.544078 68.545633 
L 245.544078 68.524433 
L 244.544078 68.470132 
L 243.544078 68.442194 
L 242.544078 68.41247 
L 241.544078 68.387075 
L 240.544078 68.375875 
L 239.544078 68.365751 
L 238.544078 68.365955 
L 237.544078 68.375465 
L 236.544078 68.387119 
L 235.544078 68.418148 
L 234.544078 68.429316 
L 233.544078 68.459433 
L 232.544078 68.51921 
L 231.544078 68.556402 
L 230.544078 68.595498 
L 229.544078 68.637938 
L 228.544078 68.670703 
L 227.544078 68.738129 
L 226.544078 68.777255 
L 225.544078 68.81993 
L 224.544078 68.89051 
L 223.544078 68.926901 
L 222.544078 68.985304 
L 221.544078 69.096257 
L 220.544078 69.166915 
L 219.544078 69.279855 
L 218.544078 69.325628 
L 217.544078 69.386911 
L 216.544078 69.43541 
L 215.544078 69.516233 
L 214.544078 69.634752 
L 213.544078 69.704963 
L 212.544078 69.788225 
L 211.544078 69.821367 
L 210.544078 69.872604 
L 209.544078 69.941003 
L 208.544078 70.007218 
L 207.544078 70.084135 
L 206.544078 70.111451 
L 205.53845 70.137928 
" clip-path="url(#pb91fa72e1f)" style="fill: none; stroke: #1f77b4; stroke-linecap: round"/>
    <path d="M 209.53845 71.364375 
L 208.658082 70.889044 
L 207.780175 70.40879 
L 206.929461 69.874149 
L 205.627287 69.186702 
L 206.55464 69.160687 
L 207.466314 68.747967 
L 208.376579 68.332428 
L 209.719075 67.725624 
L 209.064176 68.364375 
L 209.012212 69.364375 
L 208.953122 71.364375 
z
" clip-path="url(#pb91fa72e1f)" style="fill: #ffffff; stroke: #ffffff; stroke-width: 3; stroke-linecap: round"/>
    <path d="M 209.53845 71.364375 
L 208.658082 70.889044 
L 207.780175 70.40879 
L 206.929461 69.874149 
L 205.627287 69.186702 
L 206.55464 69.160687 
L 207.466314 68.747967 
L 208.376579 68.332428 
L 209.719075 67.725624 
L 209.064176 68.364375 
L 209.012212 69.364375 
L 208.953122 71.364375 
z
" clip-path="url(#pb91fa72e1f)" style="fill: #ffffff; stroke: #1f77b4; stroke-linecap: round"/>
   </g>
   <g id="patch_7">
    <path d="M 390.784047 69.364375 
L 391.784047 69.395811 
L 392.784047 69.432752 
L 393.784047 69.530498 
L 394.784047 69.56302 
L 395.784047 69.636645 
L 396.784047 69.67521 
L 397.784047 69.710623 
L 398.784047 69.768263 
L 399.784047 69.838649 
L 400.784047 69.890614 
L 401.784047 69.949703 
L 402.784047 70.038024 
L 403.784047 70.084169 
L 404.784047 70.12658 
L 405.784047 70.157072 
L 406.784047 70.183117 
L 407.784047 70.204317 
L 408.784047 70.258618 
L 409.784047 70.286556 
L 410.784047 70.31628 
L 411.784047 70.341675 
L 412.784047 70.352875 
L 413.784047 70.362999 
L 414.784047 70.362795 
L 415.784047 70.353285 
L 416.784047 70.341631 
L 417.784047 70.310602 
L 418.784047 70.299434 
L 419.784047 70.269317 
L 420.784047 70.20954 
L 421.784047 70.172348 
L 422.784047 70.133252 
L 423.784047 70.090812 
L 424.784047 70.058047 
L 425.784047 69.990621 
L 426.784047 69.951495 
L 427.784047 69.90882 
L 428.784047 69.83824 
L 429.784047 69.801849 
L 430.784047 69.743446 
L 431.784047 69.632493 
L 432.784047 69.561835 
L 433.784047 69.448895 
L 434.784047 69.403122 
L 435.784047 69.341839 
L 436.784047 69.29334 
L 437.784047 69.212517 
L 438.784047 69.093998 
L 439.784047 69.023787 
L 440.784047 68.940525 
L 441.784047 68.907383 
L 442.784047 68.856146 
L 443.784047 68.787747 
L 444.784047 68.721532 
L 445.784047 68.644615 
L 446.784047 68.617299 
L 447.789675 68.590822 
" clip-path="url(#pb91fa72e1f)" style="fill: none; stroke: #ffffff; stroke-width: 3; stroke-linecap: round"/>
    <path d="M 390.784047 69.364375 
L 391.784047 69.395811 
L 392.784047 69.432752 
L 393.784047 69.530498 
L 394.784047 69.56302 
L 395.784047 69.636645 
L 396.784047 69.67521 
L 397.784047 69.710623 
L 398.784047 69.768263 
L 399.784047 69.838649 
L 400.784047 69.890614 
L 401.784047 69.949703 
L 402.784047 70.038024 
L 403.784047 70.084169 
L 404.784047 70.12658 
L 405.784047 70.157072 
L 406.784047 70.183117 
L 407.784047 70.204317 
L 408.784047 70.258618 
L 409.784047 70.286556 
L 410.784047 70.31628 
L 411.784047 70.341675 
L 412.784047 70.352875 
L 413.784047 70.362999 
L 414.784047 70.362795 
L 415.784047 70.353285 
L 416.784047 70.341631 
L 417.784047 70.310602 
L 418.784047 70.299434 
L 419.784047 70.269317 
L 420.784047 70.20954 
L 421.784047 70.172348 
L 422.784047 70.133252 
L 423.784047 70.090812 
L 424.784047 70.058047 
L 425.784047 69.990621 
L 426.784047 69.951495 
L 427.784047 69.90882 
L 428.784047 69.83824 
L 429.784047 69.801849 
L 430.784047 69.743446 
L 431.784047 69.632493 
L 432.784047 69.561835 
L 433.784047 69.448895 
L 434.784047 69.403122 
L 435.784047 69.341839 
L 436.784047 69.29334 
L 437.784047 69.212517 
L 438.784047 69.093998 
L 439.784047 69.023787 
L 440.784047 68.940525 
L 441.784047 68.907383 
L 442.784047 68.856146 
L 443.784047 68.787747 
L 444.784047 68.721532 
L 445.784047 68.644615 
L 446.784047 68.617299 
L 447.789675 68.590822 
" clip-path="url(#pb91fa72e1f)" style="fill: none; stroke: #1f77b4; stroke-linecap: round"/>
    <path d="M 443.789675 67.364375 
L 444.670043 67.839706 
L 445.54795 68.31996 
L 446.398664 68.854601 
L 447.700838 69.542048 
L 446.773485 69.568063 
L 445.861811 69.980783 
L 444.951546 70.396322 
L 443.60905 71.003126 
L 444.263949 70.364375 
L 444.315913 69.364375 
L 444.375003 67.364375 
z
" clip-path="url(#pb91fa72e1f)" style="fill: #ffffff; stroke: #ffffff; stroke-width: 3; stroke-linecap: round"/>
    <path d="M 443.789675 67.364375 
L 444.670043 67.839706 
L 445.54795 68.31996 
L 446.398664 68.854601 
L 447.700838 69.542048 
L 446.773485 69.568063 
L 445.861811 69.980783 
L 444.951546 70.396322 
L 443.60905 71.003126 
L 444.263949 70.364375 
L 444.315913 69.364375 
L 444.375003 67.364375 
z
" clip-path="url(#pb91fa72e1f)" style="fill: #ffffff; stroke: #1f77b4; stroke-linecap: round"/>
   </g>
   <g id="line2d_11">
    <path d="M 445.440952 193.693125 
" clip-path="url(#pb91fa72e1f)" style="fill: none; stroke-dasharray: 3.7,1.6; stroke-dashoffset: 0; stroke: #ff7f0e"/>
    <path d="M 446.440952 193.693125 
L 444.440952 192.693125 
L 444.440952 194.693125 
z
" clip-path="url(#pb91fa72e1f)" style="fill: #ff7f0e; stroke: #ff7f0e; stroke-linejoin: miter"/>
   </g>
   <g id="patch_8">
    <path d="M 53.328125 318.021875 
L 53.328125 7.2 
" style="fill: none; stroke: #000000; stroke-width: 0.8; stroke-linejoin: miter; stroke-linecap: square"/>
   </g>
   <g id="text_11">
    <g id="patch_9">
     <path d="M 323.239062 45.12125 
L 330.089062 45.12125 
Q 332.089062 45.12125 332.089062 43.12125 
L 332.089062 33.443125 
Q 332.089062 31.443125 330.089062 31.443125 
L 323.239062 31.443125 
Q 321.239062 31.443125 321.239062 33.443125 
L 321.239062 43.12125 
Q 321.239062 45.12125 323.239062 45.12125 
z
" style="fill: #ffffff; opacity: 0.6"/>
    </g>
    <!-- X -->
    <g transform="translate(323.239062 41.041562) scale(0.1 -0.1)">
     <defs>
      <path id="DejaVuSans-58" d="M 403 4666 
L 1081 4666 
L 2241 2931 
L 3406 4666 
L 4084 4666 
L 2584 2425 
L 4184 0 
L 3506 0 
L 2194 1984 
L 872 0 
L 191 0 
L 1856 2491 
L 403 4666 
z
" transform="scale(0.015625)"/>
     </defs>
     <use xlink:href="#DejaVuSans-58"/>
    </g>
   </g>
  </g>
 </g>
 <defs>
  <clipPath id="pb91fa72e1f">
   <rect x="53.328125" y="7.2" width="546.671875" height="310.821875"/>
  </clipPath>
 </defs>
</svg>