<?xml version="1.0" encoding="utf-8" standalone="no"?>
<!DOCTYPE svg PUBLIC "-//W3C//DTD SVG 1.1//EN"
  "http://www.w3.org/Graphics/SVG/1.1/DTD/svg11.dtd">
<svg height="280.8pt" version="1.1" viewBox="0 0 504.8 280.8" width="504.8pt" xmlns="http://www.w3.org/2000/svg" xmlns:xlink="http://www.w3.org/1999/xlink">
 <metadata>
  <rdf:RDF xmlns:cc="http://creativecommons.org/ns#" xmlns:dc="http://purl.org/dc/elements/1.1/" xmlns:rdf="http://www.w3.org/1999/02/22-rdf-syntax-ns#">
   <cc:Work>
    <dc:type rdf:resource="http://purl.org/dc/dcmitype/StillImage"/>
    <dc:date>2021-06-08T13:09:51.930278</dc:date>
    <dc:format>image/svg+xml</dc:format>
    <dc:creator>
     <cc:Agent>
      <dc:title>Matplotlib v3.4.2, https://matplotlib.org/</dc:title>
     </cc:Agent>
    </dc:creator>
   </cc:Work>
  </rdf:RDF>
 </metadata>
 <defs>
  <style type="text/css">*{stroke-linecap:butt;stroke-linejoin:round;}</style>
 </defs>
 <g id="figure_1">
  <g id="patch_1">
   <path d="M 0 280.8 
L 504.8 280.8 
L 504.8 0 
L 0 0 
z
" style="fill:none;"/>
  </g>
  <g id="axes_1">
   <g id="patch_2">
    <path d="M 53.328125 260.421875 
L 497.6 260.421875 
L 497.6 7.2 
L 53.328125 7.2 
z
" style="fill:#ffffff;"/>
   </g>
   <path clip-path="url(#p78c7887197)" d="M 178.935901 159.133125 
L 179.935901 159.164561 
L 180.935901 159.201502 
L 181.935901 159.299248 
L 182.935901 159.33177 
L 183.935901 159.405395 
L 184.935901 159.44396 
L 185.935901 159.479373 
L 186.935901 159.537013 
L 187.935901 159.607399 
L 188.935901 159.659364 
L 189.935901 159.718453 
L 190.935901 159.806774 
L 191.935901 159.852919 
L 192.935901 159.89533 
L 193.935901 159.925822 
L 194.935901 159.951867 
L 195.935901 159.973067 
L 196.935901 160.027368 
L 197.935901 160.055306 
L 198.935901 160.08503 
L 199.935901 160.110425 
L 200.935901 160.121625 
L 201.935901 160.131749 
L 202.935901 160.131545 
L 203.935901 160.122035 
L 204.935901 160.110381 
L 205.935901 160.079352 
L 206.935901 160.068184 
L 207.935901 160.038067 
L 208.935901 159.97829 
L 209.935901 159.941098 
L 210.935901 159.902002 
L 211.935901 159.859562 
L 212.935901 159.826797 
L 213.935901 159.759371 
L 214.935901 159.720245 
L 215.935901 159.67757 
L 216.935901 159.60699 
L 217.935901 159.570599 
L 218.935901 159.512196 
L 219.935901 159.401243 
L 220.935901 159.330585 
L 221.935901 159.217645 
L 222.935901 159.171872 
L 223.935901 159.110589 
L 224.935901 159.06209 
L 225.935901 158.981267 
L 226.935901 158.862748 
L 227.935901 158.792537 
L 228.935901 158.709275 
L 229.935901 158.676133 
L 230.935901 158.624896 
L 231.935901 158.556497 
L 232.935901 158.490282 
L 233.935901 158.413365 
L 234.935901 158.386049 
L 235.935901 158.359572 
L 236.935901 158.336921 
L 237.935901 158.31739 
L 238.935901 158.290996 
L 239.935901 158.241225 
L 240.935901 158.206152 
L 241.935901 158.170286 
L 242.935901 158.154919 
L 243.935901 158.13915 
L 244.935901 158.135737 
L 245.935901 158.13332 
L 246.935901 158.133806 
L 247.935901 158.135735 
L 248.935901 158.148992 
L 249.935901 158.157383 
L 250.935901 158.178919 
L 251.935901 158.201952 
L 252.935901 158.219185 
L 253.935901 158.237648 
L 254.935901 158.2581 
L 255.935901 158.2747 
L 256.935901 158.337479 
L 257.935901 158.412744 
L 258.935901 158.445383 
L 259.935901 158.512947 
L 260.935901 158.566994 
L 261.935901 158.600698 
L 262.935901 158.690824 
L 263.935901 158.719359 
L 264.935901 158.750845 
L 265.935901 158.781856 
L 266.935901 158.836664 
L 267.935901 158.901251 
L 268.935901 158.939447 
L 269.935901 159.035381 
L 270.935901 159.084639 
L 271.935901 159.128708 
L 272.935901 159.168832 
L 273.935901 159.277199 
L 274.935901 159.318827 
L 275.935901 159.380969 
L 276.935901 159.450931 
L 277.935901 159.555435 
L 278.935901 159.592423 
L 279.935901 159.6383 
L 280.935901 159.706795 
L 281.935901 159.755541 
L 282.935901 159.833138 
L 283.935901 159.863679 
L 284.935901 159.933193 
L 285.935901 159.957166 
L 286.935901 159.985788 
L 287.935901 160.027581 
L 288.935901 160.049157 
L 289.935901 160.063105 
L 290.935901 160.089827 
L 291.935901 160.099137 
L 292.935901 160.111584 
L 293.935901 160.122639 
L 294.935901 160.128303 
L 295.935901 160.133067 
L 296.935901 160.127519 
L 297.935901 160.114231 
L 298.935901 160.106714 
L 299.935901 160.081929 
L 300.935901 160.05836 
L 301.935901 160.02218 
L 302.935901 159.996218 
L 303.935901 159.973896 
L 304.935901 159.905136 
L 305.935901 159.830601 
L 306.935901 159.736622 
L 307.935901 159.68557 
L 308.935901 159.631636 
L 309.935901 159.596385 
L 310.935901 159.490297 
L 311.935901 159.438033 
L 312.935901 159.401126 
L 313.935901 159.370095 
L 314.935901 159.30894 
L 315.935901 159.24152 
L 316.935901 159.192614 
L 317.935901 159.127422 
L 318.935901 159.089234 
L 319.935901 159.047238 
L 320.935901 159.005221 
L 321.935901 158.945705 
L 322.935901 158.832545 
L 323.935901 158.780294 
L 324.935901 158.740876 
L 325.935901 158.693775 
L 326.935901 158.636995 
L 327.935901 158.604332 
L 328.935901 158.568154 
L 329.935901 158.536064 
L 330.935901 158.501784 
L 331.935901 158.443406 
L 332.935901 158.398221 
L 333.935901 158.368597 
L 334.935901 158.318211 
L 335.935901 158.293014 
L 336.935901 158.271963 
L 337.935901 158.236995 
L 338.935901 158.212705 
L 339.935901 158.198638 
L 340.935901 158.179696 
L 341.935901 158.164035 
L 342.935901 158.151483 
L 343.935901 158.145647 
L 344.935901 158.138765 
L 345.935901 158.133591 
L 346.935901 158.135374 
L 347.935901 158.138099 
L 348.935901 158.149253 
L 349.935901 158.177488 
L 350.935901 158.221276 
L 351.935901 158.241965 
L 352.935901 158.282938 
L 353.935901 158.323013 
L 354.935901 158.342123 
L 355.935901 158.364632 
L 356.935901 158.431283 
L 357.935901 158.480993 
L 358.935901 158.554699 
L 359.935901 158.586013 
L 360.935901 158.662635 
L 361.935901 158.700933 
L 362.935901 158.77505 
L 363.935901 158.879108 
L 364.935901 158.948939 
L 365.935901 159.054173 
L 366.935901 159.109188 
L 367.935901 159.232663 
L 368.935901 159.303222 
L 369.935901 159.419061 
L 370.935901 159.469242 
L 371.992224 159.504846 
" style="fill:none;stroke:#ff7f0e;stroke-dasharray:3.7,1.6;stroke-dashoffset:0;"/>
   <g id="PolyCollection_1">
    <path clip-path="url(#p78c7887197)" d="M 325.949503 7.2 
L 224.978622 7.2 
L 224.978622 57.844375 
L 325.949503 57.844375 
L 325.949503 57.844375 
L 325.949503 7.2 
z
" style="fill:#1f77b4;fill-opacity:0.5;"/>
   </g>
   <g id="PolyCollection_2">
    <path clip-path="url(#p78c7887197)" d="M 174.493182 57.844375 
L 73.522301 57.844375 
L 73.522301 260.421875 
L 174.493182 260.421875 
L 174.493182 260.421875 
L 174.493182 57.844375 
z
" style="fill:#ff7f0e;fill-opacity:0.5;"/>
   </g>
   <g id="PolyCollection_3">
    <path clip-path="url(#p78c7887197)" d="M 477.405824 57.844375 
L 376.434943 57.844375 
L 376.434943 260.421875 
L 477.405824 260.421875 
L 477.405824 260.421875 
L 477.405824 57.844375 
z
" style="fill:#2ca02c;fill-opacity:0.5;"/>
   </g>
   <g id="patch_3">
    <path clip-path="url(#p78c7887197)" d="M 224.978622 7.2 
L 224.978622 57.844375 
M 325.949503 7.2 
L 325.949503 57.844375 
" style="fill:none;stroke:#ffffff;stroke-linejoin:miter;stroke-width:3;"/>
    <path clip-path="url(#p78c7887197)" d="M 224.978622 7.2 
L 224.978622 57.844375 
M 325.949503 7.2 
L 325.949503 57.844375 
" style="fill:none;stroke:#1f77b4;stroke-linejoin:miter;"/>
    <g id="patch_4">
     <path clip-path="url(#p78c7887197)" d="M 73.522301 57.844375 
L 73.522301 260.421875 
M 174.493182 57.844375 
L 174.493182 260.421875 
" style="fill:none;stroke:#ffffff;stroke-linejoin:miter;stroke-width:3;"/>
     <path clip-path="url(#p78c7887197)" d="M 73.522301 57.844375 
L 73.522301 260.421875 
M 174.493182 57.844375 
L 174.493182 260.421875 
" style="fill:none;stroke:#ff7f0e;stroke-linejoin:miter;"/>
     <g id="patch_5">
      <path clip-path="url(#p78c7887197)" d="M 376.434943 57.844375 
L 376.434943 260.421875 
M 477.405824 57.844375 
L 477.405824 260.421875 
" style="fill:none;stroke:#ffffff;stroke-linejoin:miter;stroke-width:3;"/>
      <path clip-path="url(#p78c7887197)" d="M 376.434943 57.844375 
L 376.434943 260.421875 
M 477.405824 57.844375 
L 477.405824 260.421875 
" style="fill:none;stroke:#2ca02c;stroke-linejoin:miter;"/>
      <g id="matplotlib.axis_1">
       <g id="xtick_1">
        <g id="line2d_1"/>
        <g id="text_1">
         <!-- A -->
         <g transform="translate(120.587429 271.520312)scale(0.1 -0.1)">
          <defs>
           <path d="M 2188 4044 
L 1331 1722 
L 3047 1722 
L 2188 4044 
z
M 1831 4666 
L 2547 4666 
L 4325 0 
L 3669 0 
L 3244 1197 
L 1141 1197 
L 716 0 
L 50 0 
L 1831 4666 
z
" id="DejaVuSans-41" transform="scale(0.015625)"/>
          </defs>
          <use xlink:href="#DejaVuSans-41"/>
         </g>
        </g>
       </g>
       <g id="xtick_2">
        <g id="line2d_2"/>
        <g id="text_2">
         <!-- B -->
         <g transform="translate(423.489915 271.520312)scale(0.1 -0.1)">
          <defs>
           <path d="M 1259 2228 
L 1259 519 
L 2272 519 
Q 2781 519 3026 730 
Q 3272 941 3272 1375 
Q 3272 1813 3026 2020 
Q 2781 2228 2272 2228 
L 1259 2228 
z
M 1259 4147 
L 1259 2741 
L 2194 2741 
Q 2656 2741 2882 2914 
Q 3109 3088 3109 3444 
Q 3109 3797 2882 3972 
Q 2656 4147 2194 4147 
L 1259 4147 
z
M 628 4666 
L 2241 4666 
Q 2963 4666 3353 4366 
Q 3744 4066 3744 3513 
Q 3744 3084 3544 2831 
Q 3344 2578 2956 2516 
Q 3422 2416 3680 2098 
Q 3938 1781 3938 1306 
Q 3938 681 3513 340 
Q 3088 0 2303 0 
L 628 0 
L 628 4666 
z
" id="DejaVuSans-42" transform="scale(0.015625)"/>
          </defs>
          <use xlink:href="#DejaVuSans-42"/>
         </g>
        </g>
       </g>
      </g>
      <g id="matplotlib.axis_2">
       <g id="ytick_1">
        <g id="line2d_3">
         <defs>
          <path d="M 0 0 
L -3.5 0 
" id="m0e8ed142da" style="stroke:#000000;stroke-width:0.8;"/>
         </defs>
         <g>
          <use style="stroke:#000000;stroke-width:0.8;" x="53.328125" xlink:href="#m0e8ed142da" y="260.421875"/>
         </g>
        </g>
        <g id="text_3">
         <!-- 0 -->
         <g transform="translate(39.965625 264.221094)scale(0.1 -0.1)">
          <defs>
           <path d="M 2034 4250 
Q 1547 4250 1301 3770 
Q 1056 3291 1056 2328 
Q 1056 1369 1301 889 
Q 1547 409 2034 409 
Q 2525 409 2770 889 
Q 3016 1369 3016 2328 
Q 3016 3291 2770 3770 
Q 2525 4250 2034 4250 
z
M 2034 4750 
Q 2819 4750 3233 4129 
Q 3647 3509 3647 2328 
Q 3647 1150 3233 529 
Q 2819 -91 2034 -91 
Q 1250 -91 836 529 
Q 422 1150 422 2328 
Q 422 3509 836 4129 
Q 1250 4750 2034 4750 
z
" id="DejaVuSans-30" transform="scale(0.015625)"/>
          </defs>
          <use xlink:href="#DejaVuSans-30"/>
         </g>
        </g>
       </g>
       <g id="ytick_2">
        <g id="line2d_4">
         <g>
          <use style="stroke:#000000;stroke-width:0.8;" x="53.328125" xlink:href="#m0e8ed142da" y="219.906375"/>
         </g>
        </g>
        <g id="text_4">
         <!-- 200 -->
         <g transform="translate(27.240625 223.705594)scale(0.1 -0.1)">
          <defs>
           <path d="M 1228 531 
L 3431 531 
L 3431 0 
L 469 0 
L 469 531 
Q 828 903 1448 1529 
Q 2069 2156 2228 2338 
Q 2531 2678 2651 2914 
Q 2772 3150 2772 3378 
Q 2772 3750 2511 3984 
Q 2250 4219 1831 4219 
Q 1534 4219 1204 4116 
Q 875 4013 500 3803 
L 500 4441 
Q 881 4594 1212 4672 
Q 1544 4750 1819 4750 
Q 2544 4750 2975 4387 
Q 3406 4025 3406 3419 
Q 3406 3131 3298 2873 
Q 3191 2616 2906 2266 
Q 2828 2175 2409 1742 
Q 1991 1309 1228 531 
z
" id="DejaVuSans-32" transform="scale(0.015625)"/>
          </defs>
          <use xlink:href="#DejaVuSans-32"/>
          <use x="63.623047" xlink:href="#DejaVuSans-30"/>
          <use x="127.246094" xlink:href="#DejaVuSans-30"/>
         </g>
        </g>
       </g>
       <g id="ytick_3">
        <g id="line2d_5">
         <g>
          <use style="stroke:#000000;stroke-width:0.8;" x="53.328125" xlink:href="#m0e8ed142da" y="179.390875"/>
         </g>
        </g>
        <g id="text_5">
         <!-- 400 -->
         <g transform="translate(27.240625 183.190094)scale(0.1 -0.1)">
          <defs>
           <path d="M 2419 4116 
L 825 1625 
L 2419 1625 
L 2419 4116 
z
M 2253 4666 
L 3047 4666 
L 3047 1625 
L 3713 1625 
L 3713 1100 
L 3047 1100 
L 3047 0 
L 2419 0 
L 2419 1100 
L 313 1100 
L 313 1709 
L 2253 4666 
z
" id="DejaVuSans-34" transform="scale(0.015625)"/>
          </defs>
          <use xlink:href="#DejaVuSans-34"/>
          <use x="63.623047" xlink:href="#DejaVuSans-30"/>
          <use x="127.246094" xlink:href="#DejaVuSans-30"/>
         </g>
        </g>
       </g>
       <g id="ytick_4">
        <g id="line2d_6">
         <g>
          <use style="stroke:#000000;stroke-width:0.8;" x="53.328125" xlink:href="#m0e8ed142da" y="138.875375"/>
         </g>
        </g>
        <g id="text_6">
         <!-- 600 -->
         <g transform="translate(27.240625 142.674594)scale(0.1 -0.1)">
          <defs>
           <path d="M 2113 2584 
Q 1688 2584 1439 2293 
Q 1191 2003 1191 1497 
Q 1191 994 1439 701 
Q 1688 409 2113 409 
Q 2538 409 2786 701 
Q 3034 994 3034 1497 
Q 3034 2003 2786 2293 
Q 2538 2584 2113 2584 
z
M 3366 4563 
L 3366 3988 
Q 3128 4100 2886 4159 
Q 2644 4219 2406 4219 
Q 1781 4219 1451 3797 
Q 1122 3375 1075 2522 
Q 1259 2794 1537 2939 
Q 1816 3084 2150 3084 
Q 2853 3084 3261 2657 
Q 3669 2231 3669 1497 
Q 3669 778 3244 343 
Q 2819 -91 2113 -91 
Q 1303 -91 875 529 
Q 447 1150 447 2328 
Q 447 3434 972 4092 
Q 1497 4750 2381 4750 
Q 2619 4750 2861 4703 
Q 3103 4656 3366 4563 
z
" id="DejaVuSans-36" transform="scale(0.015625)"/>
          </defs>
          <use xlink:href="#DejaVuSans-36"/>
          <use x="63.623047" xlink:href="#DejaVuSans-30"/>
          <use x="127.246094" xlink:href="#DejaVuSans-30"/>
         </g>
        </g>
       </g>
       <g id="ytick_5">
        <g id="line2d_7">
         <g>
          <use style="stroke:#000000;stroke-width:0.8;" x="53.328125" xlink:href="#m0e8ed142da" y="98.359875"/>
         </g>
        </g>
        <g id="text_7">
         <!-- 800 -->
         <g transform="translate(27.240625 102.159094)scale(0.1 -0.1)">
          <defs>
           <path d="M 2034 2216 
Q 1584 2216 1326 1975 
Q 1069 1734 1069 1313 
Q 1069 891 1326 650 
Q 1584 409 2034 409 
Q 2484 409 2743 651 
Q 3003 894 3003 1313 
Q 3003 1734 2745 1975 
Q 2488 2216 2034 2216 
z
M 1403 2484 
Q 997 2584 770 2862 
Q 544 3141 544 3541 
Q 544 4100 942 4425 
Q 1341 4750 2034 4750 
Q 2731 4750 3128 4425 
Q 3525 4100 3525 3541 
Q 3525 3141 3298 2862 
Q 3072 2584 2669 2484 
Q 3125 2378 3379 2068 
Q 3634 1759 3634 1313 
Q 3634 634 3220 271 
Q 2806 -91 2034 -91 
Q 1263 -91 848 271 
Q 434 634 434 1313 
Q 434 1759 690 2068 
Q 947 2378 1403 2484 
z
M 1172 3481 
Q 1172 3119 1398 2916 
Q 1625 2713 2034 2713 
Q 2441 2713 2670 2916 
Q 2900 3119 2900 3481 
Q 2900 3844 2670 4047 
Q 2441 4250 2034 4250 
Q 1625 4250 1398 4047 
Q 1172 3844 1172 3481 
z
" id="DejaVuSans-38" transform="scale(0.015625)"/>
          </defs>
          <use xlink:href="#DejaVuSans-38"/>
          <use x="63.623047" xlink:href="#DejaVuSans-30"/>
          <use x="127.246094" xlink:href="#DejaVuSans-30"/>
         </g>
        </g>
       </g>
       <g id="ytick_6">
        <g id="line2d_8">
         <g>
          <use style="stroke:#000000;stroke-width:0.8;" x="53.328125" xlink:href="#m0e8ed142da" y="57.844375"/>
         </g>
        </g>
        <g id="text_8">
         <!-- 1000 -->
         <g transform="translate(20.878125 61.643594)scale(0.1 -0.1)">
          <defs>
           <path d="M 794 531 
L 1825 531 
L 1825 4091 
L 703 3866 
L 703 4441 
L 1819 4666 
L 2450 4666 
L 2450 531 
L 3481 531 
L 3481 0 
L 794 0 
L 794 531 
z
" id="DejaVuSans-31" transform="scale(0.015625)"/>
          </defs>
          <use xlink:href="#DejaVuSans-31"/>
          <use x="63.623047" xlink:href="#DejaVuSans-30"/>
          <use x="127.246094" xlink:href="#DejaVuSans-30"/>
          <use x="190.869141" xlink:href="#DejaVuSans-30"/>
         </g>
        </g>
       </g>
       <g id="ytick_7">
        <g id="line2d_9">
         <g>
          <use style="stroke:#000000;stroke-width:0.8;" x="53.328125" xlink:href="#m0e8ed142da" y="17.328875"/>
         </g>
        </g>
        <g id="text_9">
         <!-- 1200 -->
         <g transform="translate(20.878125 21.128094)scale(0.1 -0.1)">
          <use xlink:href="#DejaVuSans-31"/>
          <use x="63.623047" xlink:href="#DejaVuSans-32"/>
          <use x="127.246094" xlink:href="#DejaVuSans-30"/>
          <use x="190.869141" xlink:href="#DejaVuSans-30"/>
         </g>
        </g>
       </g>
       <g id="text_10">
        <!-- time ago (generations) -->
        <g transform="translate(14.798438 191.282031)rotate(-90)scale(0.1 -0.1)">
         <defs>
          <path d="M 1172 4494 
L 1172 3500 
L 2356 3500 
L 2356 3053 
L 1172 3053 
L 1172 1153 
Q 1172 725 1289 603 
Q 1406 481 1766 481 
L 2356 481 
L 2356 0 
L 1766 0 
Q 1100 0 847 248 
Q 594 497 594 1153 
L 594 3053 
L 172 3053 
L 172 3500 
L 594 3500 
L 594 4494 
L 1172 4494 
z
" id="DejaVuSans-74" transform="scale(0.015625)"/>
          <path d="M 603 3500 
L 1178 3500 
L 1178 0 
L 603 0 
L 603 3500 
z
M 603 4863 
L 1178 4863 
L 1178 4134 
L 603 4134 
L 603 4863 
z
" id="DejaVuSans-69" transform="scale(0.015625)"/>
          <path d="M 3328 2828 
Q 3544 3216 3844 3400 
Q 4144 3584 4550 3584 
Q 5097 3584 5394 3201 
Q 5691 2819 5691 2113 
L 5691 0 
L 5113 0 
L 5113 2094 
Q 5113 2597 4934 2840 
Q 4756 3084 4391 3084 
Q 3944 3084 3684 2787 
Q 3425 2491 3425 1978 
L 3425 0 
L 2847 0 
L 2847 2094 
Q 2847 2600 2669 2842 
Q 2491 3084 2119 3084 
Q 1678 3084 1418 2786 
Q 1159 2488 1159 1978 
L 1159 0 
L 581 0 
L 581 3500 
L 1159 3500 
L 1159 2956 
Q 1356 3278 1631 3431 
Q 1906 3584 2284 3584 
Q 2666 3584 2933 3390 
Q 3200 3197 3328 2828 
z
" id="DejaVuSans-6d" transform="scale(0.015625)"/>
          <path d="M 3597 1894 
L 3597 1613 
L 953 1613 
Q 991 1019 1311 708 
Q 1631 397 2203 397 
Q 2534 397 2845 478 
Q 3156 559 3463 722 
L 3463 178 
Q 3153 47 2828 -22 
Q 2503 -91 2169 -91 
Q 1331 -91 842 396 
Q 353 884 353 1716 
Q 353 2575 817 3079 
Q 1281 3584 2069 3584 
Q 2775 3584 3186 3129 
Q 3597 2675 3597 1894 
z
M 3022 2063 
Q 3016 2534 2758 2815 
Q 2500 3097 2075 3097 
Q 1594 3097 1305 2825 
Q 1016 2553 972 2059 
L 3022 2063 
z
" id="DejaVuSans-65" transform="scale(0.015625)"/>
          <path id="DejaVuSans-20" transform="scale(0.015625)"/>
          <path d="M 2194 1759 
Q 1497 1759 1228 1600 
Q 959 1441 959 1056 
Q 959 750 1161 570 
Q 1363 391 1709 391 
Q 2188 391 2477 730 
Q 2766 1069 2766 1631 
L 2766 1759 
L 2194 1759 
z
M 3341 1997 
L 3341 0 
L 2766 0 
L 2766 531 
Q 2569 213 2275 61 
Q 1981 -91 1556 -91 
Q 1019 -91 701 211 
Q 384 513 384 1019 
Q 384 1609 779 1909 
Q 1175 2209 1959 2209 
L 2766 2209 
L 2766 2266 
Q 2766 2663 2505 2880 
Q 2244 3097 1772 3097 
Q 1472 3097 1187 3025 
Q 903 2953 641 2809 
L 641 3341 
Q 956 3463 1253 3523 
Q 1550 3584 1831 3584 
Q 2591 3584 2966 3190 
Q 3341 2797 3341 1997 
z
" id="DejaVuSans-61" transform="scale(0.015625)"/>
          <path d="M 2906 1791 
Q 2906 2416 2648 2759 
Q 2391 3103 1925 3103 
Q 1463 3103 1205 2759 
Q 947 2416 947 1791 
Q 947 1169 1205 825 
Q 1463 481 1925 481 
Q 2391 481 2648 825 
Q 2906 1169 2906 1791 
z
M 3481 434 
Q 3481 -459 3084 -895 
Q 2688 -1331 1869 -1331 
Q 1566 -1331 1297 -1286 
Q 1028 -1241 775 -1147 
L 775 -588 
Q 1028 -725 1275 -790 
Q 1522 -856 1778 -856 
Q 2344 -856 2625 -561 
Q 2906 -266 2906 331 
L 2906 616 
Q 2728 306 2450 153 
Q 2172 0 1784 0 
Q 1141 0 747 490 
Q 353 981 353 1791 
Q 353 2603 747 3093 
Q 1141 3584 1784 3584 
Q 2172 3584 2450 3431 
Q 2728 3278 2906 2969 
L 2906 3500 
L 3481 3500 
L 3481 434 
z
" id="DejaVuSans-67" transform="scale(0.015625)"/>
          <path d="M 1959 3097 
Q 1497 3097 1228 2736 
Q 959 2375 959 1747 
Q 959 1119 1226 758 
Q 1494 397 1959 397 
Q 2419 397 2687 759 
Q 2956 1122 2956 1747 
Q 2956 2369 2687 2733 
Q 2419 3097 1959 3097 
z
M 1959 3584 
Q 2709 3584 3137 3096 
Q 3566 2609 3566 1747 
Q 3566 888 3137 398 
Q 2709 -91 1959 -91 
Q 1206 -91 779 398 
Q 353 888 353 1747 
Q 353 2609 779 3096 
Q 1206 3584 1959 3584 
z
" id="DejaVuSans-6f" transform="scale(0.015625)"/>
          <path d="M 1984 4856 
Q 1566 4138 1362 3434 
Q 1159 2731 1159 2009 
Q 1159 1288 1364 580 
Q 1569 -128 1984 -844 
L 1484 -844 
Q 1016 -109 783 600 
Q 550 1309 550 2009 
Q 550 2706 781 3412 
Q 1013 4119 1484 4856 
L 1984 4856 
z
" id="DejaVuSans-28" transform="scale(0.015625)"/>
          <path d="M 3513 2113 
L 3513 0 
L 2938 0 
L 2938 2094 
Q 2938 2591 2744 2837 
Q 2550 3084 2163 3084 
Q 1697 3084 1428 2787 
Q 1159 2491 1159 1978 
L 1159 0 
L 581 0 
L 581 3500 
L 1159 3500 
L 1159 2956 
Q 1366 3272 1645 3428 
Q 1925 3584 2291 3584 
Q 2894 3584 3203 3211 
Q 3513 2838 3513 2113 
z
" id="DejaVuSans-6e" transform="scale(0.015625)"/>
          <path d="M 2631 2963 
Q 2534 3019 2420 3045 
Q 2306 3072 2169 3072 
Q 1681 3072 1420 2755 
Q 1159 2438 1159 1844 
L 1159 0 
L 581 0 
L 581 3500 
L 1159 3500 
L 1159 2956 
Q 1341 3275 1631 3429 
Q 1922 3584 2338 3584 
Q 2397 3584 2469 3576 
Q 2541 3569 2628 3553 
L 2631 2963 
z
" id="DejaVuSans-72" transform="scale(0.015625)"/>
          <path d="M 2834 3397 
L 2834 2853 
Q 2591 2978 2328 3040 
Q 2066 3103 1784 3103 
Q 1356 3103 1142 2972 
Q 928 2841 928 2578 
Q 928 2378 1081 2264 
Q 1234 2150 1697 2047 
L 1894 2003 
Q 2506 1872 2764 1633 
Q 3022 1394 3022 966 
Q 3022 478 2636 193 
Q 2250 -91 1575 -91 
Q 1294 -91 989 -36 
Q 684 19 347 128 
L 347 722 
Q 666 556 975 473 
Q 1284 391 1588 391 
Q 1994 391 2212 530 
Q 2431 669 2431 922 
Q 2431 1156 2273 1281 
Q 2116 1406 1581 1522 
L 1381 1569 
Q 847 1681 609 1914 
Q 372 2147 372 2553 
Q 372 3047 722 3315 
Q 1072 3584 1716 3584 
Q 2034 3584 2315 3537 
Q 2597 3491 2834 3397 
z
" id="DejaVuSans-73" transform="scale(0.015625)"/>
          <path d="M 513 4856 
L 1013 4856 
Q 1481 4119 1714 3412 
Q 1947 2706 1947 2009 
Q 1947 1309 1714 600 
Q 1481 -109 1013 -844 
L 513 -844 
Q 928 -128 1133 580 
Q 1338 1288 1338 2009 
Q 1338 2731 1133 3434 
Q 928 4138 513 4856 
z
" id="DejaVuSans-29" transform="scale(0.015625)"/>
         </defs>
         <use xlink:href="#DejaVuSans-74"/>
         <use x="39.208984" xlink:href="#DejaVuSans-69"/>
         <use x="66.992188" xlink:href="#DejaVuSans-6d"/>
         <use x="164.404297" xlink:href="#DejaVuSans-65"/>
         <use x="225.927734" xlink:href="#DejaVuSans-20"/>
         <use x="257.714844" xlink:href="#DejaVuSans-61"/>
         <use x="318.994141" xlink:href="#DejaVuSans-67"/>
         <use x="382.470703" xlink:href="#DejaVuSans-6f"/>
         <use x="443.652344" xlink:href="#DejaVuSans-20"/>
         <use x="475.439453" xlink:href="#DejaVuSans-28"/>
         <use x="514.453125" xlink:href="#DejaVuSans-67"/>
         <use x="577.929688" xlink:href="#DejaVuSans-65"/>
         <use x="639.453125" xlink:href="#DejaVuSans-6e"/>
         <use x="702.832031" xlink:href="#DejaVuSans-65"/>
         <use x="764.355469" xlink:href="#DejaVuSans-72"/>
         <use x="805.46875" xlink:href="#DejaVuSans-61"/>
         <use x="866.748047" xlink:href="#DejaVuSans-74"/>
         <use x="905.957031" xlink:href="#DejaVuSans-69"/>
         <use x="933.740234" xlink:href="#DejaVuSans-6f"/>
         <use x="994.921875" xlink:href="#DejaVuSans-6e"/>
         <use x="1058.300781" xlink:href="#DejaVuSans-73"/>
         <use x="1110.400391" xlink:href="#DejaVuSans-29"/>
        </g>
       </g>
      </g>
      <g id="patch_6">
       <path clip-path="url(#p78c7887197)" d="M 222.978802 57.844375 
L 221.978802 57.812939 
L 220.978802 57.775998 
L 219.978802 57.678252 
L 218.978802 57.64573 
L 217.978802 57.572105 
L 216.978802 57.53354 
L 215.978802 57.498127 
L 214.978802 57.440487 
L 213.978802 57.370101 
L 212.978802 57.318136 
L 211.978802 57.259047 
L 210.978802 57.170726 
L 209.978802 57.124581 
L 208.978802 57.08217 
L 207.978802 57.051678 
L 206.978802 57.025633 
L 205.978802 57.004433 
L 204.978802 56.950132 
L 203.978802 56.922194 
L 202.978802 56.89247 
L 201.978802 56.867075 
L 200.978802 56.855875 
L 199.978802 56.845751 
L 198.978802 56.845955 
L 197.978802 56.855465 
L 196.978802 56.867119 
L 195.978802 56.898148 
L 194.978802 56.909316 
L 193.978802 56.939433 
L 192.978802 56.99921 
L 191.978802 57.036402 
L 190.978802 57.075498 
L 189.978802 57.117938 
L 188.978802 57.150703 
L 187.978802 57.218129 
L 186.978802 57.257255 
L 185.978802 57.29993 
L 184.978802 57.37051 
L 183.978802 57.406901 
L 182.978802 57.465304 
L 181.978802 57.576257 
L 180.978802 57.646915 
L 179.978802 57.759855 
L 178.978802 57.805628 
L 177.608762 57.866911 
" style="fill:none;stroke:#ffffff;stroke-linecap:round;stroke-width:3;"/>
       <path clip-path="url(#p78c7887197)" d="M 222.978802 57.844375 
L 221.978802 57.812939 
L 220.978802 57.775998 
L 219.978802 57.678252 
L 218.978802 57.64573 
L 217.978802 57.572105 
L 216.978802 57.53354 
L 215.978802 57.498127 
L 214.978802 57.440487 
L 213.978802 57.370101 
L 212.978802 57.318136 
L 211.978802 57.259047 
L 210.978802 57.170726 
L 209.978802 57.124581 
L 208.978802 57.08217 
L 207.978802 57.051678 
L 206.978802 57.025633 
L 205.978802 57.004433 
L 204.978802 56.950132 
L 203.978802 56.922194 
L 202.978802 56.89247 
L 201.978802 56.867075 
L 200.978802 56.855875 
L 199.978802 56.845751 
L 198.978802 56.845955 
L 197.978802 56.855465 
L 196.978802 56.867119 
L 195.978802 56.898148 
L 194.978802 56.909316 
L 193.978802 56.939433 
L 192.978802 56.99921 
L 191.978802 57.036402 
L 190.978802 57.075498 
L 189.978802 57.117938 
L 188.978802 57.150703 
L 187.978802 57.218129 
L 186.978802 57.257255 
L 185.978802 57.29993 
L 184.978802 57.37051 
L 183.978802 57.406901 
L 182.978802 57.465304 
L 181.978802 57.576257 
L 180.978802 57.646915 
L 179.978802 57.759855 
L 178.978802 57.805628 
L 177.608762 57.866911 
" style="fill:none;stroke:#1f77b4;stroke-linecap:round;"/>
       <path clip-path="url(#p78c7887197)" d="M 181.608762 59.844375 
L 180.728393 59.369044 
L 179.850486 58.88879 
L 178.999773 58.354149 
L 177.697599 57.666702 
L 178.624952 57.640687 
L 179.536626 57.227967 
L 180.44689 56.812428 
L 181.789386 56.205624 
L 181.134487 56.844375 
L 181.082523 57.844375 
L 181.023433 59.844375 
L 181.608762 59.844375 
z
" style="fill:#ffffff;stroke:#ffffff;stroke-linecap:round;stroke-width:3;"/>
       <path clip-path="url(#p78c7887197)" d="M 181.608762 59.844375 
L 180.728393 59.369044 
L 179.850486 58.88879 
L 178.999773 58.354149 
L 177.697599 57.666702 
L 178.624952 57.640687 
L 179.536626 57.227967 
L 180.44689 56.812428 
L 181.789386 56.205624 
L 181.134487 56.844375 
L 181.082523 57.844375 
L 181.023433 59.844375 
L 181.608762 59.844375 
z
" style="fill:#ffffff;stroke:#1f77b4;stroke-linecap:round;"/>
       <g id="patch_7">
        <path clip-path="url(#p78c7887197)" d="M 327.949323 57.844375 
L 328.949323 57.875811 
L 329.949323 57.912752 
L 330.949323 58.010498 
L 331.949323 58.04302 
L 332.949323 58.116645 
L 333.949323 58.15521 
L 334.949323 58.190623 
L 335.949323 58.248263 
L 336.949323 58.318649 
L 337.949323 58.370614 
L 338.949323 58.429703 
L 339.949323 58.518024 
L 340.949323 58.564169 
L 341.949323 58.60658 
L 342.949323 58.637072 
L 343.949323 58.663117 
L 344.949323 58.684317 
L 345.949323 58.738618 
L 346.949323 58.766556 
L 347.949323 58.79628 
L 348.949323 58.821675 
L 349.949323 58.832875 
L 350.949323 58.842999 
L 351.949323 58.842795 
L 352.949323 58.833285 
L 353.949323 58.821631 
L 354.949323 58.790602 
L 355.949323 58.779434 
L 356.949323 58.749317 
L 357.949323 58.68954 
L 358.949323 58.652348 
L 359.949323 58.613252 
L 360.949323 58.570812 
L 361.949323 58.538047 
L 362.949323 58.470621 
L 363.949323 58.431495 
L 364.949323 58.38882 
L 365.949323 58.31824 
L 366.949323 58.281849 
L 367.949323 58.223446 
L 368.949323 58.112493 
L 369.949323 58.041835 
L 370.949323 57.928895 
L 371.949323 57.883122 
L 373.319363 57.821839 
" style="fill:none;stroke:#ffffff;stroke-linecap:round;stroke-width:3;"/>
        <path clip-path="url(#p78c7887197)" d="M 327.949323 57.844375 
L 328.949323 57.875811 
L 329.949323 57.912752 
L 330.949323 58.010498 
L 331.949323 58.04302 
L 332.949323 58.116645 
L 333.949323 58.15521 
L 334.949323 58.190623 
L 335.949323 58.248263 
L 336.949323 58.318649 
L 337.949323 58.370614 
L 338.949323 58.429703 
L 339.949323 58.518024 
L 340.949323 58.564169 
L 341.949323 58.60658 
L 342.949323 58.637072 
L 343.949323 58.663117 
L 344.949323 58.684317 
L 345.949323 58.738618 
L 346.949323 58.766556 
L 347.949323 58.79628 
L 348.949323 58.821675 
L 349.949323 58.832875 
L 350.949323 58.842999 
L 351.949323 58.842795 
L 352.949323 58.833285 
L 353.949323 58.821631 
L 354.949323 58.790602 
L 355.949323 58.779434 
L 356.949323 58.749317 
L 357.949323 58.68954 
L 358.949323 58.652348 
L 359.949323 58.613252 
L 360.949323 58.570812 
L 361.949323 58.538047 
L 362.949323 58.470621 
L 363.949323 58.431495 
L 364.949323 58.38882 
L 365.949323 58.31824 
L 366.949323 58.281849 
L 367.949323 58.223446 
L 368.949323 58.112493 
L 369.949323 58.041835 
L 370.949323 57.928895 
L 371.949323 57.883122 
L 373.319363 57.821839 
" style="fill:none;stroke:#1f77b4;stroke-linecap:round;"/>
        <path clip-path="url(#p78c7887197)" d="M 369.319363 55.844375 
L 370.199732 56.319706 
L 371.077639 56.79996 
L 371.928352 57.334601 
L 373.230526 58.022048 
L 372.303173 58.048063 
L 371.391499 58.460783 
L 370.481235 58.876322 
L 369.138739 59.483126 
L 369.793638 58.844375 
L 369.845602 57.844375 
L 369.904692 55.844375 
L 369.319363 55.844375 
z
" style="fill:#ffffff;stroke:#ffffff;stroke-linecap:round;stroke-width:3;"/>
        <path clip-path="url(#p78c7887197)" d="M 369.319363 55.844375 
L 370.199732 56.319706 
L 371.077639 56.79996 
L 371.928352 57.334601 
L 373.230526 58.022048 
L 372.303173 58.048063 
L 371.391499 58.460783 
L 370.481235 58.876322 
L 369.138739 59.483126 
L 369.793638 58.844375 
L 369.845602 57.844375 
L 369.904692 55.844375 
L 369.319363 55.844375 
z
" style="fill:#ffffff;stroke:#1f77b4;stroke-linecap:round;"/>
        <path clip-path="url(#p78c7887197)" d="M 371.992224 159.133125 
" style="fill:none;stroke:#ff7f0e;stroke-dasharray:3.7,1.6;stroke-dashoffset:0;"/>
        <path clip-path="url(#p78c7887197)" d="M 372.992224 159.133125 
L 370.992224 158.133125 
L 370.992224 160.133125 
z
" style="fill:#ff7f0e;stroke:#ff7f0e;stroke-linejoin:miter;"/>
        <g id="patch_8">
         <path d="M 53.328125 260.421875 
L 53.328125 7.2 
" style="fill:none;stroke:#000000;stroke-linecap:square;stroke-linejoin:miter;stroke-width:0.8;"/>
        </g>
        <g id="text_11">
         <g id="patch_9">
          <path d="M 272.039062 39.36125 
L 278.889063 39.36125 
Q 280.889063 39.36125 280.889063 37.36125 
L 280.889063 27.683125 
Q 280.889063 25.683125 278.889063 25.683125 
L 272.039062 25.683125 
Q 270.039062 25.683125 270.039062 27.683125 
L 270.039062 37.36125 
Q 270.039062 39.36125 272.039062 39.36125 
z
" style="fill:#ffffff;opacity:0.6;"/>
         </g>
         <!-- X -->
         <g transform="translate(272.039062 35.281562)scale(0.1 -0.1)">
          <defs>
           <path d="M 403 4666 
L 1081 4666 
L 2241 2931 
L 3406 4666 
L 4084 4666 
L 2584 2425 
L 4184 0 
L 3506 0 
L 2194 1984 
L 872 0 
L 191 0 
L 1856 2491 
L 403 4666 
z
" id="DejaVuSans-58" transform="scale(0.015625)"/>
          </defs>
          <use xlink:href="#DejaVuSans-58"/>
         </g>
        </g>
       </g>
      </g>
      <defs>
       <clipPath id="p78c7887197">
        <rect height="253.221875" width="444.271875" x="53.328125" y="7.2"/>
       </clipPath>
      </defs>
     </g>
    </g>
   </g>
  </g>
 </g>
</svg>
