<?xml version="1.0" encoding="utf-8" standalone="no"?>
<!DOCTYPE svg PUBLIC "-//W3C//DTD SVG 1.1//EN"
  "http://www.w3.org/Graphics/SVG/1.1/DTD/svg11.dtd">
<svg height="280.8pt" version="1.1" viewBox="0 0 504.8 280.8" width="504.8pt" xmlns="http://www.w3.org/2000/svg" xmlns:xlink="http://www.w3.org/1999/xlink">
 <metadata>
  <rdf:RDF xmlns:cc="http://creativecommons.org/ns#" xmlns:dc="http://purl.org/dc/elements/1.1/" xmlns:rdf="http://www.w3.org/1999/02/22-rdf-syntax-ns#">
   <cc:Work>
    <dc:type rdf:resource="http://purl.org/dc/dcmitype/StillImage"/>
    <dc:date>2021-06-21T15:38:58.803999</dc:date>
    <dc:format>image/svg+xml</dc:format>
    <dc:creator>
     <cc:Agent>
      <dc:title>Matplotlib v3.4.2, https://matplotlib.org/</dc:title>
     </cc:Agent>
    </dc:creator>
   </cc:Work>
  </rdf:RDF>
 </metadata>
 <defs>
  <style type="text/css">*{stroke-linecap:butt;stroke-linejoin:round;}</style>
 </defs>
 <g id="figure_1">
  <g id="patch_1">
   <path d="M 0 280.8 
L 504.8 280.8 
L 504.8 0 
L 0 0 
z
" style="fill:none;"/>
  </g>
  <g id="axes_1">
   <g id="patch_2">
    <path d="M 53.328125 260.421875 
L 497.6 260.421875 
L 497.6 7.2 
L 53.328125 7.2 
z
" style="fill:#ffffff;"/>
   </g>
   <path clip-path="url(#pa14a766d03)" d="M 311.409696 250.386934 
L 310.409696 250.355498 
L 309.409696 250.318558 
L 308.409696 250.220811 
L 307.409696 250.18829 
L 306.409696 250.114665 
L 305.409696 250.076099 
L 304.409696 250.040686 
L 303.409696 249.983046 
L 302.409696 249.91266 
L 301.409696 249.860696 
L 300.409696 249.801606 
L 299.409696 249.713285 
L 298.409696 249.667141 
L 297.409696 249.62473 
L 296.409696 249.594237 
L 295.409696 249.568192 
L 294.409696 249.546992 
L 293.409696 249.492691 
L 292.409696 249.464753 
L 291.409696 249.435029 
L 290.409696 249.409635 
L 289.409696 249.398434 
L 288.409696 249.38831 
L 287.409696 249.388515 
L 286.409696 249.398025 
L 285.409696 249.409678 
L 284.409696 249.440707 
L 283.409696 249.451875 
L 282.409696 249.481993 
L 281.409696 249.54177 
L 280.409696 249.578961 
L 279.409696 249.618057 
L 278.409696 249.660497 
L 277.409696 249.693262 
L 276.409696 249.760689 
L 275.409696 249.799814 
L 274.409696 249.842489 
L 273.409696 249.91307 
L 272.409696 249.94946 
L 271.409696 250.007864 
L 270.409696 250.118816 
L 269.409696 250.189475 
L 268.409696 250.302414 
L 267.409696 250.348187 
L 266.409696 250.409471 
L 265.409696 250.45797 
L 264.409696 250.538793 
L 263.409696 250.657311 
L 262.409696 250.727522 
L 261.409696 250.810785 
L 260.409696 250.843926 
L 259.409696 250.895164 
L 258.409696 250.963562 
L 257.409696 251.029777 
L 256.409696 251.106694 
L 255.409696 251.13401 
L 254.409696 251.160487 
L 253.409696 251.183138 
L 252.409696 251.202669 
L 251.409696 251.229063 
L 250.409696 251.278834 
L 249.409696 251.313907 
L 248.409696 251.349773 
L 247.409696 251.36514 
L 246.409696 251.38091 
L 245.409696 251.384322 
L 244.409696 251.38674 
L 243.409696 251.386254 
L 242.409696 251.384324 
L 241.409696 251.371067 
L 239.518429 251.362677 
" style="fill:none;stroke:#ff7f0e;stroke-linecap:square;stroke-opacity:0.5;stroke-width:0.2;"/>
   <path clip-path="url(#pa14a766d03)" d="M 311.409696 87.047869 
L 310.409696 87.016433 
L 309.409696 86.979492 
L 308.409696 86.881746 
L 307.409696 86.849224 
L 306.409696 86.775599 
L 305.409696 86.737034 
L 304.409696 86.701621 
L 303.409696 86.643981 
L 302.409696 86.573594 
L 301.409696 86.52163 
L 300.409696 86.46254 
L 299.409696 86.37422 
L 298.409696 86.328075 
L 297.409696 86.285664 
L 296.409696 86.255172 
L 295.409696 86.229127 
L 294.409696 86.207927 
L 293.409696 86.153625 
L 292.409696 86.125688 
L 291.409696 86.095964 
L 290.409696 86.070569 
L 289.409696 86.059369 
L 288.409696 86.049245 
L 287.409696 86.049449 
L 286.409696 86.058959 
L 285.409696 86.070613 
L 284.409696 86.101642 
L 283.409696 86.11281 
L 282.409696 86.142927 
L 281.409696 86.202704 
L 280.409696 86.239896 
L 279.409696 86.278992 
L 278.409696 86.321431 
L 277.409696 86.354197 
L 276.409696 86.421623 
L 275.409696 86.460749 
L 274.409696 86.503423 
L 273.409696 86.574004 
L 272.409696 86.610395 
L 271.409696 86.668798 
L 270.409696 86.779751 
L 269.409696 86.850409 
L 268.409696 86.963349 
L 267.409696 87.009122 
L 266.409696 87.070405 
L 265.409696 87.118904 
L 264.409696 87.199727 
L 263.409696 87.318246 
L 262.409696 87.388457 
L 261.409696 87.471719 
L 260.409696 87.504861 
L 259.409696 87.556098 
L 258.409696 87.624496 
L 257.409696 87.690712 
L 256.409696 87.767629 
L 255.409696 87.794944 
L 254.409696 87.821422 
L 253.409696 87.844073 
L 252.409696 87.863604 
L 251.409696 87.889998 
L 250.409696 87.939769 
L 249.409696 87.974842 
L 248.409696 88.010707 
L 247.409696 88.026075 
L 246.409696 88.041844 
L 245.409696 88.045257 
L 244.409696 88.047674 
L 243.409696 88.047188 
L 242.409696 88.045259 
L 241.409696 88.032002 
L 239.518429 88.023611 
" style="fill:none;stroke:#ff7f0e;stroke-linecap:square;stroke-opacity:0.5;stroke-width:0.2;"/>
   <path clip-path="url(#pa14a766d03)" d="M 311.409696 250.019408 
L 310.409696 249.987972 
L 309.409696 249.951032 
L 308.409696 249.853285 
L 307.409696 249.820763 
L 306.409696 249.747139 
L 305.409696 249.708573 
L 304.409696 249.67316 
L 303.409696 249.61552 
L 302.409696 249.545134 
L 301.409696 249.49317 
L 300.409696 249.43408 
L 299.409696 249.345759 
L 298.409696 249.299615 
L 297.409696 249.257204 
L 296.409696 249.226711 
L 295.409696 249.200666 
L 294.409696 249.179466 
L 293.409696 249.125165 
L 292.409696 249.097227 
L 291.409696 249.067503 
L 290.409696 249.042109 
L 289.409696 249.030908 
L 288.409696 249.020784 
L 287.409696 249.020989 
L 286.409696 249.030498 
L 285.409696 249.042152 
L 284.409696 249.073181 
L 283.409696 249.084349 
L 282.409696 249.114467 
L 281.409696 249.174244 
L 280.409696 249.211435 
L 279.409696 249.250531 
L 278.409696 249.292971 
L 277.409696 249.325736 
L 276.409696 249.393163 
L 275.409696 249.432288 
L 274.409696 249.474963 
L 273.409696 249.545544 
L 272.409696 249.581934 
L 271.409696 249.640338 
L 270.409696 249.75129 
L 269.409696 249.821948 
L 268.409696 249.934888 
L 267.409696 249.980661 
L 266.409696 250.041944 
L 265.409696 250.090444 
L 264.409696 250.171266 
L 263.409696 250.289785 
L 262.409696 250.359996 
L 261.409696 250.443258 
L 260.409696 250.4764 
L 259.409696 250.527638 
L 258.409696 250.596036 
L 257.409696 250.662251 
L 256.409696 250.739168 
L 255.409696 250.766484 
L 254.409696 250.792961 
L 253.409696 250.815612 
L 252.409696 250.835143 
L 251.409696 250.861537 
L 250.409696 250.911308 
L 249.409696 250.946381 
L 248.409696 250.982247 
L 247.409696 250.997614 
L 246.409696 251.013383 
L 245.409696 251.016796 
L 244.409696 251.019214 
L 243.409696 251.018728 
L 242.409696 251.016798 
L 241.409696 251.003541 
L 239.518429 250.995151 
" style="fill:none;stroke:#ff7f0e;stroke-linecap:square;stroke-opacity:0.5;stroke-width:0.2;"/>
   <path clip-path="url(#pa14a766d03)" d="M 311.409696 121.014411 
L 310.409696 120.982975 
L 309.409696 120.946034 
L 308.409696 120.848288 
L 307.409696 120.815766 
L 306.409696 120.742141 
L 305.409696 120.703576 
L 304.409696 120.668163 
L 303.409696 120.610523 
L 302.409696 120.540136 
L 301.409696 120.488172 
L 300.409696 120.429082 
L 299.409696 120.340762 
L 298.409696 120.294617 
L 297.409696 120.252206 
L 296.409696 120.221714 
L 295.409696 120.195669 
L 294.409696 120.174469 
L 293.409696 120.120167 
L 292.409696 120.09223 
L 291.409696 120.062506 
L 290.409696 120.037111 
L 289.409696 120.025911 
L 288.409696 120.015787 
L 287.409696 120.015991 
L 286.409696 120.025501 
L 285.409696 120.037155 
L 284.409696 120.068184 
L 283.409696 120.079352 
L 282.409696 120.109469 
L 281.409696 120.169246 
L 280.409696 120.206438 
L 279.409696 120.245534 
L 278.409696 120.287974 
L 277.409696 120.320739 
L 276.409696 120.388165 
L 275.409696 120.427291 
L 274.409696 120.469965 
L 273.409696 120.540546 
L 272.409696 120.576937 
L 271.409696 120.63534 
L 270.409696 120.746293 
L 269.409696 120.816951 
L 268.409696 120.929891 
L 267.409696 120.975664 
L 266.409696 121.036947 
L 265.409696 121.085446 
L 264.409696 121.166269 
L 263.409696 121.284788 
L 262.409696 121.354999 
L 261.409696 121.438261 
L 260.409696 121.471403 
L 259.409696 121.52264 
L 258.409696 121.591038 
L 257.409696 121.657254 
L 256.409696 121.734171 
L 255.409696 121.761486 
L 254.409696 121.787964 
L 253.409696 121.810615 
L 252.409696 121.830146 
L 251.409696 121.85654 
L 250.409696 121.906311 
L 249.409696 121.941384 
L 248.409696 121.97725 
L 247.409696 121.992617 
L 246.409696 122.008386 
L 245.409696 122.011799 
L 244.409696 122.014216 
L 243.409696 122.01373 
L 242.409696 122.011801 
L 241.409696 121.998544 
L 239.518429 121.990153 
" style="fill:none;stroke:#ff7f0e;stroke-linecap:square;stroke-opacity:0.5;stroke-width:0.2;"/>
   <path clip-path="url(#pa14a766d03)" d="M 311.409696 143.600789 
L 310.409696 143.569352 
L 309.409696 143.532412 
L 308.409696 143.434665 
L 307.409696 143.402144 
L 306.409696 143.328519 
L 305.409696 143.289953 
L 304.409696 143.25454 
L 303.409696 143.1969 
L 302.409696 143.126514 
L 301.409696 143.07455 
L 300.409696 143.01546 
L 299.409696 142.927139 
L 298.409696 142.880995 
L 297.409696 142.838584 
L 296.409696 142.808091 
L 295.409696 142.782046 
L 294.409696 142.760846 
L 293.409696 142.706545 
L 292.409696 142.678608 
L 291.409696 142.648884 
L 290.409696 142.623489 
L 289.409696 142.612288 
L 288.409696 142.602165 
L 287.409696 142.602369 
L 286.409696 142.611879 
L 285.409696 142.623532 
L 284.409696 142.654562 
L 283.409696 142.665729 
L 282.409696 142.695847 
L 281.409696 142.755624 
L 280.409696 142.792815 
L 279.409696 142.831912 
L 278.409696 142.874351 
L 277.409696 142.907116 
L 276.409696 142.974543 
L 275.409696 143.013669 
L 274.409696 143.056343 
L 273.409696 143.126924 
L 272.409696 143.163315 
L 271.409696 143.221718 
L 270.409696 143.33267 
L 269.409696 143.403329 
L 268.409696 143.516269 
L 267.409696 143.562041 
L 266.409696 143.623325 
L 265.409696 143.671824 
L 264.409696 143.752647 
L 263.409696 143.871166 
L 262.409696 143.941376 
L 261.409696 144.024639 
L 260.409696 144.057781 
L 259.409696 144.109018 
L 258.409696 144.177416 
L 257.409696 144.243632 
L 256.409696 144.320549 
L 255.409696 144.347864 
L 254.409696 144.374342 
L 253.409696 144.396992 
L 252.409696 144.416524 
L 251.409696 144.442918 
L 250.409696 144.492688 
L 249.409696 144.527762 
L 248.409696 144.563627 
L 247.409696 144.578995 
L 246.409696 144.594764 
L 245.409696 144.598176 
L 244.409696 144.600594 
L 243.409696 144.600108 
L 242.409696 144.598179 
L 241.409696 144.584922 
L 239.518429 144.576531 
" style="fill:none;stroke:#ff7f0e;stroke-linecap:square;stroke-opacity:0.5;stroke-width:0.2;"/>
   <path clip-path="url(#pa14a766d03)" d="M 311.409696 225.518297 
L 310.409696 225.486861 
L 309.409696 225.44992 
L 308.409696 225.352174 
L 307.409696 225.319652 
L 306.409696 225.246028 
L 305.409696 225.207462 
L 304.409696 225.172049 
L 303.409696 225.114409 
L 302.409696 225.044023 
L 301.409696 224.992059 
L 300.409696 224.932969 
L 299.409696 224.844648 
L 298.409696 224.798504 
L 297.409696 224.756093 
L 296.409696 224.7256 
L 295.409696 224.699555 
L 294.409696 224.678355 
L 293.409696 224.624054 
L 292.409696 224.596116 
L 291.409696 224.566392 
L 290.409696 224.540997 
L 289.409696 224.529797 
L 288.409696 224.519673 
L 287.409696 224.519877 
L 286.409696 224.529387 
L 285.409696 224.541041 
L 284.409696 224.57207 
L 283.409696 224.583238 
L 282.409696 224.613356 
L 281.409696 224.673133 
L 280.409696 224.710324 
L 279.409696 224.74942 
L 278.409696 224.79186 
L 277.409696 224.824625 
L 276.409696 224.892051 
L 275.409696 224.931177 
L 274.409696 224.973852 
L 273.409696 225.044432 
L 272.409696 225.080823 
L 271.409696 225.139226 
L 270.409696 225.250179 
L 269.409696 225.320837 
L 268.409696 225.433777 
L 267.409696 225.47955 
L 266.409696 225.540833 
L 265.409696 225.589333 
L 264.409696 225.670155 
L 263.409696 225.788674 
L 262.409696 225.858885 
L 261.409696 225.942147 
L 260.409696 225.975289 
L 259.409696 226.026526 
L 258.409696 226.094925 
L 257.409696 226.16114 
L 256.409696 226.238057 
L 255.409696 226.265373 
L 254.409696 226.29185 
L 253.409696 226.314501 
L 252.409696 226.334032 
L 251.409696 226.360426 
L 250.409696 226.410197 
L 249.409696 226.44527 
L 248.409696 226.481136 
L 247.409696 226.496503 
L 246.409696 226.512272 
L 245.409696 226.515685 
L 244.409696 226.518103 
L 243.409696 226.517616 
L 242.409696 226.515687 
L 241.409696 226.50243 
L 239.518429 226.49404 
" style="fill:none;stroke:#ff7f0e;stroke-linecap:square;stroke-opacity:0.5;stroke-width:0.2;"/>
   <path clip-path="url(#pa14a766d03)" d="M 311.409696 140.738913 
L 310.409696 140.707477 
L 309.409696 140.670536 
L 308.409696 140.57279 
L 307.409696 140.540268 
L 306.409696 140.466643 
L 305.409696 140.428078 
L 304.409696 140.392665 
L 303.409696 140.335025 
L 302.409696 140.264639 
L 301.409696 140.212674 
L 300.409696 140.153585 
L 299.409696 140.065264 
L 298.409696 140.019119 
L 297.409696 139.976708 
L 296.409696 139.946216 
L 295.409696 139.920171 
L 294.409696 139.898971 
L 293.409696 139.84467 
L 292.409696 139.816732 
L 291.409696 139.787008 
L 290.409696 139.761613 
L 289.409696 139.750413 
L 288.409696 139.740289 
L 287.409696 139.740493 
L 286.409696 139.750003 
L 285.409696 139.761657 
L 284.409696 139.792686 
L 283.409696 139.803854 
L 282.409696 139.833971 
L 281.409696 139.893748 
L 280.409696 139.93094 
L 279.409696 139.970036 
L 278.409696 140.012476 
L 277.409696 140.045241 
L 276.409696 140.112667 
L 275.409696 140.151793 
L 274.409696 140.194468 
L 273.409696 140.265048 
L 272.409696 140.301439 
L 271.409696 140.359842 
L 270.409696 140.470795 
L 269.409696 140.541453 
L 268.409696 140.654393 
L 267.409696 140.700166 
L 266.409696 140.761449 
L 265.409696 140.809948 
L 264.409696 140.890771 
L 263.409696 141.00929 
L 262.409696 141.079501 
L 261.409696 141.162763 
L 260.409696 141.195905 
L 259.409696 141.247142 
L 258.409696 141.315541 
L 257.409696 141.381756 
L 256.409696 141.458673 
L 255.409696 141.485989 
L 254.409696 141.512466 
L 253.409696 141.535117 
L 252.409696 141.554648 
L 251.409696 141.581042 
L 250.409696 141.630813 
L 249.409696 141.665886 
L 248.409696 141.701752 
L 247.409696 141.717119 
L 246.409696 141.732888 
L 245.409696 141.736301 
L 244.409696 141.738718 
L 243.409696 141.738232 
L 242.409696 141.736303 
L 241.409696 141.723046 
L 239.518429 141.714656 
" style="fill:none;stroke:#ff7f0e;stroke-linecap:square;stroke-opacity:0.5;stroke-width:0.2;"/>
   <path clip-path="url(#pa14a766d03)" d="M 311.409696 169.17969 
L 310.409696 169.148254 
L 309.409696 169.111314 
L 308.409696 169.013567 
L 307.409696 168.981045 
L 306.409696 168.907421 
L 305.409696 168.868855 
L 304.409696 168.833442 
L 303.409696 168.775802 
L 302.409696 168.705416 
L 301.409696 168.653452 
L 300.409696 168.594362 
L 299.409696 168.506041 
L 298.409696 168.459897 
L 297.409696 168.417486 
L 296.409696 168.386993 
L 295.409696 168.360948 
L 294.409696 168.339748 
L 293.409696 168.285447 
L 292.409696 168.257509 
L 291.409696 168.227785 
L 290.409696 168.202391 
L 289.409696 168.19119 
L 288.409696 168.181066 
L 287.409696 168.18127 
L 286.409696 168.19078 
L 285.409696 168.202434 
L 284.409696 168.233463 
L 283.409696 168.244631 
L 282.409696 168.274749 
L 281.409696 168.334526 
L 280.409696 168.371717 
L 279.409696 168.410813 
L 278.409696 168.453253 
L 277.409696 168.486018 
L 276.409696 168.553444 
L 275.409696 168.59257 
L 274.409696 168.635245 
L 273.409696 168.705825 
L 272.409696 168.742216 
L 271.409696 168.80062 
L 270.409696 168.911572 
L 269.409696 168.98223 
L 268.409696 169.09517 
L 267.409696 169.140943 
L 266.409696 169.202226 
L 265.409696 169.250726 
L 264.409696 169.331548 
L 263.409696 169.450067 
L 262.409696 169.520278 
L 261.409696 169.60354 
L 260.409696 169.636682 
L 259.409696 169.687919 
L 258.409696 169.756318 
L 257.409696 169.822533 
L 256.409696 169.89945 
L 255.409696 169.926766 
L 254.409696 169.953243 
L 253.409696 169.975894 
L 252.409696 169.995425 
L 251.409696 170.021819 
L 250.409696 170.07159 
L 249.409696 170.106663 
L 248.409696 170.142529 
L 247.409696 170.157896 
L 246.409696 170.173665 
L 245.409696 170.177078 
L 244.409696 170.179496 
L 243.409696 170.179009 
L 242.409696 170.17708 
L 241.409696 170.163823 
L 239.518429 170.155433 
" style="fill:none;stroke:#ff7f0e;stroke-linecap:square;stroke-opacity:0.5;stroke-width:0.2;"/>
   <path clip-path="url(#pa14a766d03)" d="M 311.409696 63.427231 
L 310.409696 63.395795 
L 309.409696 63.358855 
L 308.409696 63.261108 
L 307.409696 63.228586 
L 306.409696 63.154962 
L 305.409696 63.116396 
L 304.409696 63.080983 
L 303.409696 63.023343 
L 302.409696 62.952957 
L 301.409696 62.900993 
L 300.409696 62.841903 
L 299.409696 62.753582 
L 298.409696 62.707438 
L 297.409696 62.665027 
L 296.409696 62.634534 
L 295.409696 62.608489 
L 294.409696 62.587289 
L 293.409696 62.532988 
L 292.409696 62.50505 
L 291.409696 62.475326 
L 290.409696 62.449932 
L 289.409696 62.438731 
L 288.409696 62.428607 
L 287.409696 62.428811 
L 286.409696 62.438321 
L 285.409696 62.449975 
L 284.409696 62.481004 
L 283.409696 62.492172 
L 282.409696 62.52229 
L 281.409696 62.582067 
L 280.409696 62.619258 
L 279.409696 62.658354 
L 278.409696 62.700794 
L 277.409696 62.733559 
L 276.409696 62.800985 
L 275.409696 62.840111 
L 274.409696 62.882786 
L 273.409696 62.953366 
L 272.409696 62.989757 
L 271.409696 63.048161 
L 270.409696 63.159113 
L 269.409696 63.229771 
L 268.409696 63.342711 
L 267.409696 63.388484 
L 266.409696 63.449767 
L 265.409696 63.498267 
L 264.409696 63.579089 
L 263.409696 63.697608 
L 262.409696 63.767819 
L 261.409696 63.851081 
L 260.409696 63.884223 
L 259.409696 63.93546 
L 258.409696 64.003859 
L 257.409696 64.070074 
L 256.409696 64.146991 
L 255.409696 64.174307 
L 254.409696 64.200784 
L 253.409696 64.223435 
L 252.409696 64.242966 
L 251.409696 64.26936 
L 250.409696 64.319131 
L 249.409696 64.354204 
L 248.409696 64.39007 
L 247.409696 64.405437 
L 246.409696 64.421206 
L 245.409696 64.424619 
L 244.409696 64.427037 
L 243.409696 64.42655 
L 242.409696 64.424621 
L 241.409696 64.411364 
L 239.518429 64.402974 
" style="fill:none;stroke:#ff7f0e;stroke-linecap:square;stroke-opacity:0.5;stroke-width:0.2;"/>
   <path clip-path="url(#pa14a766d03)" d="M 311.409696 210.489177 
L 310.409696 210.45774 
L 309.409696 210.4208 
L 308.409696 210.323053 
L 307.409696 210.290532 
L 306.409696 210.216907 
L 305.409696 210.178342 
L 304.409696 210.142928 
L 303.409696 210.085288 
L 302.409696 210.014902 
L 301.409696 209.962938 
L 300.409696 209.903848 
L 299.409696 209.815527 
L 298.409696 209.769383 
L 297.409696 209.726972 
L 296.409696 209.696479 
L 295.409696 209.670434 
L 294.409696 209.649234 
L 293.409696 209.594933 
L 292.409696 209.566996 
L 291.409696 209.537272 
L 290.409696 209.511877 
L 289.409696 209.500677 
L 288.409696 209.490553 
L 287.409696 209.490757 
L 286.409696 209.500267 
L 285.409696 209.51192 
L 284.409696 209.54295 
L 283.409696 209.554118 
L 282.409696 209.584235 
L 281.409696 209.644012 
L 280.409696 209.681204 
L 279.409696 209.7203 
L 278.409696 209.762739 
L 277.409696 209.795504 
L 276.409696 209.862931 
L 275.409696 209.902057 
L 274.409696 209.944731 
L 273.409696 210.015312 
L 272.409696 210.051703 
L 271.409696 210.110106 
L 270.409696 210.221059 
L 269.409696 210.291717 
L 268.409696 210.404657 
L 267.409696 210.45043 
L 266.409696 210.511713 
L 265.409696 210.560212 
L 264.409696 210.641035 
L 263.409696 210.759554 
L 262.409696 210.829764 
L 261.409696 210.913027 
L 260.409696 210.946169 
L 259.409696 210.997406 
L 258.409696 211.065804 
L 257.409696 211.13202 
L 256.409696 211.208937 
L 255.409696 211.236252 
L 254.409696 211.26273 
L 253.409696 211.28538 
L 252.409696 211.304912 
L 251.409696 211.331306 
L 250.409696 211.381077 
L 249.409696 211.41615 
L 248.409696 211.452015 
L 247.409696 211.467383 
L 246.409696 211.483152 
L 245.409696 211.486564 
L 244.409696 211.488982 
L 243.409696 211.488496 
L 242.409696 211.486567 
L 241.409696 211.47331 
L 239.518429 211.464919 
" style="fill:none;stroke:#ff7f0e;stroke-linecap:square;stroke-opacity:0.5;stroke-width:0.2;"/>
   <g id="PolyCollection_1">
    <path clip-path="url(#pa14a766d03)" d="M 235.07571 7.2 
L 73.522301 7.2 
L 73.522301 260.421875 
L 235.07571 260.421875 
L 235.07571 260.421875 
L 235.07571 7.2 
z
" style="fill:#1f77b4;fill-opacity:0.5;"/>
   </g>
   <g id="PolyCollection_2">
    <path clip-path="url(#pa14a766d03)" d="M 477.405824 57.844375 
L 315.852415 57.844375 
L 315.852415 260.421875 
L 477.405824 260.421875 
L 477.405824 260.421875 
L 477.405824 57.844375 
z
" style="fill:#ff7f0e;fill-opacity:0.5;"/>
   </g>
   <g id="patch_3">
    <path clip-path="url(#pa14a766d03)" d="M 73.522301 7.2 
L 73.522301 260.421875 
M 235.07571 7.2 
L 235.07571 260.421875 
" style="fill:none;stroke:#ffffff;stroke-linejoin:miter;stroke-width:3;"/>
    <path clip-path="url(#pa14a766d03)" d="M 73.522301 7.2 
L 73.522301 260.421875 
M 235.07571 7.2 
L 235.07571 260.421875 
" style="fill:none;stroke:#1f77b4;stroke-linejoin:miter;"/>
    <g id="patch_4">
     <path clip-path="url(#pa14a766d03)" d="M 315.852415 57.844375 
L 315.852415 260.421875 
M 477.405824 57.844375 
L 477.405824 260.421875 
" style="fill:none;stroke:#ffffff;stroke-linejoin:miter;stroke-width:3;"/>
     <path clip-path="url(#pa14a766d03)" d="M 315.852415 57.844375 
L 315.852415 260.421875 
M 477.405824 57.844375 
L 477.405824 260.421875 
" style="fill:none;stroke:#ff7f0e;stroke-linejoin:miter;"/>
     <g id="matplotlib.axis_1">
      <g id="xtick_1">
       <g id="line2d_1"/>
       <g id="text_1">
        <!-- X -->
        <g transform="translate(150.874006 271.520312)scale(0.1 -0.1)">
         <defs>
          <path d="M 403 4666 
L 1081 4666 
L 2241 2931 
L 3406 4666 
L 4084 4666 
L 2584 2425 
L 4184 0 
L 3506 0 
L 2194 1984 
L 872 0 
L 191 0 
L 1856 2491 
L 403 4666 
z
" id="DejaVuSans-58" transform="scale(0.015625)"/>
         </defs>
         <use xlink:href="#DejaVuSans-58"/>
        </g>
       </g>
      </g>
      <g id="xtick_2">
       <g id="line2d_2"/>
       <g id="text_2">
        <!-- A -->
        <g transform="translate(393.208807 271.520312)scale(0.1 -0.1)">
         <defs>
          <path d="M 2188 4044 
L 1331 1722 
L 3047 1722 
L 2188 4044 
z
M 1831 4666 
L 2547 4666 
L 4325 0 
L 3669 0 
L 3244 1197 
L 1141 1197 
L 716 0 
L 50 0 
L 1831 4666 
z
" id="DejaVuSans-41" transform="scale(0.015625)"/>
         </defs>
         <use xlink:href="#DejaVuSans-41"/>
        </g>
       </g>
      </g>
     </g>
     <g id="matplotlib.axis_2">
      <g id="ytick_1">
       <g id="line2d_3">
        <defs>
         <path d="M 0 0 
L -3.5 0 
" id="m23b9806ed5" style="stroke:#000000;stroke-width:0.8;"/>
        </defs>
        <g>
         <use style="stroke:#000000;stroke-width:0.8;" x="53.328125" xlink:href="#m23b9806ed5" y="260.421875"/>
        </g>
       </g>
       <g id="text_3">
        <!-- 0 -->
        <g transform="translate(39.965625 264.221094)scale(0.1 -0.1)">
         <defs>
          <path d="M 2034 4250 
Q 1547 4250 1301 3770 
Q 1056 3291 1056 2328 
Q 1056 1369 1301 889 
Q 1547 409 2034 409 
Q 2525 409 2770 889 
Q 3016 1369 3016 2328 
Q 3016 3291 2770 3770 
Q 2525 4250 2034 4250 
z
M 2034 4750 
Q 2819 4750 3233 4129 
Q 3647 3509 3647 2328 
Q 3647 1150 3233 529 
Q 2819 -91 2034 -91 
Q 1250 -91 836 529 
Q 422 1150 422 2328 
Q 422 3509 836 4129 
Q 1250 4750 2034 4750 
z
" id="DejaVuSans-30" transform="scale(0.015625)"/>
         </defs>
         <use xlink:href="#DejaVuSans-30"/>
        </g>
       </g>
      </g>
      <g id="ytick_2">
       <g id="line2d_4">
        <g>
         <use style="stroke:#000000;stroke-width:0.8;" x="53.328125" xlink:href="#m23b9806ed5" y="219.906375"/>
        </g>
       </g>
       <g id="text_4">
        <!-- 200 -->
        <g transform="translate(27.240625 223.705594)scale(0.1 -0.1)">
         <defs>
          <path d="M 1228 531 
L 3431 531 
L 3431 0 
L 469 0 
L 469 531 
Q 828 903 1448 1529 
Q 2069 2156 2228 2338 
Q 2531 2678 2651 2914 
Q 2772 3150 2772 3378 
Q 2772 3750 2511 3984 
Q 2250 4219 1831 4219 
Q 1534 4219 1204 4116 
Q 875 4013 500 3803 
L 500 4441 
Q 881 4594 1212 4672 
Q 1544 4750 1819 4750 
Q 2544 4750 2975 4387 
Q 3406 4025 3406 3419 
Q 3406 3131 3298 2873 
Q 3191 2616 2906 2266 
Q 2828 2175 2409 1742 
Q 1991 1309 1228 531 
z
" id="DejaVuSans-32" transform="scale(0.015625)"/>
         </defs>
         <use xlink:href="#DejaVuSans-32"/>
         <use x="63.623047" xlink:href="#DejaVuSans-30"/>
         <use x="127.246094" xlink:href="#DejaVuSans-30"/>
        </g>
       </g>
      </g>
      <g id="ytick_3">
       <g id="line2d_5">
        <g>
         <use style="stroke:#000000;stroke-width:0.8;" x="53.328125" xlink:href="#m23b9806ed5" y="179.390875"/>
        </g>
       </g>
       <g id="text_5">
        <!-- 400 -->
        <g transform="translate(27.240625 183.190094)scale(0.1 -0.1)">
         <defs>
          <path d="M 2419 4116 
L 825 1625 
L 2419 1625 
L 2419 4116 
z
M 2253 4666 
L 3047 4666 
L 3047 1625 
L 3713 1625 
L 3713 1100 
L 3047 1100 
L 3047 0 
L 2419 0 
L 2419 1100 
L 313 1100 
L 313 1709 
L 2253 4666 
z
" id="DejaVuSans-34" transform="scale(0.015625)"/>
         </defs>
         <use xlink:href="#DejaVuSans-34"/>
         <use x="63.623047" xlink:href="#DejaVuSans-30"/>
         <use x="127.246094" xlink:href="#DejaVuSans-30"/>
        </g>
       </g>
      </g>
      <g id="ytick_4">
       <g id="line2d_6">
        <g>
         <use style="stroke:#000000;stroke-width:0.8;" x="53.328125" xlink:href="#m23b9806ed5" y="138.875375"/>
        </g>
       </g>
       <g id="text_6">
        <!-- 600 -->
        <g transform="translate(27.240625 142.674594)scale(0.1 -0.1)">
         <defs>
          <path d="M 2113 2584 
Q 1688 2584 1439 2293 
Q 1191 2003 1191 1497 
Q 1191 994 1439 701 
Q 1688 409 2113 409 
Q 2538 409 2786 701 
Q 3034 994 3034 1497 
Q 3034 2003 2786 2293 
Q 2538 2584 2113 2584 
z
M 3366 4563 
L 3366 3988 
Q 3128 4100 2886 4159 
Q 2644 4219 2406 4219 
Q 1781 4219 1451 3797 
Q 1122 3375 1075 2522 
Q 1259 2794 1537 2939 
Q 1816 3084 2150 3084 
Q 2853 3084 3261 2657 
Q 3669 2231 3669 1497 
Q 3669 778 3244 343 
Q 2819 -91 2113 -91 
Q 1303 -91 875 529 
Q 447 1150 447 2328 
Q 447 3434 972 4092 
Q 1497 4750 2381 4750 
Q 2619 4750 2861 4703 
Q 3103 4656 3366 4563 
z
" id="DejaVuSans-36" transform="scale(0.015625)"/>
         </defs>
         <use xlink:href="#DejaVuSans-36"/>
         <use x="63.623047" xlink:href="#DejaVuSans-30"/>
         <use x="127.246094" xlink:href="#DejaVuSans-30"/>
        </g>
       </g>
      </g>
      <g id="ytick_5">
       <g id="line2d_7">
        <g>
         <use style="stroke:#000000;stroke-width:0.8;" x="53.328125" xlink:href="#m23b9806ed5" y="98.359875"/>
        </g>
       </g>
       <g id="text_7">
        <!-- 800 -->
        <g transform="translate(27.240625 102.159094)scale(0.1 -0.1)">
         <defs>
          <path d="M 2034 2216 
Q 1584 2216 1326 1975 
Q 1069 1734 1069 1313 
Q 1069 891 1326 650 
Q 1584 409 2034 409 
Q 2484 409 2743 651 
Q 3003 894 3003 1313 
Q 3003 1734 2745 1975 
Q 2488 2216 2034 2216 
z
M 1403 2484 
Q 997 2584 770 2862 
Q 544 3141 544 3541 
Q 544 4100 942 4425 
Q 1341 4750 2034 4750 
Q 2731 4750 3128 4425 
Q 3525 4100 3525 3541 
Q 3525 3141 3298 2862 
Q 3072 2584 2669 2484 
Q 3125 2378 3379 2068 
Q 3634 1759 3634 1313 
Q 3634 634 3220 271 
Q 2806 -91 2034 -91 
Q 1263 -91 848 271 
Q 434 634 434 1313 
Q 434 1759 690 2068 
Q 947 2378 1403 2484 
z
M 1172 3481 
Q 1172 3119 1398 2916 
Q 1625 2713 2034 2713 
Q 2441 2713 2670 2916 
Q 2900 3119 2900 3481 
Q 2900 3844 2670 4047 
Q 2441 4250 2034 4250 
Q 1625 4250 1398 4047 
Q 1172 3844 1172 3481 
z
" id="DejaVuSans-38" transform="scale(0.015625)"/>
         </defs>
         <use xlink:href="#DejaVuSans-38"/>
         <use x="63.623047" xlink:href="#DejaVuSans-30"/>
         <use x="127.246094" xlink:href="#DejaVuSans-30"/>
        </g>
       </g>
      </g>
      <g id="ytick_6">
       <g id="line2d_8">
        <g>
         <use style="stroke:#000000;stroke-width:0.8;" x="53.328125" xlink:href="#m23b9806ed5" y="57.844375"/>
        </g>
       </g>
       <g id="text_8">
        <!-- 1000 -->
        <g transform="translate(20.878125 61.643594)scale(0.1 -0.1)">
         <defs>
          <path d="M 794 531 
L 1825 531 
L 1825 4091 
L 703 3866 
L 703 4441 
L 1819 4666 
L 2450 4666 
L 2450 531 
L 3481 531 
L 3481 0 
L 794 0 
L 794 531 
z
" id="DejaVuSans-31" transform="scale(0.015625)"/>
         </defs>
         <use xlink:href="#DejaVuSans-31"/>
         <use x="63.623047" xlink:href="#DejaVuSans-30"/>
         <use x="127.246094" xlink:href="#DejaVuSans-30"/>
         <use x="190.869141" xlink:href="#DejaVuSans-30"/>
        </g>
       </g>
      </g>
      <g id="ytick_7">
       <g id="line2d_9">
        <g>
         <use style="stroke:#000000;stroke-width:0.8;" x="53.328125" xlink:href="#m23b9806ed5" y="17.328875"/>
        </g>
       </g>
       <g id="text_9">
        <!-- 1200 -->
        <g transform="translate(20.878125 21.128094)scale(0.1 -0.1)">
         <use xlink:href="#DejaVuSans-31"/>
         <use x="63.623047" xlink:href="#DejaVuSans-32"/>
         <use x="127.246094" xlink:href="#DejaVuSans-30"/>
         <use x="190.869141" xlink:href="#DejaVuSans-30"/>
        </g>
       </g>
      </g>
      <g id="text_10">
       <!-- time ago (generations) -->
       <g transform="translate(14.798438 191.282031)rotate(-90)scale(0.1 -0.1)">
        <defs>
         <path d="M 1172 4494 
L 1172 3500 
L 2356 3500 
L 2356 3053 
L 1172 3053 
L 1172 1153 
Q 1172 725 1289 603 
Q 1406 481 1766 481 
L 2356 481 
L 2356 0 
L 1766 0 
Q 1100 0 847 248 
Q 594 497 594 1153 
L 594 3053 
L 172 3053 
L 172 3500 
L 594 3500 
L 594 4494 
L 1172 4494 
z
" id="DejaVuSans-74" transform="scale(0.015625)"/>
         <path d="M 603 3500 
L 1178 3500 
L 1178 0 
L 603 0 
L 603 3500 
z
M 603 4863 
L 1178 4863 
L 1178 4134 
L 603 4134 
L 603 4863 
z
" id="DejaVuSans-69" transform="scale(0.015625)"/>
         <path d="M 3328 2828 
Q 3544 3216 3844 3400 
Q 4144 3584 4550 3584 
Q 5097 3584 5394 3201 
Q 5691 2819 5691 2113 
L 5691 0 
L 5113 0 
L 5113 2094 
Q 5113 2597 4934 2840 
Q 4756 3084 4391 3084 
Q 3944 3084 3684 2787 
Q 3425 2491 3425 1978 
L 3425 0 
L 2847 0 
L 2847 2094 
Q 2847 2600 2669 2842 
Q 2491 3084 2119 3084 
Q 1678 3084 1418 2786 
Q 1159 2488 1159 1978 
L 1159 0 
L 581 0 
L 581 3500 
L 1159 3500 
L 1159 2956 
Q 1356 3278 1631 3431 
Q 1906 3584 2284 3584 
Q 2666 3584 2933 3390 
Q 3200 3197 3328 2828 
z
" id="DejaVuSans-6d" transform="scale(0.015625)"/>
         <path d="M 3597 1894 
L 3597 1613 
L 953 1613 
Q 991 1019 1311 708 
Q 1631 397 2203 397 
Q 2534 397 2845 478 
Q 3156 559 3463 722 
L 3463 178 
Q 3153 47 2828 -22 
Q 2503 -91 2169 -91 
Q 1331 -91 842 396 
Q 353 884 353 1716 
Q 353 2575 817 3079 
Q 1281 3584 2069 3584 
Q 2775 3584 3186 3129 
Q 3597 2675 3597 1894 
z
M 3022 2063 
Q 3016 2534 2758 2815 
Q 2500 3097 2075 3097 
Q 1594 3097 1305 2825 
Q 1016 2553 972 2059 
L 3022 2063 
z
" id="DejaVuSans-65" transform="scale(0.015625)"/>
         <path id="DejaVuSans-20" transform="scale(0.015625)"/>
         <path d="M 2194 1759 
Q 1497 1759 1228 1600 
Q 959 1441 959 1056 
Q 959 750 1161 570 
Q 1363 391 1709 391 
Q 2188 391 2477 730 
Q 2766 1069 2766 1631 
L 2766 1759 
L 2194 1759 
z
M 3341 1997 
L 3341 0 
L 2766 0 
L 2766 531 
Q 2569 213 2275 61 
Q 1981 -91 1556 -91 
Q 1019 -91 701 211 
Q 384 513 384 1019 
Q 384 1609 779 1909 
Q 1175 2209 1959 2209 
L 2766 2209 
L 2766 2266 
Q 2766 2663 2505 2880 
Q 2244 3097 1772 3097 
Q 1472 3097 1187 3025 
Q 903 2953 641 2809 
L 641 3341 
Q 956 3463 1253 3523 
Q 1550 3584 1831 3584 
Q 2591 3584 2966 3190 
Q 3341 2797 3341 1997 
z
" id="DejaVuSans-61" transform="scale(0.015625)"/>
         <path d="M 2906 1791 
Q 2906 2416 2648 2759 
Q 2391 3103 1925 3103 
Q 1463 3103 1205 2759 
Q 947 2416 947 1791 
Q 947 1169 1205 825 
Q 1463 481 1925 481 
Q 2391 481 2648 825 
Q 2906 1169 2906 1791 
z
M 3481 434 
Q 3481 -459 3084 -895 
Q 2688 -1331 1869 -1331 
Q 1566 -1331 1297 -1286 
Q 1028 -1241 775 -1147 
L 775 -588 
Q 1028 -725 1275 -790 
Q 1522 -856 1778 -856 
Q 2344 -856 2625 -561 
Q 2906 -266 2906 331 
L 2906 616 
Q 2728 306 2450 153 
Q 2172 0 1784 0 
Q 1141 0 747 490 
Q 353 981 353 1791 
Q 353 2603 747 3093 
Q 1141 3584 1784 3584 
Q 2172 3584 2450 3431 
Q 2728 3278 2906 2969 
L 2906 3500 
L 3481 3500 
L 3481 434 
z
" id="DejaVuSans-67" transform="scale(0.015625)"/>
         <path d="M 1959 3097 
Q 1497 3097 1228 2736 
Q 959 2375 959 1747 
Q 959 1119 1226 758 
Q 1494 397 1959 397 
Q 2419 397 2687 759 
Q 2956 1122 2956 1747 
Q 2956 2369 2687 2733 
Q 2419 3097 1959 3097 
z
M 1959 3584 
Q 2709 3584 3137 3096 
Q 3566 2609 3566 1747 
Q 3566 888 3137 398 
Q 2709 -91 1959 -91 
Q 1206 -91 779 398 
Q 353 888 353 1747 
Q 353 2609 779 3096 
Q 1206 3584 1959 3584 
z
" id="DejaVuSans-6f" transform="scale(0.015625)"/>
         <path d="M 1984 4856 
Q 1566 4138 1362 3434 
Q 1159 2731 1159 2009 
Q 1159 1288 1364 580 
Q 1569 -128 1984 -844 
L 1484 -844 
Q 1016 -109 783 600 
Q 550 1309 550 2009 
Q 550 2706 781 3412 
Q 1013 4119 1484 4856 
L 1984 4856 
z
" id="DejaVuSans-28" transform="scale(0.015625)"/>
         <path d="M 3513 2113 
L 3513 0 
L 2938 0 
L 2938 2094 
Q 2938 2591 2744 2837 
Q 2550 3084 2163 3084 
Q 1697 3084 1428 2787 
Q 1159 2491 1159 1978 
L 1159 0 
L 581 0 
L 581 3500 
L 1159 3500 
L 1159 2956 
Q 1366 3272 1645 3428 
Q 1925 3584 2291 3584 
Q 2894 3584 3203 3211 
Q 3513 2838 3513 2113 
z
" id="DejaVuSans-6e" transform="scale(0.015625)"/>
         <path d="M 2631 2963 
Q 2534 3019 2420 3045 
Q 2306 3072 2169 3072 
Q 1681 3072 1420 2755 
Q 1159 2438 1159 1844 
L 1159 0 
L 581 0 
L 581 3500 
L 1159 3500 
L 1159 2956 
Q 1341 3275 1631 3429 
Q 1922 3584 2338 3584 
Q 2397 3584 2469 3576 
Q 2541 3569 2628 3553 
L 2631 2963 
z
" id="DejaVuSans-72" transform="scale(0.015625)"/>
         <path d="M 2834 3397 
L 2834 2853 
Q 2591 2978 2328 3040 
Q 2066 3103 1784 3103 
Q 1356 3103 1142 2972 
Q 928 2841 928 2578 
Q 928 2378 1081 2264 
Q 1234 2150 1697 2047 
L 1894 2003 
Q 2506 1872 2764 1633 
Q 3022 1394 3022 966 
Q 3022 478 2636 193 
Q 2250 -91 1575 -91 
Q 1294 -91 989 -36 
Q 684 19 347 128 
L 347 722 
Q 666 556 975 473 
Q 1284 391 1588 391 
Q 1994 391 2212 530 
Q 2431 669 2431 922 
Q 2431 1156 2273 1281 
Q 2116 1406 1581 1522 
L 1381 1569 
Q 847 1681 609 1914 
Q 372 2147 372 2553 
Q 372 3047 722 3315 
Q 1072 3584 1716 3584 
Q 2034 3584 2315 3537 
Q 2597 3491 2834 3397 
z
" id="DejaVuSans-73" transform="scale(0.015625)"/>
         <path d="M 513 4856 
L 1013 4856 
Q 1481 4119 1714 3412 
Q 1947 2706 1947 2009 
Q 1947 1309 1714 600 
Q 1481 -109 1013 -844 
L 513 -844 
Q 928 -128 1133 580 
Q 1338 1288 1338 2009 
Q 1338 2731 1133 3434 
Q 928 4138 513 4856 
z
" id="DejaVuSans-29" transform="scale(0.015625)"/>
        </defs>
        <use xlink:href="#DejaVuSans-74"/>
        <use x="39.208984" xlink:href="#DejaVuSans-69"/>
        <use x="66.992188" xlink:href="#DejaVuSans-6d"/>
        <use x="164.404297" xlink:href="#DejaVuSans-65"/>
        <use x="225.927734" xlink:href="#DejaVuSans-20"/>
        <use x="257.714844" xlink:href="#DejaVuSans-61"/>
        <use x="318.994141" xlink:href="#DejaVuSans-67"/>
        <use x="382.470703" xlink:href="#DejaVuSans-6f"/>
        <use x="443.652344" xlink:href="#DejaVuSans-20"/>
        <use x="475.439453" xlink:href="#DejaVuSans-28"/>
        <use x="514.453125" xlink:href="#DejaVuSans-67"/>
        <use x="577.929688" xlink:href="#DejaVuSans-65"/>
        <use x="639.453125" xlink:href="#DejaVuSans-6e"/>
        <use x="702.832031" xlink:href="#DejaVuSans-65"/>
        <use x="764.355469" xlink:href="#DejaVuSans-72"/>
        <use x="805.46875" xlink:href="#DejaVuSans-61"/>
        <use x="866.748047" xlink:href="#DejaVuSans-74"/>
        <use x="905.957031" xlink:href="#DejaVuSans-69"/>
        <use x="933.740234" xlink:href="#DejaVuSans-6f"/>
        <use x="994.921875" xlink:href="#DejaVuSans-6e"/>
        <use x="1058.300781" xlink:href="#DejaVuSans-73"/>
        <use x="1110.400391" xlink:href="#DejaVuSans-29"/>
       </g>
      </g>
     </g>
     <g id="patch_5">
      <path clip-path="url(#pa14a766d03)" d="M 237.072449 57.844375 
L 238.072449 57.875811 
L 239.072449 57.912752 
L 240.072449 58.010498 
L 241.072449 58.04302 
L 242.072449 58.116645 
L 243.072449 58.15521 
L 244.072449 58.190623 
L 245.072449 58.248263 
L 246.072449 58.318649 
L 247.072449 58.370614 
L 248.072449 58.429703 
L 249.072449 58.518024 
L 250.072449 58.564169 
L 251.072449 58.60658 
L 252.072449 58.637072 
L 253.072449 58.663117 
L 254.072449 58.684317 
L 255.072449 58.738618 
L 256.072449 58.766556 
L 257.072449 58.79628 
L 258.072449 58.821675 
L 259.072449 58.832875 
L 260.072449 58.842999 
L 261.072449 58.842795 
L 262.072449 58.833285 
L 263.072449 58.821631 
L 264.072449 58.790602 
L 265.072449 58.779434 
L 266.072449 58.749317 
L 267.072449 58.68954 
L 268.072449 58.652348 
L 269.072449 58.613252 
L 270.072449 58.570812 
L 271.072449 58.538047 
L 272.072449 58.470621 
L 273.072449 58.431495 
L 274.072449 58.38882 
L 275.072449 58.31824 
L 276.072449 58.281849 
L 277.072449 58.223446 
L 278.072449 58.112493 
L 279.072449 58.041835 
L 280.072449 57.928895 
L 281.072449 57.883122 
L 282.072449 57.821839 
L 283.072449 57.77334 
L 284.072449 57.692517 
L 285.072449 57.573998 
L 286.072449 57.503787 
L 287.072449 57.420525 
L 288.072449 57.387383 
L 289.072449 57.336146 
L 290.072449 57.267747 
L 291.072449 57.201532 
L 292.072449 57.124615 
L 293.072449 57.097299 
L 294.072449 57.070822 
L 295.072449 57.048171 
L 296.072449 57.02864 
L 297.072449 57.002246 
L 298.072449 56.952475 
L 299.072449 56.917402 
L 300.072449 56.881536 
L 301.072449 56.866169 
L 302.072449 56.8504 
L 303.072449 56.846987 
L 304.072449 56.84457 
L 305.072449 56.845056 
L 306.072449 56.846985 
L 307.072449 56.860242 
L 308.072449 56.868633 
L 309.072449 56.890169 
L 310.072449 56.913202 
L 311.072449 56.930435 
L 312.738917 56.948898 
" style="fill:none;stroke:#ffffff;stroke-linecap:round;stroke-width:3;"/>
      <path clip-path="url(#pa14a766d03)" d="M 237.072449 57.844375 
L 238.072449 57.875811 
L 239.072449 57.912752 
L 240.072449 58.010498 
L 241.072449 58.04302 
L 242.072449 58.116645 
L 243.072449 58.15521 
L 244.072449 58.190623 
L 245.072449 58.248263 
L 246.072449 58.318649 
L 247.072449 58.370614 
L 248.072449 58.429703 
L 249.072449 58.518024 
L 250.072449 58.564169 
L 251.072449 58.60658 
L 252.072449 58.637072 
L 253.072449 58.663117 
L 254.072449 58.684317 
L 255.072449 58.738618 
L 256.072449 58.766556 
L 257.072449 58.79628 
L 258.072449 58.821675 
L 259.072449 58.832875 
L 260.072449 58.842999 
L 261.072449 58.842795 
L 262.072449 58.833285 
L 263.072449 58.821631 
L 264.072449 58.790602 
L 265.072449 58.779434 
L 266.072449 58.749317 
L 267.072449 58.68954 
L 268.072449 58.652348 
L 269.072449 58.613252 
L 270.072449 58.570812 
L 271.072449 58.538047 
L 272.072449 58.470621 
L 273.072449 58.431495 
L 274.072449 58.38882 
L 275.072449 58.31824 
L 276.072449 58.281849 
L 277.072449 58.223446 
L 278.072449 58.112493 
L 279.072449 58.041835 
L 280.072449 57.928895 
L 281.072449 57.883122 
L 282.072449 57.821839 
L 283.072449 57.77334 
L 284.072449 57.692517 
L 285.072449 57.573998 
L 286.072449 57.503787 
L 287.072449 57.420525 
L 288.072449 57.387383 
L 289.072449 57.336146 
L 290.072449 57.267747 
L 291.072449 57.201532 
L 292.072449 57.124615 
L 293.072449 57.097299 
L 294.072449 57.070822 
L 295.072449 57.048171 
L 296.072449 57.02864 
L 297.072449 57.002246 
L 298.072449 56.952475 
L 299.072449 56.917402 
L 300.072449 56.881536 
L 301.072449 56.866169 
L 302.072449 56.8504 
L 303.072449 56.846987 
L 304.072449 56.84457 
L 305.072449 56.845056 
L 306.072449 56.846985 
L 307.072449 56.860242 
L 308.072449 56.868633 
L 309.072449 56.890169 
L 310.072449 56.913202 
L 311.072449 56.930435 
L 312.738917 56.948898 
" style="fill:none;stroke:#1f77b4;stroke-linecap:round;"/>
      <path clip-path="url(#pa14a766d03)" d="M 308.738917 55.844375 
L 309.619285 56.319706 
L 310.497192 56.79996 
L 311.347906 57.334601 
L 312.65008 58.022048 
L 311.722727 58.048063 
L 310.811052 58.460783 
L 309.900788 58.876322 
L 308.558292 59.483126 
L 309.213191 58.844375 
L 309.265155 57.844375 
L 309.324245 55.844375 
L 308.738917 55.844375 
z
" style="fill:#ffffff;stroke:#ffffff;stroke-linecap:round;stroke-width:3;"/>
      <path clip-path="url(#pa14a766d03)" d="M 308.738917 55.844375 
L 309.619285 56.319706 
L 310.497192 56.79996 
L 311.347906 57.334601 
L 312.65008 58.022048 
L 311.722727 58.048063 
L 310.811052 58.460783 
L 309.900788 58.876322 
L 308.558292 59.483126 
L 309.213191 58.844375 
L 309.265155 57.844375 
L 309.324245 55.844375 
L 308.738917 55.844375 
z
" style="fill:#ffffff;stroke:#1f77b4;stroke-linecap:round;"/>
      <path clip-path="url(#pa14a766d03)" d="M 238.518429 250.386934 
L 240.518429 251.386934 
L 240.518429 249.386934 
z
" style="fill:#ff7f0e;fill-opacity:0.5;stroke:#ff7f0e;stroke-linejoin:miter;stroke-opacity:0.5;"/>
      <path clip-path="url(#pa14a766d03)" d="M 238.518429 87.047869 
L 240.518429 88.047869 
L 240.518429 86.047869 
z
" style="fill:#ff7f0e;fill-opacity:0.5;stroke:#ff7f0e;stroke-linejoin:miter;stroke-opacity:0.5;"/>
      <path clip-path="url(#pa14a766d03)" d="M 238.518429 250.019408 
L 240.518429 251.019408 
L 240.518429 249.019408 
z
" style="fill:#ff7f0e;fill-opacity:0.5;stroke:#ff7f0e;stroke-linejoin:miter;stroke-opacity:0.5;"/>
      <path clip-path="url(#pa14a766d03)" d="M 238.518429 121.014411 
L 240.518429 122.014411 
L 240.518429 120.014411 
z
" style="fill:#ff7f0e;fill-opacity:0.5;stroke:#ff7f0e;stroke-linejoin:miter;stroke-opacity:0.5;"/>
      <path clip-path="url(#pa14a766d03)" d="M 238.518429 143.600789 
L 240.518429 144.600789 
L 240.518429 142.600789 
z
" style="fill:#ff7f0e;fill-opacity:0.5;stroke:#ff7f0e;stroke-linejoin:miter;stroke-opacity:0.5;"/>
      <path clip-path="url(#pa14a766d03)" d="M 238.518429 225.518297 
L 240.518429 226.518297 
L 240.518429 224.518297 
z
" style="fill:#ff7f0e;fill-opacity:0.5;stroke:#ff7f0e;stroke-linejoin:miter;stroke-opacity:0.5;"/>
      <path clip-path="url(#pa14a766d03)" d="M 238.518429 140.738913 
L 240.518429 141.738913 
L 240.518429 139.738913 
z
" style="fill:#ff7f0e;fill-opacity:0.5;stroke:#ff7f0e;stroke-linejoin:miter;stroke-opacity:0.5;"/>
      <path clip-path="url(#pa14a766d03)" d="M 238.518429 169.17969 
L 240.518429 170.17969 
L 240.518429 168.17969 
z
" style="fill:#ff7f0e;fill-opacity:0.5;stroke:#ff7f0e;stroke-linejoin:miter;stroke-opacity:0.5;"/>
      <path clip-path="url(#pa14a766d03)" d="M 238.518429 63.427231 
L 240.518429 64.427231 
L 240.518429 62.427231 
z
" style="fill:#ff7f0e;fill-opacity:0.5;stroke:#ff7f0e;stroke-linejoin:miter;stroke-opacity:0.5;"/>
      <path clip-path="url(#pa14a766d03)" d="M 238.518429 210.489177 
L 240.518429 211.489177 
L 240.518429 209.489177 
z
" style="fill:#ff7f0e;fill-opacity:0.5;stroke:#ff7f0e;stroke-linejoin:miter;stroke-opacity:0.5;"/>
      <g id="patch_6">
       <path d="M 53.328125 260.421875 
L 53.328125 7.2 
" style="fill:none;stroke:#000000;stroke-linecap:square;stroke-linejoin:miter;stroke-width:0.8;"/>
      </g>
     </g>
    </g>
    <defs>
     <clipPath id="pa14a766d03">
      <rect height="253.221875" width="444.271875" x="53.328125" y="7.2"/>
     </clipPath>
    </defs>
   </g>
  </g>
 </g>
</svg>
