<?xml version="1.0" encoding="utf-8" standalone="no"?>
<!DOCTYPE svg PUBLIC "-//W3C//DTD SVG 1.1//EN"
  "http://www.w3.org/Graphics/SVG/1.1/DTD/svg11.dtd">
<svg height="280.8pt" version="1.1" viewBox="0 0 504.8 280.8" width="504.8pt" xmlns="http://www.w3.org/2000/svg" xmlns:xlink="http://www.w3.org/1999/xlink">
 <metadata>
  <rdf:RDF xmlns:cc="http://creativecommons.org/ns#" xmlns:dc="http://purl.org/dc/elements/1.1/" xmlns:rdf="http://www.w3.org/1999/02/22-rdf-syntax-ns#">
   <cc:Work>
    <dc:type rdf:resource="http://purl.org/dc/dcmitype/StillImage"/>
    <dc:date>2021-08-02T11:34:26.447813</dc:date>
    <dc:format>image/svg+xml</dc:format>
    <dc:creator>
     <cc:Agent>
      <dc:title>Matplotlib v3.4.2, https://matplotlib.org/</dc:title>
     </cc:Agent>
    </dc:creator>
   </cc:Work>
  </rdf:RDF>
 </metadata>
 <defs>
  <style type="text/css">*{stroke-linecap:butt;stroke-linejoin:round;}</style>
 </defs>
 <g id="figure_1">
  <g id="patch_1">
   <path d="M 0 280.8 
L 504.8 280.8 
L 504.8 0 
L 0 0 
z
" style="fill:none;"/>
  </g>
  <g id="axes_1">
   <g id="patch_2">
    <path d="M 53.328125 260.421875 
L 497.6 260.421875 
L 497.6 7.2 
L 53.328125 7.2 
z
" style="fill:#ffffff;"/>
   </g>
   <path clip-path="url(#p51bedb1c6d)" d="M 178.935901 67.879316 
L 179.935901 67.910752 
L 180.935901 67.947692 
L 181.935901 68.045439 
L 182.935901 68.07796 
L 183.935901 68.151585 
L 184.935901 68.190151 
L 185.935901 68.225564 
L 186.935901 68.283204 
L 187.935901 68.35359 
L 188.935901 68.405554 
L 189.935901 68.464644 
L 190.935901 68.552965 
L 191.935901 68.599109 
L 192.935901 68.64152 
L 193.935901 68.672013 
L 194.935901 68.698058 
L 195.935901 68.719258 
L 196.935901 68.773559 
L 197.935901 68.801497 
L 198.935901 68.831221 
L 199.935901 68.856615 
L 200.935901 68.867816 
L 201.935901 68.87794 
L 202.935901 68.877735 
L 203.935901 68.868225 
L 204.935901 68.856572 
L 205.935901 68.825543 
L 206.935901 68.814375 
L 207.935901 68.784257 
L 208.935901 68.72448 
L 209.935901 68.687289 
L 210.935901 68.648193 
L 211.935901 68.605753 
L 212.935901 68.572988 
L 213.935901 68.505561 
L 214.935901 68.466436 
L 215.935901 68.423761 
L 216.935901 68.35318 
L 217.935901 68.31679 
L 218.935901 68.258386 
L 219.935901 68.147434 
L 220.935901 68.076775 
L 221.935901 67.963836 
L 222.935901 67.918063 
L 223.935901 67.856779 
L 224.935901 67.80828 
L 225.935901 67.727457 
L 226.935901 67.608939 
L 227.935901 67.538728 
L 228.935901 67.455465 
L 229.935901 67.422324 
L 230.935901 67.371086 
L 231.935901 67.302688 
L 232.935901 67.236473 
L 233.935901 67.159556 
L 234.935901 67.13224 
L 235.935901 67.105763 
L 236.935901 67.083112 
L 237.935901 67.063581 
L 238.935901 67.037187 
L 239.935901 66.987416 
L 240.935901 66.952343 
L 241.935901 66.916477 
L 242.935901 66.90111 
L 243.935901 66.88534 
L 244.935901 66.881928 
L 245.935901 66.87951 
L 246.935901 66.879996 
L 247.935901 66.881926 
L 248.935901 66.895183 
L 249.935901 66.903573 
L 250.935901 66.92511 
L 251.935901 66.948142 
L 252.935901 66.965376 
L 253.935901 66.983838 
L 254.935901 67.004291 
L 255.935901 67.020891 
L 256.935901 67.083669 
L 257.935901 67.158934 
L 258.935901 67.191574 
L 259.935901 67.259137 
L 260.935901 67.313184 
L 261.935901 67.346889 
L 262.935901 67.437015 
L 263.935901 67.46555 
L 264.935901 67.497036 
L 265.935901 67.528047 
L 266.935901 67.582854 
L 267.935901 67.647442 
L 268.935901 67.685637 
L 269.935901 67.781571 
L 270.935901 67.830829 
L 271.935901 67.874899 
L 272.935901 67.915023 
L 273.935901 68.02339 
L 274.935901 68.065018 
L 275.935901 68.127159 
L 276.935901 68.197121 
L 277.935901 68.301626 
L 278.935901 68.338613 
L 279.935901 68.384491 
L 280.935901 68.452985 
L 281.935901 68.501731 
L 282.935901 68.579329 
L 283.935901 68.609869 
L 284.935901 68.679384 
L 285.935901 68.703357 
L 286.935901 68.731978 
L 287.935901 68.773772 
L 288.935901 68.795347 
L 289.935901 68.809295 
L 290.935901 68.836018 
L 291.935901 68.845328 
L 292.935901 68.857774 
L 293.935901 68.868829 
L 294.935901 68.874494 
L 295.935901 68.879257 
L 296.935901 68.87371 
L 297.935901 68.860422 
L 298.935901 68.852904 
L 299.935901 68.828119 
L 300.935901 68.804551 
L 301.935901 68.76837 
L 302.935901 68.742408 
L 303.935901 68.720087 
L 304.935901 68.651327 
L 305.935901 68.576792 
L 306.935901 68.482812 
L 307.935901 68.43176 
L 308.935901 68.377827 
L 309.935901 68.342576 
L 310.935901 68.236488 
L 311.935901 68.184224 
L 312.935901 68.147317 
L 313.935901 68.116286 
L 314.935901 68.05513 
L 315.935901 67.987711 
L 316.935901 67.938805 
L 317.935901 67.873612 
L 318.935901 67.835425 
L 319.935901 67.793429 
L 320.935901 67.751412 
L 321.935901 67.691895 
L 322.935901 67.578735 
L 323.935901 67.526485 
L 324.935901 67.487067 
L 325.935901 67.439965 
L 326.935901 67.383186 
L 327.935901 67.350523 
L 328.935901 67.314345 
L 329.935901 67.282254 
L 330.935901 67.247975 
L 331.935901 67.189597 
L 332.935901 67.144412 
L 333.935901 67.114788 
L 334.935901 67.064402 
L 335.935901 67.039204 
L 336.935901 67.018153 
L 337.935901 66.983186 
L 338.935901 66.958896 
L 339.935901 66.944829 
L 340.935901 66.925887 
L 341.935901 66.910225 
L 342.935901 66.897673 
L 343.935901 66.891838 
L 344.935901 66.884955 
L 345.935901 66.879782 
L 346.935901 66.881564 
L 347.935901 66.88429 
L 348.935901 66.895443 
L 349.935901 66.923679 
L 350.935901 66.967466 
L 351.935901 66.988156 
L 352.935901 67.029129 
L 353.935901 67.069204 
L 354.935901 67.088314 
L 355.935901 67.110822 
L 356.935901 67.177474 
L 357.935901 67.227183 
L 358.935901 67.30089 
L 359.935901 67.332204 
L 360.935901 67.408826 
L 361.935901 67.447124 
L 362.935901 67.52124 
L 363.935901 67.625299 
L 364.935901 67.69513 
L 365.935901 67.800363 
L 366.935901 67.855379 
L 367.935901 67.978853 
L 368.935901 68.049413 
L 369.935901 68.165252 
L 370.935901 68.215433 
L 371.992224 68.251037 
" style="fill:none;stroke:#ff7f0e;stroke-linecap:square;stroke-opacity:0.5;stroke-width:0.2;"/>
   <path clip-path="url(#p51bedb1c6d)" d="M 178.935901 231.218381 
L 179.935901 231.249817 
L 180.935901 231.286758 
L 181.935901 231.384504 
L 182.935901 231.417026 
L 183.935901 231.490651 
L 184.935901 231.529216 
L 185.935901 231.564629 
L 186.935901 231.622269 
L 187.935901 231.692656 
L 188.935901 231.74462 
L 189.935901 231.80371 
L 190.935901 231.89203 
L 191.935901 231.938175 
L 192.935901 231.980586 
L 193.935901 232.011078 
L 194.935901 232.037123 
L 195.935901 232.058323 
L 196.935901 232.112625 
L 197.935901 232.140562 
L 198.935901 232.170286 
L 199.935901 232.195681 
L 200.935901 232.206881 
L 201.935901 232.217005 
L 202.935901 232.216801 
L 203.935901 232.207291 
L 204.935901 232.195637 
L 205.935901 232.164608 
L 206.935901 232.15344 
L 207.935901 232.123323 
L 208.935901 232.063546 
L 209.935901 232.026354 
L 210.935901 231.987258 
L 211.935901 231.944819 
L 212.935901 231.912053 
L 213.935901 231.844627 
L 214.935901 231.805501 
L 215.935901 231.762827 
L 216.935901 231.692246 
L 217.935901 231.655855 
L 218.935901 231.597452 
L 219.935901 231.486499 
L 220.935901 231.415841 
L 221.935901 231.302901 
L 222.935901 231.257128 
L 223.935901 231.195845 
L 224.935901 231.147346 
L 225.935901 231.066523 
L 226.935901 230.948004 
L 227.935901 230.877793 
L 228.935901 230.794531 
L 229.935901 230.761389 
L 230.935901 230.710152 
L 231.935901 230.641754 
L 232.935901 230.575538 
L 233.935901 230.498621 
L 234.935901 230.471306 
L 235.935901 230.444828 
L 236.935901 230.422177 
L 237.935901 230.402646 
L 238.935901 230.376252 
L 239.935901 230.326481 
L 240.935901 230.291408 
L 241.935901 230.255543 
L 242.935901 230.240175 
L 243.935901 230.224406 
L 244.935901 230.220993 
L 245.935901 230.218576 
L 246.935901 230.219062 
L 247.935901 230.220991 
L 248.935901 230.234248 
L 249.935901 230.242639 
L 250.935901 230.264175 
L 251.935901 230.287208 
L 252.935901 230.304441 
L 253.935901 230.322904 
L 254.935901 230.343356 
L 255.935901 230.359956 
L 256.935901 230.422735 
L 257.935901 230.498 
L 258.935901 230.530639 
L 259.935901 230.598203 
L 260.935901 230.65225 
L 261.935901 230.685954 
L 262.935901 230.77608 
L 263.935901 230.804615 
L 264.935901 230.836101 
L 265.935901 230.867112 
L 266.935901 230.92192 
L 267.935901 230.986507 
L 268.935901 231.024703 
L 269.935901 231.120637 
L 270.935901 231.169895 
L 271.935901 231.213964 
L 272.935901 231.254088 
L 273.935901 231.362455 
L 274.935901 231.404083 
L 275.935901 231.466225 
L 276.935901 231.536187 
L 277.935901 231.640691 
L 278.935901 231.677679 
L 279.935901 231.723556 
L 280.935901 231.792051 
L 281.935901 231.840797 
L 282.935901 231.918394 
L 283.935901 231.948935 
L 284.935901 232.018449 
L 285.935901 232.042422 
L 286.935901 232.071044 
L 287.935901 232.112837 
L 288.935901 232.134413 
L 289.935901 232.148361 
L 290.935901 232.175083 
L 291.935901 232.184393 
L 292.935901 232.19684 
L 293.935901 232.207895 
L 294.935901 232.213559 
L 295.935901 232.218323 
L 296.935901 232.212776 
L 297.935901 232.199487 
L 298.935901 232.19197 
L 299.935901 232.167185 
L 300.935901 232.143616 
L 301.935901 232.107436 
L 302.935901 232.081474 
L 303.935901 232.059152 
L 304.935901 231.990392 
L 305.935901 231.915857 
L 306.935901 231.821878 
L 307.935901 231.770826 
L 308.935901 231.716892 
L 309.935901 231.681641 
L 310.935901 231.575553 
L 311.935901 231.523289 
L 312.935901 231.486382 
L 313.935901 231.455352 
L 314.935901 231.394196 
L 315.935901 231.326776 
L 316.935901 231.27787 
L 317.935901 231.212678 
L 318.935901 231.17449 
L 319.935901 231.132495 
L 320.935901 231.090477 
L 321.935901 231.030961 
L 322.935901 230.917801 
L 323.935901 230.86555 
L 324.935901 230.826132 
L 325.935901 230.779031 
L 326.935901 230.722252 
L 327.935901 230.689588 
L 328.935901 230.65341 
L 329.935901 230.62132 
L 330.935901 230.58704 
L 331.935901 230.528662 
L 332.935901 230.483477 
L 333.935901 230.453853 
L 334.935901 230.403467 
L 335.935901 230.37827 
L 336.935901 230.357219 
L 337.935901 230.322251 
L 338.935901 230.297961 
L 339.935901 230.283894 
L 340.935901 230.264952 
L 341.935901 230.249291 
L 342.935901 230.236739 
L 343.935901 230.230903 
L 344.935901 230.224021 
L 345.935901 230.218847 
L 346.935901 230.22063 
L 347.935901 230.223355 
L 348.935901 230.234509 
L 349.935901 230.262744 
L 350.935901 230.306532 
L 351.935901 230.327221 
L 352.935901 230.368194 
L 353.935901 230.408269 
L 354.935901 230.427379 
L 355.935901 230.449888 
L 356.935901 230.516539 
L 357.935901 230.566249 
L 358.935901 230.639956 
L 359.935901 230.671269 
L 360.935901 230.747891 
L 361.935901 230.786189 
L 362.935901 230.860306 
L 363.935901 230.964364 
L 364.935901 231.034195 
L 365.935901 231.139429 
L 366.935901 231.194444 
L 367.935901 231.317919 
L 368.935901 231.388478 
L 369.935901 231.504317 
L 370.935901 231.554498 
L 371.992224 231.590102 
" style="fill:none;stroke:#ff7f0e;stroke-linecap:square;stroke-opacity:0.5;stroke-width:0.2;"/>
   <path clip-path="url(#p51bedb1c6d)" d="M 178.935901 68.246842 
L 179.935901 68.278278 
L 180.935901 68.315218 
L 181.935901 68.412965 
L 182.935901 68.445487 
L 183.935901 68.519111 
L 184.935901 68.557677 
L 185.935901 68.59309 
L 186.935901 68.65073 
L 187.935901 68.721116 
L 188.935901 68.77308 
L 189.935901 68.83217 
L 190.935901 68.920491 
L 191.935901 68.966635 
L 192.935901 69.009046 
L 193.935901 69.039539 
L 194.935901 69.065584 
L 195.935901 69.086784 
L 196.935901 69.141085 
L 197.935901 69.169023 
L 198.935901 69.198747 
L 199.935901 69.224141 
L 200.935901 69.235342 
L 201.935901 69.245466 
L 202.935901 69.245261 
L 203.935901 69.235752 
L 204.935901 69.224098 
L 205.935901 69.193069 
L 206.935901 69.181901 
L 207.935901 69.151783 
L 208.935901 69.092006 
L 209.935901 69.054815 
L 210.935901 69.015719 
L 211.935901 68.973279 
L 212.935901 68.940514 
L 213.935901 68.873087 
L 214.935901 68.833962 
L 215.935901 68.791287 
L 216.935901 68.720706 
L 217.935901 68.684316 
L 218.935901 68.625912 
L 219.935901 68.51496 
L 220.935901 68.444302 
L 221.935901 68.331362 
L 222.935901 68.285589 
L 223.935901 68.224306 
L 224.935901 68.175806 
L 225.935901 68.094984 
L 226.935901 67.976465 
L 227.935901 67.906254 
L 228.935901 67.822992 
L 229.935901 67.78985 
L 230.935901 67.738612 
L 231.935901 67.670214 
L 232.935901 67.603999 
L 233.935901 67.527082 
L 234.935901 67.499766 
L 235.935901 67.473289 
L 236.935901 67.450638 
L 237.935901 67.431107 
L 238.935901 67.404713 
L 239.935901 67.354942 
L 240.935901 67.319869 
L 241.935901 67.284003 
L 242.935901 67.268636 
L 243.935901 67.252867 
L 244.935901 67.249454 
L 245.935901 67.247036 
L 246.935901 67.247522 
L 247.935901 67.249452 
L 248.935901 67.262709 
L 249.935901 67.271099 
L 250.935901 67.292636 
L 251.935901 67.315668 
L 252.935901 67.332902 
L 253.935901 67.351364 
L 254.935901 67.371817 
L 255.935901 67.388417 
L 256.935901 67.451195 
L 257.935901 67.526461 
L 258.935901 67.5591 
L 259.935901 67.626663 
L 260.935901 67.68071 
L 261.935901 67.714415 
L 262.935901 67.804541 
L 263.935901 67.833076 
L 264.935901 67.864562 
L 265.935901 67.895573 
L 266.935901 67.950381 
L 267.935901 68.014968 
L 268.935901 68.053163 
L 269.935901 68.149097 
L 270.935901 68.198356 
L 271.935901 68.242425 
L 272.935901 68.282549 
L 273.935901 68.390916 
L 274.935901 68.432544 
L 275.935901 68.494685 
L 276.935901 68.564648 
L 277.935901 68.669152 
L 278.935901 68.706139 
L 279.935901 68.752017 
L 280.935901 68.820511 
L 281.935901 68.869257 
L 282.935901 68.946855 
L 283.935901 68.977395 
L 284.935901 69.04691 
L 285.935901 69.070883 
L 286.935901 69.099504 
L 287.935901 69.141298 
L 288.935901 69.162873 
L 289.935901 69.176821 
L 290.935901 69.203544 
L 291.935901 69.212854 
L 292.935901 69.2253 
L 293.935901 69.236355 
L 294.935901 69.24202 
L 295.935901 69.246784 
L 296.935901 69.241236 
L 297.935901 69.227948 
L 298.935901 69.22043 
L 299.935901 69.195646 
L 300.935901 69.172077 
L 301.935901 69.135896 
L 302.935901 69.109934 
L 303.935901 69.087613 
L 304.935901 69.018853 
L 305.935901 68.944318 
L 306.935901 68.850338 
L 307.935901 68.799286 
L 308.935901 68.745353 
L 309.935901 68.710102 
L 310.935901 68.604014 
L 311.935901 68.55175 
L 312.935901 68.514843 
L 313.935901 68.483812 
L 314.935901 68.422657 
L 315.935901 68.355237 
L 316.935901 68.306331 
L 317.935901 68.241138 
L 318.935901 68.202951 
L 319.935901 68.160955 
L 320.935901 68.118938 
L 321.935901 68.059421 
L 322.935901 67.946261 
L 323.935901 67.894011 
L 324.935901 67.854593 
L 325.935901 67.807491 
L 326.935901 67.750712 
L 327.935901 67.718049 
L 328.935901 67.681871 
L 329.935901 67.64978 
L 330.935901 67.615501 
L 331.935901 67.557123 
L 332.935901 67.511938 
L 333.935901 67.482314 
L 334.935901 67.431928 
L 335.935901 67.40673 
L 336.935901 67.385679 
L 337.935901 67.350712 
L 338.935901 67.326422 
L 339.935901 67.312355 
L 340.935901 67.293413 
L 341.935901 67.277751 
L 342.935901 67.2652 
L 343.935901 67.259364 
L 344.935901 67.252481 
L 345.935901 67.247308 
L 346.935901 67.24909 
L 347.935901 67.251816 
L 348.935901 67.262969 
L 349.935901 67.291205 
L 350.935901 67.334992 
L 351.935901 67.355682 
L 352.935901 67.396655 
L 353.935901 67.43673 
L 354.935901 67.45584 
L 355.935901 67.478348 
L 356.935901 67.545 
L 357.935901 67.594709 
L 358.935901 67.668416 
L 359.935901 67.69973 
L 360.935901 67.776352 
L 361.935901 67.81465 
L 362.935901 67.888767 
L 363.935901 67.992825 
L 364.935901 68.062656 
L 365.935901 68.167889 
L 366.935901 68.222905 
L 367.935901 68.34638 
L 368.935901 68.416939 
L 369.935901 68.532778 
L 370.935901 68.582959 
L 371.992224 68.618563 
" style="fill:none;stroke:#ff7f0e;stroke-linecap:square;stroke-opacity:0.5;stroke-width:0.2;"/>
   <path clip-path="url(#p51bedb1c6d)" d="M 178.935901 197.251839 
L 179.935901 197.283275 
L 180.935901 197.320216 
L 181.935901 197.417962 
L 182.935901 197.450484 
L 183.935901 197.524109 
L 184.935901 197.562674 
L 185.935901 197.598087 
L 186.935901 197.655727 
L 187.935901 197.726114 
L 188.935901 197.778078 
L 189.935901 197.837168 
L 190.935901 197.925488 
L 191.935901 197.971633 
L 192.935901 198.014044 
L 193.935901 198.044536 
L 194.935901 198.070581 
L 195.935901 198.091781 
L 196.935901 198.146083 
L 197.935901 198.17402 
L 198.935901 198.203744 
L 199.935901 198.229139 
L 200.935901 198.240339 
L 201.935901 198.250463 
L 202.935901 198.250259 
L 203.935901 198.240749 
L 204.935901 198.229095 
L 205.935901 198.198066 
L 206.935901 198.186898 
L 207.935901 198.156781 
L 208.935901 198.097004 
L 209.935901 198.059812 
L 210.935901 198.020716 
L 211.935901 197.978276 
L 212.935901 197.945511 
L 213.935901 197.878085 
L 214.935901 197.838959 
L 215.935901 197.796285 
L 216.935901 197.725704 
L 217.935901 197.689313 
L 218.935901 197.63091 
L 219.935901 197.519957 
L 220.935901 197.449299 
L 221.935901 197.336359 
L 222.935901 197.290586 
L 223.935901 197.229303 
L 224.935901 197.180804 
L 225.935901 197.099981 
L 226.935901 196.981462 
L 227.935901 196.911251 
L 228.935901 196.827989 
L 229.935901 196.794847 
L 230.935901 196.74361 
L 231.935901 196.675212 
L 232.935901 196.608996 
L 233.935901 196.532079 
L 234.935901 196.504764 
L 235.935901 196.478286 
L 236.935901 196.455635 
L 237.935901 196.436104 
L 238.935901 196.40971 
L 239.935901 196.359939 
L 240.935901 196.324866 
L 241.935901 196.289 
L 242.935901 196.273633 
L 243.935901 196.257864 
L 244.935901 196.254451 
L 245.935901 196.252034 
L 246.935901 196.25252 
L 247.935901 196.254449 
L 248.935901 196.267706 
L 249.935901 196.276097 
L 250.935901 196.297633 
L 251.935901 196.320666 
L 252.935901 196.337899 
L 253.935901 196.356362 
L 254.935901 196.376814 
L 255.935901 196.393414 
L 256.935901 196.456193 
L 257.935901 196.531458 
L 258.935901 196.564097 
L 259.935901 196.631661 
L 260.935901 196.685708 
L 261.935901 196.719412 
L 262.935901 196.809538 
L 263.935901 196.838073 
L 264.935901 196.869559 
L 265.935901 196.90057 
L 266.935901 196.955378 
L 267.935901 197.019965 
L 268.935901 197.058161 
L 269.935901 197.154095 
L 270.935901 197.203353 
L 271.935901 197.247422 
L 272.935901 197.287546 
L 273.935901 197.395913 
L 274.935901 197.437541 
L 275.935901 197.499683 
L 276.935901 197.569645 
L 277.935901 197.674149 
L 278.935901 197.711137 
L 279.935901 197.757014 
L 280.935901 197.825509 
L 281.935901 197.874255 
L 282.935901 197.951852 
L 283.935901 197.982393 
L 284.935901 198.051907 
L 285.935901 198.07588 
L 286.935901 198.104502 
L 287.935901 198.146295 
L 288.935901 198.167871 
L 289.935901 198.181819 
L 290.935901 198.208541 
L 291.935901 198.217851 
L 292.935901 198.230298 
L 293.935901 198.241353 
L 294.935901 198.247017 
L 295.935901 198.251781 
L 296.935901 198.246234 
L 297.935901 198.232945 
L 298.935901 198.225428 
L 299.935901 198.200643 
L 300.935901 198.177074 
L 301.935901 198.140894 
L 302.935901 198.114932 
L 303.935901 198.09261 
L 304.935901 198.02385 
L 305.935901 197.949315 
L 306.935901 197.855336 
L 307.935901 197.804284 
L 308.935901 197.75035 
L 309.935901 197.715099 
L 310.935901 197.609011 
L 311.935901 197.556747 
L 312.935901 197.51984 
L 313.935901 197.48881 
L 314.935901 197.427654 
L 315.935901 197.360234 
L 316.935901 197.311328 
L 317.935901 197.246136 
L 318.935901 197.207948 
L 319.935901 197.165953 
L 320.935901 197.123935 
L 321.935901 197.064419 
L 322.935901 196.951259 
L 323.935901 196.899008 
L 324.935901 196.85959 
L 325.935901 196.812489 
L 326.935901 196.75571 
L 327.935901 196.723046 
L 328.935901 196.686868 
L 329.935901 196.654778 
L 330.935901 196.620498 
L 331.935901 196.56212 
L 332.935901 196.516935 
L 333.935901 196.487311 
L 334.935901 196.436925 
L 335.935901 196.411728 
L 336.935901 196.390677 
L 337.935901 196.355709 
L 338.935901 196.331419 
L 339.935901 196.317352 
L 340.935901 196.29841 
L 341.935901 196.282749 
L 342.935901 196.270197 
L 343.935901 196.264361 
L 344.935901 196.257479 
L 345.935901 196.252305 
L 346.935901 196.254088 
L 347.935901 196.256813 
L 348.935901 196.267967 
L 349.935901 196.296202 
L 350.935901 196.33999 
L 351.935901 196.360679 
L 352.935901 196.401652 
L 353.935901 196.441727 
L 354.935901 196.460837 
L 355.935901 196.483346 
L 356.935901 196.549997 
L 357.935901 196.599707 
L 358.935901 196.673413 
L 359.935901 196.704727 
L 360.935901 196.781349 
L 361.935901 196.819647 
L 362.935901 196.893764 
L 363.935901 196.997822 
L 364.935901 197.067653 
L 365.935901 197.172887 
L 366.935901 197.227902 
L 367.935901 197.351377 
L 368.935901 197.421936 
L 369.935901 197.537775 
L 370.935901 197.587956 
L 371.992224 197.62356 
" style="fill:none;stroke:#ff7f0e;stroke-linecap:square;stroke-opacity:0.5;stroke-width:0.2;"/>
   <path clip-path="url(#p51bedb1c6d)" d="M 178.935901 174.665461 
L 179.935901 174.696898 
L 180.935901 174.733838 
L 181.935901 174.831585 
L 182.935901 174.864106 
L 183.935901 174.937731 
L 184.935901 174.976297 
L 185.935901 175.01171 
L 186.935901 175.06935 
L 187.935901 175.139736 
L 188.935901 175.1917 
L 189.935901 175.25079 
L 190.935901 175.339111 
L 191.935901 175.385255 
L 192.935901 175.427666 
L 193.935901 175.458159 
L 194.935901 175.484204 
L 195.935901 175.505404 
L 196.935901 175.559705 
L 197.935901 175.587642 
L 198.935901 175.617366 
L 199.935901 175.642761 
L 200.935901 175.653962 
L 201.935901 175.664085 
L 202.935901 175.663881 
L 203.935901 175.654371 
L 204.935901 175.642718 
L 205.935901 175.611688 
L 206.935901 175.600521 
L 207.935901 175.570403 
L 208.935901 175.510626 
L 209.935901 175.473435 
L 210.935901 175.434338 
L 211.935901 175.391899 
L 212.935901 175.359134 
L 213.935901 175.291707 
L 214.935901 175.252581 
L 215.935901 175.209907 
L 216.935901 175.139326 
L 217.935901 175.102935 
L 218.935901 175.044532 
L 219.935901 174.93358 
L 220.935901 174.862921 
L 221.935901 174.749981 
L 222.935901 174.704209 
L 223.935901 174.642925 
L 224.935901 174.594426 
L 225.935901 174.513603 
L 226.935901 174.395084 
L 227.935901 174.324874 
L 228.935901 174.241611 
L 229.935901 174.208469 
L 230.935901 174.157232 
L 231.935901 174.088834 
L 232.935901 174.022618 
L 233.935901 173.945701 
L 234.935901 173.918386 
L 235.935901 173.891908 
L 236.935901 173.869258 
L 237.935901 173.849726 
L 238.935901 173.823332 
L 239.935901 173.773562 
L 240.935901 173.738488 
L 241.935901 173.702623 
L 242.935901 173.687255 
L 243.935901 173.671486 
L 244.935901 173.668074 
L 245.935901 173.665656 
L 246.935901 173.666142 
L 247.935901 173.668071 
L 248.935901 173.681328 
L 249.935901 173.689719 
L 250.935901 173.711256 
L 251.935901 173.734288 
L 252.935901 173.751522 
L 253.935901 173.769984 
L 254.935901 173.790437 
L 255.935901 173.807037 
L 256.935901 173.869815 
L 257.935901 173.94508 
L 258.935901 173.977719 
L 259.935901 174.045283 
L 260.935901 174.09933 
L 261.935901 174.133034 
L 262.935901 174.22316 
L 263.935901 174.251695 
L 264.935901 174.283181 
L 265.935901 174.314192 
L 266.935901 174.369 
L 267.935901 174.433588 
L 268.935901 174.471783 
L 269.935901 174.567717 
L 270.935901 174.616975 
L 271.935901 174.661045 
L 272.935901 174.701168 
L 273.935901 174.809535 
L 274.935901 174.851163 
L 275.935901 174.913305 
L 276.935901 174.983267 
L 277.935901 175.087772 
L 278.935901 175.124759 
L 279.935901 175.170637 
L 280.935901 175.239131 
L 281.935901 175.287877 
L 282.935901 175.365474 
L 283.935901 175.396015 
L 284.935901 175.46553 
L 285.935901 175.489503 
L 286.935901 175.518124 
L 287.935901 175.559917 
L 288.935901 175.581493 
L 289.935901 175.595441 
L 290.935901 175.622164 
L 291.935901 175.631473 
L 292.935901 175.64392 
L 293.935901 175.654975 
L 294.935901 175.66064 
L 295.935901 175.665403 
L 296.935901 175.659856 
L 297.935901 175.646568 
L 298.935901 175.63905 
L 299.935901 175.614265 
L 300.935901 175.590697 
L 301.935901 175.554516 
L 302.935901 175.528554 
L 303.935901 175.506233 
L 304.935901 175.437473 
L 305.935901 175.362937 
L 306.935901 175.268958 
L 307.935901 175.217906 
L 308.935901 175.163972 
L 309.935901 175.128722 
L 310.935901 175.022634 
L 311.935901 174.970369 
L 312.935901 174.933463 
L 313.935901 174.902432 
L 314.935901 174.841276 
L 315.935901 174.773856 
L 316.935901 174.72495 
L 317.935901 174.659758 
L 318.935901 174.621571 
L 319.935901 174.579575 
L 320.935901 174.537557 
L 321.935901 174.478041 
L 322.935901 174.364881 
L 323.935901 174.31263 
L 324.935901 174.273213 
L 325.935901 174.226111 
L 326.935901 174.169332 
L 327.935901 174.136669 
L 328.935901 174.100491 
L 329.935901 174.0684 
L 330.935901 174.03412 
L 331.935901 173.975742 
L 332.935901 173.930557 
L 333.935901 173.900934 
L 334.935901 173.850548 
L 335.935901 173.82535 
L 336.935901 173.804299 
L 337.935901 173.769331 
L 338.935901 173.745041 
L 339.935901 173.730974 
L 340.935901 173.712033 
L 341.935901 173.696371 
L 342.935901 173.683819 
L 343.935901 173.677984 
L 344.935901 173.671101 
L 345.935901 173.665927 
L 346.935901 173.66771 
L 347.935901 173.670436 
L 348.935901 173.681589 
L 349.935901 173.709824 
L 350.935901 173.753612 
L 351.935901 173.774301 
L 352.935901 173.815275 
L 353.935901 173.85535 
L 354.935901 173.874459 
L 355.935901 173.896968 
L 356.935901 173.96362 
L 357.935901 174.013329 
L 358.935901 174.087036 
L 359.935901 174.118349 
L 360.935901 174.194971 
L 361.935901 174.23327 
L 362.935901 174.307386 
L 363.935901 174.411445 
L 364.935901 174.481275 
L 365.935901 174.586509 
L 366.935901 174.641524 
L 367.935901 174.764999 
L 368.935901 174.835558 
L 369.935901 174.951398 
L 370.935901 175.001578 
L 371.992224 175.037183 
" style="fill:none;stroke:#ff7f0e;stroke-linecap:square;stroke-opacity:0.5;stroke-width:0.2;"/>
   <path clip-path="url(#p51bedb1c6d)" d="M 178.935901 92.747953 
L 179.935901 92.779389 
L 180.935901 92.81633 
L 181.935901 92.914076 
L 182.935901 92.946598 
L 183.935901 93.020222 
L 184.935901 93.058788 
L 185.935901 93.094201 
L 186.935901 93.151841 
L 187.935901 93.222227 
L 188.935901 93.274191 
L 189.935901 93.333281 
L 190.935901 93.421602 
L 191.935901 93.467746 
L 192.935901 93.510157 
L 193.935901 93.54065 
L 194.935901 93.566695 
L 195.935901 93.587895 
L 196.935901 93.642196 
L 197.935901 93.670134 
L 198.935901 93.699858 
L 199.935901 93.725253 
L 200.935901 93.736453 
L 201.935901 93.746577 
L 202.935901 93.746373 
L 203.935901 93.736863 
L 204.935901 93.725209 
L 205.935901 93.69418 
L 206.935901 93.683012 
L 207.935901 93.652894 
L 208.935901 93.593117 
L 209.935901 93.555926 
L 210.935901 93.51683 
L 211.935901 93.47439 
L 212.935901 93.441625 
L 213.935901 93.374199 
L 214.935901 93.335073 
L 215.935901 93.292398 
L 216.935901 93.221818 
L 217.935901 93.185427 
L 218.935901 93.127024 
L 219.935901 93.016071 
L 220.935901 92.945413 
L 221.935901 92.832473 
L 222.935901 92.7867 
L 223.935901 92.725417 
L 224.935901 92.676917 
L 225.935901 92.596095 
L 226.935901 92.477576 
L 227.935901 92.407365 
L 228.935901 92.324103 
L 229.935901 92.290961 
L 230.935901 92.239724 
L 231.935901 92.171325 
L 232.935901 92.10511 
L 233.935901 92.028193 
L 234.935901 92.000877 
L 235.935901 91.9744 
L 236.935901 91.951749 
L 237.935901 91.932218 
L 238.935901 91.905824 
L 239.935901 91.856053 
L 240.935901 91.82098 
L 241.935901 91.785114 
L 242.935901 91.769747 
L 243.935901 91.753978 
L 244.935901 91.750565 
L 245.935901 91.748147 
L 246.935901 91.748634 
L 247.935901 91.750563 
L 248.935901 91.76382 
L 249.935901 91.77221 
L 250.935901 91.793747 
L 251.935901 91.816779 
L 252.935901 91.834013 
L 253.935901 91.852475 
L 254.935901 91.872928 
L 255.935901 91.889528 
L 256.935901 91.952307 
L 257.935901 92.027572 
L 258.935901 92.060211 
L 259.935901 92.127774 
L 260.935901 92.181821 
L 261.935901 92.215526 
L 262.935901 92.305652 
L 263.935901 92.334187 
L 264.935901 92.365673 
L 265.935901 92.396684 
L 266.935901 92.451492 
L 267.935901 92.516079 
L 268.935901 92.554274 
L 269.935901 92.650209 
L 270.935901 92.699467 
L 271.935901 92.743536 
L 272.935901 92.78366 
L 273.935901 92.892027 
L 274.935901 92.933655 
L 275.935901 92.995796 
L 276.935901 93.065759 
L 277.935901 93.170263 
L 278.935901 93.207251 
L 279.935901 93.253128 
L 280.935901 93.321622 
L 281.935901 93.370368 
L 282.935901 93.447966 
L 283.935901 93.478506 
L 284.935901 93.548021 
L 285.935901 93.571994 
L 286.935901 93.600616 
L 287.935901 93.642409 
L 288.935901 93.663985 
L 289.935901 93.677932 
L 290.935901 93.704655 
L 291.935901 93.713965 
L 292.935901 93.726411 
L 293.935901 93.737466 
L 294.935901 93.743131 
L 295.935901 93.747895 
L 296.935901 93.742347 
L 297.935901 93.729059 
L 298.935901 93.721541 
L 299.935901 93.696757 
L 300.935901 93.673188 
L 301.935901 93.637007 
L 302.935901 93.611046 
L 303.935901 93.588724 
L 304.935901 93.519964 
L 305.935901 93.445429 
L 306.935901 93.35145 
L 307.935901 93.300398 
L 308.935901 93.246464 
L 309.935901 93.211213 
L 310.935901 93.105125 
L 311.935901 93.052861 
L 312.935901 93.015954 
L 313.935901 92.984923 
L 314.935901 92.923768 
L 315.935901 92.856348 
L 316.935901 92.807442 
L 317.935901 92.74225 
L 318.935901 92.704062 
L 319.935901 92.662066 
L 320.935901 92.620049 
L 321.935901 92.560532 
L 322.935901 92.447372 
L 323.935901 92.395122 
L 324.935901 92.355704 
L 325.935901 92.308603 
L 326.935901 92.251823 
L 327.935901 92.21916 
L 328.935901 92.182982 
L 329.935901 92.150891 
L 330.935901 92.116612 
L 331.935901 92.058234 
L 332.935901 92.013049 
L 333.935901 91.983425 
L 334.935901 91.933039 
L 335.935901 91.907841 
L 336.935901 91.886791 
L 337.935901 91.851823 
L 338.935901 91.827533 
L 339.935901 91.813466 
L 340.935901 91.794524 
L 341.935901 91.778862 
L 342.935901 91.766311 
L 343.935901 91.760475 
L 344.935901 91.753592 
L 345.935901 91.748419 
L 346.935901 91.750201 
L 347.935901 91.752927 
L 348.935901 91.76408 
L 349.935901 91.792316 
L 350.935901 91.836104 
L 351.935901 91.856793 
L 352.935901 91.897766 
L 353.935901 91.937841 
L 354.935901 91.956951 
L 355.935901 91.979459 
L 356.935901 92.046111 
L 357.935901 92.09582 
L 358.935901 92.169527 
L 359.935901 92.200841 
L 360.935901 92.277463 
L 361.935901 92.315761 
L 362.935901 92.389878 
L 363.935901 92.493936 
L 364.935901 92.563767 
L 365.935901 92.669 
L 366.935901 92.724016 
L 367.935901 92.847491 
L 368.935901 92.91805 
L 369.935901 93.033889 
L 370.935901 93.08407 
L 371.992224 93.119674 
" style="fill:none;stroke:#ff7f0e;stroke-linecap:square;stroke-opacity:0.5;stroke-width:0.2;"/>
   <path clip-path="url(#p51bedb1c6d)" d="M 178.935901 177.527337 
L 179.935901 177.558773 
L 180.935901 177.595714 
L 181.935901 177.69346 
L 182.935901 177.725982 
L 183.935901 177.799607 
L 184.935901 177.838172 
L 185.935901 177.873585 
L 186.935901 177.931225 
L 187.935901 178.001611 
L 188.935901 178.053576 
L 189.935901 178.112665 
L 190.935901 178.200986 
L 191.935901 178.247131 
L 192.935901 178.289542 
L 193.935901 178.320034 
L 194.935901 178.346079 
L 195.935901 178.367279 
L 196.935901 178.42158 
L 197.935901 178.449518 
L 198.935901 178.479242 
L 199.935901 178.504637 
L 200.935901 178.515837 
L 201.935901 178.525961 
L 202.935901 178.525757 
L 203.935901 178.516247 
L 204.935901 178.504593 
L 205.935901 178.473564 
L 206.935901 178.462396 
L 207.935901 178.432279 
L 208.935901 178.372502 
L 209.935901 178.33531 
L 210.935901 178.296214 
L 211.935901 178.253774 
L 212.935901 178.221009 
L 213.935901 178.153583 
L 214.935901 178.114457 
L 215.935901 178.071782 
L 216.935901 178.001202 
L 217.935901 177.964811 
L 218.935901 177.906408 
L 219.935901 177.795455 
L 220.935901 177.724797 
L 221.935901 177.611857 
L 222.935901 177.566084 
L 223.935901 177.504801 
L 224.935901 177.456302 
L 225.935901 177.375479 
L 226.935901 177.25696 
L 227.935901 177.186749 
L 228.935901 177.103487 
L 229.935901 177.070345 
L 230.935901 177.019108 
L 231.935901 176.950709 
L 232.935901 176.884494 
L 233.935901 176.807577 
L 234.935901 176.780261 
L 235.935901 176.753784 
L 236.935901 176.731133 
L 237.935901 176.711602 
L 238.935901 176.685208 
L 239.935901 176.635437 
L 240.935901 176.600364 
L 241.935901 176.564498 
L 242.935901 176.549131 
L 243.935901 176.533362 
L 244.935901 176.529949 
L 245.935901 176.527532 
L 246.935901 176.528018 
L 247.935901 176.529947 
L 248.935901 176.543204 
L 249.935901 176.551594 
L 250.935901 176.573131 
L 251.935901 176.596164 
L 252.935901 176.613397 
L 253.935901 176.63186 
L 254.935901 176.652312 
L 255.935901 176.668912 
L 256.935901 176.731691 
L 257.935901 176.806956 
L 258.935901 176.839595 
L 259.935901 176.907159 
L 260.935901 176.961206 
L 261.935901 176.99491 
L 262.935901 177.085036 
L 263.935901 177.113571 
L 264.935901 177.145057 
L 265.935901 177.176068 
L 266.935901 177.230876 
L 267.935901 177.295463 
L 268.935901 177.333659 
L 269.935901 177.429593 
L 270.935901 177.478851 
L 271.935901 177.52292 
L 272.935901 177.563044 
L 273.935901 177.671411 
L 274.935901 177.713039 
L 275.935901 177.77518 
L 276.935901 177.845143 
L 277.935901 177.949647 
L 278.935901 177.986635 
L 279.935901 178.032512 
L 280.935901 178.101007 
L 281.935901 178.149752 
L 282.935901 178.22735 
L 283.935901 178.257891 
L 284.935901 178.327405 
L 285.935901 178.351378 
L 286.935901 178.38 
L 287.935901 178.421793 
L 288.935901 178.443369 
L 289.935901 178.457317 
L 290.935901 178.484039 
L 291.935901 178.493349 
L 292.935901 178.505796 
L 293.935901 178.516851 
L 294.935901 178.522515 
L 295.935901 178.527279 
L 296.935901 178.521731 
L 297.935901 178.508443 
L 298.935901 178.500926 
L 299.935901 178.476141 
L 300.935901 178.452572 
L 301.935901 178.416392 
L 302.935901 178.39043 
L 303.935901 178.368108 
L 304.935901 178.299348 
L 305.935901 178.224813 
L 306.935901 178.130834 
L 307.935901 178.079782 
L 308.935901 178.025848 
L 309.935901 177.990597 
L 310.935901 177.884509 
L 311.935901 177.832245 
L 312.935901 177.795338 
L 313.935901 177.764307 
L 314.935901 177.703152 
L 315.935901 177.635732 
L 316.935901 177.586826 
L 317.935901 177.521634 
L 318.935901 177.483446 
L 319.935901 177.44145 
L 320.935901 177.399433 
L 321.935901 177.339916 
L 322.935901 177.226757 
L 323.935901 177.174506 
L 324.935901 177.135088 
L 325.935901 177.087987 
L 326.935901 177.031207 
L 327.935901 176.998544 
L 328.935901 176.962366 
L 329.935901 176.930276 
L 330.935901 176.895996 
L 331.935901 176.837618 
L 332.935901 176.792433 
L 333.935901 176.762809 
L 334.935901 176.712423 
L 335.935901 176.687226 
L 336.935901 176.666175 
L 337.935901 176.631207 
L 338.935901 176.606917 
L 339.935901 176.59285 
L 340.935901 176.573908 
L 341.935901 176.558247 
L 342.935901 176.545695 
L 343.935901 176.539859 
L 344.935901 176.532977 
L 345.935901 176.527803 
L 346.935901 176.529585 
L 347.935901 176.532311 
L 348.935901 176.543465 
L 349.935901 176.5717 
L 350.935901 176.615488 
L 351.935901 176.636177 
L 352.935901 176.67715 
L 353.935901 176.717225 
L 354.935901 176.736335 
L 355.935901 176.758844 
L 356.935901 176.825495 
L 357.935901 176.875204 
L 358.935901 176.948911 
L 359.935901 176.980225 
L 360.935901 177.056847 
L 361.935901 177.095145 
L 362.935901 177.169262 
L 363.935901 177.27332 
L 364.935901 177.343151 
L 365.935901 177.448384 
L 366.935901 177.5034 
L 367.935901 177.626875 
L 368.935901 177.697434 
L 369.935901 177.813273 
L 370.935901 177.863454 
L 371.992224 177.899058 
" style="fill:none;stroke:#ff7f0e;stroke-linecap:square;stroke-opacity:0.5;stroke-width:0.2;"/>
   <path clip-path="url(#p51bedb1c6d)" d="M 178.935901 149.08656 
L 179.935901 149.117996 
L 180.935901 149.154936 
L 181.935901 149.252683 
L 182.935901 149.285205 
L 183.935901 149.358829 
L 184.935901 149.397395 
L 185.935901 149.432808 
L 186.935901 149.490448 
L 187.935901 149.560834 
L 188.935901 149.612798 
L 189.935901 149.671888 
L 190.935901 149.760209 
L 191.935901 149.806353 
L 192.935901 149.848764 
L 193.935901 149.879257 
L 194.935901 149.905302 
L 195.935901 149.926502 
L 196.935901 149.980803 
L 197.935901 150.008741 
L 198.935901 150.038465 
L 199.935901 150.063859 
L 200.935901 150.07506 
L 201.935901 150.085184 
L 202.935901 150.08498 
L 203.935901 150.07547 
L 204.935901 150.063816 
L 205.935901 150.032787 
L 206.935901 150.021619 
L 207.935901 149.991501 
L 208.935901 149.931724 
L 209.935901 149.894533 
L 210.935901 149.855437 
L 211.935901 149.812997 
L 212.935901 149.780232 
L 213.935901 149.712806 
L 214.935901 149.67368 
L 215.935901 149.631005 
L 216.935901 149.560425 
L 217.935901 149.524034 
L 218.935901 149.46563 
L 219.935901 149.354678 
L 220.935901 149.28402 
L 221.935901 149.17108 
L 222.935901 149.125307 
L 223.935901 149.064024 
L 224.935901 149.015524 
L 225.935901 148.934702 
L 226.935901 148.816183 
L 227.935901 148.745972 
L 228.935901 148.66271 
L 229.935901 148.629568 
L 230.935901 148.578331 
L 231.935901 148.509932 
L 232.935901 148.443717 
L 233.935901 148.3668 
L 234.935901 148.339484 
L 235.935901 148.313007 
L 236.935901 148.290356 
L 237.935901 148.270825 
L 238.935901 148.244431 
L 239.935901 148.19466 
L 240.935901 148.159587 
L 241.935901 148.123721 
L 242.935901 148.108354 
L 243.935901 148.092585 
L 244.935901 148.089172 
L 245.935901 148.086754 
L 246.935901 148.087241 
L 247.935901 148.08917 
L 248.935901 148.102427 
L 249.935901 148.110817 
L 250.935901 148.132354 
L 251.935901 148.155386 
L 252.935901 148.17262 
L 253.935901 148.191082 
L 254.935901 148.211535 
L 255.935901 148.228135 
L 256.935901 148.290914 
L 257.935901 148.366179 
L 258.935901 148.398818 
L 259.935901 148.466381 
L 260.935901 148.520428 
L 261.935901 148.554133 
L 262.935901 148.644259 
L 263.935901 148.672794 
L 264.935901 148.70428 
L 265.935901 148.735291 
L 266.935901 148.790099 
L 267.935901 148.854686 
L 268.935901 148.892881 
L 269.935901 148.988816 
L 270.935901 149.038074 
L 271.935901 149.082143 
L 272.935901 149.122267 
L 273.935901 149.230634 
L 274.935901 149.272262 
L 275.935901 149.334403 
L 276.935901 149.404366 
L 277.935901 149.50887 
L 278.935901 149.545858 
L 279.935901 149.591735 
L 280.935901 149.660229 
L 281.935901 149.708975 
L 282.935901 149.786573 
L 283.935901 149.817113 
L 284.935901 149.886628 
L 285.935901 149.910601 
L 286.935901 149.939223 
L 287.935901 149.981016 
L 288.935901 150.002591 
L 289.935901 150.016539 
L 290.935901 150.043262 
L 291.935901 150.052572 
L 292.935901 150.065018 
L 293.935901 150.076073 
L 294.935901 150.081738 
L 295.935901 150.086502 
L 296.935901 150.080954 
L 297.935901 150.067666 
L 298.935901 150.060148 
L 299.935901 150.035364 
L 300.935901 150.011795 
L 301.935901 149.975614 
L 302.935901 149.949652 
L 303.935901 149.927331 
L 304.935901 149.858571 
L 305.935901 149.784036 
L 306.935901 149.690056 
L 307.935901 149.639004 
L 308.935901 149.585071 
L 309.935901 149.54982 
L 310.935901 149.443732 
L 311.935901 149.391468 
L 312.935901 149.354561 
L 313.935901 149.32353 
L 314.935901 149.262375 
L 315.935901 149.194955 
L 316.935901 149.146049 
L 317.935901 149.080857 
L 318.935901 149.042669 
L 319.935901 149.000673 
L 320.935901 148.958656 
L 321.935901 148.899139 
L 322.935901 148.785979 
L 323.935901 148.733729 
L 324.935901 148.694311 
L 325.935901 148.647209 
L 326.935901 148.59043 
L 327.935901 148.557767 
L 328.935901 148.521589 
L 329.935901 148.489498 
L 330.935901 148.455219 
L 331.935901 148.396841 
L 332.935901 148.351656 
L 333.935901 148.322032 
L 334.935901 148.271646 
L 335.935901 148.246448 
L 336.935901 148.225398 
L 337.935901 148.19043 
L 338.935901 148.16614 
L 339.935901 148.152073 
L 340.935901 148.133131 
L 341.935901 148.117469 
L 342.935901 148.104918 
L 343.935901 148.099082 
L 344.935901 148.092199 
L 345.935901 148.087026 
L 346.935901 148.088808 
L 347.935901 148.091534 
L 348.935901 148.102687 
L 349.935901 148.130923 
L 350.935901 148.17471 
L 351.935901 148.1954 
L 352.935901 148.236373 
L 353.935901 148.276448 
L 354.935901 148.295558 
L 355.935901 148.318066 
L 356.935901 148.384718 
L 357.935901 148.434427 
L 358.935901 148.508134 
L 359.935901 148.539448 
L 360.935901 148.61607 
L 361.935901 148.654368 
L 362.935901 148.728485 
L 363.935901 148.832543 
L 364.935901 148.902374 
L 365.935901 149.007607 
L 366.935901 149.062623 
L 367.935901 149.186098 
L 368.935901 149.256657 
L 369.935901 149.372496 
L 370.935901 149.422677 
L 371.992224 149.458281 
" style="fill:none;stroke:#ff7f0e;stroke-linecap:square;stroke-opacity:0.5;stroke-width:0.2;"/>
   <path clip-path="url(#p51bedb1c6d)" d="M 178.935901 254.839019 
L 179.935901 254.870455 
L 180.935901 254.907395 
L 181.935901 255.005142 
L 182.935901 255.037664 
L 183.935901 255.111288 
L 184.935901 255.149854 
L 185.935901 255.185267 
L 186.935901 255.242907 
L 187.935901 255.313293 
L 188.935901 255.365257 
L 189.935901 255.424347 
L 190.935901 255.512668 
L 191.935901 255.558812 
L 192.935901 255.601223 
L 193.935901 255.631716 
L 194.935901 255.657761 
L 195.935901 255.678961 
L 196.935901 255.733262 
L 197.935901 255.7612 
L 198.935901 255.790924 
L 199.935901 255.816318 
L 200.935901 255.827519 
L 201.935901 255.837643 
L 202.935901 255.837439 
L 203.935901 255.827929 
L 204.935901 255.816275 
L 205.935901 255.785246 
L 206.935901 255.774078 
L 207.935901 255.74396 
L 208.935901 255.684183 
L 209.935901 255.646992 
L 210.935901 255.607896 
L 211.935901 255.565456 
L 212.935901 255.532691 
L 213.935901 255.465265 
L 214.935901 255.426139 
L 215.935901 255.383464 
L 216.935901 255.312884 
L 217.935901 255.276493 
L 218.935901 255.218089 
L 219.935901 255.107137 
L 220.935901 255.036479 
L 221.935901 254.923539 
L 222.935901 254.877766 
L 223.935901 254.816483 
L 224.935901 254.767983 
L 225.935901 254.687161 
L 226.935901 254.568642 
L 227.935901 254.498431 
L 228.935901 254.415169 
L 229.935901 254.382027 
L 230.935901 254.33079 
L 231.935901 254.262391 
L 232.935901 254.196176 
L 233.935901 254.119259 
L 234.935901 254.091943 
L 235.935901 254.065466 
L 236.935901 254.042815 
L 237.935901 254.023284 
L 238.935901 253.99689 
L 239.935901 253.947119 
L 240.935901 253.912046 
L 241.935901 253.87618 
L 242.935901 253.860813 
L 243.935901 253.845044 
L 244.935901 253.841631 
L 245.935901 253.839213 
L 246.935901 253.8397 
L 247.935901 253.841629 
L 248.935901 253.854886 
L 249.935901 253.863276 
L 250.935901 253.884813 
L 251.935901 253.907845 
L 252.935901 253.925079 
L 253.935901 253.943541 
L 254.935901 253.963994 
L 255.935901 253.980594 
L 256.935901 254.043373 
L 257.935901 254.118638 
L 258.935901 254.151277 
L 259.935901 254.21884 
L 260.935901 254.272887 
L 261.935901 254.306592 
L 262.935901 254.396718 
L 263.935901 254.425253 
L 264.935901 254.456739 
L 265.935901 254.48775 
L 266.935901 254.542558 
L 267.935901 254.607145 
L 268.935901 254.64534 
L 269.935901 254.741275 
L 270.935901 254.790533 
L 271.935901 254.834602 
L 272.935901 254.874726 
L 273.935901 254.983093 
L 274.935901 255.024721 
L 275.935901 255.086862 
L 276.935901 255.156825 
L 277.935901 255.261329 
L 278.935901 255.298317 
L 279.935901 255.344194 
L 280.935901 255.412688 
L 281.935901 255.461434 
L 282.935901 255.539032 
L 283.935901 255.569572 
L 284.935901 255.639087 
L 285.935901 255.66306 
L 286.935901 255.691682 
L 287.935901 255.733475 
L 288.935901 255.75505 
L 289.935901 255.768998 
L 290.935901 255.795721 
L 291.935901 255.805031 
L 292.935901 255.817477 
L 293.935901 255.828532 
L 294.935901 255.834197 
L 295.935901 255.838961 
L 296.935901 255.833413 
L 297.935901 255.820125 
L 298.935901 255.812607 
L 299.935901 255.787823 
L 300.935901 255.764254 
L 301.935901 255.728073 
L 302.935901 255.702111 
L 303.935901 255.67979 
L 304.935901 255.61103 
L 305.935901 255.536495 
L 306.935901 255.442515 
L 307.935901 255.391463 
L 308.935901 255.33753 
L 309.935901 255.302279 
L 310.935901 255.196191 
L 311.935901 255.143927 
L 312.935901 255.10702 
L 313.935901 255.075989 
L 314.935901 255.014834 
L 315.935901 254.947414 
L 316.935901 254.898508 
L 317.935901 254.833316 
L 318.935901 254.795128 
L 319.935901 254.753132 
L 320.935901 254.711115 
L 321.935901 254.651598 
L 322.935901 254.538438 
L 323.935901 254.486188 
L 324.935901 254.44677 
L 325.935901 254.399668 
L 326.935901 254.342889 
L 327.935901 254.310226 
L 328.935901 254.274048 
L 329.935901 254.241957 
L 330.935901 254.207678 
L 331.935901 254.1493 
L 332.935901 254.104115 
L 333.935901 254.074491 
L 334.935901 254.024105 
L 335.935901 253.998907 
L 336.935901 253.977857 
L 337.935901 253.942889 
L 338.935901 253.918599 
L 339.935901 253.904532 
L 340.935901 253.88559 
L 341.935901 253.869928 
L 342.935901 253.857377 
L 343.935901 253.851541 
L 344.935901 253.844658 
L 345.935901 253.839485 
L 346.935901 253.841267 
L 347.935901 253.843993 
L 348.935901 253.855146 
L 349.935901 253.883382 
L 350.935901 253.927169 
L 351.935901 253.947859 
L 352.935901 253.988832 
L 353.935901 254.028907 
L 354.935901 254.048017 
L 355.935901 254.070525 
L 356.935901 254.137177 
L 357.935901 254.186886 
L 358.935901 254.260593 
L 359.935901 254.291907 
L 360.935901 254.368529 
L 361.935901 254.406827 
L 362.935901 254.480944 
L 363.935901 254.585002 
L 364.935901 254.654833 
L 365.935901 254.760066 
L 366.935901 254.815082 
L 367.935901 254.938557 
L 368.935901 255.009116 
L 369.935901 255.124955 
L 370.935901 255.175136 
L 371.992224 255.21074 
" style="fill:none;stroke:#ff7f0e;stroke-linecap:square;stroke-opacity:0.5;stroke-width:0.2;"/>
   <path clip-path="url(#p51bedb1c6d)" d="M 178.935901 107.777073 
L 179.935901 107.80851 
L 180.935901 107.84545 
L 181.935901 107.943197 
L 182.935901 107.975718 
L 183.935901 108.049343 
L 184.935901 108.087908 
L 185.935901 108.123322 
L 186.935901 108.180962 
L 187.935901 108.251348 
L 188.935901 108.303312 
L 189.935901 108.362402 
L 190.935901 108.450723 
L 191.935901 108.496867 
L 192.935901 108.539278 
L 193.935901 108.569771 
L 194.935901 108.595816 
L 195.935901 108.617016 
L 196.935901 108.671317 
L 197.935901 108.699254 
L 198.935901 108.728978 
L 199.935901 108.754373 
L 200.935901 108.765573 
L 201.935901 108.775697 
L 202.935901 108.775493 
L 203.935901 108.765983 
L 204.935901 108.75433 
L 205.935901 108.7233 
L 206.935901 108.712132 
L 207.935901 108.682015 
L 208.935901 108.622238 
L 209.935901 108.585046 
L 210.935901 108.54595 
L 211.935901 108.503511 
L 212.935901 108.470746 
L 213.935901 108.403319 
L 214.935901 108.364193 
L 215.935901 108.321519 
L 216.935901 108.250938 
L 217.935901 108.214547 
L 218.935901 108.156144 
L 219.935901 108.045191 
L 220.935901 107.974533 
L 221.935901 107.861593 
L 222.935901 107.81582 
L 223.935901 107.754537 
L 224.935901 107.706038 
L 225.935901 107.625215 
L 226.935901 107.506696 
L 227.935901 107.436486 
L 228.935901 107.353223 
L 229.935901 107.320081 
L 230.935901 107.268844 
L 231.935901 107.200446 
L 232.935901 107.13423 
L 233.935901 107.057313 
L 234.935901 107.029998 
L 235.935901 107.00352 
L 236.935901 106.98087 
L 237.935901 106.961338 
L 238.935901 106.934944 
L 239.935901 106.885173 
L 240.935901 106.8501 
L 241.935901 106.814235 
L 242.935901 106.798867 
L 243.935901 106.783098 
L 244.935901 106.779686 
L 245.935901 106.777268 
L 246.935901 106.777754 
L 247.935901 106.779683 
L 248.935901 106.79294 
L 249.935901 106.801331 
L 250.935901 106.822868 
L 251.935901 106.8459 
L 252.935901 106.863134 
L 253.935901 106.881596 
L 254.935901 106.902049 
L 255.935901 106.918648 
L 256.935901 106.981427 
L 257.935901 107.056692 
L 258.935901 107.089331 
L 259.935901 107.156895 
L 260.935901 107.210942 
L 261.935901 107.244646 
L 262.935901 107.334772 
L 263.935901 107.363307 
L 264.935901 107.394793 
L 265.935901 107.425804 
L 266.935901 107.480612 
L 267.935901 107.5452 
L 268.935901 107.583395 
L 269.935901 107.679329 
L 270.935901 107.728587 
L 271.935901 107.772657 
L 272.935901 107.81278 
L 273.935901 107.921147 
L 274.935901 107.962775 
L 275.935901 108.024917 
L 276.935901 108.094879 
L 277.935901 108.199384 
L 278.935901 108.236371 
L 279.935901 108.282248 
L 280.935901 108.350743 
L 281.935901 108.399489 
L 282.935901 108.477086 
L 283.935901 108.507627 
L 284.935901 108.577142 
L 285.935901 108.601114 
L 286.935901 108.629736 
L 287.935901 108.671529 
L 288.935901 108.693105 
L 289.935901 108.707053 
L 290.935901 108.733776 
L 291.935901 108.743085 
L 292.935901 108.755532 
L 293.935901 108.766587 
L 294.935901 108.772252 
L 295.935901 108.777015 
L 296.935901 108.771468 
L 297.935901 108.75818 
L 298.935901 108.750662 
L 299.935901 108.725877 
L 300.935901 108.702309 
L 301.935901 108.666128 
L 302.935901 108.640166 
L 303.935901 108.617845 
L 304.935901 108.549085 
L 305.935901 108.474549 
L 306.935901 108.38057 
L 307.935901 108.329518 
L 308.935901 108.275584 
L 309.935901 108.240333 
L 310.935901 108.134245 
L 311.935901 108.081981 
L 312.935901 108.045075 
L 313.935901 108.014044 
L 314.935901 107.952888 
L 315.935901 107.885468 
L 316.935901 107.836562 
L 317.935901 107.77137 
L 318.935901 107.733183 
L 319.935901 107.691187 
L 320.935901 107.649169 
L 321.935901 107.589653 
L 322.935901 107.476493 
L 323.935901 107.424242 
L 324.935901 107.384825 
L 325.935901 107.337723 
L 326.935901 107.280944 
L 327.935901 107.248281 
L 328.935901 107.212103 
L 329.935901 107.180012 
L 330.935901 107.145732 
L 331.935901 107.087354 
L 332.935901 107.042169 
L 333.935901 107.012545 
L 334.935901 106.96216 
L 335.935901 106.936962 
L 336.935901 106.915911 
L 337.935901 106.880943 
L 338.935901 106.856653 
L 339.935901 106.842586 
L 340.935901 106.823644 
L 341.935901 106.807983 
L 342.935901 106.795431 
L 343.935901 106.789595 
L 344.935901 106.782713 
L 345.935901 106.777539 
L 346.935901 106.779322 
L 347.935901 106.782048 
L 348.935901 106.793201 
L 349.935901 106.821436 
L 350.935901 106.865224 
L 351.935901 106.885913 
L 352.935901 106.926887 
L 353.935901 106.966962 
L 354.935901 106.986071 
L 355.935901 107.00858 
L 356.935901 107.075232 
L 357.935901 107.124941 
L 358.935901 107.198648 
L 359.935901 107.229961 
L 360.935901 107.306583 
L 361.935901 107.344881 
L 362.935901 107.418998 
L 363.935901 107.523057 
L 364.935901 107.592887 
L 365.935901 107.698121 
L 366.935901 107.753136 
L 367.935901 107.876611 
L 368.935901 107.94717 
L 369.935901 108.06301 
L 370.935901 108.11319 
L 371.992224 108.148795 
" style="fill:none;stroke:#ff7f0e;stroke-linecap:square;stroke-opacity:0.5;stroke-width:0.2;"/>
   <g id="PolyCollection_1">
    <path clip-path="url(#p51bedb1c6d)" d="M 325.949503 7.2 
L 224.978622 7.2 
L 224.978622 57.844375 
L 325.949503 57.844375 
L 325.949503 57.844375 
L 325.949503 7.2 
z
" style="fill:#1f77b4;fill-opacity:0.5;"/>
   </g>
   <g id="PolyCollection_2">
    <path clip-path="url(#p51bedb1c6d)" d="M 174.493182 57.844375 
L 73.522301 57.844375 
L 73.522301 260.421875 
L 174.493182 260.421875 
L 174.493182 260.421875 
L 174.493182 57.844375 
z
" style="fill:#ff7f0e;fill-opacity:0.5;"/>
   </g>
   <g id="PolyCollection_3">
    <path clip-path="url(#p51bedb1c6d)" d="M 477.405824 57.844375 
L 376.434943 57.844375 
L 376.434943 260.421875 
L 477.405824 260.421875 
L 477.405824 260.421875 
L 477.405824 57.844375 
z
" style="fill:#2ca02c;fill-opacity:0.5;"/>
   </g>
   <g id="patch_3">
    <path clip-path="url(#p51bedb1c6d)" d="M 224.978622 7.2 
L 224.978622 57.844375 
M 325.949503 7.2 
L 325.949503 57.844375 
" style="fill:none;stroke:#ffffff;stroke-linejoin:miter;stroke-width:3;"/>
    <path clip-path="url(#p51bedb1c6d)" d="M 224.978622 7.2 
L 224.978622 57.844375 
M 325.949503 7.2 
L 325.949503 57.844375 
" style="fill:none;stroke:#1f77b4;stroke-linejoin:miter;"/>
    <g id="patch_4">
     <path clip-path="url(#p51bedb1c6d)" d="M 73.522301 57.844375 
L 73.522301 260.421875 
M 174.493182 57.844375 
L 174.493182 260.421875 
" style="fill:none;stroke:#ffffff;stroke-linejoin:miter;stroke-width:3;"/>
     <path clip-path="url(#p51bedb1c6d)" d="M 73.522301 57.844375 
L 73.522301 260.421875 
M 174.493182 57.844375 
L 174.493182 260.421875 
" style="fill:none;stroke:#ff7f0e;stroke-linejoin:miter;"/>
     <g id="patch_5">
      <path clip-path="url(#p51bedb1c6d)" d="M 376.434943 57.844375 
L 376.434943 260.421875 
M 477.405824 57.844375 
L 477.405824 260.421875 
" style="fill:none;stroke:#ffffff;stroke-linejoin:miter;stroke-width:3;"/>
      <path clip-path="url(#p51bedb1c6d)" d="M 376.434943 57.844375 
L 376.434943 260.421875 
M 477.405824 57.844375 
L 477.405824 260.421875 
" style="fill:none;stroke:#2ca02c;stroke-linejoin:miter;"/>
      <g id="matplotlib.axis_1">
       <g id="xtick_1">
        <g id="line2d_1"/>
        <g id="text_1">
         <!-- A -->
         <g transform="translate(120.587429 271.520312)scale(0.1 -0.1)">
          <defs>
           <path d="M 2188 4044 
L 1331 1722 
L 3047 1722 
L 2188 4044 
z
M 1831 4666 
L 2547 4666 
L 4325 0 
L 3669 0 
L 3244 1197 
L 1141 1197 
L 716 0 
L 50 0 
L 1831 4666 
z
" id="DejaVuSans-41" transform="scale(0.015625)"/>
          </defs>
          <use xlink:href="#DejaVuSans-41"/>
         </g>
        </g>
       </g>
       <g id="xtick_2">
        <g id="line2d_2"/>
        <g id="text_2">
         <!-- B -->
         <g transform="translate(423.489915 271.520312)scale(0.1 -0.1)">
          <defs>
           <path d="M 1259 2228 
L 1259 519 
L 2272 519 
Q 2781 519 3026 730 
Q 3272 941 3272 1375 
Q 3272 1813 3026 2020 
Q 2781 2228 2272 2228 
L 1259 2228 
z
M 1259 4147 
L 1259 2741 
L 2194 2741 
Q 2656 2741 2882 2914 
Q 3109 3088 3109 3444 
Q 3109 3797 2882 3972 
Q 2656 4147 2194 4147 
L 1259 4147 
z
M 628 4666 
L 2241 4666 
Q 2963 4666 3353 4366 
Q 3744 4066 3744 3513 
Q 3744 3084 3544 2831 
Q 3344 2578 2956 2516 
Q 3422 2416 3680 2098 
Q 3938 1781 3938 1306 
Q 3938 681 3513 340 
Q 3088 0 2303 0 
L 628 0 
L 628 4666 
z
" id="DejaVuSans-42" transform="scale(0.015625)"/>
          </defs>
          <use xlink:href="#DejaVuSans-42"/>
         </g>
        </g>
       </g>
      </g>
      <g id="matplotlib.axis_2">
       <g id="ytick_1">
        <g id="line2d_3">
         <defs>
          <path d="M 0 0 
L -3.5 0 
" id="m595cd332a1" style="stroke:#000000;stroke-width:0.8;"/>
         </defs>
         <g>
          <use style="stroke:#000000;stroke-width:0.8;" x="53.328125" xlink:href="#m595cd332a1" y="260.421875"/>
         </g>
        </g>
        <g id="text_3">
         <!-- 0 -->
         <g transform="translate(39.965625 264.221094)scale(0.1 -0.1)">
          <defs>
           <path d="M 2034 4250 
Q 1547 4250 1301 3770 
Q 1056 3291 1056 2328 
Q 1056 1369 1301 889 
Q 1547 409 2034 409 
Q 2525 409 2770 889 
Q 3016 1369 3016 2328 
Q 3016 3291 2770 3770 
Q 2525 4250 2034 4250 
z
M 2034 4750 
Q 2819 4750 3233 4129 
Q 3647 3509 3647 2328 
Q 3647 1150 3233 529 
Q 2819 -91 2034 -91 
Q 1250 -91 836 529 
Q 422 1150 422 2328 
Q 422 3509 836 4129 
Q 1250 4750 2034 4750 
z
" id="DejaVuSans-30" transform="scale(0.015625)"/>
          </defs>
          <use xlink:href="#DejaVuSans-30"/>
         </g>
        </g>
       </g>
       <g id="ytick_2">
        <g id="line2d_4">
         <g>
          <use style="stroke:#000000;stroke-width:0.8;" x="53.328125" xlink:href="#m595cd332a1" y="219.906375"/>
         </g>
        </g>
        <g id="text_4">
         <!-- 200 -->
         <g transform="translate(27.240625 223.705594)scale(0.1 -0.1)">
          <defs>
           <path d="M 1228 531 
L 3431 531 
L 3431 0 
L 469 0 
L 469 531 
Q 828 903 1448 1529 
Q 2069 2156 2228 2338 
Q 2531 2678 2651 2914 
Q 2772 3150 2772 3378 
Q 2772 3750 2511 3984 
Q 2250 4219 1831 4219 
Q 1534 4219 1204 4116 
Q 875 4013 500 3803 
L 500 4441 
Q 881 4594 1212 4672 
Q 1544 4750 1819 4750 
Q 2544 4750 2975 4387 
Q 3406 4025 3406 3419 
Q 3406 3131 3298 2873 
Q 3191 2616 2906 2266 
Q 2828 2175 2409 1742 
Q 1991 1309 1228 531 
z
" id="DejaVuSans-32" transform="scale(0.015625)"/>
          </defs>
          <use xlink:href="#DejaVuSans-32"/>
          <use x="63.623047" xlink:href="#DejaVuSans-30"/>
          <use x="127.246094" xlink:href="#DejaVuSans-30"/>
         </g>
        </g>
       </g>
       <g id="ytick_3">
        <g id="line2d_5">
         <g>
          <use style="stroke:#000000;stroke-width:0.8;" x="53.328125" xlink:href="#m595cd332a1" y="179.390875"/>
         </g>
        </g>
        <g id="text_5">
         <!-- 400 -->
         <g transform="translate(27.240625 183.190094)scale(0.1 -0.1)">
          <defs>
           <path d="M 2419 4116 
L 825 1625 
L 2419 1625 
L 2419 4116 
z
M 2253 4666 
L 3047 4666 
L 3047 1625 
L 3713 1625 
L 3713 1100 
L 3047 1100 
L 3047 0 
L 2419 0 
L 2419 1100 
L 313 1100 
L 313 1709 
L 2253 4666 
z
" id="DejaVuSans-34" transform="scale(0.015625)"/>
          </defs>
          <use xlink:href="#DejaVuSans-34"/>
          <use x="63.623047" xlink:href="#DejaVuSans-30"/>
          <use x="127.246094" xlink:href="#DejaVuSans-30"/>
         </g>
        </g>
       </g>
       <g id="ytick_4">
        <g id="line2d_6">
         <g>
          <use style="stroke:#000000;stroke-width:0.8;" x="53.328125" xlink:href="#m595cd332a1" y="138.875375"/>
         </g>
        </g>
        <g id="text_6">
         <!-- 600 -->
         <g transform="translate(27.240625 142.674594)scale(0.1 -0.1)">
          <defs>
           <path d="M 2113 2584 
Q 1688 2584 1439 2293 
Q 1191 2003 1191 1497 
Q 1191 994 1439 701 
Q 1688 409 2113 409 
Q 2538 409 2786 701 
Q 3034 994 3034 1497 
Q 3034 2003 2786 2293 
Q 2538 2584 2113 2584 
z
M 3366 4563 
L 3366 3988 
Q 3128 4100 2886 4159 
Q 2644 4219 2406 4219 
Q 1781 4219 1451 3797 
Q 1122 3375 1075 2522 
Q 1259 2794 1537 2939 
Q 1816 3084 2150 3084 
Q 2853 3084 3261 2657 
Q 3669 2231 3669 1497 
Q 3669 778 3244 343 
Q 2819 -91 2113 -91 
Q 1303 -91 875 529 
Q 447 1150 447 2328 
Q 447 3434 972 4092 
Q 1497 4750 2381 4750 
Q 2619 4750 2861 4703 
Q 3103 4656 3366 4563 
z
" id="DejaVuSans-36" transform="scale(0.015625)"/>
          </defs>
          <use xlink:href="#DejaVuSans-36"/>
          <use x="63.623047" xlink:href="#DejaVuSans-30"/>
          <use x="127.246094" xlink:href="#DejaVuSans-30"/>
         </g>
        </g>
       </g>
       <g id="ytick_5">
        <g id="line2d_7">
         <g>
          <use style="stroke:#000000;stroke-width:0.8;" x="53.328125" xlink:href="#m595cd332a1" y="98.359875"/>
         </g>
        </g>
        <g id="text_7">
         <!-- 800 -->
         <g transform="translate(27.240625 102.159094)scale(0.1 -0.1)">
          <defs>
           <path d="M 2034 2216 
Q 1584 2216 1326 1975 
Q 1069 1734 1069 1313 
Q 1069 891 1326 650 
Q 1584 409 2034 409 
Q 2484 409 2743 651 
Q 3003 894 3003 1313 
Q 3003 1734 2745 1975 
Q 2488 2216 2034 2216 
z
M 1403 2484 
Q 997 2584 770 2862 
Q 544 3141 544 3541 
Q 544 4100 942 4425 
Q 1341 4750 2034 4750 
Q 2731 4750 3128 4425 
Q 3525 4100 3525 3541 
Q 3525 3141 3298 2862 
Q 3072 2584 2669 2484 
Q 3125 2378 3379 2068 
Q 3634 1759 3634 1313 
Q 3634 634 3220 271 
Q 2806 -91 2034 -91 
Q 1263 -91 848 271 
Q 434 634 434 1313 
Q 434 1759 690 2068 
Q 947 2378 1403 2484 
z
M 1172 3481 
Q 1172 3119 1398 2916 
Q 1625 2713 2034 2713 
Q 2441 2713 2670 2916 
Q 2900 3119 2900 3481 
Q 2900 3844 2670 4047 
Q 2441 4250 2034 4250 
Q 1625 4250 1398 4047 
Q 1172 3844 1172 3481 
z
" id="DejaVuSans-38" transform="scale(0.015625)"/>
          </defs>
          <use xlink:href="#DejaVuSans-38"/>
          <use x="63.623047" xlink:href="#DejaVuSans-30"/>
          <use x="127.246094" xlink:href="#DejaVuSans-30"/>
         </g>
        </g>
       </g>
       <g id="ytick_6">
        <g id="line2d_8">
         <g>
          <use style="stroke:#000000;stroke-width:0.8;" x="53.328125" xlink:href="#m595cd332a1" y="57.844375"/>
         </g>
        </g>
        <g id="text_8">
         <!-- 1000 -->
         <g transform="translate(20.878125 61.643594)scale(0.1 -0.1)">
          <defs>
           <path d="M 794 531 
L 1825 531 
L 1825 4091 
L 703 3866 
L 703 4441 
L 1819 4666 
L 2450 4666 
L 2450 531 
L 3481 531 
L 3481 0 
L 794 0 
L 794 531 
z
" id="DejaVuSans-31" transform="scale(0.015625)"/>
          </defs>
          <use xlink:href="#DejaVuSans-31"/>
          <use x="63.623047" xlink:href="#DejaVuSans-30"/>
          <use x="127.246094" xlink:href="#DejaVuSans-30"/>
          <use x="190.869141" xlink:href="#DejaVuSans-30"/>
         </g>
        </g>
       </g>
       <g id="ytick_7">
        <g id="line2d_9">
         <g>
          <use style="stroke:#000000;stroke-width:0.8;" x="53.328125" xlink:href="#m595cd332a1" y="17.328875"/>
         </g>
        </g>
        <g id="text_9">
         <!-- 1200 -->
         <g transform="translate(20.878125 21.128094)scale(0.1 -0.1)">
          <use xlink:href="#DejaVuSans-31"/>
          <use x="63.623047" xlink:href="#DejaVuSans-32"/>
          <use x="127.246094" xlink:href="#DejaVuSans-30"/>
          <use x="190.869141" xlink:href="#DejaVuSans-30"/>
         </g>
        </g>
       </g>
       <g id="text_10">
        <!-- time ago (generations) -->
        <g transform="translate(14.798438 191.282031)rotate(-90)scale(0.1 -0.1)">
         <defs>
          <path d="M 1172 4494 
L 1172 3500 
L 2356 3500 
L 2356 3053 
L 1172 3053 
L 1172 1153 
Q 1172 725 1289 603 
Q 1406 481 1766 481 
L 2356 481 
L 2356 0 
L 1766 0 
Q 1100 0 847 248 
Q 594 497 594 1153 
L 594 3053 
L 172 3053 
L 172 3500 
L 594 3500 
L 594 4494 
L 1172 4494 
z
" id="DejaVuSans-74" transform="scale(0.015625)"/>
          <path d="M 603 3500 
L 1178 3500 
L 1178 0 
L 603 0 
L 603 3500 
z
M 603 4863 
L 1178 4863 
L 1178 4134 
L 603 4134 
L 603 4863 
z
" id="DejaVuSans-69" transform="scale(0.015625)"/>
          <path d="M 3328 2828 
Q 3544 3216 3844 3400 
Q 4144 3584 4550 3584 
Q 5097 3584 5394 3201 
Q 5691 2819 5691 2113 
L 5691 0 
L 5113 0 
L 5113 2094 
Q 5113 2597 4934 2840 
Q 4756 3084 4391 3084 
Q 3944 3084 3684 2787 
Q 3425 2491 3425 1978 
L 3425 0 
L 2847 0 
L 2847 2094 
Q 2847 2600 2669 2842 
Q 2491 3084 2119 3084 
Q 1678 3084 1418 2786 
Q 1159 2488 1159 1978 
L 1159 0 
L 581 0 
L 581 3500 
L 1159 3500 
L 1159 2956 
Q 1356 3278 1631 3431 
Q 1906 3584 2284 3584 
Q 2666 3584 2933 3390 
Q 3200 3197 3328 2828 
z
" id="DejaVuSans-6d" transform="scale(0.015625)"/>
          <path d="M 3597 1894 
L 3597 1613 
L 953 1613 
Q 991 1019 1311 708 
Q 1631 397 2203 397 
Q 2534 397 2845 478 
Q 3156 559 3463 722 
L 3463 178 
Q 3153 47 2828 -22 
Q 2503 -91 2169 -91 
Q 1331 -91 842 396 
Q 353 884 353 1716 
Q 353 2575 817 3079 
Q 1281 3584 2069 3584 
Q 2775 3584 3186 3129 
Q 3597 2675 3597 1894 
z
M 3022 2063 
Q 3016 2534 2758 2815 
Q 2500 3097 2075 3097 
Q 1594 3097 1305 2825 
Q 1016 2553 972 2059 
L 3022 2063 
z
" id="DejaVuSans-65" transform="scale(0.015625)"/>
          <path id="DejaVuSans-20" transform="scale(0.015625)"/>
          <path d="M 2194 1759 
Q 1497 1759 1228 1600 
Q 959 1441 959 1056 
Q 959 750 1161 570 
Q 1363 391 1709 391 
Q 2188 391 2477 730 
Q 2766 1069 2766 1631 
L 2766 1759 
L 2194 1759 
z
M 3341 1997 
L 3341 0 
L 2766 0 
L 2766 531 
Q 2569 213 2275 61 
Q 1981 -91 1556 -91 
Q 1019 -91 701 211 
Q 384 513 384 1019 
Q 384 1609 779 1909 
Q 1175 2209 1959 2209 
L 2766 2209 
L 2766 2266 
Q 2766 2663 2505 2880 
Q 2244 3097 1772 3097 
Q 1472 3097 1187 3025 
Q 903 2953 641 2809 
L 641 3341 
Q 956 3463 1253 3523 
Q 1550 3584 1831 3584 
Q 2591 3584 2966 3190 
Q 3341 2797 3341 1997 
z
" id="DejaVuSans-61" transform="scale(0.015625)"/>
          <path d="M 2906 1791 
Q 2906 2416 2648 2759 
Q 2391 3103 1925 3103 
Q 1463 3103 1205 2759 
Q 947 2416 947 1791 
Q 947 1169 1205 825 
Q 1463 481 1925 481 
Q 2391 481 2648 825 
Q 2906 1169 2906 1791 
z
M 3481 434 
Q 3481 -459 3084 -895 
Q 2688 -1331 1869 -1331 
Q 1566 -1331 1297 -1286 
Q 1028 -1241 775 -1147 
L 775 -588 
Q 1028 -725 1275 -790 
Q 1522 -856 1778 -856 
Q 2344 -856 2625 -561 
Q 2906 -266 2906 331 
L 2906 616 
Q 2728 306 2450 153 
Q 2172 0 1784 0 
Q 1141 0 747 490 
Q 353 981 353 1791 
Q 353 2603 747 3093 
Q 1141 3584 1784 3584 
Q 2172 3584 2450 3431 
Q 2728 3278 2906 2969 
L 2906 3500 
L 3481 3500 
L 3481 434 
z
" id="DejaVuSans-67" transform="scale(0.015625)"/>
          <path d="M 1959 3097 
Q 1497 3097 1228 2736 
Q 959 2375 959 1747 
Q 959 1119 1226 758 
Q 1494 397 1959 397 
Q 2419 397 2687 759 
Q 2956 1122 2956 1747 
Q 2956 2369 2687 2733 
Q 2419 3097 1959 3097 
z
M 1959 3584 
Q 2709 3584 3137 3096 
Q 3566 2609 3566 1747 
Q 3566 888 3137 398 
Q 2709 -91 1959 -91 
Q 1206 -91 779 398 
Q 353 888 353 1747 
Q 353 2609 779 3096 
Q 1206 3584 1959 3584 
z
" id="DejaVuSans-6f" transform="scale(0.015625)"/>
          <path d="M 1984 4856 
Q 1566 4138 1362 3434 
Q 1159 2731 1159 2009 
Q 1159 1288 1364 580 
Q 1569 -128 1984 -844 
L 1484 -844 
Q 1016 -109 783 600 
Q 550 1309 550 2009 
Q 550 2706 781 3412 
Q 1013 4119 1484 4856 
L 1984 4856 
z
" id="DejaVuSans-28" transform="scale(0.015625)"/>
          <path d="M 3513 2113 
L 3513 0 
L 2938 0 
L 2938 2094 
Q 2938 2591 2744 2837 
Q 2550 3084 2163 3084 
Q 1697 3084 1428 2787 
Q 1159 2491 1159 1978 
L 1159 0 
L 581 0 
L 581 3500 
L 1159 3500 
L 1159 2956 
Q 1366 3272 1645 3428 
Q 1925 3584 2291 3584 
Q 2894 3584 3203 3211 
Q 3513 2838 3513 2113 
z
" id="DejaVuSans-6e" transform="scale(0.015625)"/>
          <path d="M 2631 2963 
Q 2534 3019 2420 3045 
Q 2306 3072 2169 3072 
Q 1681 3072 1420 2755 
Q 1159 2438 1159 1844 
L 1159 0 
L 581 0 
L 581 3500 
L 1159 3500 
L 1159 2956 
Q 1341 3275 1631 3429 
Q 1922 3584 2338 3584 
Q 2397 3584 2469 3576 
Q 2541 3569 2628 3553 
L 2631 2963 
z
" id="DejaVuSans-72" transform="scale(0.015625)"/>
          <path d="M 2834 3397 
L 2834 2853 
Q 2591 2978 2328 3040 
Q 2066 3103 1784 3103 
Q 1356 3103 1142 2972 
Q 928 2841 928 2578 
Q 928 2378 1081 2264 
Q 1234 2150 1697 2047 
L 1894 2003 
Q 2506 1872 2764 1633 
Q 3022 1394 3022 966 
Q 3022 478 2636 193 
Q 2250 -91 1575 -91 
Q 1294 -91 989 -36 
Q 684 19 347 128 
L 347 722 
Q 666 556 975 473 
Q 1284 391 1588 391 
Q 1994 391 2212 530 
Q 2431 669 2431 922 
Q 2431 1156 2273 1281 
Q 2116 1406 1581 1522 
L 1381 1569 
Q 847 1681 609 1914 
Q 372 2147 372 2553 
Q 372 3047 722 3315 
Q 1072 3584 1716 3584 
Q 2034 3584 2315 3537 
Q 2597 3491 2834 3397 
z
" id="DejaVuSans-73" transform="scale(0.015625)"/>
          <path d="M 513 4856 
L 1013 4856 
Q 1481 4119 1714 3412 
Q 1947 2706 1947 2009 
Q 1947 1309 1714 600 
Q 1481 -109 1013 -844 
L 513 -844 
Q 928 -128 1133 580 
Q 1338 1288 1338 2009 
Q 1338 2731 1133 3434 
Q 928 4138 513 4856 
z
" id="DejaVuSans-29" transform="scale(0.015625)"/>
         </defs>
         <use xlink:href="#DejaVuSans-74"/>
         <use x="39.208984" xlink:href="#DejaVuSans-69"/>
         <use x="66.992188" xlink:href="#DejaVuSans-6d"/>
         <use x="164.404297" xlink:href="#DejaVuSans-65"/>
         <use x="225.927734" xlink:href="#DejaVuSans-20"/>
         <use x="257.714844" xlink:href="#DejaVuSans-61"/>
         <use x="318.994141" xlink:href="#DejaVuSans-67"/>
         <use x="382.470703" xlink:href="#DejaVuSans-6f"/>
         <use x="443.652344" xlink:href="#DejaVuSans-20"/>
         <use x="475.439453" xlink:href="#DejaVuSans-28"/>
         <use x="514.453125" xlink:href="#DejaVuSans-67"/>
         <use x="577.929688" xlink:href="#DejaVuSans-65"/>
         <use x="639.453125" xlink:href="#DejaVuSans-6e"/>
         <use x="702.832031" xlink:href="#DejaVuSans-65"/>
         <use x="764.355469" xlink:href="#DejaVuSans-72"/>
         <use x="805.46875" xlink:href="#DejaVuSans-61"/>
         <use x="866.748047" xlink:href="#DejaVuSans-74"/>
         <use x="905.957031" xlink:href="#DejaVuSans-69"/>
         <use x="933.740234" xlink:href="#DejaVuSans-6f"/>
         <use x="994.921875" xlink:href="#DejaVuSans-6e"/>
         <use x="1058.300781" xlink:href="#DejaVuSans-73"/>
         <use x="1110.400391" xlink:href="#DejaVuSans-29"/>
        </g>
       </g>
      </g>
      <g id="patch_6">
       <path clip-path="url(#p51bedb1c6d)" d="M 222.978802 57.844375 
L 221.978802 57.812939 
L 220.978802 57.775998 
L 219.978802 57.678252 
L 218.978802 57.64573 
L 217.978802 57.572105 
L 216.978802 57.53354 
L 215.978802 57.498127 
L 214.978802 57.440487 
L 213.978802 57.370101 
L 212.978802 57.318136 
L 211.978802 57.259047 
L 210.978802 57.170726 
L 209.978802 57.124581 
L 208.978802 57.08217 
L 207.978802 57.051678 
L 206.978802 57.025633 
L 205.978802 57.004433 
L 204.978802 56.950132 
L 203.978802 56.922194 
L 202.978802 56.89247 
L 201.978802 56.867075 
L 200.978802 56.855875 
L 199.978802 56.845751 
L 198.978802 56.845955 
L 197.978802 56.855465 
L 196.978802 56.867119 
L 195.978802 56.898148 
L 194.978802 56.909316 
L 193.978802 56.939433 
L 192.978802 56.99921 
L 191.978802 57.036402 
L 190.978802 57.075498 
L 189.978802 57.117938 
L 188.978802 57.150703 
L 187.978802 57.218129 
L 186.978802 57.257255 
L 185.978802 57.29993 
L 184.978802 57.37051 
L 183.978802 57.406901 
L 182.978802 57.465304 
L 181.978802 57.576257 
L 180.978802 57.646915 
L 179.978802 57.759855 
L 178.978802 57.805628 
L 177.608762 57.866911 
" style="fill:none;stroke:#ffffff;stroke-linecap:round;stroke-width:3;"/>
       <path clip-path="url(#p51bedb1c6d)" d="M 222.978802 57.844375 
L 221.978802 57.812939 
L 220.978802 57.775998 
L 219.978802 57.678252 
L 218.978802 57.64573 
L 217.978802 57.572105 
L 216.978802 57.53354 
L 215.978802 57.498127 
L 214.978802 57.440487 
L 213.978802 57.370101 
L 212.978802 57.318136 
L 211.978802 57.259047 
L 210.978802 57.170726 
L 209.978802 57.124581 
L 208.978802 57.08217 
L 207.978802 57.051678 
L 206.978802 57.025633 
L 205.978802 57.004433 
L 204.978802 56.950132 
L 203.978802 56.922194 
L 202.978802 56.89247 
L 201.978802 56.867075 
L 200.978802 56.855875 
L 199.978802 56.845751 
L 198.978802 56.845955 
L 197.978802 56.855465 
L 196.978802 56.867119 
L 195.978802 56.898148 
L 194.978802 56.909316 
L 193.978802 56.939433 
L 192.978802 56.99921 
L 191.978802 57.036402 
L 190.978802 57.075498 
L 189.978802 57.117938 
L 188.978802 57.150703 
L 187.978802 57.218129 
L 186.978802 57.257255 
L 185.978802 57.29993 
L 184.978802 57.37051 
L 183.978802 57.406901 
L 182.978802 57.465304 
L 181.978802 57.576257 
L 180.978802 57.646915 
L 179.978802 57.759855 
L 178.978802 57.805628 
L 177.608762 57.866911 
" style="fill:none;stroke:#1f77b4;stroke-linecap:round;"/>
       <path clip-path="url(#p51bedb1c6d)" d="M 181.608762 59.844375 
L 180.728393 59.369044 
L 179.850486 58.88879 
L 178.999773 58.354149 
L 177.697599 57.666702 
L 178.624952 57.640687 
L 179.536626 57.227967 
L 180.44689 56.812428 
L 181.789386 56.205624 
L 181.134487 56.844375 
L 181.082523 57.844375 
L 181.023433 59.844375 
L 181.608762 59.844375 
z
" style="fill:#ffffff;stroke:#ffffff;stroke-linecap:round;stroke-width:3;"/>
       <path clip-path="url(#p51bedb1c6d)" d="M 181.608762 59.844375 
L 180.728393 59.369044 
L 179.850486 58.88879 
L 178.999773 58.354149 
L 177.697599 57.666702 
L 178.624952 57.640687 
L 179.536626 57.227967 
L 180.44689 56.812428 
L 181.789386 56.205624 
L 181.134487 56.844375 
L 181.082523 57.844375 
L 181.023433 59.844375 
L 181.608762 59.844375 
z
" style="fill:#ffffff;stroke:#1f77b4;stroke-linecap:round;"/>
       <g id="patch_7">
        <path clip-path="url(#p51bedb1c6d)" d="M 327.949323 57.844375 
L 328.949323 57.875811 
L 329.949323 57.912752 
L 330.949323 58.010498 
L 331.949323 58.04302 
L 332.949323 58.116645 
L 333.949323 58.15521 
L 334.949323 58.190623 
L 335.949323 58.248263 
L 336.949323 58.318649 
L 337.949323 58.370614 
L 338.949323 58.429703 
L 339.949323 58.518024 
L 340.949323 58.564169 
L 341.949323 58.60658 
L 342.949323 58.637072 
L 343.949323 58.663117 
L 344.949323 58.684317 
L 345.949323 58.738618 
L 346.949323 58.766556 
L 347.949323 58.79628 
L 348.949323 58.821675 
L 349.949323 58.832875 
L 350.949323 58.842999 
L 351.949323 58.842795 
L 352.949323 58.833285 
L 353.949323 58.821631 
L 354.949323 58.790602 
L 355.949323 58.779434 
L 356.949323 58.749317 
L 357.949323 58.68954 
L 358.949323 58.652348 
L 359.949323 58.613252 
L 360.949323 58.570812 
L 361.949323 58.538047 
L 362.949323 58.470621 
L 363.949323 58.431495 
L 364.949323 58.38882 
L 365.949323 58.31824 
L 366.949323 58.281849 
L 367.949323 58.223446 
L 368.949323 58.112493 
L 369.949323 58.041835 
L 370.949323 57.928895 
L 371.949323 57.883122 
L 373.319363 57.821839 
" style="fill:none;stroke:#ffffff;stroke-linecap:round;stroke-width:3;"/>
        <path clip-path="url(#p51bedb1c6d)" d="M 327.949323 57.844375 
L 328.949323 57.875811 
L 329.949323 57.912752 
L 330.949323 58.010498 
L 331.949323 58.04302 
L 332.949323 58.116645 
L 333.949323 58.15521 
L 334.949323 58.190623 
L 335.949323 58.248263 
L 336.949323 58.318649 
L 337.949323 58.370614 
L 338.949323 58.429703 
L 339.949323 58.518024 
L 340.949323 58.564169 
L 341.949323 58.60658 
L 342.949323 58.637072 
L 343.949323 58.663117 
L 344.949323 58.684317 
L 345.949323 58.738618 
L 346.949323 58.766556 
L 347.949323 58.79628 
L 348.949323 58.821675 
L 349.949323 58.832875 
L 350.949323 58.842999 
L 351.949323 58.842795 
L 352.949323 58.833285 
L 353.949323 58.821631 
L 354.949323 58.790602 
L 355.949323 58.779434 
L 356.949323 58.749317 
L 357.949323 58.68954 
L 358.949323 58.652348 
L 359.949323 58.613252 
L 360.949323 58.570812 
L 361.949323 58.538047 
L 362.949323 58.470621 
L 363.949323 58.431495 
L 364.949323 58.38882 
L 365.949323 58.31824 
L 366.949323 58.281849 
L 367.949323 58.223446 
L 368.949323 58.112493 
L 369.949323 58.041835 
L 370.949323 57.928895 
L 371.949323 57.883122 
L 373.319363 57.821839 
" style="fill:none;stroke:#1f77b4;stroke-linecap:round;"/>
        <path clip-path="url(#p51bedb1c6d)" d="M 369.319363 55.844375 
L 370.199732 56.319706 
L 371.077639 56.79996 
L 371.928352 57.334601 
L 373.230526 58.022048 
L 372.303173 58.048063 
L 371.391499 58.460783 
L 370.481235 58.876322 
L 369.138739 59.483126 
L 369.793638 58.844375 
L 369.845602 57.844375 
L 369.904692 55.844375 
L 369.319363 55.844375 
z
" style="fill:#ffffff;stroke:#ffffff;stroke-linecap:round;stroke-width:3;"/>
        <path clip-path="url(#p51bedb1c6d)" d="M 369.319363 55.844375 
L 370.199732 56.319706 
L 371.077639 56.79996 
L 371.928352 57.334601 
L 373.230526 58.022048 
L 372.303173 58.048063 
L 371.391499 58.460783 
L 370.481235 58.876322 
L 369.138739 59.483126 
L 369.793638 58.844375 
L 369.845602 57.844375 
L 369.904692 55.844375 
L 369.319363 55.844375 
z
" style="fill:#ffffff;stroke:#1f77b4;stroke-linecap:round;"/>
        <path clip-path="url(#p51bedb1c6d)" d="M 372.992224 67.879316 
L 370.992224 66.879316 
L 370.992224 68.879316 
z
" style="fill:#ff7f0e;fill-opacity:0.5;stroke:#ff7f0e;stroke-linejoin:miter;stroke-opacity:0.5;"/>
        <path clip-path="url(#p51bedb1c6d)" d="M 372.992224 231.218381 
L 370.992224 230.218381 
L 370.992224 232.218381 
z
" style="fill:#ff7f0e;fill-opacity:0.5;stroke:#ff7f0e;stroke-linejoin:miter;stroke-opacity:0.5;"/>
        <path clip-path="url(#p51bedb1c6d)" d="M 372.992224 68.246842 
L 370.992224 67.246842 
L 370.992224 69.246842 
z
" style="fill:#ff7f0e;fill-opacity:0.5;stroke:#ff7f0e;stroke-linejoin:miter;stroke-opacity:0.5;"/>
        <path clip-path="url(#p51bedb1c6d)" d="M 372.992224 197.251839 
L 370.992224 196.251839 
L 370.992224 198.251839 
z
" style="fill:#ff7f0e;fill-opacity:0.5;stroke:#ff7f0e;stroke-linejoin:miter;stroke-opacity:0.5;"/>
        <path clip-path="url(#p51bedb1c6d)" d="M 372.992224 174.665461 
L 370.992224 173.665461 
L 370.992224 175.665461 
z
" style="fill:#ff7f0e;fill-opacity:0.5;stroke:#ff7f0e;stroke-linejoin:miter;stroke-opacity:0.5;"/>
        <path clip-path="url(#p51bedb1c6d)" d="M 372.992224 92.747953 
L 370.992224 91.747953 
L 370.992224 93.747953 
z
" style="fill:#ff7f0e;fill-opacity:0.5;stroke:#ff7f0e;stroke-linejoin:miter;stroke-opacity:0.5;"/>
        <path clip-path="url(#p51bedb1c6d)" d="M 372.992224 177.527337 
L 370.992224 176.527337 
L 370.992224 178.527337 
z
" style="fill:#ff7f0e;fill-opacity:0.5;stroke:#ff7f0e;stroke-linejoin:miter;stroke-opacity:0.5;"/>
        <path clip-path="url(#p51bedb1c6d)" d="M 372.992224 149.08656 
L 370.992224 148.08656 
L 370.992224 150.08656 
z
" style="fill:#ff7f0e;fill-opacity:0.5;stroke:#ff7f0e;stroke-linejoin:miter;stroke-opacity:0.5;"/>
        <path clip-path="url(#p51bedb1c6d)" d="M 372.992224 254.839019 
L 370.992224 253.839019 
L 370.992224 255.839019 
z
" style="fill:#ff7f0e;fill-opacity:0.5;stroke:#ff7f0e;stroke-linejoin:miter;stroke-opacity:0.5;"/>
        <path clip-path="url(#p51bedb1c6d)" d="M 372.992224 107.777073 
L 370.992224 106.777073 
L 370.992224 108.777073 
z
" style="fill:#ff7f0e;fill-opacity:0.5;stroke:#ff7f0e;stroke-linejoin:miter;stroke-opacity:0.5;"/>
        <g id="patch_8">
         <path d="M 53.328125 260.421875 
L 53.328125 7.2 
" style="fill:none;stroke:#000000;stroke-linecap:square;stroke-linejoin:miter;stroke-width:0.8;"/>
        </g>
        <g id="text_11">
         <g id="patch_9">
          <path d="M 272.039062 39.36125 
L 278.889063 39.36125 
Q 280.889063 39.36125 280.889063 37.36125 
L 280.889063 27.683125 
Q 280.889063 25.683125 278.889063 25.683125 
L 272.039062 25.683125 
Q 270.039062 25.683125 270.039062 27.683125 
L 270.039062 37.36125 
Q 270.039062 39.36125 272.039062 39.36125 
z
" style="fill:#ffffff;opacity:0.6;"/>
         </g>
         <!-- X -->
         <g transform="translate(272.039062 35.281562)scale(0.1 -0.1)">
          <defs>
           <path d="M 403 4666 
L 1081 4666 
L 2241 2931 
L 3406 4666 
L 4084 4666 
L 2584 2425 
L 4184 0 
L 3506 0 
L 2194 1984 
L 872 0 
L 191 0 
L 1856 2491 
L 403 4666 
z
" id="DejaVuSans-58" transform="scale(0.015625)"/>
          </defs>
          <use xlink:href="#DejaVuSans-58"/>
         </g>
        </g>
       </g>
      </g>
      <defs>
       <clipPath id="p51bedb1c6d">
        <rect height="253.221875" width="444.271875" x="53.328125" y="7.2"/>
       </clipPath>
      </defs>
     </g>
    </g>
   </g>
  </g>
 </g>
</svg>
