<?xml version="1.0" encoding="utf-8" standalone="no"?>
<!DOCTYPE svg PUBLIC "-//W3C//DTD SVG 1.1//EN"
  "http://www.w3.org/Graphics/SVG/1.1/DTD/svg11.dtd">
<svg xmlns:xlink="http://www.w3.org/1999/xlink" width="504.8pt" height="280.8pt" viewBox="0 0 504.8 280.8" xmlns="http://www.w3.org/2000/svg" version="1.1">
 <metadata>
  <rdf:RDF xmlns:dc="http://purl.org/dc/elements/1.1/" xmlns:cc="http://creativecommons.org/ns#" xmlns:rdf="http://www.w3.org/1999/02/22-rdf-syntax-ns#">
   <cc:Work>
    <dc:type rdf:resource="http://purl.org/dc/dcmitype/StillImage"/>
    <dc:date>2021-12-05T18:31:11.736967</dc:date>
    <dc:format>image/svg+xml</dc:format>
    <dc:creator>
     <cc:Agent>
      <dc:title>Matplotlib v3.5.0, https://matplotlib.org/</dc:title>
     </cc:Agent>
    </dc:creator>
   </cc:Work>
  </rdf:RDF>
 </metadata>
 <defs>
  <style type="text/css">*{stroke-linejoin: round; stroke-linecap: butt}</style>
 </defs>
 <g id="figure_1">
  <g id="patch_1">
   <path d="M 0 280.8 
L 504.8 280.8 
L 504.8 0 
L 0 0 
L 0 280.8 
z
" style="fill: none"/>
  </g>
  <g id="axes_1">
   <g id="patch_2">
    <path d="M 53.328125 260.421875 
L 497.6 260.421875 
L 497.6 7.2 
L 53.328125 7.2 
z
" style="fill: #ffffff"/>
   </g>
   <path d="M 311.409696 67.879316 
L 310.409696 67.847879 
L 309.409696 67.810939 
L 308.409696 67.713192 
L 307.409696 67.680671 
L 306.409696 67.607046 
L 305.409696 67.56848 
L 304.409696 67.533067 
L 303.409696 67.475427 
L 302.409696 67.405041 
L 301.409696 67.353077 
L 300.409696 67.293987 
L 299.409696 67.205666 
L 298.409696 67.159522 
L 297.409696 67.117111 
L 296.409696 67.086618 
L 295.409696 67.060573 
L 294.409696 67.039373 
L 293.409696 66.985072 
L 292.409696 66.957135 
L 291.409696 66.927411 
L 290.409696 66.902016 
L 289.409696 66.890815 
L 288.409696 66.880691 
L 287.409696 66.880896 
L 286.409696 66.890406 
L 285.409696 66.902059 
L 284.409696 66.933088 
L 283.409696 66.944256 
L 282.409696 66.974374 
L 281.409696 67.034151 
L 280.409696 67.071342 
L 279.409696 67.110438 
L 278.409696 67.152878 
L 277.409696 67.185643 
L 276.409696 67.25307 
L 275.409696 67.292196 
L 274.409696 67.33487 
L 273.409696 67.405451 
L 272.409696 67.441842 
L 271.409696 67.500245 
L 270.409696 67.611197 
L 269.409696 67.681856 
L 268.409696 67.794795 
L 267.409696 67.840568 
L 266.409696 67.901852 
L 265.409696 67.950351 
L 264.409696 68.031174 
L 263.409696 68.149693 
L 262.409696 68.219903 
L 261.409696 68.303166 
L 260.409696 68.336307 
L 259.409696 68.387545 
L 258.409696 68.455943 
L 257.409696 68.522159 
L 256.409696 68.599076 
L 255.409696 68.626391 
L 254.409696 68.652869 
L 253.409696 68.675519 
L 252.409696 68.695051 
L 251.409696 68.721444 
L 250.409696 68.771215 
L 249.409696 68.806288 
L 248.409696 68.842154 
L 247.409696 68.857521 
L 246.409696 68.873291 
L 245.409696 68.876703 
L 244.409696 68.879121 
L 243.409696 68.878635 
L 242.409696 68.876705 
L 241.409696 68.863448 
L 239.518429 68.855058 
" clip-path="url(#p82ed3454ca)" style="fill: none; stroke: #ff7f0e; stroke-opacity: 0.5; stroke-width: 0.2; stroke-linecap: square"/>
   <path d="M 311.409696 231.218381 
L 310.409696 231.186945 
L 309.409696 231.150004 
L 308.409696 231.052258 
L 307.409696 231.019736 
L 306.409696 230.946111 
L 305.409696 230.907546 
L 304.409696 230.872133 
L 303.409696 230.814493 
L 302.409696 230.744107 
L 301.409696 230.692142 
L 300.409696 230.633053 
L 299.409696 230.544732 
L 298.409696 230.498587 
L 297.409696 230.456176 
L 296.409696 230.425684 
L 295.409696 230.399639 
L 294.409696 230.378439 
L 293.409696 230.324138 
L 292.409696 230.2962 
L 291.409696 230.266476 
L 290.409696 230.241081 
L 289.409696 230.229881 
L 288.409696 230.219757 
L 287.409696 230.219961 
L 286.409696 230.229471 
L 285.409696 230.241125 
L 284.409696 230.272154 
L 283.409696 230.283322 
L 282.409696 230.313439 
L 281.409696 230.373216 
L 280.409696 230.410408 
L 279.409696 230.449504 
L 278.409696 230.491944 
L 277.409696 230.524709 
L 276.409696 230.592135 
L 275.409696 230.631261 
L 274.409696 230.673936 
L 273.409696 230.744516 
L 272.409696 230.780907 
L 271.409696 230.83931 
L 270.409696 230.950263 
L 269.409696 231.020921 
L 268.409696 231.133861 
L 267.409696 231.179634 
L 266.409696 231.240917 
L 265.409696 231.289416 
L 264.409696 231.370239 
L 263.409696 231.488758 
L 262.409696 231.558969 
L 261.409696 231.642231 
L 260.409696 231.675373 
L 259.409696 231.72661 
L 258.409696 231.795009 
L 257.409696 231.861224 
L 256.409696 231.938141 
L 255.409696 231.965457 
L 254.409696 231.991934 
L 253.409696 232.014585 
L 252.409696 232.034116 
L 251.409696 232.06051 
L 250.409696 232.110281 
L 249.409696 232.145354 
L 248.409696 232.18122 
L 247.409696 232.196587 
L 246.409696 232.212356 
L 245.409696 232.215769 
L 244.409696 232.218186 
L 243.409696 232.2177 
L 242.409696 232.215771 
L 241.409696 232.202514 
L 239.518429 232.194124 
" clip-path="url(#p82ed3454ca)" style="fill: none; stroke: #ff7f0e; stroke-opacity: 0.5; stroke-width: 0.2; stroke-linecap: square"/>
   <path d="M 311.409696 68.246842 
L 310.409696 68.215405 
L 309.409696 68.178465 
L 308.409696 68.080718 
L 307.409696 68.048197 
L 306.409696 67.974572 
L 305.409696 67.936006 
L 304.409696 67.900593 
L 303.409696 67.842953 
L 302.409696 67.772567 
L 301.409696 67.720603 
L 300.409696 67.661513 
L 299.409696 67.573192 
L 298.409696 67.527048 
L 297.409696 67.484637 
L 296.409696 67.454144 
L 295.409696 67.428099 
L 294.409696 67.406899 
L 293.409696 67.352598 
L 292.409696 67.324661 
L 291.409696 67.294937 
L 290.409696 67.269542 
L 289.409696 67.258341 
L 288.409696 67.248217 
L 287.409696 67.248422 
L 286.409696 67.257932 
L 285.409696 67.269585 
L 284.409696 67.300614 
L 283.409696 67.311782 
L 282.409696 67.3419 
L 281.409696 67.401677 
L 280.409696 67.438868 
L 279.409696 67.477964 
L 278.409696 67.520404 
L 277.409696 67.553169 
L 276.409696 67.620596 
L 275.409696 67.659722 
L 274.409696 67.702396 
L 273.409696 67.772977 
L 272.409696 67.809368 
L 271.409696 67.867771 
L 270.409696 67.978723 
L 269.409696 68.049382 
L 268.409696 68.162322 
L 267.409696 68.208094 
L 266.409696 68.269378 
L 265.409696 68.317877 
L 264.409696 68.3987 
L 263.409696 68.517219 
L 262.409696 68.587429 
L 261.409696 68.670692 
L 260.409696 68.703833 
L 259.409696 68.755071 
L 258.409696 68.823469 
L 257.409696 68.889685 
L 256.409696 68.966602 
L 255.409696 68.993917 
L 254.409696 69.020395 
L 253.409696 69.043045 
L 252.409696 69.062577 
L 251.409696 69.088971 
L 250.409696 69.138741 
L 249.409696 69.173814 
L 248.409696 69.20968 
L 247.409696 69.225047 
L 246.409696 69.240817 
L 245.409696 69.244229 
L 244.409696 69.246647 
L 243.409696 69.246161 
L 242.409696 69.244231 
L 241.409696 69.230974 
L 239.518429 69.222584 
" clip-path="url(#p82ed3454ca)" style="fill: none; stroke: #ff7f0e; stroke-opacity: 0.5; stroke-width: 0.2; stroke-linecap: square"/>
   <path d="M 311.409696 197.251839 
L 310.409696 197.220403 
L 309.409696 197.183462 
L 308.409696 197.085716 
L 307.409696 197.053194 
L 306.409696 196.979569 
L 305.409696 196.941004 
L 304.409696 196.905591 
L 303.409696 196.847951 
L 302.409696 196.777565 
L 301.409696 196.7256 
L 300.409696 196.666511 
L 299.409696 196.57819 
L 298.409696 196.532045 
L 297.409696 196.489634 
L 296.409696 196.459142 
L 295.409696 196.433097 
L 294.409696 196.411897 
L 293.409696 196.357596 
L 292.409696 196.329658 
L 291.409696 196.299934 
L 290.409696 196.274539 
L 289.409696 196.263339 
L 288.409696 196.253215 
L 287.409696 196.253419 
L 286.409696 196.262929 
L 285.409696 196.274583 
L 284.409696 196.305612 
L 283.409696 196.31678 
L 282.409696 196.346897 
L 281.409696 196.406674 
L 280.409696 196.443866 
L 279.409696 196.482962 
L 278.409696 196.525402 
L 277.409696 196.558167 
L 276.409696 196.625593 
L 275.409696 196.664719 
L 274.409696 196.707394 
L 273.409696 196.777974 
L 272.409696 196.814365 
L 271.409696 196.872768 
L 270.409696 196.983721 
L 269.409696 197.054379 
L 268.409696 197.167319 
L 267.409696 197.213092 
L 266.409696 197.274375 
L 265.409696 197.322874 
L 264.409696 197.403697 
L 263.409696 197.522216 
L 262.409696 197.592427 
L 261.409696 197.675689 
L 260.409696 197.708831 
L 259.409696 197.760068 
L 258.409696 197.828467 
L 257.409696 197.894682 
L 256.409696 197.971599 
L 255.409696 197.998915 
L 254.409696 198.025392 
L 253.409696 198.048043 
L 252.409696 198.067574 
L 251.409696 198.093968 
L 250.409696 198.143739 
L 249.409696 198.178812 
L 248.409696 198.214678 
L 247.409696 198.230045 
L 246.409696 198.245814 
L 245.409696 198.249227 
L 244.409696 198.251644 
L 243.409696 198.251158 
L 242.409696 198.249229 
L 241.409696 198.235972 
L 239.518429 198.227582 
" clip-path="url(#p82ed3454ca)" style="fill: none; stroke: #ff7f0e; stroke-opacity: 0.5; stroke-width: 0.2; stroke-linecap: square"/>
   <path d="M 311.409696 174.665461 
L 310.409696 174.634025 
L 309.409696 174.597085 
L 308.409696 174.499338 
L 307.409696 174.466816 
L 306.409696 174.393192 
L 305.409696 174.354626 
L 304.409696 174.319213 
L 303.409696 174.261573 
L 302.409696 174.191187 
L 301.409696 174.139223 
L 300.409696 174.080133 
L 299.409696 173.991812 
L 298.409696 173.945668 
L 297.409696 173.903257 
L 296.409696 173.872764 
L 295.409696 173.846719 
L 294.409696 173.825519 
L 293.409696 173.771218 
L 292.409696 173.74328 
L 291.409696 173.713556 
L 290.409696 173.688162 
L 289.409696 173.676961 
L 288.409696 173.666837 
L 287.409696 173.667042 
L 286.409696 173.676551 
L 285.409696 173.688205 
L 284.409696 173.719234 
L 283.409696 173.730402 
L 282.409696 173.76052 
L 281.409696 173.820297 
L 280.409696 173.857488 
L 279.409696 173.896584 
L 278.409696 173.939024 
L 277.409696 173.971789 
L 276.409696 174.039215 
L 275.409696 174.078341 
L 274.409696 174.121016 
L 273.409696 174.191596 
L 272.409696 174.227987 
L 271.409696 174.286391 
L 270.409696 174.397343 
L 269.409696 174.468001 
L 268.409696 174.580941 
L 267.409696 174.626714 
L 266.409696 174.687997 
L 265.409696 174.736497 
L 264.409696 174.817319 
L 263.409696 174.935838 
L 262.409696 175.006049 
L 261.409696 175.089311 
L 260.409696 175.122453 
L 259.409696 175.17369 
L 258.409696 175.242089 
L 257.409696 175.308304 
L 256.409696 175.385221 
L 255.409696 175.412537 
L 254.409696 175.439014 
L 253.409696 175.461665 
L 252.409696 175.481196 
L 251.409696 175.50759 
L 250.409696 175.557361 
L 249.409696 175.592434 
L 248.409696 175.6283 
L 247.409696 175.643667 
L 246.409696 175.659436 
L 245.409696 175.662849 
L 244.409696 175.665267 
L 243.409696 175.66478 
L 242.409696 175.662851 
L 241.409696 175.649594 
L 239.518429 175.641204 
" clip-path="url(#p82ed3454ca)" style="fill: none; stroke: #ff7f0e; stroke-opacity: 0.5; stroke-width: 0.2; stroke-linecap: square"/>
   <path d="M 311.409696 92.747953 
L 310.409696 92.716516 
L 309.409696 92.679576 
L 308.409696 92.581829 
L 307.409696 92.549308 
L 306.409696 92.475683 
L 305.409696 92.437118 
L 304.409696 92.401704 
L 303.409696 92.344064 
L 302.409696 92.273678 
L 301.409696 92.221714 
L 300.409696 92.162624 
L 299.409696 92.074303 
L 298.409696 92.028159 
L 297.409696 91.985748 
L 296.409696 91.955255 
L 295.409696 91.92921 
L 294.409696 91.90801 
L 293.409696 91.853709 
L 292.409696 91.825772 
L 291.409696 91.796048 
L 290.409696 91.770653 
L 289.409696 91.759453 
L 288.409696 91.749329 
L 287.409696 91.749533 
L 286.409696 91.759043 
L 285.409696 91.770696 
L 284.409696 91.801726 
L 283.409696 91.812894 
L 282.409696 91.843011 
L 281.409696 91.902788 
L 280.409696 91.93998 
L 279.409696 91.979076 
L 278.409696 92.021515 
L 277.409696 92.05428 
L 276.409696 92.121707 
L 275.409696 92.160833 
L 274.409696 92.203507 
L 273.409696 92.274088 
L 272.409696 92.310479 
L 271.409696 92.368882 
L 270.409696 92.479835 
L 269.409696 92.550493 
L 268.409696 92.663433 
L 267.409696 92.709206 
L 266.409696 92.770489 
L 265.409696 92.818988 
L 264.409696 92.899811 
L 263.409696 93.01833 
L 262.409696 93.08854 
L 261.409696 93.171803 
L 260.409696 93.204945 
L 259.409696 93.256182 
L 258.409696 93.32458 
L 257.409696 93.390796 
L 256.409696 93.467713 
L 255.409696 93.495028 
L 254.409696 93.521506 
L 253.409696 93.544156 
L 252.409696 93.563688 
L 251.409696 93.590082 
L 250.409696 93.639853 
L 249.409696 93.674926 
L 248.409696 93.710791 
L 247.409696 93.726159 
L 246.409696 93.741928 
L 245.409696 93.74534 
L 244.409696 93.747758 
L 243.409696 93.747272 
L 242.409696 93.745343 
L 241.409696 93.732086 
L 239.518429 93.723695 
" clip-path="url(#p82ed3454ca)" style="fill: none; stroke: #ff7f0e; stroke-opacity: 0.5; stroke-width: 0.2; stroke-linecap: square"/>
   <path d="M 311.409696 177.527337 
L 310.409696 177.495901 
L 309.409696 177.45896 
L 308.409696 177.361214 
L 307.409696 177.328692 
L 306.409696 177.255067 
L 305.409696 177.216502 
L 304.409696 177.181089 
L 303.409696 177.123449 
L 302.409696 177.053062 
L 301.409696 177.001098 
L 300.409696 176.942008 
L 299.409696 176.853688 
L 298.409696 176.807543 
L 297.409696 176.765132 
L 296.409696 176.73464 
L 295.409696 176.708595 
L 294.409696 176.687395 
L 293.409696 176.633093 
L 292.409696 176.605156 
L 291.409696 176.575432 
L 290.409696 176.550037 
L 289.409696 176.538837 
L 288.409696 176.528713 
L 287.409696 176.528917 
L 286.409696 176.538427 
L 285.409696 176.550081 
L 284.409696 176.58111 
L 283.409696 176.592278 
L 282.409696 176.622395 
L 281.409696 176.682172 
L 280.409696 176.719364 
L 279.409696 176.75846 
L 278.409696 176.800899 
L 277.409696 176.833665 
L 276.409696 176.901091 
L 275.409696 176.940217 
L 274.409696 176.982891 
L 273.409696 177.053472 
L 272.409696 177.089863 
L 271.409696 177.148266 
L 270.409696 177.259219 
L 269.409696 177.329877 
L 268.409696 177.442817 
L 267.409696 177.48859 
L 266.409696 177.549873 
L 265.409696 177.598372 
L 264.409696 177.679195 
L 263.409696 177.797714 
L 262.409696 177.867925 
L 261.409696 177.951187 
L 260.409696 177.984329 
L 259.409696 178.035566 
L 258.409696 178.103964 
L 257.409696 178.17018 
L 256.409696 178.247097 
L 255.409696 178.274412 
L 254.409696 178.30089 
L 253.409696 178.323541 
L 252.409696 178.343072 
L 251.409696 178.369466 
L 250.409696 178.419237 
L 249.409696 178.45431 
L 248.409696 178.490175 
L 247.409696 178.505543 
L 246.409696 178.521312 
L 245.409696 178.524725 
L 244.409696 178.527142 
L 243.409696 178.526656 
L 242.409696 178.524727 
L 241.409696 178.51147 
L 239.518429 178.503079 
" clip-path="url(#p82ed3454ca)" style="fill: none; stroke: #ff7f0e; stroke-opacity: 0.5; stroke-width: 0.2; stroke-linecap: square"/>
   <path d="M 311.409696 149.08656 
L 310.409696 149.055123 
L 309.409696 149.018183 
L 308.409696 148.920436 
L 307.409696 148.887915 
L 306.409696 148.81429 
L 305.409696 148.775725 
L 304.409696 148.740311 
L 303.409696 148.682671 
L 302.409696 148.612285 
L 301.409696 148.560321 
L 300.409696 148.501231 
L 299.409696 148.41291 
L 298.409696 148.366766 
L 297.409696 148.324355 
L 296.409696 148.293862 
L 295.409696 148.267817 
L 294.409696 148.246617 
L 293.409696 148.192316 
L 292.409696 148.164379 
L 291.409696 148.134655 
L 290.409696 148.10926 
L 289.409696 148.098059 
L 288.409696 148.087936 
L 287.409696 148.08814 
L 286.409696 148.09765 
L 285.409696 148.109303 
L 284.409696 148.140333 
L 283.409696 148.1515 
L 282.409696 148.181618 
L 281.409696 148.241395 
L 280.409696 148.278586 
L 279.409696 148.317683 
L 278.409696 148.360122 
L 277.409696 148.392887 
L 276.409696 148.460314 
L 275.409696 148.49944 
L 274.409696 148.542114 
L 273.409696 148.612695 
L 272.409696 148.649086 
L 271.409696 148.707489 
L 270.409696 148.818441 
L 269.409696 148.8891 
L 268.409696 149.00204 
L 267.409696 149.047812 
L 266.409696 149.109096 
L 265.409696 149.157595 
L 264.409696 149.238418 
L 263.409696 149.356937 
L 262.409696 149.427147 
L 261.409696 149.51041 
L 260.409696 149.543552 
L 259.409696 149.594789 
L 258.409696 149.663187 
L 257.409696 149.729403 
L 256.409696 149.80632 
L 255.409696 149.833635 
L 254.409696 149.860113 
L 253.409696 149.882763 
L 252.409696 149.902295 
L 251.409696 149.928689 
L 250.409696 149.978459 
L 249.409696 150.013533 
L 248.409696 150.049398 
L 247.409696 150.064766 
L 246.409696 150.080535 
L 245.409696 150.083947 
L 244.409696 150.086365 
L 243.409696 150.085879 
L 242.409696 150.08395 
L 241.409696 150.070693 
L 239.518429 150.062302 
" clip-path="url(#p82ed3454ca)" style="fill: none; stroke: #ff7f0e; stroke-opacity: 0.5; stroke-width: 0.2; stroke-linecap: square"/>
   <path d="M 311.409696 254.839019 
L 310.409696 254.807582 
L 309.409696 254.770642 
L 308.409696 254.672895 
L 307.409696 254.640374 
L 306.409696 254.566749 
L 305.409696 254.528184 
L 304.409696 254.49277 
L 303.409696 254.43513 
L 302.409696 254.364744 
L 301.409696 254.31278 
L 300.409696 254.25369 
L 299.409696 254.165369 
L 298.409696 254.119225 
L 297.409696 254.076814 
L 296.409696 254.046321 
L 295.409696 254.020276 
L 294.409696 253.999076 
L 293.409696 253.944775 
L 292.409696 253.916838 
L 291.409696 253.887114 
L 290.409696 253.861719 
L 289.409696 253.850518 
L 288.409696 253.840395 
L 287.409696 253.840599 
L 286.409696 253.850109 
L 285.409696 253.861762 
L 284.409696 253.892792 
L 283.409696 253.903959 
L 282.409696 253.934077 
L 281.409696 253.993854 
L 280.409696 254.031045 
L 279.409696 254.070142 
L 278.409696 254.112581 
L 277.409696 254.145346 
L 276.409696 254.212773 
L 275.409696 254.251899 
L 274.409696 254.294573 
L 273.409696 254.365154 
L 272.409696 254.401545 
L 271.409696 254.459948 
L 270.409696 254.5709 
L 269.409696 254.641559 
L 268.409696 254.754499 
L 267.409696 254.800271 
L 266.409696 254.861555 
L 265.409696 254.910054 
L 264.409696 254.990877 
L 263.409696 255.109396 
L 262.409696 255.179606 
L 261.409696 255.262869 
L 260.409696 255.296011 
L 259.409696 255.347248 
L 258.409696 255.415646 
L 257.409696 255.481862 
L 256.409696 255.558779 
L 255.409696 255.586094 
L 254.409696 255.612572 
L 253.409696 255.635222 
L 252.409696 255.654754 
L 251.409696 255.681148 
L 250.409696 255.730918 
L 249.409696 255.765992 
L 248.409696 255.801857 
L 247.409696 255.817225 
L 246.409696 255.832994 
L 245.409696 255.836406 
L 244.409696 255.838824 
L 243.409696 255.838338 
L 242.409696 255.836409 
L 241.409696 255.823152 
L 239.518429 255.814761 
" clip-path="url(#p82ed3454ca)" style="fill: none; stroke: #ff7f0e; stroke-opacity: 0.5; stroke-width: 0.2; stroke-linecap: square"/>
   <path d="M 311.409696 107.777073 
L 310.409696 107.745637 
L 309.409696 107.708696 
L 308.409696 107.61095 
L 307.409696 107.578428 
L 306.409696 107.504804 
L 305.409696 107.466238 
L 304.409696 107.430825 
L 303.409696 107.373185 
L 302.409696 107.302799 
L 301.409696 107.250835 
L 300.409696 107.191745 
L 299.409696 107.103424 
L 298.409696 107.05728 
L 297.409696 107.014869 
L 296.409696 106.984376 
L 295.409696 106.958331 
L 294.409696 106.937131 
L 293.409696 106.88283 
L 292.409696 106.854892 
L 291.409696 106.825168 
L 290.409696 106.799773 
L 289.409696 106.788573 
L 288.409696 106.778449 
L 287.409696 106.778653 
L 286.409696 106.788163 
L 285.409696 106.799817 
L 284.409696 106.830846 
L 283.409696 106.842014 
L 282.409696 106.872132 
L 281.409696 106.931909 
L 280.409696 106.9691 
L 279.409696 107.008196 
L 278.409696 107.050636 
L 277.409696 107.083401 
L 276.409696 107.150827 
L 275.409696 107.189953 
L 274.409696 107.232628 
L 273.409696 107.303208 
L 272.409696 107.339599 
L 271.409696 107.398002 
L 270.409696 107.508955 
L 269.409696 107.579613 
L 268.409696 107.692553 
L 267.409696 107.738326 
L 266.409696 107.799609 
L 265.409696 107.848109 
L 264.409696 107.928931 
L 263.409696 108.04745 
L 262.409696 108.117661 
L 261.409696 108.200923 
L 260.409696 108.234065 
L 259.409696 108.285302 
L 258.409696 108.353701 
L 257.409696 108.419916 
L 256.409696 108.496833 
L 255.409696 108.524149 
L 254.409696 108.550626 
L 253.409696 108.573277 
L 252.409696 108.592808 
L 251.409696 108.619202 
L 250.409696 108.668973 
L 249.409696 108.704046 
L 248.409696 108.739912 
L 247.409696 108.755279 
L 246.409696 108.771048 
L 245.409696 108.774461 
L 244.409696 108.776879 
L 243.409696 108.776392 
L 242.409696 108.774463 
L 241.409696 108.761206 
L 239.518429 108.752816 
" clip-path="url(#p82ed3454ca)" style="fill: none; stroke: #ff7f0e; stroke-opacity: 0.5; stroke-width: 0.2; stroke-linecap: square"/>
   <g id="patch_3">
    <path d="M 73.522301 7.2 
L 73.522301 260.421875 
M 235.07571 7.2 
L 235.07571 260.421875 
" clip-path="url(#p82ed3454ca)" style="fill: none; stroke: #ffffff; stroke-width: 3; stroke-linejoin: miter"/>
    <path d="M 73.522301 7.2 
L 73.522301 260.421875 
M 235.07571 7.2 
L 235.07571 260.421875 
" clip-path="url(#p82ed3454ca)" style="fill: none; stroke: #1f77b4; stroke-linejoin: miter"/>
    <g id="PolyCollection_1">
     <path d="M 235.07571 7.2 
L 73.522301 7.2 
L 73.522301 260.421875 
L 235.07571 260.421875 
L 235.07571 260.421875 
L 235.07571 7.2 
z
" clip-path="url(#p82ed3454ca)" style="fill: #1f77b4; fill-opacity: 0.5"/>
    </g>
    <g id="patch_4">
     <path d="M 315.852415 57.844375 
L 315.852415 260.421875 
M 477.405824 57.844375 
L 477.405824 260.421875 
" clip-path="url(#p82ed3454ca)" style="fill: none; stroke: #ffffff; stroke-width: 3; stroke-linejoin: miter"/>
     <path d="M 315.852415 57.844375 
L 315.852415 260.421875 
M 477.405824 57.844375 
L 477.405824 260.421875 
" clip-path="url(#p82ed3454ca)" style="fill: none; stroke: #ff7f0e; stroke-linejoin: miter"/>
     <g id="PolyCollection_2">
      <path d="M 477.405824 57.844375 
L 315.852415 57.844375 
L 315.852415 260.421875 
L 477.405824 260.421875 
L 477.405824 260.421875 
L 477.405824 57.844375 
z
" clip-path="url(#p82ed3454ca)" style="fill: #ff7f0e; fill-opacity: 0.5"/>
     </g>
     <g id="matplotlib.axis_1">
      <g id="xtick_1">
       <g id="line2d_1"/>
       <g id="text_1">
        <!-- X -->
        <g transform="translate(150.874006 271.520312)scale(0.1 -0.1)">
         <defs>
          <path id="DejaVuSans-58" d="M 403 4666 
L 1081 4666 
L 2241 2931 
L 3406 4666 
L 4084 4666 
L 2584 2425 
L 4184 0 
L 3506 0 
L 2194 1984 
L 872 0 
L 191 0 
L 1856 2491 
L 403 4666 
z
" transform="scale(0.015625)"/>
         </defs>
         <use xlink:href="#DejaVuSans-58"/>
        </g>
       </g>
      </g>
      <g id="xtick_2">
       <g id="line2d_2"/>
       <g id="text_2">
        <!-- A -->
        <g transform="translate(393.208807 271.520312)scale(0.1 -0.1)">
         <defs>
          <path id="DejaVuSans-41" d="M 2188 4044 
L 1331 1722 
L 3047 1722 
L 2188 4044 
z
M 1831 4666 
L 2547 4666 
L 4325 0 
L 3669 0 
L 3244 1197 
L 1141 1197 
L 716 0 
L 50 0 
L 1831 4666 
z
" transform="scale(0.015625)"/>
         </defs>
         <use xlink:href="#DejaVuSans-41"/>
        </g>
       </g>
      </g>
     </g>
     <g id="matplotlib.axis_2">
      <g id="ytick_1">
       <g id="line2d_3">
        <defs>
         <path id="md3e12a9968" d="M 0 0 
L -3.5 0 
" style="stroke: #000000; stroke-width: 0.8"/>
        </defs>
        <g>
         <use xlink:href="#md3e12a9968" x="53.328125" y="260.421875" style="stroke: #000000; stroke-width: 0.8"/>
        </g>
       </g>
       <g id="text_3">
        <!-- 0 -->
        <g transform="translate(39.965625 264.221094)scale(0.1 -0.1)">
         <defs>
          <path id="DejaVuSans-30" d="M 2034 4250 
Q 1547 4250 1301 3770 
Q 1056 3291 1056 2328 
Q 1056 1369 1301 889 
Q 1547 409 2034 409 
Q 2525 409 2770 889 
Q 3016 1369 3016 2328 
Q 3016 3291 2770 3770 
Q 2525 4250 2034 4250 
z
M 2034 4750 
Q 2819 4750 3233 4129 
Q 3647 3509 3647 2328 
Q 3647 1150 3233 529 
Q 2819 -91 2034 -91 
Q 1250 -91 836 529 
Q 422 1150 422 2328 
Q 422 3509 836 4129 
Q 1250 4750 2034 4750 
z
" transform="scale(0.015625)"/>
         </defs>
         <use xlink:href="#DejaVuSans-30"/>
        </g>
       </g>
      </g>
      <g id="ytick_2">
       <g id="line2d_4">
        <g>
         <use xlink:href="#md3e12a9968" x="53.328125" y="219.906375" style="stroke: #000000; stroke-width: 0.8"/>
        </g>
       </g>
       <g id="text_4">
        <!-- 200 -->
        <g transform="translate(27.240625 223.705594)scale(0.1 -0.1)">
         <defs>
          <path id="DejaVuSans-32" d="M 1228 531 
L 3431 531 
L 3431 0 
L 469 0 
L 469 531 
Q 828 903 1448 1529 
Q 2069 2156 2228 2338 
Q 2531 2678 2651 2914 
Q 2772 3150 2772 3378 
Q 2772 3750 2511 3984 
Q 2250 4219 1831 4219 
Q 1534 4219 1204 4116 
Q 875 4013 500 3803 
L 500 4441 
Q 881 4594 1212 4672 
Q 1544 4750 1819 4750 
Q 2544 4750 2975 4387 
Q 3406 4025 3406 3419 
Q 3406 3131 3298 2873 
Q 3191 2616 2906 2266 
Q 2828 2175 2409 1742 
Q 1991 1309 1228 531 
z
" transform="scale(0.015625)"/>
         </defs>
         <use xlink:href="#DejaVuSans-32"/>
         <use xlink:href="#DejaVuSans-30" x="63.623047"/>
         <use xlink:href="#DejaVuSans-30" x="127.246094"/>
        </g>
       </g>
      </g>
      <g id="ytick_3">
       <g id="line2d_5">
        <g>
         <use xlink:href="#md3e12a9968" x="53.328125" y="179.390875" style="stroke: #000000; stroke-width: 0.8"/>
        </g>
       </g>
       <g id="text_5">
        <!-- 400 -->
        <g transform="translate(27.240625 183.190094)scale(0.1 -0.1)">
         <defs>
          <path id="DejaVuSans-34" d="M 2419 4116 
L 825 1625 
L 2419 1625 
L 2419 4116 
z
M 2253 4666 
L 3047 4666 
L 3047 1625 
L 3713 1625 
L 3713 1100 
L 3047 1100 
L 3047 0 
L 2419 0 
L 2419 1100 
L 313 1100 
L 313 1709 
L 2253 4666 
z
" transform="scale(0.015625)"/>
         </defs>
         <use xlink:href="#DejaVuSans-34"/>
         <use xlink:href="#DejaVuSans-30" x="63.623047"/>
         <use xlink:href="#DejaVuSans-30" x="127.246094"/>
        </g>
       </g>
      </g>
      <g id="ytick_4">
       <g id="line2d_6">
        <g>
         <use xlink:href="#md3e12a9968" x="53.328125" y="138.875375" style="stroke: #000000; stroke-width: 0.8"/>
        </g>
       </g>
       <g id="text_6">
        <!-- 600 -->
        <g transform="translate(27.240625 142.674594)scale(0.1 -0.1)">
         <defs>
          <path id="DejaVuSans-36" d="M 2113 2584 
Q 1688 2584 1439 2293 
Q 1191 2003 1191 1497 
Q 1191 994 1439 701 
Q 1688 409 2113 409 
Q 2538 409 2786 701 
Q 3034 994 3034 1497 
Q 3034 2003 2786 2293 
Q 2538 2584 2113 2584 
z
M 3366 4563 
L 3366 3988 
Q 3128 4100 2886 4159 
Q 2644 4219 2406 4219 
Q 1781 4219 1451 3797 
Q 1122 3375 1075 2522 
Q 1259 2794 1537 2939 
Q 1816 3084 2150 3084 
Q 2853 3084 3261 2657 
Q 3669 2231 3669 1497 
Q 3669 778 3244 343 
Q 2819 -91 2113 -91 
Q 1303 -91 875 529 
Q 447 1150 447 2328 
Q 447 3434 972 4092 
Q 1497 4750 2381 4750 
Q 2619 4750 2861 4703 
Q 3103 4656 3366 4563 
z
" transform="scale(0.015625)"/>
         </defs>
         <use xlink:href="#DejaVuSans-36"/>
         <use xlink:href="#DejaVuSans-30" x="63.623047"/>
         <use xlink:href="#DejaVuSans-30" x="127.246094"/>
        </g>
       </g>
      </g>
      <g id="ytick_5">
       <g id="line2d_7">
        <g>
         <use xlink:href="#md3e12a9968" x="53.328125" y="98.359875" style="stroke: #000000; stroke-width: 0.8"/>
        </g>
       </g>
       <g id="text_7">
        <!-- 800 -->
        <g transform="translate(27.240625 102.159094)scale(0.1 -0.1)">
         <defs>
          <path id="DejaVuSans-38" d="M 2034 2216 
Q 1584 2216 1326 1975 
Q 1069 1734 1069 1313 
Q 1069 891 1326 650 
Q 1584 409 2034 409 
Q 2484 409 2743 651 
Q 3003 894 3003 1313 
Q 3003 1734 2745 1975 
Q 2488 2216 2034 2216 
z
M 1403 2484 
Q 997 2584 770 2862 
Q 544 3141 544 3541 
Q 544 4100 942 4425 
Q 1341 4750 2034 4750 
Q 2731 4750 3128 4425 
Q 3525 4100 3525 3541 
Q 3525 3141 3298 2862 
Q 3072 2584 2669 2484 
Q 3125 2378 3379 2068 
Q 3634 1759 3634 1313 
Q 3634 634 3220 271 
Q 2806 -91 2034 -91 
Q 1263 -91 848 271 
Q 434 634 434 1313 
Q 434 1759 690 2068 
Q 947 2378 1403 2484 
z
M 1172 3481 
Q 1172 3119 1398 2916 
Q 1625 2713 2034 2713 
Q 2441 2713 2670 2916 
Q 2900 3119 2900 3481 
Q 2900 3844 2670 4047 
Q 2441 4250 2034 4250 
Q 1625 4250 1398 4047 
Q 1172 3844 1172 3481 
z
" transform="scale(0.015625)"/>
         </defs>
         <use xlink:href="#DejaVuSans-38"/>
         <use xlink:href="#DejaVuSans-30" x="63.623047"/>
         <use xlink:href="#DejaVuSans-30" x="127.246094"/>
        </g>
       </g>
      </g>
      <g id="ytick_6">
       <g id="line2d_8">
        <g>
         <use xlink:href="#md3e12a9968" x="53.328125" y="57.844375" style="stroke: #000000; stroke-width: 0.8"/>
        </g>
       </g>
       <g id="text_8">
        <!-- 1000 -->
        <g transform="translate(20.878125 61.643594)scale(0.1 -0.1)">
         <defs>
          <path id="DejaVuSans-31" d="M 794 531 
L 1825 531 
L 1825 4091 
L 703 3866 
L 703 4441 
L 1819 4666 
L 2450 4666 
L 2450 531 
L 3481 531 
L 3481 0 
L 794 0 
L 794 531 
z
" transform="scale(0.015625)"/>
         </defs>
         <use xlink:href="#DejaVuSans-31"/>
         <use xlink:href="#DejaVuSans-30" x="63.623047"/>
         <use xlink:href="#DejaVuSans-30" x="127.246094"/>
         <use xlink:href="#DejaVuSans-30" x="190.869141"/>
        </g>
       </g>
      </g>
      <g id="ytick_7">
       <g id="line2d_9">
        <g>
         <use xlink:href="#md3e12a9968" x="53.328125" y="17.328875" style="stroke: #000000; stroke-width: 0.8"/>
        </g>
       </g>
       <g id="text_9">
        <!-- 1200 -->
        <g transform="translate(20.878125 21.128094)scale(0.1 -0.1)">
         <use xlink:href="#DejaVuSans-31"/>
         <use xlink:href="#DejaVuSans-32" x="63.623047"/>
         <use xlink:href="#DejaVuSans-30" x="127.246094"/>
         <use xlink:href="#DejaVuSans-30" x="190.869141"/>
        </g>
       </g>
      </g>
      <g id="text_10">
       <!-- time ago (generations) -->
       <g transform="translate(14.798438 191.282031)rotate(-90)scale(0.1 -0.1)">
        <defs>
         <path id="DejaVuSans-74" d="M 1172 4494 
L 1172 3500 
L 2356 3500 
L 2356 3053 
L 1172 3053 
L 1172 1153 
Q 1172 725 1289 603 
Q 1406 481 1766 481 
L 2356 481 
L 2356 0 
L 1766 0 
Q 1100 0 847 248 
Q 594 497 594 1153 
L 594 3053 
L 172 3053 
L 172 3500 
L 594 3500 
L 594 4494 
L 1172 4494 
z
" transform="scale(0.015625)"/>
         <path id="DejaVuSans-69" d="M 603 3500 
L 1178 3500 
L 1178 0 
L 603 0 
L 603 3500 
z
M 603 4863 
L 1178 4863 
L 1178 4134 
L 603 4134 
L 603 4863 
z
" transform="scale(0.015625)"/>
         <path id="DejaVuSans-6d" d="M 3328 2828 
Q 3544 3216 3844 3400 
Q 4144 3584 4550 3584 
Q 5097 3584 5394 3201 
Q 5691 2819 5691 2113 
L 5691 0 
L 5113 0 
L 5113 2094 
Q 5113 2597 4934 2840 
Q 4756 3084 4391 3084 
Q 3944 3084 3684 2787 
Q 3425 2491 3425 1978 
L 3425 0 
L 2847 0 
L 2847 2094 
Q 2847 2600 2669 2842 
Q 2491 3084 2119 3084 
Q 1678 3084 1418 2786 
Q 1159 2488 1159 1978 
L 1159 0 
L 581 0 
L 581 3500 
L 1159 3500 
L 1159 2956 
Q 1356 3278 1631 3431 
Q 1906 3584 2284 3584 
Q 2666 3584 2933 3390 
Q 3200 3197 3328 2828 
z
" transform="scale(0.015625)"/>
         <path id="DejaVuSans-65" d="M 3597 1894 
L 3597 1613 
L 953 1613 
Q 991 1019 1311 708 
Q 1631 397 2203 397 
Q 2534 397 2845 478 
Q 3156 559 3463 722 
L 3463 178 
Q 3153 47 2828 -22 
Q 2503 -91 2169 -91 
Q 1331 -91 842 396 
Q 353 884 353 1716 
Q 353 2575 817 3079 
Q 1281 3584 2069 3584 
Q 2775 3584 3186 3129 
Q 3597 2675 3597 1894 
z
M 3022 2063 
Q 3016 2534 2758 2815 
Q 2500 3097 2075 3097 
Q 1594 3097 1305 2825 
Q 1016 2553 972 2059 
L 3022 2063 
z
" transform="scale(0.015625)"/>
         <path id="DejaVuSans-20" transform="scale(0.015625)"/>
         <path id="DejaVuSans-61" d="M 2194 1759 
Q 1497 1759 1228 1600 
Q 959 1441 959 1056 
Q 959 750 1161 570 
Q 1363 391 1709 391 
Q 2188 391 2477 730 
Q 2766 1069 2766 1631 
L 2766 1759 
L 2194 1759 
z
M 3341 1997 
L 3341 0 
L 2766 0 
L 2766 531 
Q 2569 213 2275 61 
Q 1981 -91 1556 -91 
Q 1019 -91 701 211 
Q 384 513 384 1019 
Q 384 1609 779 1909 
Q 1175 2209 1959 2209 
L 2766 2209 
L 2766 2266 
Q 2766 2663 2505 2880 
Q 2244 3097 1772 3097 
Q 1472 3097 1187 3025 
Q 903 2953 641 2809 
L 641 3341 
Q 956 3463 1253 3523 
Q 1550 3584 1831 3584 
Q 2591 3584 2966 3190 
Q 3341 2797 3341 1997 
z
" transform="scale(0.015625)"/>
         <path id="DejaVuSans-67" d="M 2906 1791 
Q 2906 2416 2648 2759 
Q 2391 3103 1925 3103 
Q 1463 3103 1205 2759 
Q 947 2416 947 1791 
Q 947 1169 1205 825 
Q 1463 481 1925 481 
Q 2391 481 2648 825 
Q 2906 1169 2906 1791 
z
M 3481 434 
Q 3481 -459 3084 -895 
Q 2688 -1331 1869 -1331 
Q 1566 -1331 1297 -1286 
Q 1028 -1241 775 -1147 
L 775 -588 
Q 1028 -725 1275 -790 
Q 1522 -856 1778 -856 
Q 2344 -856 2625 -561 
Q 2906 -266 2906 331 
L 2906 616 
Q 2728 306 2450 153 
Q 2172 0 1784 0 
Q 1141 0 747 490 
Q 353 981 353 1791 
Q 353 2603 747 3093 
Q 1141 3584 1784 3584 
Q 2172 3584 2450 3431 
Q 2728 3278 2906 2969 
L 2906 3500 
L 3481 3500 
L 3481 434 
z
" transform="scale(0.015625)"/>
         <path id="DejaVuSans-6f" d="M 1959 3097 
Q 1497 3097 1228 2736 
Q 959 2375 959 1747 
Q 959 1119 1226 758 
Q 1494 397 1959 397 
Q 2419 397 2687 759 
Q 2956 1122 2956 1747 
Q 2956 2369 2687 2733 
Q 2419 3097 1959 3097 
z
M 1959 3584 
Q 2709 3584 3137 3096 
Q 3566 2609 3566 1747 
Q 3566 888 3137 398 
Q 2709 -91 1959 -91 
Q 1206 -91 779 398 
Q 353 888 353 1747 
Q 353 2609 779 3096 
Q 1206 3584 1959 3584 
z
" transform="scale(0.015625)"/>
         <path id="DejaVuSans-28" d="M 1984 4856 
Q 1566 4138 1362 3434 
Q 1159 2731 1159 2009 
Q 1159 1288 1364 580 
Q 1569 -128 1984 -844 
L 1484 -844 
Q 1016 -109 783 600 
Q 550 1309 550 2009 
Q 550 2706 781 3412 
Q 1013 4119 1484 4856 
L 1984 4856 
z
" transform="scale(0.015625)"/>
         <path id="DejaVuSans-6e" d="M 3513 2113 
L 3513 0 
L 2938 0 
L 2938 2094 
Q 2938 2591 2744 2837 
Q 2550 3084 2163 3084 
Q 1697 3084 1428 2787 
Q 1159 2491 1159 1978 
L 1159 0 
L 581 0 
L 581 3500 
L 1159 3500 
L 1159 2956 
Q 1366 3272 1645 3428 
Q 1925 3584 2291 3584 
Q 2894 3584 3203 3211 
Q 3513 2838 3513 2113 
z
" transform="scale(0.015625)"/>
         <path id="DejaVuSans-72" d="M 2631 2963 
Q 2534 3019 2420 3045 
Q 2306 3072 2169 3072 
Q 1681 3072 1420 2755 
Q 1159 2438 1159 1844 
L 1159 0 
L 581 0 
L 581 3500 
L 1159 3500 
L 1159 2956 
Q 1341 3275 1631 3429 
Q 1922 3584 2338 3584 
Q 2397 3584 2469 3576 
Q 2541 3569 2628 3553 
L 2631 2963 
z
" transform="scale(0.015625)"/>
         <path id="DejaVuSans-73" d="M 2834 3397 
L 2834 2853 
Q 2591 2978 2328 3040 
Q 2066 3103 1784 3103 
Q 1356 3103 1142 2972 
Q 928 2841 928 2578 
Q 928 2378 1081 2264 
Q 1234 2150 1697 2047 
L 1894 2003 
Q 2506 1872 2764 1633 
Q 3022 1394 3022 966 
Q 3022 478 2636 193 
Q 2250 -91 1575 -91 
Q 1294 -91 989 -36 
Q 684 19 347 128 
L 347 722 
Q 666 556 975 473 
Q 1284 391 1588 391 
Q 1994 391 2212 530 
Q 2431 669 2431 922 
Q 2431 1156 2273 1281 
Q 2116 1406 1581 1522 
L 1381 1569 
Q 847 1681 609 1914 
Q 372 2147 372 2553 
Q 372 3047 722 3315 
Q 1072 3584 1716 3584 
Q 2034 3584 2315 3537 
Q 2597 3491 2834 3397 
z
" transform="scale(0.015625)"/>
         <path id="DejaVuSans-29" d="M 513 4856 
L 1013 4856 
Q 1481 4119 1714 3412 
Q 1947 2706 1947 2009 
Q 1947 1309 1714 600 
Q 1481 -109 1013 -844 
L 513 -844 
Q 928 -128 1133 580 
Q 1338 1288 1338 2009 
Q 1338 2731 1133 3434 
Q 928 4138 513 4856 
z
" transform="scale(0.015625)"/>
        </defs>
        <use xlink:href="#DejaVuSans-74"/>
        <use xlink:href="#DejaVuSans-69" x="39.208984"/>
        <use xlink:href="#DejaVuSans-6d" x="66.992188"/>
        <use xlink:href="#DejaVuSans-65" x="164.404297"/>
        <use xlink:href="#DejaVuSans-20" x="225.927734"/>
        <use xlink:href="#DejaVuSans-61" x="257.714844"/>
        <use xlink:href="#DejaVuSans-67" x="318.994141"/>
        <use xlink:href="#DejaVuSans-6f" x="382.470703"/>
        <use xlink:href="#DejaVuSans-20" x="443.652344"/>
        <use xlink:href="#DejaVuSans-28" x="475.439453"/>
        <use xlink:href="#DejaVuSans-67" x="514.453125"/>
        <use xlink:href="#DejaVuSans-65" x="577.929688"/>
        <use xlink:href="#DejaVuSans-6e" x="639.453125"/>
        <use xlink:href="#DejaVuSans-65" x="702.832031"/>
        <use xlink:href="#DejaVuSans-72" x="764.355469"/>
        <use xlink:href="#DejaVuSans-61" x="805.46875"/>
        <use xlink:href="#DejaVuSans-74" x="866.748047"/>
        <use xlink:href="#DejaVuSans-69" x="905.957031"/>
        <use xlink:href="#DejaVuSans-6f" x="933.740234"/>
        <use xlink:href="#DejaVuSans-6e" x="994.921875"/>
        <use xlink:href="#DejaVuSans-73" x="1058.300781"/>
        <use xlink:href="#DejaVuSans-29" x="1110.400391"/>
       </g>
      </g>
     </g>
     <g id="patch_5">
      <path d="M 237.072449 57.844375 
L 238.072449 57.875811 
L 239.072449 57.912752 
L 240.072449 58.010498 
L 241.072449 58.04302 
L 242.072449 58.116645 
L 243.072449 58.15521 
L 244.072449 58.190623 
L 245.072449 58.248263 
L 246.072449 58.318649 
L 247.072449 58.370614 
L 248.072449 58.429703 
L 249.072449 58.518024 
L 250.072449 58.564169 
L 251.072449 58.60658 
L 252.072449 58.637072 
L 253.072449 58.663117 
L 254.072449 58.684317 
L 255.072449 58.738618 
L 256.072449 58.766556 
L 257.072449 58.79628 
L 258.072449 58.821675 
L 259.072449 58.832875 
L 260.072449 58.842999 
L 261.072449 58.842795 
L 262.072449 58.833285 
L 263.072449 58.821631 
L 264.072449 58.790602 
L 265.072449 58.779434 
L 266.072449 58.749317 
L 267.072449 58.68954 
L 268.072449 58.652348 
L 269.072449 58.613252 
L 270.072449 58.570812 
L 271.072449 58.538047 
L 272.072449 58.470621 
L 273.072449 58.431495 
L 274.072449 58.38882 
L 275.072449 58.31824 
L 276.072449 58.281849 
L 277.072449 58.223446 
L 278.072449 58.112493 
L 279.072449 58.041835 
L 280.072449 57.928895 
L 281.072449 57.883122 
L 282.072449 57.821839 
L 283.072449 57.77334 
L 284.072449 57.692517 
L 285.072449 57.573998 
L 286.072449 57.503787 
L 287.072449 57.420525 
L 288.072449 57.387383 
L 289.072449 57.336146 
L 290.072449 57.267747 
L 291.072449 57.201532 
L 292.072449 57.124615 
L 293.072449 57.097299 
L 294.072449 57.070822 
L 295.072449 57.048171 
L 296.072449 57.02864 
L 297.072449 57.002246 
L 298.072449 56.952475 
L 299.072449 56.917402 
L 300.072449 56.881536 
L 301.072449 56.866169 
L 302.072449 56.8504 
L 303.072449 56.846987 
L 304.072449 56.84457 
L 305.072449 56.845056 
L 306.072449 56.846985 
L 307.072449 56.860242 
L 308.072449 56.868633 
L 309.072449 56.890169 
L 310.072449 56.913202 
L 311.072449 56.930435 
L 312.738917 56.948898 
" clip-path="url(#p82ed3454ca)" style="fill: none; stroke: #ffffff; stroke-width: 3; stroke-linecap: round"/>
      <path d="M 237.072449 57.844375 
L 238.072449 57.875811 
L 239.072449 57.912752 
L 240.072449 58.010498 
L 241.072449 58.04302 
L 242.072449 58.116645 
L 243.072449 58.15521 
L 244.072449 58.190623 
L 245.072449 58.248263 
L 246.072449 58.318649 
L 247.072449 58.370614 
L 248.072449 58.429703 
L 249.072449 58.518024 
L 250.072449 58.564169 
L 251.072449 58.60658 
L 252.072449 58.637072 
L 253.072449 58.663117 
L 254.072449 58.684317 
L 255.072449 58.738618 
L 256.072449 58.766556 
L 257.072449 58.79628 
L 258.072449 58.821675 
L 259.072449 58.832875 
L 260.072449 58.842999 
L 261.072449 58.842795 
L 262.072449 58.833285 
L 263.072449 58.821631 
L 264.072449 58.790602 
L 265.072449 58.779434 
L 266.072449 58.749317 
L 267.072449 58.68954 
L 268.072449 58.652348 
L 269.072449 58.613252 
L 270.072449 58.570812 
L 271.072449 58.538047 
L 272.072449 58.470621 
L 273.072449 58.431495 
L 274.072449 58.38882 
L 275.072449 58.31824 
L 276.072449 58.281849 
L 277.072449 58.223446 
L 278.072449 58.112493 
L 279.072449 58.041835 
L 280.072449 57.928895 
L 281.072449 57.883122 
L 282.072449 57.821839 
L 283.072449 57.77334 
L 284.072449 57.692517 
L 285.072449 57.573998 
L 286.072449 57.503787 
L 287.072449 57.420525 
L 288.072449 57.387383 
L 289.072449 57.336146 
L 290.072449 57.267747 
L 291.072449 57.201532 
L 292.072449 57.124615 
L 293.072449 57.097299 
L 294.072449 57.070822 
L 295.072449 57.048171 
L 296.072449 57.02864 
L 297.072449 57.002246 
L 298.072449 56.952475 
L 299.072449 56.917402 
L 300.072449 56.881536 
L 301.072449 56.866169 
L 302.072449 56.8504 
L 303.072449 56.846987 
L 304.072449 56.84457 
L 305.072449 56.845056 
L 306.072449 56.846985 
L 307.072449 56.860242 
L 308.072449 56.868633 
L 309.072449 56.890169 
L 310.072449 56.913202 
L 311.072449 56.930435 
L 312.738917 56.948898 
" clip-path="url(#p82ed3454ca)" style="fill: none; stroke: #1f77b4; stroke-linecap: round"/>
      <path d="M 308.738917 55.844375 
L 309.619285 56.319706 
L 310.497192 56.79996 
L 311.347906 57.334601 
L 312.65008 58.022048 
L 311.722727 58.048063 
L 310.811052 58.460783 
L 309.900788 58.876322 
L 308.558292 59.483126 
L 309.213191 58.844375 
L 309.265155 57.844375 
L 309.324245 55.844375 
L 308.738917 55.844375 
z
" clip-path="url(#p82ed3454ca)" style="fill: #ffffff; stroke: #ffffff; stroke-width: 3; stroke-linecap: round"/>
      <path d="M 308.738917 55.844375 
L 309.619285 56.319706 
L 310.497192 56.79996 
L 311.347906 57.334601 
L 312.65008 58.022048 
L 311.722727 58.048063 
L 310.811052 58.460783 
L 309.900788 58.876322 
L 308.558292 59.483126 
L 309.213191 58.844375 
L 309.265155 57.844375 
L 309.324245 55.844375 
L 308.738917 55.844375 
z
" clip-path="url(#p82ed3454ca)" style="fill: #ffffff; stroke: #1f77b4; stroke-linecap: round"/>
      <path d="M 238.518429 67.879316 
L 240.518429 68.879316 
L 240.518429 66.879316 
z
" clip-path="url(#p82ed3454ca)" style="fill: #ff7f0e; fill-opacity: 0.5; stroke: #ff7f0e; stroke-opacity: 0.5; stroke-linejoin: miter"/>
      <path d="M 238.518429 231.218381 
L 240.518429 232.218381 
L 240.518429 230.218381 
z
" clip-path="url(#p82ed3454ca)" style="fill: #ff7f0e; fill-opacity: 0.5; stroke: #ff7f0e; stroke-opacity: 0.5; stroke-linejoin: miter"/>
      <path d="M 238.518429 68.246842 
L 240.518429 69.246842 
L 240.518429 67.246842 
z
" clip-path="url(#p82ed3454ca)" style="fill: #ff7f0e; fill-opacity: 0.5; stroke: #ff7f0e; stroke-opacity: 0.5; stroke-linejoin: miter"/>
      <path d="M 238.518429 197.251839 
L 240.518429 198.251839 
L 240.518429 196.251839 
z
" clip-path="url(#p82ed3454ca)" style="fill: #ff7f0e; fill-opacity: 0.5; stroke: #ff7f0e; stroke-opacity: 0.5; stroke-linejoin: miter"/>
      <path d="M 238.518429 174.665461 
L 240.518429 175.665461 
L 240.518429 173.665461 
z
" clip-path="url(#p82ed3454ca)" style="fill: #ff7f0e; fill-opacity: 0.5; stroke: #ff7f0e; stroke-opacity: 0.5; stroke-linejoin: miter"/>
      <path d="M 238.518429 92.747953 
L 240.518429 93.747953 
L 240.518429 91.747953 
z
" clip-path="url(#p82ed3454ca)" style="fill: #ff7f0e; fill-opacity: 0.5; stroke: #ff7f0e; stroke-opacity: 0.5; stroke-linejoin: miter"/>
      <path d="M 238.518429 177.527337 
L 240.518429 178.527337 
L 240.518429 176.527337 
z
" clip-path="url(#p82ed3454ca)" style="fill: #ff7f0e; fill-opacity: 0.5; stroke: #ff7f0e; stroke-opacity: 0.5; stroke-linejoin: miter"/>
      <path d="M 238.518429 149.08656 
L 240.518429 150.08656 
L 240.518429 148.08656 
z
" clip-path="url(#p82ed3454ca)" style="fill: #ff7f0e; fill-opacity: 0.5; stroke: #ff7f0e; stroke-opacity: 0.5; stroke-linejoin: miter"/>
      <path d="M 238.518429 254.839019 
L 240.518429 255.839019 
L 240.518429 253.839019 
z
" clip-path="url(#p82ed3454ca)" style="fill: #ff7f0e; fill-opacity: 0.5; stroke: #ff7f0e; stroke-opacity: 0.5; stroke-linejoin: miter"/>
      <path d="M 238.518429 107.777073 
L 240.518429 108.777073 
L 240.518429 106.777073 
z
" clip-path="url(#p82ed3454ca)" style="fill: #ff7f0e; fill-opacity: 0.5; stroke: #ff7f0e; stroke-opacity: 0.5; stroke-linejoin: miter"/>
      <g id="patch_6">
       <path d="M 53.328125 260.421875 
L 53.328125 7.2 
" style="fill: none; stroke: #000000; stroke-width: 0.8; stroke-linejoin: miter; stroke-linecap: square"/>
      </g>
     </g>
    </g>
    <defs>
     <clipPath id="p82ed3454ca">
      <rect x="53.328125" y="7.2" width="444.271875" height="253.221875"/>
     </clipPath>
    </defs>
   </g>
  </g>
 </g>
</svg>
