<?xml version="1.0" encoding="utf-8" standalone="no"?>
<!DOCTYPE svg PUBLIC "-//W3C//DTD SVG 1.1//EN"
  "http://www.w3.org/Graphics/SVG/1.1/DTD/svg11.dtd">
<svg height="280.8pt" version="1.1" viewBox="0 0 504.8 280.8" width="504.8pt" xmlns="http://www.w3.org/2000/svg" xmlns:xlink="http://www.w3.org/1999/xlink">
 <metadata>
  <rdf:RDF xmlns:cc="http://creativecommons.org/ns#" xmlns:dc="http://purl.org/dc/elements/1.1/" xmlns:rdf="http://www.w3.org/1999/02/22-rdf-syntax-ns#">
   <cc:Work>
    <dc:type rdf:resource="http://purl.org/dc/dcmitype/StillImage"/>
    <dc:date>2021-06-11T11:39:57.670438</dc:date>
    <dc:format>image/svg+xml</dc:format>
    <dc:creator>
     <cc:Agent>
      <dc:title>Matplotlib v3.4.2, https://matplotlib.org/</dc:title>
     </cc:Agent>
    </dc:creator>
   </cc:Work>
  </rdf:RDF>
 </metadata>
 <defs>
  <style type="text/css">*{stroke-linecap:butt;stroke-linejoin:round;}</style>
 </defs>
 <g id="figure_1">
  <g id="patch_1">
   <path d="M 0 280.8 
L 504.8 280.8 
L 504.8 0 
L 0 0 
z
" style="fill:none;"/>
  </g>
  <g id="axes_1">
   <g id="patch_2">
    <path d="M 53.328125 260.421875 
L 497.6 260.421875 
L 497.6 7.2 
L 53.328125 7.2 
z
" style="fill:#ffffff;"/>
   </g>
   <path clip-path="url(#p81fa85ee0a)" d="M 178.935901 250.386934 
L 179.935901 250.418371 
L 180.935901 250.455311 
L 181.935901 250.553058 
L 182.935901 250.585579 
L 183.935901 250.659204 
L 184.935901 250.69777 
L 185.935901 250.733183 
L 186.935901 250.790823 
L 187.935901 250.861209 
L 188.935901 250.913173 
L 189.935901 250.972263 
L 190.935901 251.060584 
L 191.935901 251.106728 
L 192.935901 251.149139 
L 193.935901 251.179632 
L 194.935901 251.205677 
L 195.935901 251.226877 
L 196.935901 251.281178 
L 197.935901 251.309115 
L 198.935901 251.338839 
L 199.935901 251.364234 
L 200.935901 251.375435 
L 201.935901 251.385559 
L 202.935901 251.385354 
L 203.935901 251.375844 
L 204.935901 251.364191 
L 205.935901 251.333162 
L 206.935901 251.321994 
L 207.935901 251.291876 
L 208.935901 251.232099 
L 209.935901 251.194908 
L 210.935901 251.155812 
L 211.935901 251.113372 
L 212.935901 251.080607 
L 213.935901 251.01318 
L 214.935901 250.974054 
L 215.935901 250.93138 
L 216.935901 250.860799 
L 217.935901 250.824408 
L 218.935901 250.766005 
L 219.935901 250.655053 
L 220.935901 250.584394 
L 221.935901 250.471455 
L 222.935901 250.425682 
L 223.935901 250.364398 
L 224.935901 250.315899 
L 225.935901 250.235076 
L 226.935901 250.116557 
L 227.935901 250.046347 
L 228.935901 249.963084 
L 229.935901 249.929943 
L 230.935901 249.878705 
L 231.935901 249.810307 
L 232.935901 249.744091 
L 233.935901 249.667174 
L 234.935901 249.639859 
L 235.935901 249.613381 
L 236.935901 249.590731 
L 237.935901 249.571199 
L 238.935901 249.544806 
L 239.935901 249.495035 
L 240.935901 249.459962 
L 241.935901 249.424096 
L 242.935901 249.408729 
L 243.935901 249.392959 
L 244.935901 249.389547 
L 245.935901 249.387129 
L 246.935901 249.387615 
L 247.935901 249.389545 
L 248.935901 249.402802 
L 249.935901 249.411192 
L 250.935901 249.432729 
L 251.935901 249.455761 
L 252.935901 249.472995 
L 253.935901 249.491457 
L 254.935901 249.51191 
L 255.935901 249.52851 
L 256.935901 249.591288 
L 257.935901 249.666553 
L 258.935901 249.699193 
L 259.935901 249.766756 
L 260.935901 249.820803 
L 261.935901 249.854508 
L 262.935901 249.944634 
L 263.935901 249.973168 
L 264.935901 250.004655 
L 265.935901 250.035665 
L 266.935901 250.090473 
L 267.935901 250.155061 
L 268.935901 250.193256 
L 269.935901 250.28919 
L 270.935901 250.338448 
L 271.935901 250.382518 
L 272.935901 250.422641 
L 273.935901 250.531008 
L 274.935901 250.572637 
L 275.935901 250.634778 
L 276.935901 250.70474 
L 277.935901 250.809245 
L 278.935901 250.846232 
L 279.935901 250.89211 
L 280.935901 250.960604 
L 281.935901 251.00935 
L 282.935901 251.086948 
L 283.935901 251.117488 
L 284.935901 251.187003 
L 285.935901 251.210976 
L 286.935901 251.239597 
L 287.935901 251.28139 
L 288.935901 251.302966 
L 289.935901 251.316914 
L 290.935901 251.343637 
L 291.935901 251.352947 
L 292.935901 251.365393 
L 293.935901 251.376448 
L 294.935901 251.382113 
L 295.935901 251.386876 
L 296.935901 251.381329 
L 297.935901 251.368041 
L 298.935901 251.360523 
L 299.935901 251.335738 
L 300.935901 251.31217 
L 301.935901 251.275989 
L 302.935901 251.250027 
L 303.935901 251.227706 
L 304.935901 251.158946 
L 305.935901 251.084411 
L 306.935901 250.990431 
L 307.935901 250.939379 
L 308.935901 250.885446 
L 309.935901 250.850195 
L 310.935901 250.744107 
L 311.935901 250.691843 
L 312.935901 250.654936 
L 313.935901 250.623905 
L 314.935901 250.562749 
L 315.935901 250.495329 
L 316.935901 250.446424 
L 317.935901 250.381231 
L 318.935901 250.343044 
L 319.935901 250.301048 
L 320.935901 250.25903 
L 321.935901 250.199514 
L 322.935901 250.086354 
L 323.935901 250.034103 
L 324.935901 249.994686 
L 325.935901 249.947584 
L 326.935901 249.890805 
L 327.935901 249.858142 
L 328.935901 249.821964 
L 329.935901 249.789873 
L 330.935901 249.755593 
L 331.935901 249.697216 
L 332.935901 249.652031 
L 333.935901 249.622407 
L 334.935901 249.572021 
L 335.935901 249.546823 
L 336.935901 249.525772 
L 337.935901 249.490804 
L 338.935901 249.466514 
L 339.935901 249.452447 
L 340.935901 249.433506 
L 341.935901 249.417844 
L 342.935901 249.405292 
L 343.935901 249.399457 
L 344.935901 249.392574 
L 345.935901 249.387401 
L 346.935901 249.389183 
L 347.935901 249.391909 
L 348.935901 249.403062 
L 349.935901 249.431298 
L 350.935901 249.475085 
L 351.935901 249.495774 
L 352.935901 249.536748 
L 353.935901 249.576823 
L 354.935901 249.595933 
L 355.935901 249.618441 
L 356.935901 249.685093 
L 357.935901 249.734802 
L 358.935901 249.808509 
L 359.935901 249.839823 
L 360.935901 249.916445 
L 361.935901 249.954743 
L 362.935901 250.028859 
L 363.935901 250.132918 
L 364.935901 250.202748 
L 365.935901 250.307982 
L 366.935901 250.362997 
L 367.935901 250.486472 
L 368.935901 250.557032 
L 369.935901 250.672871 
L 370.935901 250.723051 
L 371.992224 250.758656 
" style="fill:none;stroke:#ff7f0e;stroke-linecap:square;stroke-opacity:0.5;stroke-width:0.2;"/>
   <path clip-path="url(#p81fa85ee0a)" d="M 178.935901 87.047869 
L 179.935901 87.079305 
L 180.935901 87.116246 
L 181.935901 87.213992 
L 182.935901 87.246514 
L 183.935901 87.320139 
L 184.935901 87.358704 
L 185.935901 87.394117 
L 186.935901 87.451757 
L 187.935901 87.522143 
L 188.935901 87.574108 
L 189.935901 87.633197 
L 190.935901 87.721518 
L 191.935901 87.767663 
L 192.935901 87.810074 
L 193.935901 87.840566 
L 194.935901 87.866611 
L 195.935901 87.887811 
L 196.935901 87.942112 
L 197.935901 87.97005 
L 198.935901 87.999774 
L 199.935901 88.025169 
L 200.935901 88.036369 
L 201.935901 88.046493 
L 202.935901 88.046289 
L 203.935901 88.036779 
L 204.935901 88.025125 
L 205.935901 87.994096 
L 206.935901 87.982928 
L 207.935901 87.952811 
L 208.935901 87.893034 
L 209.935901 87.855842 
L 210.935901 87.816746 
L 211.935901 87.774306 
L 212.935901 87.741541 
L 213.935901 87.674115 
L 214.935901 87.634989 
L 215.935901 87.592314 
L 216.935901 87.521734 
L 217.935901 87.485343 
L 218.935901 87.42694 
L 219.935901 87.315987 
L 220.935901 87.245329 
L 221.935901 87.132389 
L 222.935901 87.086616 
L 223.935901 87.025333 
L 224.935901 86.976834 
L 225.935901 86.896011 
L 226.935901 86.777492 
L 227.935901 86.707281 
L 228.935901 86.624019 
L 229.935901 86.590877 
L 230.935901 86.53964 
L 231.935901 86.471241 
L 232.935901 86.405026 
L 233.935901 86.328109 
L 234.935901 86.300793 
L 235.935901 86.274316 
L 236.935901 86.251665 
L 237.935901 86.232134 
L 238.935901 86.20574 
L 239.935901 86.155969 
L 240.935901 86.120896 
L 241.935901 86.08503 
L 242.935901 86.069663 
L 243.935901 86.053894 
L 244.935901 86.050481 
L 245.935901 86.048064 
L 246.935901 86.04855 
L 247.935901 86.050479 
L 248.935901 86.063736 
L 249.935901 86.072126 
L 250.935901 86.093663 
L 251.935901 86.116696 
L 252.935901 86.133929 
L 253.935901 86.152392 
L 254.935901 86.172844 
L 255.935901 86.189444 
L 256.935901 86.252223 
L 257.935901 86.327488 
L 258.935901 86.360127 
L 259.935901 86.427691 
L 260.935901 86.481738 
L 261.935901 86.515442 
L 262.935901 86.605568 
L 263.935901 86.634103 
L 264.935901 86.665589 
L 265.935901 86.6966 
L 266.935901 86.751408 
L 267.935901 86.815995 
L 268.935901 86.854191 
L 269.935901 86.950125 
L 270.935901 86.999383 
L 271.935901 87.043452 
L 272.935901 87.083576 
L 273.935901 87.191943 
L 274.935901 87.233571 
L 275.935901 87.295712 
L 276.935901 87.365675 
L 277.935901 87.470179 
L 278.935901 87.507167 
L 279.935901 87.553044 
L 280.935901 87.621539 
L 281.935901 87.670284 
L 282.935901 87.747882 
L 283.935901 87.778423 
L 284.935901 87.847937 
L 285.935901 87.87191 
L 286.935901 87.900532 
L 287.935901 87.942325 
L 288.935901 87.963901 
L 289.935901 87.977849 
L 290.935901 88.004571 
L 291.935901 88.013881 
L 292.935901 88.026328 
L 293.935901 88.037382 
L 294.935901 88.043047 
L 295.935901 88.047811 
L 296.935901 88.042263 
L 297.935901 88.028975 
L 298.935901 88.021458 
L 299.935901 87.996673 
L 300.935901 87.973104 
L 301.935901 87.936924 
L 302.935901 87.910962 
L 303.935901 87.88864 
L 304.935901 87.81988 
L 305.935901 87.745345 
L 306.935901 87.651366 
L 307.935901 87.600314 
L 308.935901 87.54638 
L 309.935901 87.511129 
L 310.935901 87.405041 
L 311.935901 87.352777 
L 312.935901 87.31587 
L 313.935901 87.284839 
L 314.935901 87.223684 
L 315.935901 87.156264 
L 316.935901 87.107358 
L 317.935901 87.042166 
L 318.935901 87.003978 
L 319.935901 86.961982 
L 320.935901 86.919965 
L 321.935901 86.860448 
L 322.935901 86.747289 
L 323.935901 86.695038 
L 324.935901 86.65562 
L 325.935901 86.608519 
L 326.935901 86.551739 
L 327.935901 86.519076 
L 328.935901 86.482898 
L 329.935901 86.450808 
L 330.935901 86.416528 
L 331.935901 86.35815 
L 332.935901 86.312965 
L 333.935901 86.283341 
L 334.935901 86.232955 
L 335.935901 86.207758 
L 336.935901 86.186707 
L 337.935901 86.151739 
L 338.935901 86.127449 
L 339.935901 86.113382 
L 340.935901 86.09444 
L 341.935901 86.078778 
L 342.935901 86.066227 
L 343.935901 86.060391 
L 344.935901 86.053509 
L 345.935901 86.048335 
L 346.935901 86.050117 
L 347.935901 86.052843 
L 348.935901 86.063997 
L 349.935901 86.092232 
L 350.935901 86.13602 
L 351.935901 86.156709 
L 352.935901 86.197682 
L 353.935901 86.237757 
L 354.935901 86.256867 
L 355.935901 86.279376 
L 356.935901 86.346027 
L 357.935901 86.395736 
L 358.935901 86.469443 
L 359.935901 86.500757 
L 360.935901 86.577379 
L 361.935901 86.615677 
L 362.935901 86.689794 
L 363.935901 86.793852 
L 364.935901 86.863683 
L 365.935901 86.968916 
L 366.935901 87.023932 
L 367.935901 87.147407 
L 368.935901 87.217966 
L 369.935901 87.333805 
L 370.935901 87.383986 
L 371.992224 87.41959 
" style="fill:none;stroke:#ff7f0e;stroke-linecap:square;stroke-opacity:0.5;stroke-width:0.2;"/>
   <path clip-path="url(#p81fa85ee0a)" d="M 178.935901 250.019408 
L 179.935901 250.050845 
L 180.935901 250.087785 
L 181.935901 250.185532 
L 182.935901 250.218053 
L 183.935901 250.291678 
L 184.935901 250.330244 
L 185.935901 250.365657 
L 186.935901 250.423297 
L 187.935901 250.493683 
L 188.935901 250.545647 
L 189.935901 250.604737 
L 190.935901 250.693058 
L 191.935901 250.739202 
L 192.935901 250.781613 
L 193.935901 250.812106 
L 194.935901 250.838151 
L 195.935901 250.859351 
L 196.935901 250.913652 
L 197.935901 250.941589 
L 198.935901 250.971313 
L 199.935901 250.996708 
L 200.935901 251.007909 
L 201.935901 251.018033 
L 202.935901 251.017828 
L 203.935901 251.008318 
L 204.935901 250.996665 
L 205.935901 250.965636 
L 206.935901 250.954468 
L 207.935901 250.92435 
L 208.935901 250.864573 
L 209.935901 250.827382 
L 210.935901 250.788286 
L 211.935901 250.745846 
L 212.935901 250.713081 
L 213.935901 250.645654 
L 214.935901 250.606528 
L 215.935901 250.563854 
L 216.935901 250.493273 
L 217.935901 250.456882 
L 218.935901 250.398479 
L 219.935901 250.287527 
L 220.935901 250.216868 
L 221.935901 250.103928 
L 222.935901 250.058156 
L 223.935901 249.996872 
L 224.935901 249.948373 
L 225.935901 249.86755 
L 226.935901 249.749031 
L 227.935901 249.678821 
L 228.935901 249.595558 
L 229.935901 249.562417 
L 230.935901 249.511179 
L 231.935901 249.442781 
L 232.935901 249.376565 
L 233.935901 249.299648 
L 234.935901 249.272333 
L 235.935901 249.245855 
L 236.935901 249.223205 
L 237.935901 249.203673 
L 238.935901 249.177279 
L 239.935901 249.127509 
L 240.935901 249.092436 
L 241.935901 249.05657 
L 242.935901 249.041203 
L 243.935901 249.025433 
L 244.935901 249.022021 
L 245.935901 249.019603 
L 246.935901 249.020089 
L 247.935901 249.022019 
L 248.935901 249.035276 
L 249.935901 249.043666 
L 250.935901 249.065203 
L 251.935901 249.088235 
L 252.935901 249.105469 
L 253.935901 249.123931 
L 254.935901 249.144384 
L 255.935901 249.160984 
L 256.935901 249.223762 
L 257.935901 249.299027 
L 258.935901 249.331667 
L 259.935901 249.39923 
L 260.935901 249.453277 
L 261.935901 249.486981 
L 262.935901 249.577107 
L 263.935901 249.605642 
L 264.935901 249.637129 
L 265.935901 249.668139 
L 266.935901 249.722947 
L 267.935901 249.787535 
L 268.935901 249.82573 
L 269.935901 249.921664 
L 270.935901 249.970922 
L 271.935901 250.014992 
L 272.935901 250.055115 
L 273.935901 250.163482 
L 274.935901 250.205111 
L 275.935901 250.267252 
L 276.935901 250.337214 
L 277.935901 250.441719 
L 278.935901 250.478706 
L 279.935901 250.524584 
L 280.935901 250.593078 
L 281.935901 250.641824 
L 282.935901 250.719422 
L 283.935901 250.749962 
L 284.935901 250.819477 
L 285.935901 250.84345 
L 286.935901 250.872071 
L 287.935901 250.913864 
L 288.935901 250.93544 
L 289.935901 250.949388 
L 290.935901 250.976111 
L 291.935901 250.98542 
L 292.935901 250.997867 
L 293.935901 251.008922 
L 294.935901 251.014587 
L 295.935901 251.01935 
L 296.935901 251.013803 
L 297.935901 251.000515 
L 298.935901 250.992997 
L 299.935901 250.968212 
L 300.935901 250.944644 
L 301.935901 250.908463 
L 302.935901 250.882501 
L 303.935901 250.86018 
L 304.935901 250.79142 
L 305.935901 250.716885 
L 306.935901 250.622905 
L 307.935901 250.571853 
L 308.935901 250.517919 
L 309.935901 250.482669 
L 310.935901 250.376581 
L 311.935901 250.324316 
L 312.935901 250.28741 
L 313.935901 250.256379 
L 314.935901 250.195223 
L 315.935901 250.127803 
L 316.935901 250.078897 
L 317.935901 250.013705 
L 318.935901 249.975518 
L 319.935901 249.933522 
L 320.935901 249.891504 
L 321.935901 249.831988 
L 322.935901 249.718828 
L 323.935901 249.666577 
L 324.935901 249.62716 
L 325.935901 249.580058 
L 326.935901 249.523279 
L 327.935901 249.490616 
L 328.935901 249.454438 
L 329.935901 249.422347 
L 330.935901 249.388067 
L 331.935901 249.32969 
L 332.935901 249.284505 
L 333.935901 249.254881 
L 334.935901 249.204495 
L 335.935901 249.179297 
L 336.935901 249.158246 
L 337.935901 249.123278 
L 338.935901 249.098988 
L 339.935901 249.084921 
L 340.935901 249.06598 
L 341.935901 249.050318 
L 342.935901 249.037766 
L 343.935901 249.031931 
L 344.935901 249.025048 
L 345.935901 249.019874 
L 346.935901 249.021657 
L 347.935901 249.024383 
L 348.935901 249.035536 
L 349.935901 249.063771 
L 350.935901 249.107559 
L 351.935901 249.128248 
L 352.935901 249.169222 
L 353.935901 249.209297 
L 354.935901 249.228407 
L 355.935901 249.250915 
L 356.935901 249.317567 
L 357.935901 249.367276 
L 358.935901 249.440983 
L 359.935901 249.472296 
L 360.935901 249.548919 
L 361.935901 249.587217 
L 362.935901 249.661333 
L 363.935901 249.765392 
L 364.935901 249.835222 
L 365.935901 249.940456 
L 366.935901 249.995471 
L 367.935901 250.118946 
L 368.935901 250.189505 
L 369.935901 250.305345 
L 370.935901 250.355525 
L 371.992224 250.39113 
" style="fill:none;stroke:#ff7f0e;stroke-linecap:square;stroke-opacity:0.5;stroke-width:0.2;"/>
   <path clip-path="url(#p81fa85ee0a)" d="M 178.935901 121.014411 
L 179.935901 121.045847 
L 180.935901 121.082788 
L 181.935901 121.180534 
L 182.935901 121.213056 
L 183.935901 121.286681 
L 184.935901 121.325246 
L 185.935901 121.360659 
L 186.935901 121.418299 
L 187.935901 121.488685 
L 188.935901 121.54065 
L 189.935901 121.599739 
L 190.935901 121.68806 
L 191.935901 121.734205 
L 192.935901 121.776616 
L 193.935901 121.807108 
L 194.935901 121.833153 
L 195.935901 121.854353 
L 196.935901 121.908654 
L 197.935901 121.936592 
L 198.935901 121.966316 
L 199.935901 121.991711 
L 200.935901 122.002911 
L 201.935901 122.013035 
L 202.935901 122.012831 
L 203.935901 122.003321 
L 204.935901 121.991667 
L 205.935901 121.960638 
L 206.935901 121.94947 
L 207.935901 121.919353 
L 208.935901 121.859576 
L 209.935901 121.822384 
L 210.935901 121.783288 
L 211.935901 121.740848 
L 212.935901 121.708083 
L 213.935901 121.640657 
L 214.935901 121.601531 
L 215.935901 121.558856 
L 216.935901 121.488276 
L 217.935901 121.451885 
L 218.935901 121.393482 
L 219.935901 121.282529 
L 220.935901 121.211871 
L 221.935901 121.098931 
L 222.935901 121.053158 
L 223.935901 120.991875 
L 224.935901 120.943376 
L 225.935901 120.862553 
L 226.935901 120.744034 
L 227.935901 120.673823 
L 228.935901 120.590561 
L 229.935901 120.557419 
L 230.935901 120.506182 
L 231.935901 120.437783 
L 232.935901 120.371568 
L 233.935901 120.294651 
L 234.935901 120.267335 
L 235.935901 120.240858 
L 236.935901 120.218207 
L 237.935901 120.198676 
L 238.935901 120.172282 
L 239.935901 120.122511 
L 240.935901 120.087438 
L 241.935901 120.051572 
L 242.935901 120.036205 
L 243.935901 120.020436 
L 244.935901 120.017023 
L 245.935901 120.014606 
L 246.935901 120.015092 
L 247.935901 120.017021 
L 248.935901 120.030278 
L 249.935901 120.038668 
L 250.935901 120.060205 
L 251.935901 120.083238 
L 252.935901 120.100471 
L 253.935901 120.118934 
L 254.935901 120.139386 
L 255.935901 120.155986 
L 256.935901 120.218765 
L 257.935901 120.29403 
L 258.935901 120.326669 
L 259.935901 120.394233 
L 260.935901 120.44828 
L 261.935901 120.481984 
L 262.935901 120.57211 
L 263.935901 120.600645 
L 264.935901 120.632131 
L 265.935901 120.663142 
L 266.935901 120.71795 
L 267.935901 120.782537 
L 268.935901 120.820733 
L 269.935901 120.916667 
L 270.935901 120.965925 
L 271.935901 121.009994 
L 272.935901 121.050118 
L 273.935901 121.158485 
L 274.935901 121.200113 
L 275.935901 121.262255 
L 276.935901 121.332217 
L 277.935901 121.436721 
L 278.935901 121.473709 
L 279.935901 121.519586 
L 280.935901 121.588081 
L 281.935901 121.636826 
L 282.935901 121.714424 
L 283.935901 121.744965 
L 284.935901 121.814479 
L 285.935901 121.838452 
L 286.935901 121.867074 
L 287.935901 121.908867 
L 288.935901 121.930443 
L 289.935901 121.944391 
L 290.935901 121.971113 
L 291.935901 121.980423 
L 292.935901 121.99287 
L 293.935901 122.003925 
L 294.935901 122.009589 
L 295.935901 122.014353 
L 296.935901 122.008805 
L 297.935901 121.995517 
L 298.935901 121.988 
L 299.935901 121.963215 
L 300.935901 121.939646 
L 301.935901 121.903466 
L 302.935901 121.877504 
L 303.935901 121.855182 
L 304.935901 121.786422 
L 305.935901 121.711887 
L 306.935901 121.617908 
L 307.935901 121.566856 
L 308.935901 121.512922 
L 309.935901 121.477671 
L 310.935901 121.371583 
L 311.935901 121.319319 
L 312.935901 121.282412 
L 313.935901 121.251381 
L 314.935901 121.190226 
L 315.935901 121.122806 
L 316.935901 121.0739 
L 317.935901 121.008708 
L 318.935901 120.97052 
L 319.935901 120.928524 
L 320.935901 120.886507 
L 321.935901 120.826991 
L 322.935901 120.713831 
L 323.935901 120.66158 
L 324.935901 120.622162 
L 325.935901 120.575061 
L 326.935901 120.518281 
L 327.935901 120.485618 
L 328.935901 120.44944 
L 329.935901 120.41735 
L 330.935901 120.38307 
L 331.935901 120.324692 
L 332.935901 120.279507 
L 333.935901 120.249883 
L 334.935901 120.199497 
L 335.935901 120.1743 
L 336.935901 120.153249 
L 337.935901 120.118281 
L 338.935901 120.093991 
L 339.935901 120.079924 
L 340.935901 120.060982 
L 341.935901 120.045321 
L 342.935901 120.032769 
L 343.935901 120.026933 
L 344.935901 120.020051 
L 345.935901 120.014877 
L 346.935901 120.01666 
L 347.935901 120.019385 
L 348.935901 120.030539 
L 349.935901 120.058774 
L 350.935901 120.102562 
L 351.935901 120.123251 
L 352.935901 120.164224 
L 353.935901 120.204299 
L 354.935901 120.223409 
L 355.935901 120.245918 
L 356.935901 120.312569 
L 357.935901 120.362278 
L 358.935901 120.435985 
L 359.935901 120.467299 
L 360.935901 120.543921 
L 361.935901 120.582219 
L 362.935901 120.656336 
L 363.935901 120.760394 
L 364.935901 120.830225 
L 365.935901 120.935458 
L 366.935901 120.990474 
L 367.935901 121.113949 
L 368.935901 121.184508 
L 369.935901 121.300347 
L 370.935901 121.350528 
L 371.992224 121.386132 
" style="fill:none;stroke:#ff7f0e;stroke-linecap:square;stroke-opacity:0.5;stroke-width:0.2;"/>
   <path clip-path="url(#p81fa85ee0a)" d="M 178.935901 143.600789 
L 179.935901 143.632225 
L 180.935901 143.669165 
L 181.935901 143.766912 
L 182.935901 143.799434 
L 183.935901 143.873058 
L 184.935901 143.911624 
L 185.935901 143.947037 
L 186.935901 144.004677 
L 187.935901 144.075063 
L 188.935901 144.127027 
L 189.935901 144.186117 
L 190.935901 144.274438 
L 191.935901 144.320582 
L 192.935901 144.362993 
L 193.935901 144.393486 
L 194.935901 144.419531 
L 195.935901 144.440731 
L 196.935901 144.495032 
L 197.935901 144.52297 
L 198.935901 144.552694 
L 199.935901 144.578088 
L 200.935901 144.589289 
L 201.935901 144.599413 
L 202.935901 144.599208 
L 203.935901 144.589699 
L 204.935901 144.578045 
L 205.935901 144.547016 
L 206.935901 144.535848 
L 207.935901 144.50573 
L 208.935901 144.445953 
L 209.935901 144.408762 
L 210.935901 144.369666 
L 211.935901 144.327226 
L 212.935901 144.294461 
L 213.935901 144.227035 
L 214.935901 144.187909 
L 215.935901 144.145234 
L 216.935901 144.074654 
L 217.935901 144.038263 
L 218.935901 143.979859 
L 219.935901 143.868907 
L 220.935901 143.798249 
L 221.935901 143.685309 
L 222.935901 143.639536 
L 223.935901 143.578253 
L 224.935901 143.529753 
L 225.935901 143.448931 
L 226.935901 143.330412 
L 227.935901 143.260201 
L 228.935901 143.176939 
L 229.935901 143.143797 
L 230.935901 143.09256 
L 231.935901 143.024161 
L 232.935901 142.957946 
L 233.935901 142.881029 
L 234.935901 142.853713 
L 235.935901 142.827236 
L 236.935901 142.804585 
L 237.935901 142.785054 
L 238.935901 142.75866 
L 239.935901 142.708889 
L 240.935901 142.673816 
L 241.935901 142.63795 
L 242.935901 142.622583 
L 243.935901 142.606814 
L 244.935901 142.603401 
L 245.935901 142.600983 
L 246.935901 142.60147 
L 247.935901 142.603399 
L 248.935901 142.616656 
L 249.935901 142.625046 
L 250.935901 142.646583 
L 251.935901 142.669615 
L 252.935901 142.686849 
L 253.935901 142.705311 
L 254.935901 142.725764 
L 255.935901 142.742364 
L 256.935901 142.805143 
L 257.935901 142.880408 
L 258.935901 142.913047 
L 259.935901 142.98061 
L 260.935901 143.034657 
L 261.935901 143.068362 
L 262.935901 143.158488 
L 263.935901 143.187023 
L 264.935901 143.218509 
L 265.935901 143.24952 
L 266.935901 143.304328 
L 267.935901 143.368915 
L 268.935901 143.40711 
L 269.935901 143.503045 
L 270.935901 143.552303 
L 271.935901 143.596372 
L 272.935901 143.636496 
L 273.935901 143.744863 
L 274.935901 143.786491 
L 275.935901 143.848632 
L 276.935901 143.918595 
L 277.935901 144.023099 
L 278.935901 144.060087 
L 279.935901 144.105964 
L 280.935901 144.174458 
L 281.935901 144.223204 
L 282.935901 144.300802 
L 283.935901 144.331342 
L 284.935901 144.400857 
L 285.935901 144.42483 
L 286.935901 144.453451 
L 287.935901 144.495245 
L 288.935901 144.51682 
L 289.935901 144.530768 
L 290.935901 144.557491 
L 291.935901 144.566801 
L 292.935901 144.579247 
L 293.935901 144.590302 
L 294.935901 144.595967 
L 295.935901 144.600731 
L 296.935901 144.595183 
L 297.935901 144.581895 
L 298.935901 144.574377 
L 299.935901 144.549593 
L 300.935901 144.526024 
L 301.935901 144.489843 
L 302.935901 144.463881 
L 303.935901 144.44156 
L 304.935901 144.3728 
L 305.935901 144.298265 
L 306.935901 144.204285 
L 307.935901 144.153233 
L 308.935901 144.0993 
L 309.935901 144.064049 
L 310.935901 143.957961 
L 311.935901 143.905697 
L 312.935901 143.86879 
L 313.935901 143.837759 
L 314.935901 143.776604 
L 315.935901 143.709184 
L 316.935901 143.660278 
L 317.935901 143.595085 
L 318.935901 143.556898 
L 319.935901 143.514902 
L 320.935901 143.472885 
L 321.935901 143.413368 
L 322.935901 143.300208 
L 323.935901 143.247958 
L 324.935901 143.20854 
L 325.935901 143.161438 
L 326.935901 143.104659 
L 327.935901 143.071996 
L 328.935901 143.035818 
L 329.935901 143.003727 
L 330.935901 142.969448 
L 331.935901 142.91107 
L 332.935901 142.865885 
L 333.935901 142.836261 
L 334.935901 142.785875 
L 335.935901 142.760677 
L 336.935901 142.739627 
L 337.935901 142.704659 
L 338.935901 142.680369 
L 339.935901 142.666302 
L 340.935901 142.64736 
L 341.935901 142.631698 
L 342.935901 142.619147 
L 343.935901 142.613311 
L 344.935901 142.606428 
L 345.935901 142.601255 
L 346.935901 142.603037 
L 347.935901 142.605763 
L 348.935901 142.616916 
L 349.935901 142.645152 
L 350.935901 142.688939 
L 351.935901 142.709629 
L 352.935901 142.750602 
L 353.935901 142.790677 
L 354.935901 142.809787 
L 355.935901 142.832295 
L 356.935901 142.898947 
L 357.935901 142.948656 
L 358.935901 143.022363 
L 359.935901 143.053677 
L 360.935901 143.130299 
L 361.935901 143.168597 
L 362.935901 143.242714 
L 363.935901 143.346772 
L 364.935901 143.416603 
L 365.935901 143.521836 
L 366.935901 143.576852 
L 367.935901 143.700327 
L 368.935901 143.770886 
L 369.935901 143.886725 
L 370.935901 143.936906 
L 371.992224 143.97251 
" style="fill:none;stroke:#ff7f0e;stroke-linecap:square;stroke-opacity:0.5;stroke-width:0.2;"/>
   <path clip-path="url(#p81fa85ee0a)" d="M 178.935901 225.518297 
L 179.935901 225.549734 
L 180.935901 225.586674 
L 181.935901 225.684421 
L 182.935901 225.716942 
L 183.935901 225.790567 
L 184.935901 225.829132 
L 185.935901 225.864546 
L 186.935901 225.922186 
L 187.935901 225.992572 
L 188.935901 226.044536 
L 189.935901 226.103626 
L 190.935901 226.191947 
L 191.935901 226.238091 
L 192.935901 226.280502 
L 193.935901 226.310995 
L 194.935901 226.33704 
L 195.935901 226.35824 
L 196.935901 226.412541 
L 197.935901 226.440478 
L 198.935901 226.470202 
L 199.935901 226.495597 
L 200.935901 226.506797 
L 201.935901 226.516921 
L 202.935901 226.516717 
L 203.935901 226.507207 
L 204.935901 226.495554 
L 205.935901 226.464524 
L 206.935901 226.453356 
L 207.935901 226.423239 
L 208.935901 226.363462 
L 209.935901 226.32627 
L 210.935901 226.287174 
L 211.935901 226.244735 
L 212.935901 226.21197 
L 213.935901 226.144543 
L 214.935901 226.105417 
L 215.935901 226.062743 
L 216.935901 225.992162 
L 217.935901 225.955771 
L 218.935901 225.897368 
L 219.935901 225.786415 
L 220.935901 225.715757 
L 221.935901 225.602817 
L 222.935901 225.557044 
L 223.935901 225.495761 
L 224.935901 225.447262 
L 225.935901 225.366439 
L 226.935901 225.24792 
L 227.935901 225.17771 
L 228.935901 225.094447 
L 229.935901 225.061305 
L 230.935901 225.010068 
L 231.935901 224.94167 
L 232.935901 224.875454 
L 233.935901 224.798537 
L 234.935901 224.771222 
L 235.935901 224.744744 
L 236.935901 224.722094 
L 237.935901 224.702562 
L 238.935901 224.676168 
L 239.935901 224.626397 
L 240.935901 224.591324 
L 241.935901 224.555459 
L 242.935901 224.540091 
L 243.935901 224.524322 
L 244.935901 224.52091 
L 245.935901 224.518492 
L 246.935901 224.518978 
L 247.935901 224.520907 
L 248.935901 224.534164 
L 249.935901 224.542555 
L 250.935901 224.564092 
L 251.935901 224.587124 
L 252.935901 224.604358 
L 253.935901 224.62282 
L 254.935901 224.643273 
L 255.935901 224.659872 
L 256.935901 224.722651 
L 257.935901 224.797916 
L 258.935901 224.830555 
L 259.935901 224.898119 
L 260.935901 224.952166 
L 261.935901 224.98587 
L 262.935901 225.075996 
L 263.935901 225.104531 
L 264.935901 225.136017 
L 265.935901 225.167028 
L 266.935901 225.221836 
L 267.935901 225.286424 
L 268.935901 225.324619 
L 269.935901 225.420553 
L 270.935901 225.469811 
L 271.935901 225.513881 
L 272.935901 225.554004 
L 273.935901 225.662371 
L 274.935901 225.703999 
L 275.935901 225.766141 
L 276.935901 225.836103 
L 277.935901 225.940608 
L 278.935901 225.977595 
L 279.935901 226.023472 
L 280.935901 226.091967 
L 281.935901 226.140713 
L 282.935901 226.21831 
L 283.935901 226.248851 
L 284.935901 226.318366 
L 285.935901 226.342338 
L 286.935901 226.37096 
L 287.935901 226.412753 
L 288.935901 226.434329 
L 289.935901 226.448277 
L 290.935901 226.475 
L 291.935901 226.484309 
L 292.935901 226.496756 
L 293.935901 226.507811 
L 294.935901 226.513476 
L 295.935901 226.518239 
L 296.935901 226.512692 
L 297.935901 226.499404 
L 298.935901 226.491886 
L 299.935901 226.467101 
L 300.935901 226.443533 
L 301.935901 226.407352 
L 302.935901 226.38139 
L 303.935901 226.359069 
L 304.935901 226.290308 
L 305.935901 226.215773 
L 306.935901 226.121794 
L 307.935901 226.070742 
L 308.935901 226.016808 
L 309.935901 225.981557 
L 310.935901 225.875469 
L 311.935901 225.823205 
L 312.935901 225.786299 
L 313.935901 225.755268 
L 314.935901 225.694112 
L 315.935901 225.626692 
L 316.935901 225.577786 
L 317.935901 225.512594 
L 318.935901 225.474407 
L 319.935901 225.432411 
L 320.935901 225.390393 
L 321.935901 225.330877 
L 322.935901 225.217717 
L 323.935901 225.165466 
L 324.935901 225.126049 
L 325.935901 225.078947 
L 326.935901 225.022168 
L 327.935901 224.989504 
L 328.935901 224.953327 
L 329.935901 224.921236 
L 330.935901 224.886956 
L 331.935901 224.828578 
L 332.935901 224.783393 
L 333.935901 224.753769 
L 334.935901 224.703384 
L 335.935901 224.678186 
L 336.935901 224.657135 
L 337.935901 224.622167 
L 338.935901 224.597877 
L 339.935901 224.58381 
L 340.935901 224.564868 
L 341.935901 224.549207 
L 342.935901 224.536655 
L 343.935901 224.530819 
L 344.935901 224.523937 
L 345.935901 224.518763 
L 346.935901 224.520546 
L 347.935901 224.523272 
L 348.935901 224.534425 
L 349.935901 224.56266 
L 350.935901 224.606448 
L 351.935901 224.627137 
L 352.935901 224.668111 
L 353.935901 224.708186 
L 354.935901 224.727295 
L 355.935901 224.749804 
L 356.935901 224.816456 
L 357.935901 224.866165 
L 358.935901 224.939872 
L 359.935901 224.971185 
L 360.935901 225.047807 
L 361.935901 225.086105 
L 362.935901 225.160222 
L 363.935901 225.264281 
L 364.935901 225.334111 
L 365.935901 225.439345 
L 366.935901 225.49436 
L 367.935901 225.617835 
L 368.935901 225.688394 
L 369.935901 225.804234 
L 370.935901 225.854414 
L 371.992224 225.890018 
" style="fill:none;stroke:#ff7f0e;stroke-linecap:square;stroke-opacity:0.5;stroke-width:0.2;"/>
   <path clip-path="url(#p81fa85ee0a)" d="M 178.935901 140.738913 
L 179.935901 140.770349 
L 180.935901 140.80729 
L 181.935901 140.905036 
L 182.935901 140.937558 
L 183.935901 141.011183 
L 184.935901 141.049748 
L 185.935901 141.085161 
L 186.935901 141.142801 
L 187.935901 141.213188 
L 188.935901 141.265152 
L 189.935901 141.324242 
L 190.935901 141.412562 
L 191.935901 141.458707 
L 192.935901 141.501118 
L 193.935901 141.53161 
L 194.935901 141.557655 
L 195.935901 141.578855 
L 196.935901 141.633157 
L 197.935901 141.661094 
L 198.935901 141.690818 
L 199.935901 141.716213 
L 200.935901 141.727413 
L 201.935901 141.737537 
L 202.935901 141.737333 
L 203.935901 141.727823 
L 204.935901 141.716169 
L 205.935901 141.68514 
L 206.935901 141.673972 
L 207.935901 141.643855 
L 208.935901 141.584078 
L 209.935901 141.546886 
L 210.935901 141.50779 
L 211.935901 141.465351 
L 212.935901 141.432585 
L 213.935901 141.365159 
L 214.935901 141.326033 
L 215.935901 141.283359 
L 216.935901 141.212778 
L 217.935901 141.176387 
L 218.935901 141.117984 
L 219.935901 141.007031 
L 220.935901 140.936373 
L 221.935901 140.823433 
L 222.935901 140.77766 
L 223.935901 140.716377 
L 224.935901 140.667878 
L 225.935901 140.587055 
L 226.935901 140.468536 
L 227.935901 140.398325 
L 228.935901 140.315063 
L 229.935901 140.281921 
L 230.935901 140.230684 
L 231.935901 140.162286 
L 232.935901 140.09607 
L 233.935901 140.019153 
L 234.935901 139.991838 
L 235.935901 139.96536 
L 236.935901 139.942709 
L 237.935901 139.923178 
L 238.935901 139.896784 
L 239.935901 139.847013 
L 240.935901 139.81194 
L 241.935901 139.776075 
L 242.935901 139.760707 
L 243.935901 139.744938 
L 244.935901 139.741525 
L 245.935901 139.739108 
L 246.935901 139.739594 
L 247.935901 139.741523 
L 248.935901 139.75478 
L 249.935901 139.763171 
L 250.935901 139.784707 
L 251.935901 139.80774 
L 252.935901 139.824973 
L 253.935901 139.843436 
L 254.935901 139.863888 
L 255.935901 139.880488 
L 256.935901 139.943267 
L 257.935901 140.018532 
L 258.935901 140.051171 
L 259.935901 140.118735 
L 260.935901 140.172782 
L 261.935901 140.206486 
L 262.935901 140.296612 
L 263.935901 140.325147 
L 264.935901 140.356633 
L 265.935901 140.387644 
L 266.935901 140.442452 
L 267.935901 140.507039 
L 268.935901 140.545235 
L 269.935901 140.641169 
L 270.935901 140.690427 
L 271.935901 140.734496 
L 272.935901 140.77462 
L 273.935901 140.882987 
L 274.935901 140.924615 
L 275.935901 140.986757 
L 276.935901 141.056719 
L 277.935901 141.161223 
L 278.935901 141.198211 
L 279.935901 141.244088 
L 280.935901 141.312583 
L 281.935901 141.361329 
L 282.935901 141.438926 
L 283.935901 141.469467 
L 284.935901 141.538981 
L 285.935901 141.562954 
L 286.935901 141.591576 
L 287.935901 141.633369 
L 288.935901 141.654945 
L 289.935901 141.668893 
L 290.935901 141.695615 
L 291.935901 141.704925 
L 292.935901 141.717372 
L 293.935901 141.728427 
L 294.935901 141.734091 
L 295.935901 141.738855 
L 296.935901 141.733308 
L 297.935901 141.720019 
L 298.935901 141.712502 
L 299.935901 141.687717 
L 300.935901 141.664148 
L 301.935901 141.627968 
L 302.935901 141.602006 
L 303.935901 141.579684 
L 304.935901 141.510924 
L 305.935901 141.436389 
L 306.935901 141.34241 
L 307.935901 141.291358 
L 308.935901 141.237424 
L 309.935901 141.202173 
L 310.935901 141.096085 
L 311.935901 141.043821 
L 312.935901 141.006914 
L 313.935901 140.975884 
L 314.935901 140.914728 
L 315.935901 140.847308 
L 316.935901 140.798402 
L 317.935901 140.73321 
L 318.935901 140.695022 
L 319.935901 140.653027 
L 320.935901 140.611009 
L 321.935901 140.551493 
L 322.935901 140.438333 
L 323.935901 140.386082 
L 324.935901 140.346664 
L 325.935901 140.299563 
L 326.935901 140.242784 
L 327.935901 140.21012 
L 328.935901 140.173942 
L 329.935901 140.141852 
L 330.935901 140.107572 
L 331.935901 140.049194 
L 332.935901 140.004009 
L 333.935901 139.974385 
L 334.935901 139.923999 
L 335.935901 139.898802 
L 336.935901 139.877751 
L 337.935901 139.842783 
L 338.935901 139.818493 
L 339.935901 139.804426 
L 340.935901 139.785484 
L 341.935901 139.769823 
L 342.935901 139.757271 
L 343.935901 139.751435 
L 344.935901 139.744553 
L 345.935901 139.739379 
L 346.935901 139.741162 
L 347.935901 139.743887 
L 348.935901 139.755041 
L 349.935901 139.783276 
L 350.935901 139.827064 
L 351.935901 139.847753 
L 352.935901 139.888726 
L 353.935901 139.928801 
L 354.935901 139.947911 
L 355.935901 139.97042 
L 356.935901 140.037071 
L 357.935901 140.086781 
L 358.935901 140.160488 
L 359.935901 140.191801 
L 360.935901 140.268423 
L 361.935901 140.306721 
L 362.935901 140.380838 
L 363.935901 140.484896 
L 364.935901 140.554727 
L 365.935901 140.659961 
L 366.935901 140.714976 
L 367.935901 140.838451 
L 368.935901 140.90901 
L 369.935901 141.024849 
L 370.935901 141.07503 
L 371.992224 141.110634 
" style="fill:none;stroke:#ff7f0e;stroke-linecap:square;stroke-opacity:0.5;stroke-width:0.2;"/>
   <path clip-path="url(#p81fa85ee0a)" d="M 178.935901 169.17969 
L 179.935901 169.211127 
L 180.935901 169.248067 
L 181.935901 169.345814 
L 182.935901 169.378335 
L 183.935901 169.45196 
L 184.935901 169.490525 
L 185.935901 169.525939 
L 186.935901 169.583579 
L 187.935901 169.653965 
L 188.935901 169.705929 
L 189.935901 169.765019 
L 190.935901 169.85334 
L 191.935901 169.899484 
L 192.935901 169.941895 
L 193.935901 169.972388 
L 194.935901 169.998433 
L 195.935901 170.019633 
L 196.935901 170.073934 
L 197.935901 170.101871 
L 198.935901 170.131595 
L 199.935901 170.15699 
L 200.935901 170.168191 
L 201.935901 170.178314 
L 202.935901 170.17811 
L 203.935901 170.1686 
L 204.935901 170.156947 
L 205.935901 170.125917 
L 206.935901 170.11475 
L 207.935901 170.084632 
L 208.935901 170.024855 
L 209.935901 169.987664 
L 210.935901 169.948567 
L 211.935901 169.906128 
L 212.935901 169.873363 
L 213.935901 169.805936 
L 214.935901 169.76681 
L 215.935901 169.724136 
L 216.935901 169.653555 
L 217.935901 169.617164 
L 218.935901 169.558761 
L 219.935901 169.447809 
L 220.935901 169.37715 
L 221.935901 169.26421 
L 222.935901 169.218438 
L 223.935901 169.157154 
L 224.935901 169.108655 
L 225.935901 169.027832 
L 226.935901 168.909313 
L 227.935901 168.839103 
L 228.935901 168.75584 
L 229.935901 168.722698 
L 230.935901 168.671461 
L 231.935901 168.603063 
L 232.935901 168.536847 
L 233.935901 168.45993 
L 234.935901 168.432615 
L 235.935901 168.406137 
L 236.935901 168.383487 
L 237.935901 168.363955 
L 238.935901 168.337561 
L 239.935901 168.287791 
L 240.935901 168.252717 
L 241.935901 168.216852 
L 242.935901 168.201484 
L 243.935901 168.185715 
L 244.935901 168.182303 
L 245.935901 168.179885 
L 246.935901 168.180371 
L 247.935901 168.1823 
L 248.935901 168.195557 
L 249.935901 168.203948 
L 250.935901 168.225485 
L 251.935901 168.248517 
L 252.935901 168.265751 
L 253.935901 168.284213 
L 254.935901 168.304666 
L 255.935901 168.321265 
L 256.935901 168.384044 
L 257.935901 168.459309 
L 258.935901 168.491948 
L 259.935901 168.559512 
L 260.935901 168.613559 
L 261.935901 168.647263 
L 262.935901 168.737389 
L 263.935901 168.765924 
L 264.935901 168.79741 
L 265.935901 168.828421 
L 266.935901 168.883229 
L 267.935901 168.947817 
L 268.935901 168.986012 
L 269.935901 169.081946 
L 270.935901 169.131204 
L 271.935901 169.175274 
L 272.935901 169.215397 
L 273.935901 169.323764 
L 274.935901 169.365392 
L 275.935901 169.427534 
L 276.935901 169.497496 
L 277.935901 169.602001 
L 278.935901 169.638988 
L 279.935901 169.684866 
L 280.935901 169.75336 
L 281.935901 169.802106 
L 282.935901 169.879703 
L 283.935901 169.910244 
L 284.935901 169.979759 
L 285.935901 170.003732 
L 286.935901 170.032353 
L 287.935901 170.074146 
L 288.935901 170.095722 
L 289.935901 170.10967 
L 290.935901 170.136393 
L 291.935901 170.145702 
L 292.935901 170.158149 
L 293.935901 170.169204 
L 294.935901 170.174869 
L 295.935901 170.179632 
L 296.935901 170.174085 
L 297.935901 170.160797 
L 298.935901 170.153279 
L 299.935901 170.128494 
L 300.935901 170.104926 
L 301.935901 170.068745 
L 302.935901 170.042783 
L 303.935901 170.020462 
L 304.935901 169.951702 
L 305.935901 169.877166 
L 306.935901 169.783187 
L 307.935901 169.732135 
L 308.935901 169.678201 
L 309.935901 169.642951 
L 310.935901 169.536863 
L 311.935901 169.484598 
L 312.935901 169.447692 
L 313.935901 169.416661 
L 314.935901 169.355505 
L 315.935901 169.288085 
L 316.935901 169.239179 
L 317.935901 169.173987 
L 318.935901 169.1358 
L 319.935901 169.093804 
L 320.935901 169.051786 
L 321.935901 168.99227 
L 322.935901 168.87911 
L 323.935901 168.826859 
L 324.935901 168.787442 
L 325.935901 168.74034 
L 326.935901 168.683561 
L 327.935901 168.650898 
L 328.935901 168.61472 
L 329.935901 168.582629 
L 330.935901 168.548349 
L 331.935901 168.489971 
L 332.935901 168.444786 
L 333.935901 168.415163 
L 334.935901 168.364777 
L 335.935901 168.339579 
L 336.935901 168.318528 
L 337.935901 168.28356 
L 338.935901 168.25927 
L 339.935901 168.245203 
L 340.935901 168.226262 
L 341.935901 168.2106 
L 342.935901 168.198048 
L 343.935901 168.192213 
L 344.935901 168.18533 
L 345.935901 168.180156 
L 346.935901 168.181939 
L 347.935901 168.184665 
L 348.935901 168.195818 
L 349.935901 168.224053 
L 350.935901 168.267841 
L 351.935901 168.28853 
L 352.935901 168.329504 
L 353.935901 168.369579 
L 354.935901 168.388688 
L 355.935901 168.411197 
L 356.935901 168.477849 
L 357.935901 168.527558 
L 358.935901 168.601265 
L 359.935901 168.632578 
L 360.935901 168.7092 
L 361.935901 168.747499 
L 362.935901 168.821615 
L 363.935901 168.925674 
L 364.935901 168.995504 
L 365.935901 169.100738 
L 366.935901 169.155753 
L 367.935901 169.279228 
L 368.935901 169.349787 
L 369.935901 169.465627 
L 370.935901 169.515807 
L 371.992224 169.551412 
" style="fill:none;stroke:#ff7f0e;stroke-linecap:square;stroke-opacity:0.5;stroke-width:0.2;"/>
   <path clip-path="url(#p81fa85ee0a)" d="M 178.935901 63.427231 
L 179.935901 63.458668 
L 180.935901 63.495608 
L 181.935901 63.593355 
L 182.935901 63.625876 
L 183.935901 63.699501 
L 184.935901 63.738066 
L 185.935901 63.77348 
L 186.935901 63.83112 
L 187.935901 63.901506 
L 188.935901 63.95347 
L 189.935901 64.01256 
L 190.935901 64.100881 
L 191.935901 64.147025 
L 192.935901 64.189436 
L 193.935901 64.219929 
L 194.935901 64.245974 
L 195.935901 64.267174 
L 196.935901 64.321475 
L 197.935901 64.349412 
L 198.935901 64.379136 
L 199.935901 64.404531 
L 200.935901 64.415732 
L 201.935901 64.425855 
L 202.935901 64.425651 
L 203.935901 64.416141 
L 204.935901 64.404488 
L 205.935901 64.373458 
L 206.935901 64.362291 
L 207.935901 64.332173 
L 208.935901 64.272396 
L 209.935901 64.235205 
L 210.935901 64.196108 
L 211.935901 64.153669 
L 212.935901 64.120904 
L 213.935901 64.053477 
L 214.935901 64.014351 
L 215.935901 63.971677 
L 216.935901 63.901096 
L 217.935901 63.864705 
L 218.935901 63.806302 
L 219.935901 63.69535 
L 220.935901 63.624691 
L 221.935901 63.511751 
L 222.935901 63.465979 
L 223.935901 63.404695 
L 224.935901 63.356196 
L 225.935901 63.275373 
L 226.935901 63.156854 
L 227.935901 63.086644 
L 228.935901 63.003381 
L 229.935901 62.970239 
L 230.935901 62.919002 
L 231.935901 62.850604 
L 232.935901 62.784388 
L 233.935901 62.707471 
L 234.935901 62.680156 
L 235.935901 62.653678 
L 236.935901 62.631028 
L 237.935901 62.611496 
L 238.935901 62.585102 
L 239.935901 62.535332 
L 240.935901 62.500258 
L 241.935901 62.464393 
L 242.935901 62.449025 
L 243.935901 62.433256 
L 244.935901 62.429844 
L 245.935901 62.427426 
L 246.935901 62.427912 
L 247.935901 62.429841 
L 248.935901 62.443098 
L 249.935901 62.451489 
L 250.935901 62.473026 
L 251.935901 62.496058 
L 252.935901 62.513292 
L 253.935901 62.531754 
L 254.935901 62.552207 
L 255.935901 62.568806 
L 256.935901 62.631585 
L 257.935901 62.70685 
L 258.935901 62.739489 
L 259.935901 62.807053 
L 260.935901 62.8611 
L 261.935901 62.894804 
L 262.935901 62.98493 
L 263.935901 63.013465 
L 264.935901 63.044951 
L 265.935901 63.075962 
L 266.935901 63.13077 
L 267.935901 63.195358 
L 268.935901 63.233553 
L 269.935901 63.329487 
L 270.935901 63.378745 
L 271.935901 63.422815 
L 272.935901 63.462938 
L 273.935901 63.571305 
L 274.935901 63.612933 
L 275.935901 63.675075 
L 276.935901 63.745037 
L 277.935901 63.849542 
L 278.935901 63.886529 
L 279.935901 63.932407 
L 280.935901 64.000901 
L 281.935901 64.049647 
L 282.935901 64.127244 
L 283.935901 64.157785 
L 284.935901 64.2273 
L 285.935901 64.251273 
L 286.935901 64.279894 
L 287.935901 64.321687 
L 288.935901 64.343263 
L 289.935901 64.357211 
L 290.935901 64.383934 
L 291.935901 64.393243 
L 292.935901 64.40569 
L 293.935901 64.416745 
L 294.935901 64.42241 
L 295.935901 64.427173 
L 296.935901 64.421626 
L 297.935901 64.408338 
L 298.935901 64.40082 
L 299.935901 64.376035 
L 300.935901 64.352467 
L 301.935901 64.316286 
L 302.935901 64.290324 
L 303.935901 64.268003 
L 304.935901 64.199243 
L 305.935901 64.124707 
L 306.935901 64.030728 
L 307.935901 63.979676 
L 308.935901 63.925742 
L 309.935901 63.890492 
L 310.935901 63.784404 
L 311.935901 63.732139 
L 312.935901 63.695233 
L 313.935901 63.664202 
L 314.935901 63.603046 
L 315.935901 63.535626 
L 316.935901 63.48672 
L 317.935901 63.421528 
L 318.935901 63.383341 
L 319.935901 63.341345 
L 320.935901 63.299327 
L 321.935901 63.239811 
L 322.935901 63.126651 
L 323.935901 63.0744 
L 324.935901 63.034983 
L 325.935901 62.987881 
L 326.935901 62.931102 
L 327.935901 62.898439 
L 328.935901 62.862261 
L 329.935901 62.83017 
L 330.935901 62.79589 
L 331.935901 62.737512 
L 332.935901 62.692327 
L 333.935901 62.662704 
L 334.935901 62.612318 
L 335.935901 62.58712 
L 336.935901 62.566069 
L 337.935901 62.531101 
L 338.935901 62.506811 
L 339.935901 62.492744 
L 340.935901 62.473803 
L 341.935901 62.458141 
L 342.935901 62.445589 
L 343.935901 62.439754 
L 344.935901 62.432871 
L 345.935901 62.427697 
L 346.935901 62.42948 
L 347.935901 62.432206 
L 348.935901 62.443359 
L 349.935901 62.471594 
L 350.935901 62.515382 
L 351.935901 62.536071 
L 352.935901 62.577045 
L 353.935901 62.61712 
L 354.935901 62.636229 
L 355.935901 62.658738 
L 356.935901 62.72539 
L 357.935901 62.775099 
L 358.935901 62.848806 
L 359.935901 62.880119 
L 360.935901 62.956741 
L 361.935901 62.99504 
L 362.935901 63.069156 
L 363.935901 63.173215 
L 364.935901 63.243045 
L 365.935901 63.348279 
L 366.935901 63.403294 
L 367.935901 63.526769 
L 368.935901 63.597328 
L 369.935901 63.713168 
L 370.935901 63.763348 
L 371.992224 63.798953 
" style="fill:none;stroke:#ff7f0e;stroke-linecap:square;stroke-opacity:0.5;stroke-width:0.2;"/>
   <path clip-path="url(#p81fa85ee0a)" d="M 178.935901 210.489177 
L 179.935901 210.520613 
L 180.935901 210.557554 
L 181.935901 210.6553 
L 182.935901 210.687822 
L 183.935901 210.761446 
L 184.935901 210.800012 
L 185.935901 210.835425 
L 186.935901 210.893065 
L 187.935901 210.963451 
L 188.935901 211.015415 
L 189.935901 211.074505 
L 190.935901 211.162826 
L 191.935901 211.20897 
L 192.935901 211.251381 
L 193.935901 211.281874 
L 194.935901 211.307919 
L 195.935901 211.329119 
L 196.935901 211.38342 
L 197.935901 211.411358 
L 198.935901 211.441082 
L 199.935901 211.466477 
L 200.935901 211.477677 
L 201.935901 211.487801 
L 202.935901 211.487597 
L 203.935901 211.478087 
L 204.935901 211.466433 
L 205.935901 211.435404 
L 206.935901 211.424236 
L 207.935901 211.394118 
L 208.935901 211.334341 
L 209.935901 211.29715 
L 210.935901 211.258054 
L 211.935901 211.215614 
L 212.935901 211.182849 
L 213.935901 211.115423 
L 214.935901 211.076297 
L 215.935901 211.033622 
L 216.935901 210.963042 
L 217.935901 210.926651 
L 218.935901 210.868248 
L 219.935901 210.757295 
L 220.935901 210.686637 
L 221.935901 210.573697 
L 222.935901 210.527924 
L 223.935901 210.466641 
L 224.935901 210.418141 
L 225.935901 210.337319 
L 226.935901 210.2188 
L 227.935901 210.148589 
L 228.935901 210.065327 
L 229.935901 210.032185 
L 230.935901 209.980948 
L 231.935901 209.912549 
L 232.935901 209.846334 
L 233.935901 209.769417 
L 234.935901 209.742101 
L 235.935901 209.715624 
L 236.935901 209.692973 
L 237.935901 209.673442 
L 238.935901 209.647048 
L 239.935901 209.597277 
L 240.935901 209.562204 
L 241.935901 209.526338 
L 242.935901 209.510971 
L 243.935901 209.495202 
L 244.935901 209.491789 
L 245.935901 209.489371 
L 246.935901 209.489858 
L 247.935901 209.491787 
L 248.935901 209.505044 
L 249.935901 209.513434 
L 250.935901 209.534971 
L 251.935901 209.558003 
L 252.935901 209.575237 
L 253.935901 209.593699 
L 254.935901 209.614152 
L 255.935901 209.630752 
L 256.935901 209.693531 
L 257.935901 209.768796 
L 258.935901 209.801435 
L 259.935901 209.868998 
L 260.935901 209.923045 
L 261.935901 209.95675 
L 262.935901 210.046876 
L 263.935901 210.075411 
L 264.935901 210.106897 
L 265.935901 210.137908 
L 266.935901 210.192716 
L 267.935901 210.257303 
L 268.935901 210.295498 
L 269.935901 210.391433 
L 270.935901 210.440691 
L 271.935901 210.48476 
L 272.935901 210.524884 
L 273.935901 210.633251 
L 274.935901 210.674879 
L 275.935901 210.73702 
L 276.935901 210.806983 
L 277.935901 210.911487 
L 278.935901 210.948475 
L 279.935901 210.994352 
L 280.935901 211.062846 
L 281.935901 211.111592 
L 282.935901 211.18919 
L 283.935901 211.21973 
L 284.935901 211.289245 
L 285.935901 211.313218 
L 286.935901 211.34184 
L 287.935901 211.383633 
L 288.935901 211.405209 
L 289.935901 211.419156 
L 290.935901 211.445879 
L 291.935901 211.455189 
L 292.935901 211.467635 
L 293.935901 211.47869 
L 294.935901 211.484355 
L 295.935901 211.489119 
L 296.935901 211.483571 
L 297.935901 211.470283 
L 298.935901 211.462765 
L 299.935901 211.437981 
L 300.935901 211.414412 
L 301.935901 211.378231 
L 302.935901 211.352269 
L 303.935901 211.329948 
L 304.935901 211.261188 
L 305.935901 211.186653 
L 306.935901 211.092673 
L 307.935901 211.041622 
L 308.935901 210.987688 
L 309.935901 210.952437 
L 310.935901 210.846349 
L 311.935901 210.794085 
L 312.935901 210.757178 
L 313.935901 210.726147 
L 314.935901 210.664992 
L 315.935901 210.597572 
L 316.935901 210.548666 
L 317.935901 210.483474 
L 318.935901 210.445286 
L 319.935901 210.40329 
L 320.935901 210.361273 
L 321.935901 210.301756 
L 322.935901 210.188596 
L 323.935901 210.136346 
L 324.935901 210.096928 
L 325.935901 210.049827 
L 326.935901 209.993047 
L 327.935901 209.960384 
L 328.935901 209.924206 
L 329.935901 209.892115 
L 330.935901 209.857836 
L 331.935901 209.799458 
L 332.935901 209.754273 
L 333.935901 209.724649 
L 334.935901 209.674263 
L 335.935901 209.649065 
L 336.935901 209.628015 
L 337.935901 209.593047 
L 338.935901 209.568757 
L 339.935901 209.55469 
L 340.935901 209.535748 
L 341.935901 209.520086 
L 342.935901 209.507535 
L 343.935901 209.501699 
L 344.935901 209.494816 
L 345.935901 209.489643 
L 346.935901 209.491425 
L 347.935901 209.494151 
L 348.935901 209.505304 
L 349.935901 209.53354 
L 350.935901 209.577327 
L 351.935901 209.598017 
L 352.935901 209.63899 
L 353.935901 209.679065 
L 354.935901 209.698175 
L 355.935901 209.720683 
L 356.935901 209.787335 
L 357.935901 209.837044 
L 358.935901 209.910751 
L 359.935901 209.942065 
L 360.935901 210.018687 
L 361.935901 210.056985 
L 362.935901 210.131102 
L 363.935901 210.23516 
L 364.935901 210.304991 
L 365.935901 210.410224 
L 366.935901 210.46524 
L 367.935901 210.588715 
L 368.935901 210.659274 
L 369.935901 210.775113 
L 370.935901 210.825294 
L 371.992224 210.860898 
" style="fill:none;stroke:#ff7f0e;stroke-linecap:square;stroke-opacity:0.5;stroke-width:0.2;"/>
   <g id="PolyCollection_1">
    <path clip-path="url(#p81fa85ee0a)" d="M 325.949503 7.2 
L 224.978622 7.2 
L 224.978622 57.844375 
L 325.949503 57.844375 
L 325.949503 57.844375 
L 325.949503 7.2 
z
" style="fill:#1f77b4;fill-opacity:0.5;"/>
   </g>
   <g id="PolyCollection_2">
    <path clip-path="url(#p81fa85ee0a)" d="M 174.493182 57.844375 
L 73.522301 57.844375 
L 73.522301 260.421875 
L 174.493182 260.421875 
L 174.493182 260.421875 
L 174.493182 57.844375 
z
" style="fill:#ff7f0e;fill-opacity:0.5;"/>
   </g>
   <g id="PolyCollection_3">
    <path clip-path="url(#p81fa85ee0a)" d="M 477.405824 57.844375 
L 376.434943 57.844375 
L 376.434943 260.421875 
L 477.405824 260.421875 
L 477.405824 260.421875 
L 477.405824 57.844375 
z
" style="fill:#2ca02c;fill-opacity:0.5;"/>
   </g>
   <g id="patch_3">
    <path clip-path="url(#p81fa85ee0a)" d="M 224.978622 7.2 
L 224.978622 57.844375 
M 325.949503 7.2 
L 325.949503 57.844375 
" style="fill:none;stroke:#ffffff;stroke-linejoin:miter;stroke-width:3;"/>
    <path clip-path="url(#p81fa85ee0a)" d="M 224.978622 7.2 
L 224.978622 57.844375 
M 325.949503 7.2 
L 325.949503 57.844375 
" style="fill:none;stroke:#1f77b4;stroke-linejoin:miter;"/>
    <g id="patch_4">
     <path clip-path="url(#p81fa85ee0a)" d="M 73.522301 57.844375 
L 73.522301 260.421875 
M 174.493182 57.844375 
L 174.493182 260.421875 
" style="fill:none;stroke:#ffffff;stroke-linejoin:miter;stroke-width:3;"/>
     <path clip-path="url(#p81fa85ee0a)" d="M 73.522301 57.844375 
L 73.522301 260.421875 
M 174.493182 57.844375 
L 174.493182 260.421875 
" style="fill:none;stroke:#ff7f0e;stroke-linejoin:miter;"/>
     <g id="patch_5">
      <path clip-path="url(#p81fa85ee0a)" d="M 376.434943 57.844375 
L 376.434943 260.421875 
M 477.405824 57.844375 
L 477.405824 260.421875 
" style="fill:none;stroke:#ffffff;stroke-linejoin:miter;stroke-width:3;"/>
      <path clip-path="url(#p81fa85ee0a)" d="M 376.434943 57.844375 
L 376.434943 260.421875 
M 477.405824 57.844375 
L 477.405824 260.421875 
" style="fill:none;stroke:#2ca02c;stroke-linejoin:miter;"/>
      <g id="matplotlib.axis_1">
       <g id="xtick_1">
        <g id="line2d_1"/>
        <g id="text_1">
         <!-- A -->
         <g transform="translate(120.587429 271.520312)scale(0.1 -0.1)">
          <defs>
           <path d="M 2188 4044 
L 1331 1722 
L 3047 1722 
L 2188 4044 
z
M 1831 4666 
L 2547 4666 
L 4325 0 
L 3669 0 
L 3244 1197 
L 1141 1197 
L 716 0 
L 50 0 
L 1831 4666 
z
" id="DejaVuSans-41" transform="scale(0.015625)"/>
          </defs>
          <use xlink:href="#DejaVuSans-41"/>
         </g>
        </g>
       </g>
       <g id="xtick_2">
        <g id="line2d_2"/>
        <g id="text_2">
         <!-- B -->
         <g transform="translate(423.489915 271.520312)scale(0.1 -0.1)">
          <defs>
           <path d="M 1259 2228 
L 1259 519 
L 2272 519 
Q 2781 519 3026 730 
Q 3272 941 3272 1375 
Q 3272 1813 3026 2020 
Q 2781 2228 2272 2228 
L 1259 2228 
z
M 1259 4147 
L 1259 2741 
L 2194 2741 
Q 2656 2741 2882 2914 
Q 3109 3088 3109 3444 
Q 3109 3797 2882 3972 
Q 2656 4147 2194 4147 
L 1259 4147 
z
M 628 4666 
L 2241 4666 
Q 2963 4666 3353 4366 
Q 3744 4066 3744 3513 
Q 3744 3084 3544 2831 
Q 3344 2578 2956 2516 
Q 3422 2416 3680 2098 
Q 3938 1781 3938 1306 
Q 3938 681 3513 340 
Q 3088 0 2303 0 
L 628 0 
L 628 4666 
z
" id="DejaVuSans-42" transform="scale(0.015625)"/>
          </defs>
          <use xlink:href="#DejaVuSans-42"/>
         </g>
        </g>
       </g>
      </g>
      <g id="matplotlib.axis_2">
       <g id="ytick_1">
        <g id="line2d_3">
         <defs>
          <path d="M 0 0 
L -3.5 0 
" id="m566f150bcc" style="stroke:#000000;stroke-width:0.8;"/>
         </defs>
         <g>
          <use style="stroke:#000000;stroke-width:0.8;" x="53.328125" xlink:href="#m566f150bcc" y="260.421875"/>
         </g>
        </g>
        <g id="text_3">
         <!-- 0 -->
         <g transform="translate(39.965625 264.221094)scale(0.1 -0.1)">
          <defs>
           <path d="M 2034 4250 
Q 1547 4250 1301 3770 
Q 1056 3291 1056 2328 
Q 1056 1369 1301 889 
Q 1547 409 2034 409 
Q 2525 409 2770 889 
Q 3016 1369 3016 2328 
Q 3016 3291 2770 3770 
Q 2525 4250 2034 4250 
z
M 2034 4750 
Q 2819 4750 3233 4129 
Q 3647 3509 3647 2328 
Q 3647 1150 3233 529 
Q 2819 -91 2034 -91 
Q 1250 -91 836 529 
Q 422 1150 422 2328 
Q 422 3509 836 4129 
Q 1250 4750 2034 4750 
z
" id="DejaVuSans-30" transform="scale(0.015625)"/>
          </defs>
          <use xlink:href="#DejaVuSans-30"/>
         </g>
        </g>
       </g>
       <g id="ytick_2">
        <g id="line2d_4">
         <g>
          <use style="stroke:#000000;stroke-width:0.8;" x="53.328125" xlink:href="#m566f150bcc" y="219.906375"/>
         </g>
        </g>
        <g id="text_4">
         <!-- 200 -->
         <g transform="translate(27.240625 223.705594)scale(0.1 -0.1)">
          <defs>
           <path d="M 1228 531 
L 3431 531 
L 3431 0 
L 469 0 
L 469 531 
Q 828 903 1448 1529 
Q 2069 2156 2228 2338 
Q 2531 2678 2651 2914 
Q 2772 3150 2772 3378 
Q 2772 3750 2511 3984 
Q 2250 4219 1831 4219 
Q 1534 4219 1204 4116 
Q 875 4013 500 3803 
L 500 4441 
Q 881 4594 1212 4672 
Q 1544 4750 1819 4750 
Q 2544 4750 2975 4387 
Q 3406 4025 3406 3419 
Q 3406 3131 3298 2873 
Q 3191 2616 2906 2266 
Q 2828 2175 2409 1742 
Q 1991 1309 1228 531 
z
" id="DejaVuSans-32" transform="scale(0.015625)"/>
          </defs>
          <use xlink:href="#DejaVuSans-32"/>
          <use x="63.623047" xlink:href="#DejaVuSans-30"/>
          <use x="127.246094" xlink:href="#DejaVuSans-30"/>
         </g>
        </g>
       </g>
       <g id="ytick_3">
        <g id="line2d_5">
         <g>
          <use style="stroke:#000000;stroke-width:0.8;" x="53.328125" xlink:href="#m566f150bcc" y="179.390875"/>
         </g>
        </g>
        <g id="text_5">
         <!-- 400 -->
         <g transform="translate(27.240625 183.190094)scale(0.1 -0.1)">
          <defs>
           <path d="M 2419 4116 
L 825 1625 
L 2419 1625 
L 2419 4116 
z
M 2253 4666 
L 3047 4666 
L 3047 1625 
L 3713 1625 
L 3713 1100 
L 3047 1100 
L 3047 0 
L 2419 0 
L 2419 1100 
L 313 1100 
L 313 1709 
L 2253 4666 
z
" id="DejaVuSans-34" transform="scale(0.015625)"/>
          </defs>
          <use xlink:href="#DejaVuSans-34"/>
          <use x="63.623047" xlink:href="#DejaVuSans-30"/>
          <use x="127.246094" xlink:href="#DejaVuSans-30"/>
         </g>
        </g>
       </g>
       <g id="ytick_4">
        <g id="line2d_6">
         <g>
          <use style="stroke:#000000;stroke-width:0.8;" x="53.328125" xlink:href="#m566f150bcc" y="138.875375"/>
         </g>
        </g>
        <g id="text_6">
         <!-- 600 -->
         <g transform="translate(27.240625 142.674594)scale(0.1 -0.1)">
          <defs>
           <path d="M 2113 2584 
Q 1688 2584 1439 2293 
Q 1191 2003 1191 1497 
Q 1191 994 1439 701 
Q 1688 409 2113 409 
Q 2538 409 2786 701 
Q 3034 994 3034 1497 
Q 3034 2003 2786 2293 
Q 2538 2584 2113 2584 
z
M 3366 4563 
L 3366 3988 
Q 3128 4100 2886 4159 
Q 2644 4219 2406 4219 
Q 1781 4219 1451 3797 
Q 1122 3375 1075 2522 
Q 1259 2794 1537 2939 
Q 1816 3084 2150 3084 
Q 2853 3084 3261 2657 
Q 3669 2231 3669 1497 
Q 3669 778 3244 343 
Q 2819 -91 2113 -91 
Q 1303 -91 875 529 
Q 447 1150 447 2328 
Q 447 3434 972 4092 
Q 1497 4750 2381 4750 
Q 2619 4750 2861 4703 
Q 3103 4656 3366 4563 
z
" id="DejaVuSans-36" transform="scale(0.015625)"/>
          </defs>
          <use xlink:href="#DejaVuSans-36"/>
          <use x="63.623047" xlink:href="#DejaVuSans-30"/>
          <use x="127.246094" xlink:href="#DejaVuSans-30"/>
         </g>
        </g>
       </g>
       <g id="ytick_5">
        <g id="line2d_7">
         <g>
          <use style="stroke:#000000;stroke-width:0.8;" x="53.328125" xlink:href="#m566f150bcc" y="98.359875"/>
         </g>
        </g>
        <g id="text_7">
         <!-- 800 -->
         <g transform="translate(27.240625 102.159094)scale(0.1 -0.1)">
          <defs>
           <path d="M 2034 2216 
Q 1584 2216 1326 1975 
Q 1069 1734 1069 1313 
Q 1069 891 1326 650 
Q 1584 409 2034 409 
Q 2484 409 2743 651 
Q 3003 894 3003 1313 
Q 3003 1734 2745 1975 
Q 2488 2216 2034 2216 
z
M 1403 2484 
Q 997 2584 770 2862 
Q 544 3141 544 3541 
Q 544 4100 942 4425 
Q 1341 4750 2034 4750 
Q 2731 4750 3128 4425 
Q 3525 4100 3525 3541 
Q 3525 3141 3298 2862 
Q 3072 2584 2669 2484 
Q 3125 2378 3379 2068 
Q 3634 1759 3634 1313 
Q 3634 634 3220 271 
Q 2806 -91 2034 -91 
Q 1263 -91 848 271 
Q 434 634 434 1313 
Q 434 1759 690 2068 
Q 947 2378 1403 2484 
z
M 1172 3481 
Q 1172 3119 1398 2916 
Q 1625 2713 2034 2713 
Q 2441 2713 2670 2916 
Q 2900 3119 2900 3481 
Q 2900 3844 2670 4047 
Q 2441 4250 2034 4250 
Q 1625 4250 1398 4047 
Q 1172 3844 1172 3481 
z
" id="DejaVuSans-38" transform="scale(0.015625)"/>
          </defs>
          <use xlink:href="#DejaVuSans-38"/>
          <use x="63.623047" xlink:href="#DejaVuSans-30"/>
          <use x="127.246094" xlink:href="#DejaVuSans-30"/>
         </g>
        </g>
       </g>
       <g id="ytick_6">
        <g id="line2d_8">
         <g>
          <use style="stroke:#000000;stroke-width:0.8;" x="53.328125" xlink:href="#m566f150bcc" y="57.844375"/>
         </g>
        </g>
        <g id="text_8">
         <!-- 1000 -->
         <g transform="translate(20.878125 61.643594)scale(0.1 -0.1)">
          <defs>
           <path d="M 794 531 
L 1825 531 
L 1825 4091 
L 703 3866 
L 703 4441 
L 1819 4666 
L 2450 4666 
L 2450 531 
L 3481 531 
L 3481 0 
L 794 0 
L 794 531 
z
" id="DejaVuSans-31" transform="scale(0.015625)"/>
          </defs>
          <use xlink:href="#DejaVuSans-31"/>
          <use x="63.623047" xlink:href="#DejaVuSans-30"/>
          <use x="127.246094" xlink:href="#DejaVuSans-30"/>
          <use x="190.869141" xlink:href="#DejaVuSans-30"/>
         </g>
        </g>
       </g>
       <g id="ytick_7">
        <g id="line2d_9">
         <g>
          <use style="stroke:#000000;stroke-width:0.8;" x="53.328125" xlink:href="#m566f150bcc" y="17.328875"/>
         </g>
        </g>
        <g id="text_9">
         <!-- 1200 -->
         <g transform="translate(20.878125 21.128094)scale(0.1 -0.1)">
          <use xlink:href="#DejaVuSans-31"/>
          <use x="63.623047" xlink:href="#DejaVuSans-32"/>
          <use x="127.246094" xlink:href="#DejaVuSans-30"/>
          <use x="190.869141" xlink:href="#DejaVuSans-30"/>
         </g>
        </g>
       </g>
       <g id="text_10">
        <!-- time ago (generations) -->
        <g transform="translate(14.798438 191.282031)rotate(-90)scale(0.1 -0.1)">
         <defs>
          <path d="M 1172 4494 
L 1172 3500 
L 2356 3500 
L 2356 3053 
L 1172 3053 
L 1172 1153 
Q 1172 725 1289 603 
Q 1406 481 1766 481 
L 2356 481 
L 2356 0 
L 1766 0 
Q 1100 0 847 248 
Q 594 497 594 1153 
L 594 3053 
L 172 3053 
L 172 3500 
L 594 3500 
L 594 4494 
L 1172 4494 
z
" id="DejaVuSans-74" transform="scale(0.015625)"/>
          <path d="M 603 3500 
L 1178 3500 
L 1178 0 
L 603 0 
L 603 3500 
z
M 603 4863 
L 1178 4863 
L 1178 4134 
L 603 4134 
L 603 4863 
z
" id="DejaVuSans-69" transform="scale(0.015625)"/>
          <path d="M 3328 2828 
Q 3544 3216 3844 3400 
Q 4144 3584 4550 3584 
Q 5097 3584 5394 3201 
Q 5691 2819 5691 2113 
L 5691 0 
L 5113 0 
L 5113 2094 
Q 5113 2597 4934 2840 
Q 4756 3084 4391 3084 
Q 3944 3084 3684 2787 
Q 3425 2491 3425 1978 
L 3425 0 
L 2847 0 
L 2847 2094 
Q 2847 2600 2669 2842 
Q 2491 3084 2119 3084 
Q 1678 3084 1418 2786 
Q 1159 2488 1159 1978 
L 1159 0 
L 581 0 
L 581 3500 
L 1159 3500 
L 1159 2956 
Q 1356 3278 1631 3431 
Q 1906 3584 2284 3584 
Q 2666 3584 2933 3390 
Q 3200 3197 3328 2828 
z
" id="DejaVuSans-6d" transform="scale(0.015625)"/>
          <path d="M 3597 1894 
L 3597 1613 
L 953 1613 
Q 991 1019 1311 708 
Q 1631 397 2203 397 
Q 2534 397 2845 478 
Q 3156 559 3463 722 
L 3463 178 
Q 3153 47 2828 -22 
Q 2503 -91 2169 -91 
Q 1331 -91 842 396 
Q 353 884 353 1716 
Q 353 2575 817 3079 
Q 1281 3584 2069 3584 
Q 2775 3584 3186 3129 
Q 3597 2675 3597 1894 
z
M 3022 2063 
Q 3016 2534 2758 2815 
Q 2500 3097 2075 3097 
Q 1594 3097 1305 2825 
Q 1016 2553 972 2059 
L 3022 2063 
z
" id="DejaVuSans-65" transform="scale(0.015625)"/>
          <path id="DejaVuSans-20" transform="scale(0.015625)"/>
          <path d="M 2194 1759 
Q 1497 1759 1228 1600 
Q 959 1441 959 1056 
Q 959 750 1161 570 
Q 1363 391 1709 391 
Q 2188 391 2477 730 
Q 2766 1069 2766 1631 
L 2766 1759 
L 2194 1759 
z
M 3341 1997 
L 3341 0 
L 2766 0 
L 2766 531 
Q 2569 213 2275 61 
Q 1981 -91 1556 -91 
Q 1019 -91 701 211 
Q 384 513 384 1019 
Q 384 1609 779 1909 
Q 1175 2209 1959 2209 
L 2766 2209 
L 2766 2266 
Q 2766 2663 2505 2880 
Q 2244 3097 1772 3097 
Q 1472 3097 1187 3025 
Q 903 2953 641 2809 
L 641 3341 
Q 956 3463 1253 3523 
Q 1550 3584 1831 3584 
Q 2591 3584 2966 3190 
Q 3341 2797 3341 1997 
z
" id="DejaVuSans-61" transform="scale(0.015625)"/>
          <path d="M 2906 1791 
Q 2906 2416 2648 2759 
Q 2391 3103 1925 3103 
Q 1463 3103 1205 2759 
Q 947 2416 947 1791 
Q 947 1169 1205 825 
Q 1463 481 1925 481 
Q 2391 481 2648 825 
Q 2906 1169 2906 1791 
z
M 3481 434 
Q 3481 -459 3084 -895 
Q 2688 -1331 1869 -1331 
Q 1566 -1331 1297 -1286 
Q 1028 -1241 775 -1147 
L 775 -588 
Q 1028 -725 1275 -790 
Q 1522 -856 1778 -856 
Q 2344 -856 2625 -561 
Q 2906 -266 2906 331 
L 2906 616 
Q 2728 306 2450 153 
Q 2172 0 1784 0 
Q 1141 0 747 490 
Q 353 981 353 1791 
Q 353 2603 747 3093 
Q 1141 3584 1784 3584 
Q 2172 3584 2450 3431 
Q 2728 3278 2906 2969 
L 2906 3500 
L 3481 3500 
L 3481 434 
z
" id="DejaVuSans-67" transform="scale(0.015625)"/>
          <path d="M 1959 3097 
Q 1497 3097 1228 2736 
Q 959 2375 959 1747 
Q 959 1119 1226 758 
Q 1494 397 1959 397 
Q 2419 397 2687 759 
Q 2956 1122 2956 1747 
Q 2956 2369 2687 2733 
Q 2419 3097 1959 3097 
z
M 1959 3584 
Q 2709 3584 3137 3096 
Q 3566 2609 3566 1747 
Q 3566 888 3137 398 
Q 2709 -91 1959 -91 
Q 1206 -91 779 398 
Q 353 888 353 1747 
Q 353 2609 779 3096 
Q 1206 3584 1959 3584 
z
" id="DejaVuSans-6f" transform="scale(0.015625)"/>
          <path d="M 1984 4856 
Q 1566 4138 1362 3434 
Q 1159 2731 1159 2009 
Q 1159 1288 1364 580 
Q 1569 -128 1984 -844 
L 1484 -844 
Q 1016 -109 783 600 
Q 550 1309 550 2009 
Q 550 2706 781 3412 
Q 1013 4119 1484 4856 
L 1984 4856 
z
" id="DejaVuSans-28" transform="scale(0.015625)"/>
          <path d="M 3513 2113 
L 3513 0 
L 2938 0 
L 2938 2094 
Q 2938 2591 2744 2837 
Q 2550 3084 2163 3084 
Q 1697 3084 1428 2787 
Q 1159 2491 1159 1978 
L 1159 0 
L 581 0 
L 581 3500 
L 1159 3500 
L 1159 2956 
Q 1366 3272 1645 3428 
Q 1925 3584 2291 3584 
Q 2894 3584 3203 3211 
Q 3513 2838 3513 2113 
z
" id="DejaVuSans-6e" transform="scale(0.015625)"/>
          <path d="M 2631 2963 
Q 2534 3019 2420 3045 
Q 2306 3072 2169 3072 
Q 1681 3072 1420 2755 
Q 1159 2438 1159 1844 
L 1159 0 
L 581 0 
L 581 3500 
L 1159 3500 
L 1159 2956 
Q 1341 3275 1631 3429 
Q 1922 3584 2338 3584 
Q 2397 3584 2469 3576 
Q 2541 3569 2628 3553 
L 2631 2963 
z
" id="DejaVuSans-72" transform="scale(0.015625)"/>
          <path d="M 2834 3397 
L 2834 2853 
Q 2591 2978 2328 3040 
Q 2066 3103 1784 3103 
Q 1356 3103 1142 2972 
Q 928 2841 928 2578 
Q 928 2378 1081 2264 
Q 1234 2150 1697 2047 
L 1894 2003 
Q 2506 1872 2764 1633 
Q 3022 1394 3022 966 
Q 3022 478 2636 193 
Q 2250 -91 1575 -91 
Q 1294 -91 989 -36 
Q 684 19 347 128 
L 347 722 
Q 666 556 975 473 
Q 1284 391 1588 391 
Q 1994 391 2212 530 
Q 2431 669 2431 922 
Q 2431 1156 2273 1281 
Q 2116 1406 1581 1522 
L 1381 1569 
Q 847 1681 609 1914 
Q 372 2147 372 2553 
Q 372 3047 722 3315 
Q 1072 3584 1716 3584 
Q 2034 3584 2315 3537 
Q 2597 3491 2834 3397 
z
" id="DejaVuSans-73" transform="scale(0.015625)"/>
          <path d="M 513 4856 
L 1013 4856 
Q 1481 4119 1714 3412 
Q 1947 2706 1947 2009 
Q 1947 1309 1714 600 
Q 1481 -109 1013 -844 
L 513 -844 
Q 928 -128 1133 580 
Q 1338 1288 1338 2009 
Q 1338 2731 1133 3434 
Q 928 4138 513 4856 
z
" id="DejaVuSans-29" transform="scale(0.015625)"/>
         </defs>
         <use xlink:href="#DejaVuSans-74"/>
         <use x="39.208984" xlink:href="#DejaVuSans-69"/>
         <use x="66.992188" xlink:href="#DejaVuSans-6d"/>
         <use x="164.404297" xlink:href="#DejaVuSans-65"/>
         <use x="225.927734" xlink:href="#DejaVuSans-20"/>
         <use x="257.714844" xlink:href="#DejaVuSans-61"/>
         <use x="318.994141" xlink:href="#DejaVuSans-67"/>
         <use x="382.470703" xlink:href="#DejaVuSans-6f"/>
         <use x="443.652344" xlink:href="#DejaVuSans-20"/>
         <use x="475.439453" xlink:href="#DejaVuSans-28"/>
         <use x="514.453125" xlink:href="#DejaVuSans-67"/>
         <use x="577.929688" xlink:href="#DejaVuSans-65"/>
         <use x="639.453125" xlink:href="#DejaVuSans-6e"/>
         <use x="702.832031" xlink:href="#DejaVuSans-65"/>
         <use x="764.355469" xlink:href="#DejaVuSans-72"/>
         <use x="805.46875" xlink:href="#DejaVuSans-61"/>
         <use x="866.748047" xlink:href="#DejaVuSans-74"/>
         <use x="905.957031" xlink:href="#DejaVuSans-69"/>
         <use x="933.740234" xlink:href="#DejaVuSans-6f"/>
         <use x="994.921875" xlink:href="#DejaVuSans-6e"/>
         <use x="1058.300781" xlink:href="#DejaVuSans-73"/>
         <use x="1110.400391" xlink:href="#DejaVuSans-29"/>
        </g>
       </g>
      </g>
      <g id="patch_6">
       <path clip-path="url(#p81fa85ee0a)" d="M 222.978802 57.844375 
L 221.978802 57.812939 
L 220.978802 57.775998 
L 219.978802 57.678252 
L 218.978802 57.64573 
L 217.978802 57.572105 
L 216.978802 57.53354 
L 215.978802 57.498127 
L 214.978802 57.440487 
L 213.978802 57.370101 
L 212.978802 57.318136 
L 211.978802 57.259047 
L 210.978802 57.170726 
L 209.978802 57.124581 
L 208.978802 57.08217 
L 207.978802 57.051678 
L 206.978802 57.025633 
L 205.978802 57.004433 
L 204.978802 56.950132 
L 203.978802 56.922194 
L 202.978802 56.89247 
L 201.978802 56.867075 
L 200.978802 56.855875 
L 199.978802 56.845751 
L 198.978802 56.845955 
L 197.978802 56.855465 
L 196.978802 56.867119 
L 195.978802 56.898148 
L 194.978802 56.909316 
L 193.978802 56.939433 
L 192.978802 56.99921 
L 191.978802 57.036402 
L 190.978802 57.075498 
L 189.978802 57.117938 
L 188.978802 57.150703 
L 187.978802 57.218129 
L 186.978802 57.257255 
L 185.978802 57.29993 
L 184.978802 57.37051 
L 183.978802 57.406901 
L 182.978802 57.465304 
L 181.978802 57.576257 
L 180.978802 57.646915 
L 179.978802 57.759855 
L 178.978802 57.805628 
L 177.608762 57.866911 
" style="fill:none;stroke:#ffffff;stroke-linecap:round;stroke-width:3;"/>
       <path clip-path="url(#p81fa85ee0a)" d="M 222.978802 57.844375 
L 221.978802 57.812939 
L 220.978802 57.775998 
L 219.978802 57.678252 
L 218.978802 57.64573 
L 217.978802 57.572105 
L 216.978802 57.53354 
L 215.978802 57.498127 
L 214.978802 57.440487 
L 213.978802 57.370101 
L 212.978802 57.318136 
L 211.978802 57.259047 
L 210.978802 57.170726 
L 209.978802 57.124581 
L 208.978802 57.08217 
L 207.978802 57.051678 
L 206.978802 57.025633 
L 205.978802 57.004433 
L 204.978802 56.950132 
L 203.978802 56.922194 
L 202.978802 56.89247 
L 201.978802 56.867075 
L 200.978802 56.855875 
L 199.978802 56.845751 
L 198.978802 56.845955 
L 197.978802 56.855465 
L 196.978802 56.867119 
L 195.978802 56.898148 
L 194.978802 56.909316 
L 193.978802 56.939433 
L 192.978802 56.99921 
L 191.978802 57.036402 
L 190.978802 57.075498 
L 189.978802 57.117938 
L 188.978802 57.150703 
L 187.978802 57.218129 
L 186.978802 57.257255 
L 185.978802 57.29993 
L 184.978802 57.37051 
L 183.978802 57.406901 
L 182.978802 57.465304 
L 181.978802 57.576257 
L 180.978802 57.646915 
L 179.978802 57.759855 
L 178.978802 57.805628 
L 177.608762 57.866911 
" style="fill:none;stroke:#1f77b4;stroke-linecap:round;"/>
       <path clip-path="url(#p81fa85ee0a)" d="M 181.608762 59.844375 
L 180.728393 59.369044 
L 179.850486 58.88879 
L 178.999773 58.354149 
L 177.697599 57.666702 
L 178.624952 57.640687 
L 179.536626 57.227967 
L 180.44689 56.812428 
L 181.789386 56.205624 
L 181.134487 56.844375 
L 181.082523 57.844375 
L 181.023433 59.844375 
L 181.608762 59.844375 
z
" style="fill:#ffffff;stroke:#ffffff;stroke-linecap:round;stroke-width:3;"/>
       <path clip-path="url(#p81fa85ee0a)" d="M 181.608762 59.844375 
L 180.728393 59.369044 
L 179.850486 58.88879 
L 178.999773 58.354149 
L 177.697599 57.666702 
L 178.624952 57.640687 
L 179.536626 57.227967 
L 180.44689 56.812428 
L 181.789386 56.205624 
L 181.134487 56.844375 
L 181.082523 57.844375 
L 181.023433 59.844375 
L 181.608762 59.844375 
z
" style="fill:#ffffff;stroke:#1f77b4;stroke-linecap:round;"/>
       <g id="patch_7">
        <path clip-path="url(#p81fa85ee0a)" d="M 327.949323 57.844375 
L 328.949323 57.875811 
L 329.949323 57.912752 
L 330.949323 58.010498 
L 331.949323 58.04302 
L 332.949323 58.116645 
L 333.949323 58.15521 
L 334.949323 58.190623 
L 335.949323 58.248263 
L 336.949323 58.318649 
L 337.949323 58.370614 
L 338.949323 58.429703 
L 339.949323 58.518024 
L 340.949323 58.564169 
L 341.949323 58.60658 
L 342.949323 58.637072 
L 343.949323 58.663117 
L 344.949323 58.684317 
L 345.949323 58.738618 
L 346.949323 58.766556 
L 347.949323 58.79628 
L 348.949323 58.821675 
L 349.949323 58.832875 
L 350.949323 58.842999 
L 351.949323 58.842795 
L 352.949323 58.833285 
L 353.949323 58.821631 
L 354.949323 58.790602 
L 355.949323 58.779434 
L 356.949323 58.749317 
L 357.949323 58.68954 
L 358.949323 58.652348 
L 359.949323 58.613252 
L 360.949323 58.570812 
L 361.949323 58.538047 
L 362.949323 58.470621 
L 363.949323 58.431495 
L 364.949323 58.38882 
L 365.949323 58.31824 
L 366.949323 58.281849 
L 367.949323 58.223446 
L 368.949323 58.112493 
L 369.949323 58.041835 
L 370.949323 57.928895 
L 371.949323 57.883122 
L 373.319363 57.821839 
" style="fill:none;stroke:#ffffff;stroke-linecap:round;stroke-width:3;"/>
        <path clip-path="url(#p81fa85ee0a)" d="M 327.949323 57.844375 
L 328.949323 57.875811 
L 329.949323 57.912752 
L 330.949323 58.010498 
L 331.949323 58.04302 
L 332.949323 58.116645 
L 333.949323 58.15521 
L 334.949323 58.190623 
L 335.949323 58.248263 
L 336.949323 58.318649 
L 337.949323 58.370614 
L 338.949323 58.429703 
L 339.949323 58.518024 
L 340.949323 58.564169 
L 341.949323 58.60658 
L 342.949323 58.637072 
L 343.949323 58.663117 
L 344.949323 58.684317 
L 345.949323 58.738618 
L 346.949323 58.766556 
L 347.949323 58.79628 
L 348.949323 58.821675 
L 349.949323 58.832875 
L 350.949323 58.842999 
L 351.949323 58.842795 
L 352.949323 58.833285 
L 353.949323 58.821631 
L 354.949323 58.790602 
L 355.949323 58.779434 
L 356.949323 58.749317 
L 357.949323 58.68954 
L 358.949323 58.652348 
L 359.949323 58.613252 
L 360.949323 58.570812 
L 361.949323 58.538047 
L 362.949323 58.470621 
L 363.949323 58.431495 
L 364.949323 58.38882 
L 365.949323 58.31824 
L 366.949323 58.281849 
L 367.949323 58.223446 
L 368.949323 58.112493 
L 369.949323 58.041835 
L 370.949323 57.928895 
L 371.949323 57.883122 
L 373.319363 57.821839 
" style="fill:none;stroke:#1f77b4;stroke-linecap:round;"/>
        <path clip-path="url(#p81fa85ee0a)" d="M 369.319363 55.844375 
L 370.199732 56.319706 
L 371.077639 56.79996 
L 371.928352 57.334601 
L 373.230526 58.022048 
L 372.303173 58.048063 
L 371.391499 58.460783 
L 370.481235 58.876322 
L 369.138739 59.483126 
L 369.793638 58.844375 
L 369.845602 57.844375 
L 369.904692 55.844375 
L 369.319363 55.844375 
z
" style="fill:#ffffff;stroke:#ffffff;stroke-linecap:round;stroke-width:3;"/>
        <path clip-path="url(#p81fa85ee0a)" d="M 369.319363 55.844375 
L 370.199732 56.319706 
L 371.077639 56.79996 
L 371.928352 57.334601 
L 373.230526 58.022048 
L 372.303173 58.048063 
L 371.391499 58.460783 
L 370.481235 58.876322 
L 369.138739 59.483126 
L 369.793638 58.844375 
L 369.845602 57.844375 
L 369.904692 55.844375 
L 369.319363 55.844375 
z
" style="fill:#ffffff;stroke:#1f77b4;stroke-linecap:round;"/>
        <path clip-path="url(#p81fa85ee0a)" d="M 372.992224 250.386934 
L 370.992224 249.386934 
L 370.992224 251.386934 
z
" style="fill:#ff7f0e;fill-opacity:0.5;stroke:#ff7f0e;stroke-linejoin:miter;stroke-opacity:0.5;"/>
        <path clip-path="url(#p81fa85ee0a)" d="M 372.992224 87.047869 
L 370.992224 86.047869 
L 370.992224 88.047869 
z
" style="fill:#ff7f0e;fill-opacity:0.5;stroke:#ff7f0e;stroke-linejoin:miter;stroke-opacity:0.5;"/>
        <path clip-path="url(#p81fa85ee0a)" d="M 372.992224 250.019408 
L 370.992224 249.019408 
L 370.992224 251.019408 
z
" style="fill:#ff7f0e;fill-opacity:0.5;stroke:#ff7f0e;stroke-linejoin:miter;stroke-opacity:0.5;"/>
        <path clip-path="url(#p81fa85ee0a)" d="M 372.992224 121.014411 
L 370.992224 120.014411 
L 370.992224 122.014411 
z
" style="fill:#ff7f0e;fill-opacity:0.5;stroke:#ff7f0e;stroke-linejoin:miter;stroke-opacity:0.5;"/>
        <path clip-path="url(#p81fa85ee0a)" d="M 372.992224 143.600789 
L 370.992224 142.600789 
L 370.992224 144.600789 
z
" style="fill:#ff7f0e;fill-opacity:0.5;stroke:#ff7f0e;stroke-linejoin:miter;stroke-opacity:0.5;"/>
        <path clip-path="url(#p81fa85ee0a)" d="M 372.992224 225.518297 
L 370.992224 224.518297 
L 370.992224 226.518297 
z
" style="fill:#ff7f0e;fill-opacity:0.5;stroke:#ff7f0e;stroke-linejoin:miter;stroke-opacity:0.5;"/>
        <path clip-path="url(#p81fa85ee0a)" d="M 372.992224 140.738913 
L 370.992224 139.738913 
L 370.992224 141.738913 
z
" style="fill:#ff7f0e;fill-opacity:0.5;stroke:#ff7f0e;stroke-linejoin:miter;stroke-opacity:0.5;"/>
        <path clip-path="url(#p81fa85ee0a)" d="M 372.992224 169.17969 
L 370.992224 168.17969 
L 370.992224 170.17969 
z
" style="fill:#ff7f0e;fill-opacity:0.5;stroke:#ff7f0e;stroke-linejoin:miter;stroke-opacity:0.5;"/>
        <path clip-path="url(#p81fa85ee0a)" d="M 372.992224 63.427231 
L 370.992224 62.427231 
L 370.992224 64.427231 
z
" style="fill:#ff7f0e;fill-opacity:0.5;stroke:#ff7f0e;stroke-linejoin:miter;stroke-opacity:0.5;"/>
        <path clip-path="url(#p81fa85ee0a)" d="M 372.992224 210.489177 
L 370.992224 209.489177 
L 370.992224 211.489177 
z
" style="fill:#ff7f0e;fill-opacity:0.5;stroke:#ff7f0e;stroke-linejoin:miter;stroke-opacity:0.5;"/>
        <g id="patch_8">
         <path d="M 53.328125 260.421875 
L 53.328125 7.2 
" style="fill:none;stroke:#000000;stroke-linecap:square;stroke-linejoin:miter;stroke-width:0.8;"/>
        </g>
        <g id="text_11">
         <g id="patch_9">
          <path d="M 272.039062 39.36125 
L 278.889063 39.36125 
Q 280.889063 39.36125 280.889063 37.36125 
L 280.889063 27.683125 
Q 280.889063 25.683125 278.889063 25.683125 
L 272.039062 25.683125 
Q 270.039062 25.683125 270.039062 27.683125 
L 270.039062 37.36125 
Q 270.039062 39.36125 272.039062 39.36125 
z
" style="fill:#ffffff;opacity:0.6;"/>
         </g>
         <!-- X -->
         <g transform="translate(272.039062 35.281562)scale(0.1 -0.1)">
          <defs>
           <path d="M 403 4666 
L 1081 4666 
L 2241 2931 
L 3406 4666 
L 4084 4666 
L 2584 2425 
L 4184 0 
L 3506 0 
L 2194 1984 
L 872 0 
L 191 0 
L 1856 2491 
L 403 4666 
z
" id="DejaVuSans-58" transform="scale(0.015625)"/>
          </defs>
          <use xlink:href="#DejaVuSans-58"/>
         </g>
        </g>
       </g>
      </g>
      <defs>
       <clipPath id="p81fa85ee0a">
        <rect height="253.221875" width="444.271875" x="53.328125" y="7.2"/>
       </clipPath>
      </defs>
     </g>
    </g>
   </g>
  </g>
 </g>
</svg>
